M48
; DRILL file {KiCad 9.0.6} date 2026-03-19T15:14:52+0200
; FORMAT={-:-/ absolute / metric / decimal}
; #@! TF.CreationDate,2026-03-19T15:14:52+02:00
; #@! TF.GenerationSoftware,Kicad,Pcbnew,9.0.6
; #@! TF.FileFunction,Plated,1,4,PTH
FMAT,2
METRIC
; #@! TA.AperFunction,Plated,PTH,ViaDrill
T1C0.300
; #@! TA.AperFunction,Plated,PTH,ComponentDrill
T2C0.400
; #@! TA.AperFunction,Plated,PTH,ComponentDrill
T3C0.600
; #@! TA.AperFunction,Plated,PTH,ComponentDrill
T4C1.000
; #@! TA.AperFunction,Plated,PTH,ComponentDrill
T5C1.050
; #@! TA.AperFunction,Plated,PTH,ComponentDrill
T6C1.100
%
G90
G05
T1
X105.0Y-100.0
X107.0Y-140.0
X109.5Y-141.425
X110.0Y-135.0
X112.5Y-99.0
X119.0Y-140.5
X119.0Y-142.125
X120.0Y-110.0
X120.0Y-135.0
X120.0Y-140.5
X123.5Y-140.5
X132.0Y-120.25
X134.25Y-120.25
X135.0Y-105.0
X136.0Y-122.0
X137.5Y-115.0
X138.5Y-116.5
X138.5Y-120.0
X139.0Y-112.0
X139.0Y-117.65
X139.0Y-119.5
X139.75Y-126.5
X140.0Y-140.0
X140.5Y-108.0
X141.25Y-126.75
X142.5Y-107.0
X142.625Y-111.125
X143.5Y-101.5
X143.5Y-116.0
X144.375Y-108.862
X144.875Y-110.241
X145.0Y-105.0
X145.692Y-109.308
X145.881Y-111.502
X146.0Y-124.75
X146.681Y-111.491
X146.75Y-126.25
X147.5Y-111.5
X148.5Y-104.0
X149.5Y-108.0
X150.0Y-135.0
X150.5Y-115.0
X150.5Y-117.0
X153.5Y-95.5
X153.5Y-102.5
X155.0Y-113.0
X155.0Y-115.0
X155.0Y-117.0
X155.0Y-119.0
X158.0Y-101.5
X159.5Y-106.5
X159.5Y-108.5
X160.0Y-125.0
X160.0Y-135.0
X170.0Y-100.0
X170.0Y-115.0
X170.0Y-135.0
X175.0Y-142.5
X177.5Y-142.0
X180.0Y-100.0
X180.0Y-115.0
X180.0Y-125.0
T2
X141.7Y-97.5
X141.7Y-98.85
X142.55Y-97.5
X142.55Y-98.85
X143.4Y-97.5
X143.4Y-98.85
X144.25Y-97.5
X144.25Y-98.85
X145.1Y-97.5
X145.1Y-98.85
X145.95Y-97.5
X145.95Y-98.85
X146.8Y-97.5
X146.8Y-98.85
X147.65Y-97.5
X147.65Y-98.85
T4
X107.0Y-106.13
X107.0Y-108.67
X107.0Y-111.21
X107.0Y-113.75
X107.0Y-116.29
X107.0Y-118.83
X107.0Y-121.37
X107.0Y-123.91
X107.0Y-126.45
X107.0Y-128.99
X109.54Y-106.13
X109.54Y-108.67
X109.54Y-111.21
X109.54Y-113.75
X109.54Y-116.29
X109.54Y-118.83
X109.54Y-121.37
X109.54Y-123.91
X109.54Y-126.45
X109.54Y-128.99
X116.46Y-95.725
X116.46Y-98.265
X119.0Y-95.725
X119.0Y-98.265
X121.54Y-95.725
X121.54Y-98.265
T5
X111.5Y-139.6
X179.5Y-140.0
T6
X127.75Y-95.75
X127.75Y-100.25
X134.25Y-95.75
X134.25Y-100.25
T3
G00X140.35Y-94.89
M15
G01X140.35Y-94.09
M16
G05
G00X140.35Y-98.62
M15
G01X140.35Y-97.12
M16
G05
G00X149.0Y-94.89
M15
G01X149.0Y-94.09
M16
G05
G00X149.0Y-98.62
M15
G01X149.0Y-97.12
M16
G05
M30
