%TF.GenerationSoftware,KiCad,Pcbnew,9.0.6*%
%TF.CreationDate,2026-03-19T15:14:55+02:00*%
%TF.ProjectId,sound_spectrum_v1,736f756e-645f-4737-9065-637472756d5f,rev?*%
%TF.SameCoordinates,Original*%
%TF.FileFunction,Copper,L1,Top*%
%TF.FilePolarity,Positive*%
%FSLAX46Y46*%
G04 Gerber Fmt 4.6, Leading zero omitted, Abs format (unit mm)*
G04 Created by KiCad (PCBNEW 9.0.6) date 2026-03-19 15:14:55*
%MOMM*%
%LPD*%
G01*
G04 APERTURE LIST*
G04 Aperture macros list*
%AMRoundRect*
0 Rectangle with rounded corners*
0 $1 Rounding radius*
0 $2 $3 $4 $5 $6 $7 $8 $9 X,Y pos of 4 corners*
0 Add a 4 corners polygon primitive as box body*
4,1,4,$2,$3,$4,$5,$6,$7,$8,$9,$2,$3,0*
0 Add four circle primitives for the rounded corners*
1,1,$1+$1,$2,$3*
1,1,$1+$1,$4,$5*
1,1,$1+$1,$6,$7*
1,1,$1+$1,$8,$9*
0 Add four rect primitives between the rounded corners*
20,1,$1+$1,$2,$3,$4,$5,0*
20,1,$1+$1,$4,$5,$6,$7,0*
20,1,$1+$1,$6,$7,$8,$9,0*
20,1,$1+$1,$8,$9,$2,$3,0*%
G04 Aperture macros list end*
%TA.AperFunction,EtchedComponent*%
%ADD10C,0.000000*%
%TD*%
%TA.AperFunction,ComponentPad*%
%ADD11O,0.900000X1.700000*%
%TD*%
%TA.AperFunction,ComponentPad*%
%ADD12O,0.900000X2.400000*%
%TD*%
%TA.AperFunction,ComponentPad*%
%ADD13C,0.700000*%
%TD*%
%TA.AperFunction,SMDPad,CuDef*%
%ADD14RoundRect,0.225000X-0.325000X-0.225000X0.325000X-0.225000X0.325000X0.225000X-0.325000X0.225000X0*%
%TD*%
%TA.AperFunction,SMDPad,CuDef*%
%ADD15RoundRect,0.250000X-0.337500X-0.475000X0.337500X-0.475000X0.337500X0.475000X-0.337500X0.475000X0*%
%TD*%
%TA.AperFunction,SMDPad,CuDef*%
%ADD16RoundRect,0.250000X0.475000X-0.337500X0.475000X0.337500X-0.475000X0.337500X-0.475000X-0.337500X0*%
%TD*%
%TA.AperFunction,SMDPad,CuDef*%
%ADD17RoundRect,0.250000X0.450000X-0.350000X0.450000X0.350000X-0.450000X0.350000X-0.450000X-0.350000X0*%
%TD*%
%TA.AperFunction,SMDPad,CuDef*%
%ADD18RoundRect,0.150000X-0.150000X0.512500X-0.150000X-0.512500X0.150000X-0.512500X0.150000X0.512500X0*%
%TD*%
%TA.AperFunction,SMDPad,CuDef*%
%ADD19RoundRect,0.250000X-0.450000X0.325000X-0.450000X-0.325000X0.450000X-0.325000X0.450000X0.325000X0*%
%TD*%
%TA.AperFunction,SMDPad,CuDef*%
%ADD20RoundRect,0.075000X0.075000X-0.662500X0.075000X0.662500X-0.075000X0.662500X-0.075000X-0.662500X0*%
%TD*%
%TA.AperFunction,SMDPad,CuDef*%
%ADD21RoundRect,0.075000X0.662500X-0.075000X0.662500X0.075000X-0.662500X0.075000X-0.662500X-0.075000X0*%
%TD*%
%TA.AperFunction,SMDPad,CuDef*%
%ADD22RoundRect,0.250000X-0.475000X0.337500X-0.475000X-0.337500X0.475000X-0.337500X0.475000X0.337500X0*%
%TD*%
%TA.AperFunction,SMDPad,CuDef*%
%ADD23RoundRect,0.250000X-0.275000X-0.350000X0.275000X-0.350000X0.275000X0.350000X-0.275000X0.350000X0*%
%TD*%
%TA.AperFunction,ComponentPad*%
%ADD24R,1.700000X1.700000*%
%TD*%
%TA.AperFunction,ComponentPad*%
%ADD25C,1.700000*%
%TD*%
%TA.AperFunction,ComponentPad*%
%ADD26C,2.000000*%
%TD*%
%TA.AperFunction,SMDPad,CuDef*%
%ADD27R,1.500000X1.000000*%
%TD*%
%TA.AperFunction,SMDPad,CuDef*%
%ADD28RoundRect,0.250000X-0.450000X0.350000X-0.450000X-0.350000X0.450000X-0.350000X0.450000X0.350000X0*%
%TD*%
%TA.AperFunction,SMDPad,CuDef*%
%ADD29RoundRect,0.250000X0.337500X0.475000X-0.337500X0.475000X-0.337500X-0.475000X0.337500X-0.475000X0*%
%TD*%
%TA.AperFunction,SMDPad,CuDef*%
%ADD30RoundRect,0.150000X0.150000X-0.512500X0.150000X0.512500X-0.150000X0.512500X-0.150000X-0.512500X0*%
%TD*%
%TA.AperFunction,ComponentPad*%
%ADD31C,1.650000*%
%TD*%
%TA.AperFunction,ViaPad*%
%ADD32C,0.600000*%
%TD*%
%TA.AperFunction,Conductor*%
%ADD33C,0.250000*%
%TD*%
%TA.AperFunction,Conductor*%
%ADD34C,0.500000*%
%TD*%
%TA.AperFunction,Conductor*%
%ADD35C,0.200000*%
%TD*%
%TA.AperFunction,Conductor*%
%ADD36C,0.254000*%
%TD*%
G04 APERTURE END LIST*
D10*
%TA.AperFunction,EtchedComponent*%
%TO.C,JP1*%
G36*
X136800000Y-118900000D02*
G01*
X136400000Y-118900000D01*
X136400000Y-118400000D01*
X136800000Y-118400000D01*
X136800000Y-118900000D01*
G37*
%TD.AperFunction*%
%TA.AperFunction,EtchedComponent*%
G36*
X137600000Y-118900000D02*
G01*
X137200000Y-118900000D01*
X137200000Y-118400000D01*
X137600000Y-118400000D01*
X137600000Y-118900000D01*
G37*
%TD.AperFunction*%
%TD*%
D11*
%TO.P,P1,S1,SHIELD*%
%TO.N,GND*%
X140350000Y-94490000D03*
D12*
X140350000Y-97870000D03*
D11*
X149000000Y-94490000D03*
D12*
X149000000Y-97870000D03*
D13*
%TO.P,P1,B12,GND*%
X147650000Y-97500000D03*
%TO.P,P1,B9,VBUS*%
%TO.N,VBUS*%
X146800000Y-97500000D03*
%TO.P,P1,B8*%
%TO.N,N/C*%
X145950000Y-97500000D03*
%TO.P,P1,B7*%
X145100000Y-97500000D03*
%TO.P,P1,B6*%
X144250000Y-97500000D03*
%TO.P,P1,B5,VCONN*%
%TO.N,unconnected-(P1-VCONN-PadB5)*%
X143400000Y-97500000D03*
%TO.P,P1,B4,VBUS*%
%TO.N,VBUS*%
X142550000Y-97500000D03*
%TO.P,P1,B1,GND*%
%TO.N,GND*%
X141700000Y-97500000D03*
%TO.P,P1,A12,GND*%
X141700000Y-98850000D03*
%TO.P,P1,A9,VBUS*%
%TO.N,VBUS*%
X142550000Y-98850000D03*
%TO.P,P1,A8*%
%TO.N,N/C*%
X143400000Y-98850000D03*
%TO.P,P1,A7,D-*%
%TO.N,USB_DM_EXT*%
X144250000Y-98850000D03*
%TO.P,P1,A6,D+*%
%TO.N,USB_DP_EXT*%
X145100000Y-98850000D03*
%TO.P,P1,A5,CC*%
%TO.N,Net-(P1-CC)*%
X145950000Y-98850000D03*
%TO.P,P1,A4,VBUS*%
%TO.N,VBUS*%
X146800000Y-98850000D03*
%TO.P,P1,A1,GND*%
%TO.N,GND*%
X147650000Y-98850000D03*
%TD*%
D14*
%TO.P,Y2,1,~{ST}*%
%TO.N,+3.3V*%
X143150000Y-124400000D03*
%TO.P,Y2,2,GND*%
%TO.N,GND*%
X144850000Y-124400000D03*
%TO.P,Y2,3,OUT*%
%TO.N,Net-(U1-PF0)*%
X144850000Y-123100000D03*
%TO.P,Y2,4,Vcc*%
%TO.N,+3.3V*%
X143150000Y-123100000D03*
%TD*%
D15*
%TO.P,C15,1*%
%TO.N,+3.3V*%
X143212500Y-126250000D03*
%TO.P,C15,2*%
%TO.N,GND*%
X145287500Y-126250000D03*
%TD*%
D16*
%TO.P,C14,1*%
%TO.N,GND*%
X112250000Y-98037500D03*
%TO.P,C14,2*%
%TO.N,NRST*%
X112250000Y-95962500D03*
%TD*%
D17*
%TO.P,R5,1*%
%TO.N,I2C_SDA*%
X134250000Y-119000000D03*
%TO.P,R5,2*%
%TO.N,+3.3V*%
X134250000Y-117000000D03*
%TD*%
D15*
%TO.P,C1,1*%
%TO.N,+3.3V*%
X151962500Y-119000000D03*
%TO.P,C1,2*%
%TO.N,GND*%
X154037500Y-119000000D03*
%TD*%
D17*
%TO.P,R1,1*%
%TO.N,Net-(U2-EN)*%
X151000000Y-103500000D03*
%TO.P,R1,2*%
%TO.N,VBUS*%
X151000000Y-101500000D03*
%TD*%
D18*
%TO.P,U2,1,VIN*%
%TO.N,VBUS*%
X154650000Y-104000000D03*
%TO.P,U2,2,GND*%
%TO.N,GND*%
X153700000Y-104000000D03*
%TO.P,U2,3,EN*%
%TO.N,Net-(U2-EN)*%
X152750000Y-104000000D03*
%TO.P,U2,4,NC*%
%TO.N,unconnected-(U2-NC-Pad4)*%
X152750000Y-106275000D03*
%TO.P,U2,5,VOUT*%
%TO.N,+3.3V*%
X154650000Y-106275000D03*
%TD*%
D19*
%TO.P,D2,1,K*%
%TO.N,GND*%
X153500000Y-96475000D03*
%TO.P,D2,2,A*%
%TO.N,Net-(D2-A)*%
X153500000Y-98525000D03*
%TD*%
D17*
%TO.P,R6,1*%
%TO.N,I2C_SCL*%
X132000000Y-119000000D03*
%TO.P,R6,2*%
%TO.N,+3.3V*%
X132000000Y-117000000D03*
%TD*%
D16*
%TO.P,C8,1*%
%TO.N,+3.3V*%
X149500000Y-110787500D03*
%TO.P,C8,2*%
%TO.N,GND*%
X149500000Y-108712500D03*
%TD*%
D20*
%TO.P,U1,1,VBAT*%
%TO.N,+3.3V*%
X142250000Y-121162500D03*
%TO.P,U1,2,PC13*%
%TO.N,unconnected-(U1-PC13-Pad2)*%
X142750000Y-121162500D03*
%TO.P,U1,3,PC14*%
%TO.N,unconnected-(U1-PC14-Pad3)*%
X143250000Y-121162500D03*
%TO.P,U1,4,PC15*%
%TO.N,unconnected-(U1-PC15-Pad4)*%
X143750000Y-121162500D03*
%TO.P,U1,5,PF0*%
%TO.N,Net-(U1-PF0)*%
X144250000Y-121162500D03*
%TO.P,U1,6,PF1*%
%TO.N,unconnected-(U1-PF1-Pad6)*%
X144750000Y-121162500D03*
%TO.P,U1,7,PG10*%
%TO.N,NRST*%
X145250000Y-121162500D03*
%TO.P,U1,8,PA0*%
%TO.N,unconnected-(U1-PA0-Pad8)*%
X145750000Y-121162500D03*
%TO.P,U1,9,PA1*%
%TO.N,unconnected-(U1-PA1-Pad9)*%
X146250000Y-121162500D03*
%TO.P,U1,10,PA2*%
%TO.N,unconnected-(U1-PA2-Pad10)*%
X146750000Y-121162500D03*
%TO.P,U1,11,PA3*%
%TO.N,unconnected-(U1-PA3-Pad11)*%
X147250000Y-121162500D03*
%TO.P,U1,12,PA4*%
%TO.N,SPI_NSS*%
X147750000Y-121162500D03*
D21*
%TO.P,U1,13,PA5*%
%TO.N,SPI_SCK*%
X149162500Y-119750000D03*
%TO.P,U1,14,PA6*%
%TO.N,SPI_MISO*%
X149162500Y-119250000D03*
%TO.P,U1,15,PA7*%
%TO.N,SPI_MOSI*%
X149162500Y-118750000D03*
%TO.P,U1,16,PB0*%
%TO.N,unconnected-(U1-PB0-Pad16)*%
X149162500Y-118250000D03*
%TO.P,U1,17,PB1*%
%TO.N,unconnected-(U1-PB1-Pad17)*%
X149162500Y-117750000D03*
%TO.P,U1,18,PB2*%
%TO.N,unconnected-(U1-PB2-Pad18)*%
X149162500Y-117250000D03*
%TO.P,U1,19,VSSA*%
%TO.N,GND*%
X149162500Y-116750000D03*
%TO.P,U1,20,VREF+*%
%TO.N,+3.3V*%
X149162500Y-116250000D03*
%TO.P,U1,21,VDDA*%
X149162500Y-115750000D03*
%TO.P,U1,22,PB10*%
%TO.N,unconnected-(U1-PB10-Pad22)*%
X149162500Y-115250000D03*
%TO.P,U1,23,VSS*%
%TO.N,GND*%
X149162500Y-114750000D03*
%TO.P,U1,24,VDD*%
%TO.N,+3.3V*%
X149162500Y-114250000D03*
D20*
%TO.P,U1,25,PB11*%
%TO.N,unconnected-(U1-PB11-Pad25)*%
X147750000Y-112837500D03*
%TO.P,U1,26,PB12*%
%TO.N,I2S_WS*%
X147250000Y-112837500D03*
%TO.P,U1,27,PB13*%
%TO.N,I2S_CK*%
X146750000Y-112837500D03*
%TO.P,U1,28,PB14*%
%TO.N,unconnected-(U1-PB14-Pad28)*%
X146250000Y-112837500D03*
%TO.P,U1,29,PB15*%
%TO.N,I2S_SD*%
X145750000Y-112837500D03*
%TO.P,U1,30,PA8*%
%TO.N,UART_CK*%
X145250000Y-112837500D03*
%TO.P,U1,31,PA9*%
%TO.N,UART_TX*%
X144750000Y-112837500D03*
%TO.P,U1,32,PA10*%
%TO.N,UART_RX*%
X144250000Y-112837500D03*
%TO.P,U1,33,PA11*%
%TO.N,USB_DM*%
X143750000Y-112837500D03*
%TO.P,U1,34,PA12*%
%TO.N,USB_DP*%
X143250000Y-112837500D03*
%TO.P,U1,35,VSS*%
%TO.N,GND*%
X142750000Y-112837500D03*
%TO.P,U1,36,VDD*%
%TO.N,+3.3V*%
X142250000Y-112837500D03*
D21*
%TO.P,U1,37,PA13*%
%TO.N,SWDIO*%
X140837500Y-114250000D03*
%TO.P,U1,38,PA14*%
%TO.N,SWCLK*%
X140837500Y-114750000D03*
%TO.P,U1,39,PA15*%
%TO.N,I2C_SCL*%
X140837500Y-115250000D03*
%TO.P,U1,40,PB3*%
%TO.N,SWO*%
X140837500Y-115750000D03*
%TO.P,U1,41,PB4*%
%TO.N,unconnected-(U1-PB4-Pad41)*%
X140837500Y-116250000D03*
%TO.P,U1,42,PB5*%
%TO.N,unconnected-(U1-PB5-Pad42)*%
X140837500Y-116750000D03*
%TO.P,U1,43,PB6*%
%TO.N,unconnected-(U1-PB6-Pad43)*%
X140837500Y-117250000D03*
%TO.P,U1,44,PB7*%
%TO.N,I2C_SDA*%
X140837500Y-117750000D03*
%TO.P,U1,45,PB8*%
%TO.N,BOOT0*%
X140837500Y-118250000D03*
%TO.P,U1,46,PB9*%
%TO.N,unconnected-(U1-PB9-Pad46)*%
X140837500Y-118750000D03*
%TO.P,U1,47,VSS*%
%TO.N,GND*%
X140837500Y-119250000D03*
%TO.P,U1,48,VDD*%
%TO.N,+3.3V*%
X140837500Y-119750000D03*
%TD*%
D15*
%TO.P,C10,1*%
%TO.N,+3.3V*%
X156712500Y-106500000D03*
%TO.P,C10,2*%
%TO.N,GND*%
X158787500Y-106500000D03*
%TD*%
D22*
%TO.P,C7,1*%
%TO.N,+3.3V*%
X141250000Y-123212500D03*
%TO.P,C7,2*%
%TO.N,GND*%
X141250000Y-125287500D03*
%TD*%
D23*
%TO.P,FB1,1*%
%TO.N,+3.3V*%
X151850000Y-111000000D03*
%TO.P,FB1,2*%
X154150000Y-111000000D03*
%TD*%
D15*
%TO.P,C4,1*%
%TO.N,+3.3V*%
X151962500Y-113000000D03*
%TO.P,C4,2*%
%TO.N,GND*%
X154037500Y-113000000D03*
%TD*%
%TO.P,C9,1*%
%TO.N,+3.3V*%
X156712500Y-108750000D03*
%TO.P,C9,2*%
%TO.N,GND*%
X158787500Y-108750000D03*
%TD*%
%TO.P,C11,1*%
%TO.N,VBUS*%
X155162500Y-101637500D03*
%TO.P,C11,2*%
%TO.N,GND*%
X157237500Y-101637500D03*
%TD*%
%TO.P,C2,1*%
%TO.N,+3.3V*%
X151962500Y-117000000D03*
%TO.P,C2,2*%
%TO.N,GND*%
X154037500Y-117000000D03*
%TD*%
D24*
%TO.P,J2,1,Pin_1*%
%TO.N,+3.3V*%
X107000000Y-106130000D03*
D25*
%TO.P,J2,2,Pin_2*%
X109540000Y-106130000D03*
%TO.P,J2,3,Pin_3*%
X107000000Y-108670000D03*
%TO.P,J2,4,Pin_4*%
%TO.N,GND*%
X109540000Y-108670000D03*
%TO.P,J2,5,Pin_5*%
X107000000Y-111210000D03*
%TO.P,J2,6,Pin_6*%
X109540000Y-111210000D03*
%TO.P,J2,7,Pin_7*%
X107000000Y-113750000D03*
%TO.P,J2,8,Pin_8*%
%TO.N,+5V*%
X109540000Y-113750000D03*
%TO.P,J2,9,Pin_9*%
X107000000Y-116290000D03*
%TO.P,J2,10,Pin_10*%
X109540000Y-116290000D03*
%TO.P,J2,11,Pin_11*%
%TO.N,GND*%
X107000000Y-118830000D03*
%TO.P,J2,12,Pin_12*%
%TO.N,UART_RX*%
X109540000Y-118830000D03*
%TO.P,J2,13,Pin_13*%
%TO.N,UART_TX*%
X107000000Y-121370000D03*
%TO.P,J2,14,Pin_14*%
%TO.N,UART_CK*%
X109540000Y-121370000D03*
%TO.P,J2,15,Pin_15*%
%TO.N,SPI_NSS*%
X107000000Y-123910000D03*
%TO.P,J2,16,Pin_16*%
%TO.N,SPI_SCK*%
X109540000Y-123910000D03*
%TO.P,J2,17,Pin_17*%
%TO.N,SPI_MISO*%
X107000000Y-126450000D03*
%TO.P,J2,18,Pin_18*%
%TO.N,SPI_MOSI*%
X109540000Y-126450000D03*
%TO.P,J2,19,Pin_19*%
%TO.N,I2C_SCL*%
X107000000Y-128990000D03*
%TO.P,J2,20,Pin_20*%
%TO.N,I2C_SDA*%
X109540000Y-128990000D03*
%TD*%
D26*
%TO.P,SW2,1,A*%
%TO.N,GND*%
X127750000Y-95750000D03*
X134250000Y-95750000D03*
%TO.P,SW2,2,B*%
%TO.N,NRST*%
X127750000Y-100250000D03*
X134250000Y-100250000D03*
%TD*%
D27*
%TO.P,JP1,1,A*%
%TO.N,GND*%
X137000000Y-119300000D03*
%TO.P,JP1,2,C*%
%TO.N,BOOT0*%
X137000000Y-118000000D03*
%TO.P,JP1,3,B*%
%TO.N,+3.3V*%
X137000000Y-116700000D03*
%TD*%
D28*
%TO.P,R3,1*%
%TO.N,Net-(P1-CC)*%
X148500000Y-101500000D03*
%TO.P,R3,2*%
%TO.N,GND*%
X148500000Y-103500000D03*
%TD*%
D29*
%TO.P,C5,1*%
%TO.N,+3.3V*%
X139000000Y-122000000D03*
%TO.P,C5,2*%
%TO.N,GND*%
X136925000Y-122000000D03*
%TD*%
D15*
%TO.P,C3,1*%
%TO.N,+3.3V*%
X151962500Y-115000000D03*
%TO.P,C3,2*%
%TO.N,GND*%
X154037500Y-115000000D03*
%TD*%
D24*
%TO.P,J1,1,Pin_1*%
%TO.N,+3.3V*%
X121540000Y-95725000D03*
D25*
%TO.P,J1,2,Pin_2*%
%TO.N,SWCLK*%
X121540000Y-98265000D03*
%TO.P,J1,3,Pin_3*%
%TO.N,GND*%
X119000000Y-95725000D03*
%TO.P,J1,4,Pin_4*%
%TO.N,SWDIO*%
X119000000Y-98265000D03*
%TO.P,J1,5,Pin_5*%
%TO.N,NRST*%
X116460000Y-95725000D03*
%TO.P,J1,6,Pin_6*%
%TO.N,SWO*%
X116460000Y-98265000D03*
%TD*%
D30*
%TO.P,U3,1,I/O1*%
%TO.N,USB_DM*%
X144150000Y-103737500D03*
%TO.P,U3,2,GND*%
%TO.N,GND*%
X145100000Y-103737500D03*
%TO.P,U3,3,I/O2*%
%TO.N,USB_DP*%
X146050000Y-103737500D03*
%TO.P,U3,4,I/O2*%
%TO.N,USB_DP_EXT*%
X146050000Y-101462500D03*
%TO.P,U3,5,VBUS*%
%TO.N,VBUS*%
X145100000Y-101462500D03*
%TO.P,U3,6,I/O1*%
%TO.N,USB_DM_EXT*%
X144150000Y-101462500D03*
%TD*%
D16*
%TO.P,C6,1*%
%TO.N,+3.3V*%
X140500000Y-111037500D03*
%TO.P,C6,2*%
%TO.N,GND*%
X140500000Y-108962500D03*
%TD*%
D17*
%TO.P,R4,1*%
%TO.N,Net-(D2-A)*%
X156250000Y-98500000D03*
%TO.P,R4,2*%
%TO.N,+3.3V*%
X156250000Y-96500000D03*
%TD*%
D31*
%TO.P,IC1-L1,4,GND*%
%TO.N,GND*%
X179500000Y-140000000D03*
%TD*%
%TO.P,IC2-R1,4,GND*%
%TO.N,GND*%
X111500000Y-139600000D03*
%TD*%
D32*
%TO.N,GND*%
X135000000Y-105000000D03*
X140000000Y-140000000D03*
X160000000Y-125000000D03*
X110000000Y-135000000D03*
X120000000Y-135000000D03*
X150000000Y-135000000D03*
X160000000Y-135000000D03*
X170000000Y-135000000D03*
X180000000Y-125000000D03*
X170000000Y-115000000D03*
X180000000Y-115000000D03*
X180000000Y-100000000D03*
X170000000Y-100000000D03*
X120000000Y-110000000D03*
X105000000Y-100000000D03*
X153500000Y-95500000D03*
X146000000Y-124750000D03*
%TO.N,NRST*%
X143500000Y-116000000D03*
X142500000Y-107000000D03*
%TO.N,+3.3V*%
X139000000Y-112000000D03*
X139750000Y-126500000D03*
X138500000Y-116500000D03*
%TO.N,UART_CK*%
X145691942Y-109308058D03*
%TO.N,I2C_SDA*%
X139000000Y-117650000D03*
X134250000Y-120250000D03*
%TO.N,I2C_SCL*%
X132000000Y-120250000D03*
X137500000Y-115000000D03*
%TO.N,UART_RX*%
X144375000Y-108862325D03*
%TO.N,UART_TX*%
X144874999Y-110241117D03*
%TO.N,I2S_WS*%
X123500000Y-140500000D03*
X147500000Y-111500000D03*
X119000000Y-140500000D03*
%TO.N,I2S_SD*%
X120000000Y-140500000D03*
X119000000Y-142125000D03*
X145881082Y-111501507D03*
%TO.N,USB_DM_EXT*%
X143500000Y-101500000D03*
%TO.N,GND*%
X109500000Y-141425000D03*
X107000000Y-140000000D03*
X153500000Y-102500000D03*
X145000000Y-105000000D03*
X155000000Y-115000000D03*
X159500000Y-108500000D03*
X140500000Y-108000000D03*
X142625000Y-111125000D03*
X150500000Y-115000000D03*
X177500000Y-142000000D03*
X155000000Y-119000000D03*
X138500000Y-120000000D03*
X158000000Y-101500000D03*
X136000000Y-122000000D03*
X139000000Y-119500000D03*
X150500000Y-117000000D03*
X112500000Y-99000000D03*
X155000000Y-117000000D03*
X155000000Y-113000000D03*
X159500000Y-106500000D03*
X148500000Y-104000000D03*
X141250000Y-126750000D03*
X175000000Y-142500000D03*
X149500000Y-108000000D03*
%TO.N,I2S_CK*%
X146681020Y-111491374D03*
%TO.N,GND*%
X146750000Y-126250000D03*
%TD*%
D33*
%TO.N,SPI_NSS*%
X146850000Y-127400000D02*
X114693116Y-127400000D01*
X147750000Y-126500000D02*
X146850000Y-127400000D01*
X114693116Y-127400000D02*
X110027116Y-122734000D01*
X147750000Y-121162500D02*
X147750000Y-126500000D01*
D34*
%TO.N,GND*%
X145650000Y-124400000D02*
X146000000Y-124750000D01*
X144850000Y-124400000D02*
X145650000Y-124400000D01*
D33*
%TO.N,Net-(U1-PF0)*%
X144250000Y-122500000D02*
X144850000Y-123100000D01*
X144250000Y-121162500D02*
X144250000Y-122500000D01*
D34*
%TO.N,+3.3V*%
X143150000Y-124400000D02*
X143150000Y-126187500D01*
X143150000Y-126187500D02*
X143212500Y-126250000D01*
X143150000Y-123100000D02*
X143150000Y-124400000D01*
X141362500Y-123100000D02*
X141250000Y-123212500D01*
X143150000Y-123100000D02*
X141362500Y-123100000D01*
X143250000Y-126308351D02*
X143441649Y-126500000D01*
%TO.N,GND*%
X145350000Y-126333351D02*
X145516649Y-126500000D01*
X141250000Y-126750000D02*
X141462500Y-126537500D01*
X141462500Y-126537500D02*
X141462500Y-125500000D01*
X141462500Y-125500000D02*
X141250000Y-125287500D01*
D33*
%TO.N,SPI_SCK*%
X109975000Y-123910000D02*
X109540000Y-123910000D01*
X149000000Y-126750000D02*
X147250000Y-128500000D01*
X147250000Y-128500000D02*
X114565000Y-128500000D01*
X149162500Y-119750000D02*
X149000000Y-119912500D01*
X149000000Y-119912500D02*
X149000000Y-126750000D01*
X114565000Y-128500000D02*
X109975000Y-123910000D01*
%TO.N,SPI_MISO*%
X108175000Y-125275000D02*
X107000000Y-126450000D01*
X110026701Y-125275000D02*
X108175000Y-125275000D01*
X114251701Y-129500000D02*
X110026701Y-125275000D01*
X150000000Y-127500000D02*
X148000000Y-129500000D01*
X150225000Y-120775000D02*
X150000000Y-121000000D01*
X149967764Y-119250000D02*
X150225000Y-119507236D01*
X150225000Y-119507236D02*
X150225000Y-120775000D01*
X148000000Y-129500000D02*
X114251701Y-129500000D01*
X149162500Y-119250000D02*
X149967764Y-119250000D01*
X150000000Y-121000000D02*
X150000000Y-127500000D01*
%TO.N,SPI_NSS*%
X108175000Y-122735000D02*
X110026701Y-122735000D01*
X107000000Y-123910000D02*
X108175000Y-122735000D01*
%TO.N,SPI_MOSI*%
X150875000Y-128125000D02*
X148000000Y-131000000D01*
X148000000Y-131000000D02*
X114090000Y-131000000D01*
X150875000Y-119624078D02*
X150875000Y-128125000D01*
X149162500Y-118750000D02*
X150000922Y-118750000D01*
X150000922Y-118750000D02*
X150875000Y-119624078D01*
X114090000Y-131000000D02*
X109540000Y-126450000D01*
D34*
%TO.N,+3.3V*%
X139750000Y-124712500D02*
X139750000Y-126500000D01*
X141250000Y-123212500D02*
X139750000Y-124712500D01*
D35*
%TO.N,NRST*%
X145250000Y-119750000D02*
X145225000Y-119725000D01*
X145250000Y-121162500D02*
X145250000Y-119750000D01*
D33*
X127750000Y-100250000D02*
X134250000Y-100250000D01*
X124750000Y-97250000D02*
X127750000Y-100250000D01*
X112250000Y-95962500D02*
X116222500Y-95962500D01*
X134250000Y-100250000D02*
X141000000Y-107000000D01*
X143500000Y-118000000D02*
X145225000Y-119725000D01*
X124250000Y-94000000D02*
X124750000Y-94500000D01*
X116222500Y-95962500D02*
X116460000Y-95725000D01*
X124750000Y-94500000D02*
X124750000Y-97250000D01*
X141000000Y-107000000D02*
X142500000Y-107000000D01*
X118185000Y-94000000D02*
X124250000Y-94000000D01*
X143500000Y-116000000D02*
X143500000Y-118000000D01*
X116460000Y-95725000D02*
X118185000Y-94000000D01*
D34*
%TO.N,+3.3V*%
X135500000Y-119950000D02*
X136050000Y-120500000D01*
X151637500Y-110787500D02*
X151850000Y-111000000D01*
X156712500Y-106037500D02*
X160000000Y-102750000D01*
X151850000Y-109650000D02*
X152750000Y-108750000D01*
X136050000Y-120500000D02*
X137234378Y-120500000D01*
X151962500Y-113000000D02*
X151962500Y-115000000D01*
X149250000Y-114062500D02*
X149162500Y-114150000D01*
X142149000Y-112686500D02*
X142149000Y-112837500D01*
X141250000Y-123212500D02*
X141250000Y-122061500D01*
X140212500Y-123212500D02*
X139000000Y-122000000D01*
X139000000Y-112000000D02*
X139537500Y-112000000D01*
X156712500Y-106500000D02*
X156712500Y-106037500D01*
X138300000Y-116700000D02*
X138500000Y-116500000D01*
X151962500Y-119000000D02*
X151962500Y-117000000D01*
X135500000Y-116700000D02*
X132300000Y-116700000D01*
X136287500Y-111037500D02*
X121540000Y-96290000D01*
X132300000Y-116700000D02*
X132000000Y-117000000D01*
D36*
X142250000Y-112837500D02*
X142250000Y-112787500D01*
X151212500Y-115750000D02*
X151962500Y-115000000D01*
X151962500Y-117000000D02*
X151962500Y-115000000D01*
D34*
X137000000Y-116700000D02*
X138300000Y-116700000D01*
X160000000Y-97500000D02*
X159000000Y-96500000D01*
X141462500Y-123000000D02*
X141250000Y-123212500D01*
X139537500Y-112000000D02*
X140500000Y-111037500D01*
D36*
X149162500Y-115750000D02*
X151212500Y-115750000D01*
D34*
X141250000Y-122061500D02*
X142149000Y-121162500D01*
X139000000Y-122000000D02*
X140837500Y-120162500D01*
D36*
X149162500Y-116250000D02*
X151212500Y-116250000D01*
D34*
X140500000Y-111037500D02*
X136287500Y-111037500D01*
D33*
X149162500Y-114250000D02*
X142857236Y-114250000D01*
D34*
X153962500Y-111000000D02*
X151962500Y-113000000D01*
X160000000Y-102750000D02*
X160000000Y-97500000D01*
X140837500Y-120162500D02*
X140837500Y-119851000D01*
X159000000Y-96500000D02*
X156250000Y-96500000D01*
X154150000Y-111000000D02*
X153962500Y-111000000D01*
X137000000Y-116700000D02*
X135500000Y-116700000D01*
D33*
X142250000Y-113642764D02*
X142250000Y-112837500D01*
D34*
X135500000Y-116700000D02*
X135500000Y-119950000D01*
X140500000Y-111037500D02*
X142149000Y-112686500D01*
D33*
X142857236Y-114250000D02*
X142250000Y-113642764D01*
D34*
X141250000Y-123212500D02*
X140212500Y-123212500D01*
X149250000Y-110787500D02*
X149250000Y-114062500D01*
X138734378Y-122000000D02*
X139000000Y-122000000D01*
X149250000Y-110787500D02*
X151637500Y-110787500D01*
X149712500Y-110787500D02*
X149250000Y-110787500D01*
X121540000Y-96290000D02*
X121540000Y-95725000D01*
X156487500Y-106275000D02*
X156712500Y-106500000D01*
X151850000Y-111000000D02*
X151850000Y-109650000D01*
X156712500Y-106500000D02*
X156712500Y-108750000D01*
X152750000Y-108750000D02*
X156712500Y-108750000D01*
X137234378Y-120500000D02*
X138734378Y-122000000D01*
D36*
X151212500Y-116250000D02*
X151962500Y-117000000D01*
D34*
X154650000Y-106275000D02*
X156487500Y-106275000D01*
%TO.N,VBUS*%
X145100000Y-100325000D02*
X144625000Y-99850000D01*
D33*
X151000000Y-101500000D02*
X151000000Y-101449000D01*
D34*
X144625000Y-99850000D02*
X143055026Y-99850000D01*
X154650000Y-104000000D02*
X154650000Y-102150000D01*
X146800000Y-97050000D02*
X146800000Y-97500000D01*
X142550000Y-97500000D02*
X142550000Y-97005026D01*
X146800000Y-98850000D02*
X146800000Y-99344974D01*
X142550000Y-97005026D02*
X142856026Y-96699000D01*
X142550000Y-99344974D02*
X142550000Y-98850000D01*
X142856026Y-96699000D02*
X146449000Y-96699000D01*
X147904026Y-100449000D02*
X150000000Y-100449000D01*
X154650000Y-102150000D02*
X155162500Y-101637500D01*
X143055026Y-99850000D02*
X142550000Y-99344974D01*
D33*
X151000000Y-101449000D02*
X150000000Y-100449000D01*
D34*
X146449000Y-96699000D02*
X146800000Y-97050000D01*
X153974000Y-100449000D02*
X155162500Y-101637500D01*
X142550000Y-98850000D02*
X142550000Y-97500000D01*
X146800000Y-99344974D02*
X147904026Y-100449000D01*
X146800000Y-98850000D02*
X146800000Y-97500000D01*
X150000000Y-100449000D02*
X153974000Y-100449000D01*
X145100000Y-101462500D02*
X145100000Y-100325000D01*
%TO.N,Net-(D2-A)*%
X156225000Y-98525000D02*
X156250000Y-98500000D01*
X153500000Y-98525000D02*
X156225000Y-98525000D01*
D33*
%TO.N,SWO*%
X140837500Y-115750000D02*
X133945000Y-115750000D01*
X133945000Y-115750000D02*
X116460000Y-98265000D01*
%TO.N,SWDIO*%
X134985000Y-114250000D02*
X140837500Y-114250000D01*
X119000000Y-98265000D02*
X134985000Y-114250000D01*
%TO.N,SWCLK*%
X137025000Y-113750000D02*
X121540000Y-98265000D01*
X140837500Y-114750000D02*
X141644178Y-114750000D01*
X141901000Y-114006822D02*
X141644178Y-113750000D01*
X141644178Y-113750000D02*
X137025000Y-113750000D01*
X141644178Y-114750000D02*
X141901000Y-114493178D01*
X141901000Y-114493178D02*
X141901000Y-114006822D01*
%TO.N,UART_CK*%
X145250000Y-110750000D02*
X145250000Y-112837500D01*
X146000000Y-110000000D02*
X145250000Y-110750000D01*
X146000000Y-109616116D02*
X146000000Y-110000000D01*
X145691942Y-109308058D02*
X146000000Y-109616116D01*
%TO.N,I2C_SDA*%
X134250000Y-119000000D02*
X134250000Y-120250000D01*
X139100000Y-117750000D02*
X140837500Y-117750000D01*
X139000000Y-117650000D02*
X139100000Y-117750000D01*
%TO.N,I2C_SCL*%
X137500000Y-115000000D02*
X137750000Y-115250000D01*
X137750000Y-115250000D02*
X140837500Y-115250000D01*
X132000000Y-119000000D02*
X132000000Y-120250000D01*
%TO.N,UART_RX*%
X144250000Y-108987325D02*
X144375000Y-108862325D01*
X144250000Y-112837500D02*
X144250000Y-108987325D01*
%TO.N,UART_TX*%
X144750000Y-110366116D02*
X144750000Y-112837500D01*
X144874999Y-110241117D02*
X144750000Y-110366116D01*
D35*
%TO.N,BOOT0*%
X137250000Y-118250000D02*
X137000000Y-118000000D01*
X140837500Y-118250000D02*
X137250000Y-118250000D01*
D33*
%TO.N,I2S_WS*%
X147250000Y-111750000D02*
X147250000Y-112837500D01*
X120500000Y-139500000D02*
X120000000Y-139500000D01*
X121500000Y-140500000D02*
X120500000Y-139500000D01*
X147500000Y-111500000D02*
X147250000Y-111750000D01*
X120000000Y-139500000D02*
X119000000Y-140500000D01*
X123500000Y-140500000D02*
X121500000Y-140500000D01*
%TO.N,I2S_SD*%
X119000000Y-142125000D02*
X119000000Y-142000000D01*
X120000000Y-141000000D02*
X120000000Y-140500000D01*
X145750000Y-111632589D02*
X145881082Y-111501507D01*
X145750000Y-112837500D02*
X145750000Y-111632589D01*
X119000000Y-142000000D02*
X120000000Y-141000000D01*
D36*
%TO.N,USB_DP_EXT*%
X146050000Y-101462500D02*
X146050000Y-100300000D01*
X145272000Y-99022000D02*
X145100000Y-98850000D01*
X146050000Y-100300000D02*
X145272000Y-99522000D01*
X145272000Y-99522000D02*
X145272000Y-99022000D01*
D33*
%TO.N,Net-(P1-CC)*%
X148105026Y-101500000D02*
X145950000Y-99344974D01*
X148500000Y-101500000D02*
X148105026Y-101500000D01*
X145950000Y-99344974D02*
X145950000Y-98850000D01*
%TO.N,USB_DM_EXT*%
X144150000Y-101462500D02*
X143537500Y-101462500D01*
X143537500Y-101462500D02*
X143500000Y-101500000D01*
%TO.N,Net-(U2-EN)*%
X152250000Y-103500000D02*
X152750000Y-104000000D01*
X151000000Y-103500000D02*
X152250000Y-103500000D01*
%TO.N,USB_DM*%
X143750000Y-104137500D02*
X144150000Y-103737500D01*
X143750000Y-112837500D02*
X143750000Y-104137500D01*
%TO.N,USB_DP*%
X145723999Y-102749000D02*
X146050000Y-103075001D01*
X146050000Y-103075001D02*
X146050000Y-103737500D01*
X143798678Y-102749000D02*
X145723999Y-102749000D01*
X143250000Y-112837500D02*
X143250000Y-103297678D01*
X143250000Y-103297678D02*
X143798678Y-102749000D01*
D34*
%TO.N,GND*%
X158787500Y-108750000D02*
X159250000Y-108750000D01*
X157237500Y-101637500D02*
X157862500Y-101637500D01*
D33*
X149162500Y-114750000D02*
X150250000Y-114750000D01*
D34*
X148500000Y-103500000D02*
X148500000Y-104000000D01*
D33*
X142625000Y-111125000D02*
X142750000Y-111250000D01*
D34*
X154037500Y-115000000D02*
X155000000Y-115000000D01*
X154037500Y-113000000D02*
X155000000Y-113000000D01*
X159250000Y-108750000D02*
X159500000Y-108500000D01*
X137700000Y-120000000D02*
X137000000Y-119300000D01*
X140500000Y-108962500D02*
X140500000Y-108000000D01*
D33*
X112250000Y-98037500D02*
X112250000Y-98750000D01*
X112250000Y-98750000D02*
X112500000Y-99000000D01*
X142750000Y-111250000D02*
X142750000Y-112837500D01*
D34*
X138500000Y-120000000D02*
X137700000Y-120000000D01*
X153700000Y-104000000D02*
X153700000Y-102700000D01*
X149250000Y-108250000D02*
X149500000Y-108000000D01*
D33*
X140837500Y-119250000D02*
X139250000Y-119250000D01*
X145100000Y-104900000D02*
X145000000Y-105000000D01*
D34*
X153700000Y-102700000D02*
X153500000Y-102500000D01*
D33*
X145100000Y-103737500D02*
X145100000Y-104900000D01*
X149162500Y-116750000D02*
X150250000Y-116750000D01*
X150250000Y-116750000D02*
X150500000Y-117000000D01*
D34*
X136925000Y-122000000D02*
X136000000Y-122000000D01*
X154037500Y-117000000D02*
X155000000Y-117000000D01*
D33*
X139250000Y-119250000D02*
X139000000Y-119500000D01*
D34*
X158787500Y-106500000D02*
X159500000Y-106500000D01*
X154037500Y-119000000D02*
X155000000Y-119000000D01*
D33*
X150250000Y-114750000D02*
X150500000Y-115000000D01*
D34*
X157862500Y-101637500D02*
X158000000Y-101500000D01*
X149250000Y-108712500D02*
X149250000Y-108250000D01*
D33*
%TO.N,I2S_CK*%
X146750000Y-112837500D02*
X146750000Y-111560354D01*
X146750000Y-111560354D02*
X146681020Y-111491374D01*
D34*
%TO.N,GND*%
X146500000Y-126500000D02*
X146750000Y-126250000D01*
X145516649Y-126500000D02*
X146500000Y-126500000D01*
X153500000Y-96475000D02*
X153500000Y-95500000D01*
%TD*%
M02*
