%TF.GenerationSoftware,KiCad,Pcbnew,9.0.6*%
%TF.CreationDate,2026-03-19T15:14:55+02:00*%
%TF.ProjectId,sound_spectrum_v1,736f756e-645f-4737-9065-637472756d5f,rev?*%
%TF.SameCoordinates,Original*%
%TF.FileFunction,Copper,L4,Bot*%
%TF.FilePolarity,Positive*%
%FSLAX46Y46*%
G04 Gerber Fmt 4.6, Leading zero omitted, Abs format (unit mm)*
G04 Created by KiCad (PCBNEW 9.0.6) date 2026-03-19 15:14:55*
%MOMM*%
%LPD*%
G01*
G04 APERTURE LIST*
G04 Aperture macros list*
%AMRoundRect*
0 Rectangle with rounded corners*
0 $1 Rounding radius*
0 $2 $3 $4 $5 $6 $7 $8 $9 X,Y pos of 4 corners*
0 Add a 4 corners polygon primitive as box body*
4,1,4,$2,$3,$4,$5,$6,$7,$8,$9,$2,$3,0*
0 Add four circle primitives for the rounded corners*
1,1,$1+$1,$2,$3*
1,1,$1+$1,$4,$5*
1,1,$1+$1,$6,$7*
1,1,$1+$1,$8,$9*
0 Add four rect primitives between the rounded corners*
20,1,$1+$1,$2,$3,$4,$5,0*
20,1,$1+$1,$4,$5,$6,$7,0*
20,1,$1+$1,$6,$7,$8,$9,0*
20,1,$1+$1,$8,$9,$2,$3,0*%
G04 Aperture macros list end*
%TA.AperFunction,ComponentPad*%
%ADD10O,0.900000X1.700000*%
%TD*%
%TA.AperFunction,ComponentPad*%
%ADD11O,0.900000X2.400000*%
%TD*%
%TA.AperFunction,ComponentPad*%
%ADD12C,0.700000*%
%TD*%
%TA.AperFunction,ComponentPad*%
%ADD13R,1.700000X1.700000*%
%TD*%
%TA.AperFunction,ComponentPad*%
%ADD14C,1.700000*%
%TD*%
%TA.AperFunction,ComponentPad*%
%ADD15C,2.000000*%
%TD*%
%TA.AperFunction,SMDPad,CuDef*%
%ADD16R,0.600000X0.400000*%
%TD*%
%TA.AperFunction,ComponentPad*%
%ADD17C,1.650000*%
%TD*%
%TA.AperFunction,SMDPad,CuDef*%
%ADD18RoundRect,0.250000X-0.475000X0.337500X-0.475000X-0.337500X0.475000X-0.337500X0.475000X0.337500X0*%
%TD*%
%TA.AperFunction,SMDPad,CuDef*%
%ADD19RoundRect,0.250000X0.475000X-0.337500X0.475000X0.337500X-0.475000X0.337500X-0.475000X-0.337500X0*%
%TD*%
%TA.AperFunction,ViaPad*%
%ADD20C,0.600000*%
%TD*%
%TA.AperFunction,Conductor*%
%ADD21C,0.500000*%
%TD*%
%TA.AperFunction,Conductor*%
%ADD22C,0.250000*%
%TD*%
%TA.AperFunction,Conductor*%
%ADD23C,0.200000*%
%TD*%
G04 APERTURE END LIST*
D10*
%TO.P,P1,S1,SHIELD*%
%TO.N,GND*%
X140350000Y-94490000D03*
D11*
X140350000Y-97870000D03*
D10*
X149000000Y-94490000D03*
D11*
X149000000Y-97870000D03*
D12*
%TO.P,P1,B12,GND*%
X147650000Y-97500000D03*
%TO.P,P1,B9,VBUS*%
%TO.N,VBUS*%
X146800000Y-97500000D03*
%TO.P,P1,B8*%
%TO.N,N/C*%
X145950000Y-97500000D03*
%TO.P,P1,B7*%
X145100000Y-97500000D03*
%TO.P,P1,B6*%
X144250000Y-97500000D03*
%TO.P,P1,B5,VCONN*%
%TO.N,unconnected-(P1-VCONN-PadB5)*%
X143400000Y-97500000D03*
%TO.P,P1,B4,VBUS*%
%TO.N,VBUS*%
X142550000Y-97500000D03*
%TO.P,P1,B1,GND*%
%TO.N,GND*%
X141700000Y-97500000D03*
%TO.P,P1,A12,GND*%
X141700000Y-98850000D03*
%TO.P,P1,A9,VBUS*%
%TO.N,VBUS*%
X142550000Y-98850000D03*
%TO.P,P1,A8*%
%TO.N,N/C*%
X143400000Y-98850000D03*
%TO.P,P1,A7,D-*%
%TO.N,USB_DM_EXT*%
X144250000Y-98850000D03*
%TO.P,P1,A6,D+*%
%TO.N,USB_DP_EXT*%
X145100000Y-98850000D03*
%TO.P,P1,A5,CC*%
%TO.N,Net-(P1-CC)*%
X145950000Y-98850000D03*
%TO.P,P1,A4,VBUS*%
%TO.N,VBUS*%
X146800000Y-98850000D03*
%TO.P,P1,A1,GND*%
%TO.N,GND*%
X147650000Y-98850000D03*
%TD*%
D13*
%TO.P,J2,1,Pin_1*%
%TO.N,+3.3V*%
X107000000Y-106130000D03*
D14*
%TO.P,J2,2,Pin_2*%
X109540000Y-106130000D03*
%TO.P,J2,3,Pin_3*%
X107000000Y-108670000D03*
%TO.P,J2,4,Pin_4*%
%TO.N,GND*%
X109540000Y-108670000D03*
%TO.P,J2,5,Pin_5*%
X107000000Y-111210000D03*
%TO.P,J2,6,Pin_6*%
X109540000Y-111210000D03*
%TO.P,J2,7,Pin_7*%
X107000000Y-113750000D03*
%TO.P,J2,8,Pin_8*%
%TO.N,+5V*%
X109540000Y-113750000D03*
%TO.P,J2,9,Pin_9*%
X107000000Y-116290000D03*
%TO.P,J2,10,Pin_10*%
X109540000Y-116290000D03*
%TO.P,J2,11,Pin_11*%
%TO.N,GND*%
X107000000Y-118830000D03*
%TO.P,J2,12,Pin_12*%
%TO.N,UART_RX*%
X109540000Y-118830000D03*
%TO.P,J2,13,Pin_13*%
%TO.N,UART_TX*%
X107000000Y-121370000D03*
%TO.P,J2,14,Pin_14*%
%TO.N,UART_CK*%
X109540000Y-121370000D03*
%TO.P,J2,15,Pin_15*%
%TO.N,SPI_NSS*%
X107000000Y-123910000D03*
%TO.P,J2,16,Pin_16*%
%TO.N,SPI_SCK*%
X109540000Y-123910000D03*
%TO.P,J2,17,Pin_17*%
%TO.N,SPI_MISO*%
X107000000Y-126450000D03*
%TO.P,J2,18,Pin_18*%
%TO.N,SPI_MOSI*%
X109540000Y-126450000D03*
%TO.P,J2,19,Pin_19*%
%TO.N,I2C_SCL*%
X107000000Y-128990000D03*
%TO.P,J2,20,Pin_20*%
%TO.N,I2C_SDA*%
X109540000Y-128990000D03*
%TD*%
D15*
%TO.P,SW2,1,A*%
%TO.N,GND*%
X127750000Y-95750000D03*
X134250000Y-95750000D03*
%TO.P,SW2,2,B*%
%TO.N,NRST*%
X127750000Y-100250000D03*
X134250000Y-100250000D03*
%TD*%
D13*
%TO.P,J1,1,Pin_1*%
%TO.N,+3.3V*%
X121540000Y-95725000D03*
D14*
%TO.P,J1,2,Pin_2*%
%TO.N,SWCLK*%
X121540000Y-98265000D03*
%TO.P,J1,3,Pin_3*%
%TO.N,GND*%
X119000000Y-95725000D03*
%TO.P,J1,4,Pin_4*%
%TO.N,SWDIO*%
X119000000Y-98265000D03*
%TO.P,J1,5,Pin_5*%
%TO.N,NRST*%
X116460000Y-95725000D03*
%TO.P,J1,6,Pin_6*%
%TO.N,SWO*%
X116460000Y-98265000D03*
%TD*%
D16*
%TO.P,IC1-L1,1,LR*%
%TO.N,GND*%
X178425000Y-142575000D03*
%TO.P,IC1-L1,2,CONFIG*%
X178425000Y-141925000D03*
%TO.P,IC1-L1,3,VDD*%
%TO.N,+3.3V*%
X178425000Y-141275000D03*
D17*
%TO.P,IC1-L1,4,GND*%
%TO.N,GND*%
X179500000Y-140000000D03*
D16*
%TO.P,IC1-L1,5,WS*%
%TO.N,I2S_WS*%
X180575000Y-141275000D03*
%TO.P,IC1-L1,6,SCK*%
%TO.N,I2S_CK*%
X180575000Y-141925000D03*
%TO.P,IC1-L1,7,SD*%
%TO.N,I2S_SD*%
X180575000Y-142575000D03*
%TD*%
D18*
%TO.P,C12,1*%
%TO.N,+3.3V*%
X176000000Y-140462500D03*
%TO.P,C12,2*%
%TO.N,GND*%
X176000000Y-142537500D03*
%TD*%
D19*
%TO.P,C13,1*%
%TO.N,+3.3V*%
X108000000Y-142037500D03*
%TO.P,C13,2*%
%TO.N,GND*%
X108000000Y-139962500D03*
%TD*%
D16*
%TO.P,IC2-R1,1,LR*%
%TO.N,+3.3V*%
X110425000Y-142175000D03*
%TO.P,IC2-R1,2,CONFIG*%
%TO.N,GND*%
X110425000Y-141525000D03*
%TO.P,IC2-R1,3,VDD*%
%TO.N,+3.3V*%
X110425000Y-140875000D03*
D17*
%TO.P,IC2-R1,4,GND*%
%TO.N,GND*%
X111500000Y-139600000D03*
D16*
%TO.P,IC2-R1,5,WS*%
%TO.N,I2S_WS*%
X112575000Y-140875000D03*
%TO.P,IC2-R1,6,SCK*%
%TO.N,I2S_CK*%
X112575000Y-141525000D03*
%TO.P,IC2-R1,7,SD*%
%TO.N,I2S_SD*%
X112575000Y-142175000D03*
%TD*%
D20*
%TO.N,GND*%
X135000000Y-105000000D03*
X140000000Y-140000000D03*
X160000000Y-125000000D03*
X110000000Y-135000000D03*
X120000000Y-135000000D03*
X150000000Y-135000000D03*
X160000000Y-135000000D03*
X170000000Y-135000000D03*
X180000000Y-125000000D03*
X170000000Y-115000000D03*
X180000000Y-115000000D03*
X180000000Y-100000000D03*
X170000000Y-100000000D03*
X120000000Y-110000000D03*
X105000000Y-100000000D03*
X153500000Y-95500000D03*
X146000000Y-124750000D03*
%TO.N,NRST*%
X143500000Y-116000000D03*
X142500000Y-107000000D03*
%TO.N,+3.3V*%
X139000000Y-112000000D03*
X139750000Y-126500000D03*
X138500000Y-116500000D03*
%TO.N,UART_CK*%
X145691942Y-109308058D03*
%TO.N,I2C_SDA*%
X139000000Y-117650000D03*
X134250000Y-120250000D03*
%TO.N,I2C_SCL*%
X132000000Y-120250000D03*
X137500000Y-115000000D03*
%TO.N,UART_RX*%
X144375000Y-108862325D03*
%TO.N,UART_TX*%
X144874999Y-110241117D03*
%TO.N,I2S_WS*%
X123500000Y-140500000D03*
X147500000Y-111500000D03*
X119000000Y-140500000D03*
%TO.N,I2S_SD*%
X120000000Y-140500000D03*
X119000000Y-142125000D03*
X145881082Y-111501507D03*
%TO.N,USB_DM_EXT*%
X143500000Y-101500000D03*
%TO.N,GND*%
X109500000Y-141425000D03*
X107000000Y-140000000D03*
X153500000Y-102500000D03*
X145000000Y-105000000D03*
X155000000Y-115000000D03*
X159500000Y-108500000D03*
X140500000Y-108000000D03*
X142625000Y-111125000D03*
X150500000Y-115000000D03*
X177500000Y-142000000D03*
X155000000Y-119000000D03*
X138500000Y-120000000D03*
X158000000Y-101500000D03*
X136000000Y-122000000D03*
X139000000Y-119500000D03*
X150500000Y-117000000D03*
X112500000Y-99000000D03*
X155000000Y-117000000D03*
X155000000Y-113000000D03*
X159500000Y-106500000D03*
X148500000Y-104000000D03*
X141250000Y-126750000D03*
X175000000Y-142500000D03*
X149500000Y-108000000D03*
%TO.N,I2S_CK*%
X146681020Y-111491374D03*
%TO.N,GND*%
X146750000Y-126250000D03*
%TD*%
D21*
%TO.N,+3.3V*%
X148212500Y-140462500D02*
X176000000Y-140462500D01*
X139750000Y-132000000D02*
X148212500Y-140462500D01*
X139750000Y-126500000D02*
X139750000Y-132000000D01*
D22*
%TO.N,NRST*%
X146500000Y-109000000D02*
X146500000Y-109998705D01*
X143500000Y-112998705D02*
X143500000Y-116000000D01*
X144500000Y-107000000D02*
X146500000Y-109000000D01*
X146500000Y-109998705D02*
X143500000Y-112998705D01*
X142500000Y-107000000D02*
X144500000Y-107000000D01*
D21*
%TO.N,+3.3V*%
X109540000Y-96960000D02*
X112750000Y-93750000D01*
X108137500Y-142175000D02*
X108000000Y-142037500D01*
X108000000Y-142037500D02*
X107976839Y-142037500D01*
X110425000Y-140875000D02*
X110225000Y-140675000D01*
X107000000Y-106130000D02*
X107000000Y-108670000D01*
X177612500Y-140462500D02*
X176000000Y-140462500D01*
X121540000Y-94790000D02*
X121540000Y-95725000D01*
X138500000Y-116500000D02*
X138500000Y-112500000D01*
X109540000Y-106130000D02*
X109540000Y-96960000D01*
X104500000Y-138560661D02*
X104500000Y-111170000D01*
X138500000Y-112500000D02*
X139000000Y-112000000D01*
X110425000Y-142175000D02*
X108137500Y-142175000D01*
X110225000Y-140675000D02*
X109189339Y-140675000D01*
X120500000Y-93750000D02*
X121540000Y-94790000D01*
X109189339Y-140675000D02*
X108000000Y-141864339D01*
X107976839Y-142037500D02*
X104500000Y-138560661D01*
X178425000Y-141275000D02*
X177612500Y-140462500D01*
X112750000Y-93750000D02*
X120500000Y-93750000D01*
X104500000Y-111170000D02*
X107000000Y-108670000D01*
X107000000Y-106130000D02*
X109540000Y-106130000D01*
X108000000Y-141864339D02*
X108000000Y-142037500D01*
%TO.N,+5V*%
X109540000Y-113750000D02*
X109540000Y-116290000D01*
X109540000Y-116290000D02*
X107000000Y-116290000D01*
D22*
%TO.N,UART_CK*%
X145691942Y-109308058D02*
X144924174Y-109308058D01*
X125000000Y-120000000D02*
X110910000Y-120000000D01*
X144732232Y-109500000D02*
X135500000Y-109500000D01*
X135500000Y-109500000D02*
X125000000Y-120000000D01*
X110910000Y-120000000D02*
X109540000Y-121370000D01*
X144924174Y-109308058D02*
X144732232Y-109500000D01*
%TO.N,I2C_SDA*%
X134250000Y-120250000D02*
X134250000Y-119650000D01*
D23*
X111500000Y-129000000D02*
X115500000Y-125000000D01*
X109540000Y-128990000D02*
X110990000Y-128990000D01*
D22*
X134250000Y-120250000D02*
X129500000Y-125000000D01*
D23*
X115500000Y-125000000D02*
X129500000Y-125000000D01*
X111000000Y-129000000D02*
X111500000Y-129000000D01*
D22*
X138850000Y-117500000D02*
X139000000Y-117650000D01*
X134250000Y-119650000D02*
X136400000Y-117500000D01*
X136400000Y-117500000D02*
X138850000Y-117500000D01*
D23*
X110990000Y-128990000D02*
X111000000Y-129000000D01*
D22*
%TO.N,I2C_SCL*%
X114000000Y-124000000D02*
X128250000Y-124000000D01*
X108175000Y-127815000D02*
X110185000Y-127815000D01*
X110185000Y-127815000D02*
X114000000Y-124000000D01*
X107000000Y-128990000D02*
X108175000Y-127815000D01*
X128250000Y-124000000D02*
X132000000Y-120250000D01*
X132000000Y-120250000D02*
X137250000Y-115000000D01*
X137250000Y-115000000D02*
X137500000Y-115000000D01*
%TO.N,UART_RX*%
X112000000Y-119000000D02*
X111830000Y-118830000D01*
X144375000Y-108862325D02*
X134637675Y-108862325D01*
X124500000Y-119000000D02*
X112000000Y-119000000D01*
X111830000Y-118830000D02*
X109540000Y-118830000D01*
X134637675Y-108862325D02*
X124500000Y-119000000D01*
%TO.N,UART_TX*%
X124455000Y-122545000D02*
X108175000Y-122545000D01*
X144874999Y-110241117D02*
X144616116Y-110500000D01*
X136500000Y-110500000D02*
X124455000Y-122545000D01*
X108175000Y-122545000D02*
X107000000Y-121370000D01*
X144616116Y-110500000D02*
X136500000Y-110500000D01*
%TO.N,I2S_WS*%
X112575000Y-140875000D02*
X112577000Y-140877000D01*
X130000000Y-140500000D02*
X139000000Y-131500000D01*
X119000000Y-140500000D02*
X118625000Y-140875000D01*
X123500000Y-140500000D02*
X130000000Y-140500000D01*
X154751346Y-113625000D02*
X180650000Y-139523654D01*
X118625000Y-140875000D02*
X112575000Y-140875000D01*
X149500000Y-111500000D02*
X150500000Y-112500000D01*
X139000000Y-131500000D02*
X139000000Y-125500000D01*
X147500000Y-117000000D02*
X147500000Y-111500000D01*
X139000000Y-125500000D02*
X147500000Y-117000000D01*
X150500000Y-112500000D02*
X151625000Y-113625000D01*
X151625000Y-113625000D02*
X154751346Y-113625000D01*
X147500000Y-111500000D02*
X149500000Y-111500000D01*
X180650000Y-139523654D02*
X180650000Y-141200000D01*
X180650000Y-141200000D02*
X180575000Y-141275000D01*
%TO.N,I2S_SD*%
X155500000Y-109500000D02*
X147788510Y-109500000D01*
X135500000Y-131500000D02*
X128500000Y-138500000D01*
X183500000Y-137500000D02*
X155500000Y-109500000D01*
X112575000Y-142175000D02*
X118950000Y-142175000D01*
X145500000Y-111882589D02*
X145500000Y-116000000D01*
X128500000Y-138500000D02*
X122000000Y-138500000D01*
X181925000Y-142575000D02*
X183500000Y-141000000D01*
X135500000Y-126000000D02*
X135500000Y-131500000D01*
X122000000Y-138500000D02*
X120000000Y-140500000D01*
X145500000Y-116000000D02*
X135500000Y-126000000D01*
X180575000Y-142575000D02*
X181925000Y-142575000D01*
X183500000Y-141000000D02*
X183500000Y-137500000D01*
X147788510Y-109500000D02*
X145881082Y-111407428D01*
X145881082Y-111407428D02*
X145881082Y-111501507D01*
X118950000Y-142175000D02*
X119000000Y-142125000D01*
X145881082Y-111501507D02*
X145500000Y-111882589D01*
%TO.N,USB_DM_EXT*%
X143500000Y-101000000D02*
X144250000Y-100250000D01*
X144250000Y-100250000D02*
X144250000Y-98850000D01*
X143500000Y-101500000D02*
X143500000Y-101000000D01*
D21*
%TO.N,GND*%
X108000000Y-139962500D02*
X107037500Y-139962500D01*
X176000000Y-142537500D02*
X175037500Y-142537500D01*
X177575000Y-141925000D02*
X177500000Y-142000000D01*
X175037500Y-142537500D02*
X175000000Y-142500000D01*
X176037500Y-142575000D02*
X176000000Y-142537500D01*
X110425000Y-141525000D02*
X109600000Y-141525000D01*
X107037500Y-139962500D02*
X107000000Y-140000000D01*
X178425000Y-142575000D02*
X176037500Y-142575000D01*
X109600000Y-141525000D02*
X109500000Y-141425000D01*
X178425000Y-141925000D02*
X177575000Y-141925000D01*
D22*
%TO.N,I2S_CK*%
X129000000Y-139500000D02*
X137000000Y-131500000D01*
X180575000Y-141925000D02*
X181075000Y-141925000D01*
X118000000Y-141500000D02*
X120500000Y-141500000D01*
X146500000Y-116500000D02*
X146500000Y-112000000D01*
X147241116Y-110875000D02*
X146681020Y-111435096D01*
X146500000Y-112000000D02*
X146681020Y-111818980D01*
X137000000Y-126000000D02*
X146500000Y-116500000D01*
X122500000Y-139500000D02*
X129000000Y-139500000D01*
X154375000Y-110875000D02*
X147241116Y-110875000D01*
X182000000Y-138500000D02*
X154375000Y-110875000D01*
X181075000Y-141925000D02*
X182000000Y-141000000D01*
X146681020Y-111435096D02*
X146681020Y-111491374D01*
X120500000Y-141500000D02*
X122500000Y-139500000D01*
X182000000Y-141000000D02*
X182000000Y-138500000D01*
X146681020Y-111818980D02*
X146681020Y-111491374D01*
X137000000Y-131500000D02*
X137000000Y-126000000D01*
X117975000Y-141525000D02*
X118000000Y-141500000D01*
X112575000Y-141525000D02*
X117975000Y-141525000D01*
%TD*%
M02*
