%TF.GenerationSoftware,KiCad,Pcbnew,9.0.6*%
%TF.CreationDate,2026-03-19T15:14:55+02:00*%
%TF.ProjectId,sound_spectrum_v1,736f756e-645f-4737-9065-637472756d5f,rev?*%
%TF.SameCoordinates,Original*%
%TF.FileFunction,Legend,Top*%
%TF.FilePolarity,Positive*%
%FSLAX46Y46*%
G04 Gerber Fmt 4.6, Leading zero omitted, Abs format (unit mm)*
G04 Created by KiCad (PCBNEW 9.0.6) date 2026-03-19 15:14:55*
%MOMM*%
%LPD*%
G01*
G04 APERTURE LIST*
%ADD10C,0.100000*%
%ADD11C,0.150000*%
%ADD12C,0.120000*%
G04 APERTURE END LIST*
D10*
X155256265Y-133324800D02*
X155399122Y-133372419D01*
X155399122Y-133372419D02*
X155637217Y-133372419D01*
X155637217Y-133372419D02*
X155732455Y-133324800D01*
X155732455Y-133324800D02*
X155780074Y-133277180D01*
X155780074Y-133277180D02*
X155827693Y-133181942D01*
X155827693Y-133181942D02*
X155827693Y-133086704D01*
X155827693Y-133086704D02*
X155780074Y-132991466D01*
X155780074Y-132991466D02*
X155732455Y-132943847D01*
X155732455Y-132943847D02*
X155637217Y-132896228D01*
X155637217Y-132896228D02*
X155446741Y-132848609D01*
X155446741Y-132848609D02*
X155351503Y-132800990D01*
X155351503Y-132800990D02*
X155303884Y-132753371D01*
X155303884Y-132753371D02*
X155256265Y-132658133D01*
X155256265Y-132658133D02*
X155256265Y-132562895D01*
X155256265Y-132562895D02*
X155303884Y-132467657D01*
X155303884Y-132467657D02*
X155351503Y-132420038D01*
X155351503Y-132420038D02*
X155446741Y-132372419D01*
X155446741Y-132372419D02*
X155684836Y-132372419D01*
X155684836Y-132372419D02*
X155827693Y-132420038D01*
X156399122Y-133372419D02*
X156303884Y-133324800D01*
X156303884Y-133324800D02*
X156256265Y-133277180D01*
X156256265Y-133277180D02*
X156208646Y-133181942D01*
X156208646Y-133181942D02*
X156208646Y-132896228D01*
X156208646Y-132896228D02*
X156256265Y-132800990D01*
X156256265Y-132800990D02*
X156303884Y-132753371D01*
X156303884Y-132753371D02*
X156399122Y-132705752D01*
X156399122Y-132705752D02*
X156541979Y-132705752D01*
X156541979Y-132705752D02*
X156637217Y-132753371D01*
X156637217Y-132753371D02*
X156684836Y-132800990D01*
X156684836Y-132800990D02*
X156732455Y-132896228D01*
X156732455Y-132896228D02*
X156732455Y-133181942D01*
X156732455Y-133181942D02*
X156684836Y-133277180D01*
X156684836Y-133277180D02*
X156637217Y-133324800D01*
X156637217Y-133324800D02*
X156541979Y-133372419D01*
X156541979Y-133372419D02*
X156399122Y-133372419D01*
X157589598Y-132705752D02*
X157589598Y-133372419D01*
X157161027Y-132705752D02*
X157161027Y-133229561D01*
X157161027Y-133229561D02*
X157208646Y-133324800D01*
X157208646Y-133324800D02*
X157303884Y-133372419D01*
X157303884Y-133372419D02*
X157446741Y-133372419D01*
X157446741Y-133372419D02*
X157541979Y-133324800D01*
X157541979Y-133324800D02*
X157589598Y-133277180D01*
X158065789Y-132705752D02*
X158065789Y-133372419D01*
X158065789Y-132800990D02*
X158113408Y-132753371D01*
X158113408Y-132753371D02*
X158208646Y-132705752D01*
X158208646Y-132705752D02*
X158351503Y-132705752D01*
X158351503Y-132705752D02*
X158446741Y-132753371D01*
X158446741Y-132753371D02*
X158494360Y-132848609D01*
X158494360Y-132848609D02*
X158494360Y-133372419D01*
X159399122Y-133372419D02*
X159399122Y-132372419D01*
X159399122Y-133324800D02*
X159303884Y-133372419D01*
X159303884Y-133372419D02*
X159113408Y-133372419D01*
X159113408Y-133372419D02*
X159018170Y-133324800D01*
X159018170Y-133324800D02*
X158970551Y-133277180D01*
X158970551Y-133277180D02*
X158922932Y-133181942D01*
X158922932Y-133181942D02*
X158922932Y-132896228D01*
X158922932Y-132896228D02*
X158970551Y-132800990D01*
X158970551Y-132800990D02*
X159018170Y-132753371D01*
X159018170Y-132753371D02*
X159113408Y-132705752D01*
X159113408Y-132705752D02*
X159303884Y-132705752D01*
X159303884Y-132705752D02*
X159399122Y-132753371D01*
X160589599Y-133086704D02*
X161065789Y-133086704D01*
X160494361Y-133372419D02*
X160827694Y-132372419D01*
X160827694Y-132372419D02*
X161161027Y-133372419D01*
X161494361Y-132705752D02*
X161494361Y-133372419D01*
X161494361Y-132800990D02*
X161541980Y-132753371D01*
X161541980Y-132753371D02*
X161637218Y-132705752D01*
X161637218Y-132705752D02*
X161780075Y-132705752D01*
X161780075Y-132705752D02*
X161875313Y-132753371D01*
X161875313Y-132753371D02*
X161922932Y-132848609D01*
X161922932Y-132848609D02*
X161922932Y-133372419D01*
X162827694Y-133372419D02*
X162827694Y-132848609D01*
X162827694Y-132848609D02*
X162780075Y-132753371D01*
X162780075Y-132753371D02*
X162684837Y-132705752D01*
X162684837Y-132705752D02*
X162494361Y-132705752D01*
X162494361Y-132705752D02*
X162399123Y-132753371D01*
X162827694Y-133324800D02*
X162732456Y-133372419D01*
X162732456Y-133372419D02*
X162494361Y-133372419D01*
X162494361Y-133372419D02*
X162399123Y-133324800D01*
X162399123Y-133324800D02*
X162351504Y-133229561D01*
X162351504Y-133229561D02*
X162351504Y-133134323D01*
X162351504Y-133134323D02*
X162399123Y-133039085D01*
X162399123Y-133039085D02*
X162494361Y-132991466D01*
X162494361Y-132991466D02*
X162732456Y-132991466D01*
X162732456Y-132991466D02*
X162827694Y-132943847D01*
X163446742Y-133372419D02*
X163351504Y-133324800D01*
X163351504Y-133324800D02*
X163303885Y-133229561D01*
X163303885Y-133229561D02*
X163303885Y-132372419D01*
X163732457Y-132705752D02*
X163970552Y-133372419D01*
X164208647Y-132705752D02*
X163970552Y-133372419D01*
X163970552Y-133372419D02*
X163875314Y-133610514D01*
X163875314Y-133610514D02*
X163827695Y-133658133D01*
X163827695Y-133658133D02*
X163732457Y-133705752D01*
X164494362Y-132705752D02*
X165018171Y-132705752D01*
X165018171Y-132705752D02*
X164494362Y-133372419D01*
X164494362Y-133372419D02*
X165018171Y-133372419D01*
X165780076Y-133324800D02*
X165684838Y-133372419D01*
X165684838Y-133372419D02*
X165494362Y-133372419D01*
X165494362Y-133372419D02*
X165399124Y-133324800D01*
X165399124Y-133324800D02*
X165351505Y-133229561D01*
X165351505Y-133229561D02*
X165351505Y-132848609D01*
X165351505Y-132848609D02*
X165399124Y-132753371D01*
X165399124Y-132753371D02*
X165494362Y-132705752D01*
X165494362Y-132705752D02*
X165684838Y-132705752D01*
X165684838Y-132705752D02*
X165780076Y-132753371D01*
X165780076Y-132753371D02*
X165827695Y-132848609D01*
X165827695Y-132848609D02*
X165827695Y-132943847D01*
X165827695Y-132943847D02*
X165351505Y-133039085D01*
X166256267Y-133372419D02*
X166256267Y-132705752D01*
X166256267Y-132896228D02*
X166303886Y-132800990D01*
X166303886Y-132800990D02*
X166351505Y-132753371D01*
X166351505Y-132753371D02*
X166446743Y-132705752D01*
X166446743Y-132705752D02*
X166541981Y-132705752D01*
X167541982Y-132705752D02*
X167780077Y-133372419D01*
X167780077Y-133372419D02*
X168018172Y-132705752D01*
X168922934Y-133372419D02*
X168351506Y-133372419D01*
X168637220Y-133372419D02*
X168637220Y-132372419D01*
X168637220Y-132372419D02*
X168541982Y-132515276D01*
X168541982Y-132515276D02*
X168446744Y-132610514D01*
X168446744Y-132610514D02*
X168351506Y-132658133D01*
X169351506Y-133277180D02*
X169399125Y-133324800D01*
X169399125Y-133324800D02*
X169351506Y-133372419D01*
X169351506Y-133372419D02*
X169303887Y-133324800D01*
X169303887Y-133324800D02*
X169351506Y-133277180D01*
X169351506Y-133277180D02*
X169351506Y-133372419D01*
X170018172Y-132372419D02*
X170113410Y-132372419D01*
X170113410Y-132372419D02*
X170208648Y-132420038D01*
X170208648Y-132420038D02*
X170256267Y-132467657D01*
X170256267Y-132467657D02*
X170303886Y-132562895D01*
X170303886Y-132562895D02*
X170351505Y-132753371D01*
X170351505Y-132753371D02*
X170351505Y-132991466D01*
X170351505Y-132991466D02*
X170303886Y-133181942D01*
X170303886Y-133181942D02*
X170256267Y-133277180D01*
X170256267Y-133277180D02*
X170208648Y-133324800D01*
X170208648Y-133324800D02*
X170113410Y-133372419D01*
X170113410Y-133372419D02*
X170018172Y-133372419D01*
X170018172Y-133372419D02*
X169922934Y-133324800D01*
X169922934Y-133324800D02*
X169875315Y-133277180D01*
X169875315Y-133277180D02*
X169827696Y-133181942D01*
X169827696Y-133181942D02*
X169780077Y-132991466D01*
X169780077Y-132991466D02*
X169780077Y-132753371D01*
X169780077Y-132753371D02*
X169827696Y-132562895D01*
X169827696Y-132562895D02*
X169875315Y-132467657D01*
X169875315Y-132467657D02*
X169922934Y-132420038D01*
X169922934Y-132420038D02*
X170018172Y-132372419D01*
D11*
X143936905Y-95454819D02*
X143936905Y-94454819D01*
X143936905Y-94454819D02*
X144317857Y-94454819D01*
X144317857Y-94454819D02*
X144413095Y-94502438D01*
X144413095Y-94502438D02*
X144460714Y-94550057D01*
X144460714Y-94550057D02*
X144508333Y-94645295D01*
X144508333Y-94645295D02*
X144508333Y-94788152D01*
X144508333Y-94788152D02*
X144460714Y-94883390D01*
X144460714Y-94883390D02*
X144413095Y-94931009D01*
X144413095Y-94931009D02*
X144317857Y-94978628D01*
X144317857Y-94978628D02*
X143936905Y-94978628D01*
X145460714Y-95454819D02*
X144889286Y-95454819D01*
X145175000Y-95454819D02*
X145175000Y-94454819D01*
X145175000Y-94454819D02*
X145079762Y-94597676D01*
X145079762Y-94597676D02*
X144984524Y-94692914D01*
X144984524Y-94692914D02*
X144889286Y-94740533D01*
X146023809Y-123478628D02*
X146023809Y-123954819D01*
X145690476Y-122954819D02*
X146023809Y-123478628D01*
X146023809Y-123478628D02*
X146357142Y-122954819D01*
X146642857Y-123050057D02*
X146690476Y-123002438D01*
X146690476Y-123002438D02*
X146785714Y-122954819D01*
X146785714Y-122954819D02*
X147023809Y-122954819D01*
X147023809Y-122954819D02*
X147119047Y-123002438D01*
X147119047Y-123002438D02*
X147166666Y-123050057D01*
X147166666Y-123050057D02*
X147214285Y-123145295D01*
X147214285Y-123145295D02*
X147214285Y-123240533D01*
X147214285Y-123240533D02*
X147166666Y-123383390D01*
X147166666Y-123383390D02*
X146595238Y-123954819D01*
X146595238Y-123954819D02*
X147214285Y-123954819D01*
X143607142Y-128359580D02*
X143559523Y-128407200D01*
X143559523Y-128407200D02*
X143416666Y-128454819D01*
X143416666Y-128454819D02*
X143321428Y-128454819D01*
X143321428Y-128454819D02*
X143178571Y-128407200D01*
X143178571Y-128407200D02*
X143083333Y-128311961D01*
X143083333Y-128311961D02*
X143035714Y-128216723D01*
X143035714Y-128216723D02*
X142988095Y-128026247D01*
X142988095Y-128026247D02*
X142988095Y-127883390D01*
X142988095Y-127883390D02*
X143035714Y-127692914D01*
X143035714Y-127692914D02*
X143083333Y-127597676D01*
X143083333Y-127597676D02*
X143178571Y-127502438D01*
X143178571Y-127502438D02*
X143321428Y-127454819D01*
X143321428Y-127454819D02*
X143416666Y-127454819D01*
X143416666Y-127454819D02*
X143559523Y-127502438D01*
X143559523Y-127502438D02*
X143607142Y-127550057D01*
X144559523Y-128454819D02*
X143988095Y-128454819D01*
X144273809Y-128454819D02*
X144273809Y-127454819D01*
X144273809Y-127454819D02*
X144178571Y-127597676D01*
X144178571Y-127597676D02*
X144083333Y-127692914D01*
X144083333Y-127692914D02*
X143988095Y-127740533D01*
X145464285Y-127454819D02*
X144988095Y-127454819D01*
X144988095Y-127454819D02*
X144940476Y-127931009D01*
X144940476Y-127931009D02*
X144988095Y-127883390D01*
X144988095Y-127883390D02*
X145083333Y-127835771D01*
X145083333Y-127835771D02*
X145321428Y-127835771D01*
X145321428Y-127835771D02*
X145416666Y-127883390D01*
X145416666Y-127883390D02*
X145464285Y-127931009D01*
X145464285Y-127931009D02*
X145511904Y-128026247D01*
X145511904Y-128026247D02*
X145511904Y-128264342D01*
X145511904Y-128264342D02*
X145464285Y-128359580D01*
X145464285Y-128359580D02*
X145416666Y-128407200D01*
X145416666Y-128407200D02*
X145321428Y-128454819D01*
X145321428Y-128454819D02*
X145083333Y-128454819D01*
X145083333Y-128454819D02*
X144988095Y-128407200D01*
X144988095Y-128407200D02*
X144940476Y-128359580D01*
X110929580Y-97642857D02*
X110977200Y-97690476D01*
X110977200Y-97690476D02*
X111024819Y-97833333D01*
X111024819Y-97833333D02*
X111024819Y-97928571D01*
X111024819Y-97928571D02*
X110977200Y-98071428D01*
X110977200Y-98071428D02*
X110881961Y-98166666D01*
X110881961Y-98166666D02*
X110786723Y-98214285D01*
X110786723Y-98214285D02*
X110596247Y-98261904D01*
X110596247Y-98261904D02*
X110453390Y-98261904D01*
X110453390Y-98261904D02*
X110262914Y-98214285D01*
X110262914Y-98214285D02*
X110167676Y-98166666D01*
X110167676Y-98166666D02*
X110072438Y-98071428D01*
X110072438Y-98071428D02*
X110024819Y-97928571D01*
X110024819Y-97928571D02*
X110024819Y-97833333D01*
X110024819Y-97833333D02*
X110072438Y-97690476D01*
X110072438Y-97690476D02*
X110120057Y-97642857D01*
X111024819Y-96690476D02*
X111024819Y-97261904D01*
X111024819Y-96976190D02*
X110024819Y-96976190D01*
X110024819Y-96976190D02*
X110167676Y-97071428D01*
X110167676Y-97071428D02*
X110262914Y-97166666D01*
X110262914Y-97166666D02*
X110310533Y-97261904D01*
X110358152Y-95833333D02*
X111024819Y-95833333D01*
X109977200Y-96071428D02*
X110691485Y-96309523D01*
X110691485Y-96309523D02*
X110691485Y-95690476D01*
X134333333Y-116454819D02*
X134000000Y-115978628D01*
X133761905Y-116454819D02*
X133761905Y-115454819D01*
X133761905Y-115454819D02*
X134142857Y-115454819D01*
X134142857Y-115454819D02*
X134238095Y-115502438D01*
X134238095Y-115502438D02*
X134285714Y-115550057D01*
X134285714Y-115550057D02*
X134333333Y-115645295D01*
X134333333Y-115645295D02*
X134333333Y-115788152D01*
X134333333Y-115788152D02*
X134285714Y-115883390D01*
X134285714Y-115883390D02*
X134238095Y-115931009D01*
X134238095Y-115931009D02*
X134142857Y-115978628D01*
X134142857Y-115978628D02*
X133761905Y-115978628D01*
X135238095Y-115454819D02*
X134761905Y-115454819D01*
X134761905Y-115454819D02*
X134714286Y-115931009D01*
X134714286Y-115931009D02*
X134761905Y-115883390D01*
X134761905Y-115883390D02*
X134857143Y-115835771D01*
X134857143Y-115835771D02*
X135095238Y-115835771D01*
X135095238Y-115835771D02*
X135190476Y-115883390D01*
X135190476Y-115883390D02*
X135238095Y-115931009D01*
X135238095Y-115931009D02*
X135285714Y-116026247D01*
X135285714Y-116026247D02*
X135285714Y-116264342D01*
X135285714Y-116264342D02*
X135238095Y-116359580D01*
X135238095Y-116359580D02*
X135190476Y-116407200D01*
X135190476Y-116407200D02*
X135095238Y-116454819D01*
X135095238Y-116454819D02*
X134857143Y-116454819D01*
X134857143Y-116454819D02*
X134761905Y-116407200D01*
X134761905Y-116407200D02*
X134714286Y-116359580D01*
X155833333Y-119359580D02*
X155785714Y-119407200D01*
X155785714Y-119407200D02*
X155642857Y-119454819D01*
X155642857Y-119454819D02*
X155547619Y-119454819D01*
X155547619Y-119454819D02*
X155404762Y-119407200D01*
X155404762Y-119407200D02*
X155309524Y-119311961D01*
X155309524Y-119311961D02*
X155261905Y-119216723D01*
X155261905Y-119216723D02*
X155214286Y-119026247D01*
X155214286Y-119026247D02*
X155214286Y-118883390D01*
X155214286Y-118883390D02*
X155261905Y-118692914D01*
X155261905Y-118692914D02*
X155309524Y-118597676D01*
X155309524Y-118597676D02*
X155404762Y-118502438D01*
X155404762Y-118502438D02*
X155547619Y-118454819D01*
X155547619Y-118454819D02*
X155642857Y-118454819D01*
X155642857Y-118454819D02*
X155785714Y-118502438D01*
X155785714Y-118502438D02*
X155833333Y-118550057D01*
X156785714Y-119454819D02*
X156214286Y-119454819D01*
X156500000Y-119454819D02*
X156500000Y-118454819D01*
X156500000Y-118454819D02*
X156404762Y-118597676D01*
X156404762Y-118597676D02*
X156309524Y-118692914D01*
X156309524Y-118692914D02*
X156214286Y-118740533D01*
X150833333Y-105454819D02*
X150500000Y-104978628D01*
X150261905Y-105454819D02*
X150261905Y-104454819D01*
X150261905Y-104454819D02*
X150642857Y-104454819D01*
X150642857Y-104454819D02*
X150738095Y-104502438D01*
X150738095Y-104502438D02*
X150785714Y-104550057D01*
X150785714Y-104550057D02*
X150833333Y-104645295D01*
X150833333Y-104645295D02*
X150833333Y-104788152D01*
X150833333Y-104788152D02*
X150785714Y-104883390D01*
X150785714Y-104883390D02*
X150738095Y-104931009D01*
X150738095Y-104931009D02*
X150642857Y-104978628D01*
X150642857Y-104978628D02*
X150261905Y-104978628D01*
X151785714Y-105454819D02*
X151214286Y-105454819D01*
X151500000Y-105454819D02*
X151500000Y-104454819D01*
X151500000Y-104454819D02*
X151404762Y-104597676D01*
X151404762Y-104597676D02*
X151309524Y-104692914D01*
X151309524Y-104692914D02*
X151214286Y-104740533D01*
X152738095Y-106954819D02*
X152738095Y-107764342D01*
X152738095Y-107764342D02*
X152785714Y-107859580D01*
X152785714Y-107859580D02*
X152833333Y-107907200D01*
X152833333Y-107907200D02*
X152928571Y-107954819D01*
X152928571Y-107954819D02*
X153119047Y-107954819D01*
X153119047Y-107954819D02*
X153214285Y-107907200D01*
X153214285Y-107907200D02*
X153261904Y-107859580D01*
X153261904Y-107859580D02*
X153309523Y-107764342D01*
X153309523Y-107764342D02*
X153309523Y-106954819D01*
X153738095Y-107050057D02*
X153785714Y-107002438D01*
X153785714Y-107002438D02*
X153880952Y-106954819D01*
X153880952Y-106954819D02*
X154119047Y-106954819D01*
X154119047Y-106954819D02*
X154214285Y-107002438D01*
X154214285Y-107002438D02*
X154261904Y-107050057D01*
X154261904Y-107050057D02*
X154309523Y-107145295D01*
X154309523Y-107145295D02*
X154309523Y-107240533D01*
X154309523Y-107240533D02*
X154261904Y-107383390D01*
X154261904Y-107383390D02*
X153690476Y-107954819D01*
X153690476Y-107954819D02*
X154309523Y-107954819D01*
X152454819Y-98238094D02*
X151454819Y-98238094D01*
X151454819Y-98238094D02*
X151454819Y-97999999D01*
X151454819Y-97999999D02*
X151502438Y-97857142D01*
X151502438Y-97857142D02*
X151597676Y-97761904D01*
X151597676Y-97761904D02*
X151692914Y-97714285D01*
X151692914Y-97714285D02*
X151883390Y-97666666D01*
X151883390Y-97666666D02*
X152026247Y-97666666D01*
X152026247Y-97666666D02*
X152216723Y-97714285D01*
X152216723Y-97714285D02*
X152311961Y-97761904D01*
X152311961Y-97761904D02*
X152407200Y-97857142D01*
X152407200Y-97857142D02*
X152454819Y-97999999D01*
X152454819Y-97999999D02*
X152454819Y-98238094D01*
X151550057Y-97285713D02*
X151502438Y-97238094D01*
X151502438Y-97238094D02*
X151454819Y-97142856D01*
X151454819Y-97142856D02*
X151454819Y-96904761D01*
X151454819Y-96904761D02*
X151502438Y-96809523D01*
X151502438Y-96809523D02*
X151550057Y-96761904D01*
X151550057Y-96761904D02*
X151645295Y-96714285D01*
X151645295Y-96714285D02*
X151740533Y-96714285D01*
X151740533Y-96714285D02*
X151883390Y-96761904D01*
X151883390Y-96761904D02*
X152454819Y-97333332D01*
X152454819Y-97333332D02*
X152454819Y-96714285D01*
X131833333Y-116454819D02*
X131500000Y-115978628D01*
X131261905Y-116454819D02*
X131261905Y-115454819D01*
X131261905Y-115454819D02*
X131642857Y-115454819D01*
X131642857Y-115454819D02*
X131738095Y-115502438D01*
X131738095Y-115502438D02*
X131785714Y-115550057D01*
X131785714Y-115550057D02*
X131833333Y-115645295D01*
X131833333Y-115645295D02*
X131833333Y-115788152D01*
X131833333Y-115788152D02*
X131785714Y-115883390D01*
X131785714Y-115883390D02*
X131738095Y-115931009D01*
X131738095Y-115931009D02*
X131642857Y-115978628D01*
X131642857Y-115978628D02*
X131261905Y-115978628D01*
X132690476Y-115454819D02*
X132500000Y-115454819D01*
X132500000Y-115454819D02*
X132404762Y-115502438D01*
X132404762Y-115502438D02*
X132357143Y-115550057D01*
X132357143Y-115550057D02*
X132261905Y-115692914D01*
X132261905Y-115692914D02*
X132214286Y-115883390D01*
X132214286Y-115883390D02*
X132214286Y-116264342D01*
X132214286Y-116264342D02*
X132261905Y-116359580D01*
X132261905Y-116359580D02*
X132309524Y-116407200D01*
X132309524Y-116407200D02*
X132404762Y-116454819D01*
X132404762Y-116454819D02*
X132595238Y-116454819D01*
X132595238Y-116454819D02*
X132690476Y-116407200D01*
X132690476Y-116407200D02*
X132738095Y-116359580D01*
X132738095Y-116359580D02*
X132785714Y-116264342D01*
X132785714Y-116264342D02*
X132785714Y-116026247D01*
X132785714Y-116026247D02*
X132738095Y-115931009D01*
X132738095Y-115931009D02*
X132690476Y-115883390D01*
X132690476Y-115883390D02*
X132595238Y-115835771D01*
X132595238Y-115835771D02*
X132404762Y-115835771D01*
X132404762Y-115835771D02*
X132309524Y-115883390D01*
X132309524Y-115883390D02*
X132261905Y-115931009D01*
X132261905Y-115931009D02*
X132214286Y-116026247D01*
X150833333Y-109359580D02*
X150785714Y-109407200D01*
X150785714Y-109407200D02*
X150642857Y-109454819D01*
X150642857Y-109454819D02*
X150547619Y-109454819D01*
X150547619Y-109454819D02*
X150404762Y-109407200D01*
X150404762Y-109407200D02*
X150309524Y-109311961D01*
X150309524Y-109311961D02*
X150261905Y-109216723D01*
X150261905Y-109216723D02*
X150214286Y-109026247D01*
X150214286Y-109026247D02*
X150214286Y-108883390D01*
X150214286Y-108883390D02*
X150261905Y-108692914D01*
X150261905Y-108692914D02*
X150309524Y-108597676D01*
X150309524Y-108597676D02*
X150404762Y-108502438D01*
X150404762Y-108502438D02*
X150547619Y-108454819D01*
X150547619Y-108454819D02*
X150642857Y-108454819D01*
X150642857Y-108454819D02*
X150785714Y-108502438D01*
X150785714Y-108502438D02*
X150833333Y-108550057D01*
X151404762Y-108883390D02*
X151309524Y-108835771D01*
X151309524Y-108835771D02*
X151261905Y-108788152D01*
X151261905Y-108788152D02*
X151214286Y-108692914D01*
X151214286Y-108692914D02*
X151214286Y-108645295D01*
X151214286Y-108645295D02*
X151261905Y-108550057D01*
X151261905Y-108550057D02*
X151309524Y-108502438D01*
X151309524Y-108502438D02*
X151404762Y-108454819D01*
X151404762Y-108454819D02*
X151595238Y-108454819D01*
X151595238Y-108454819D02*
X151690476Y-108502438D01*
X151690476Y-108502438D02*
X151738095Y-108550057D01*
X151738095Y-108550057D02*
X151785714Y-108645295D01*
X151785714Y-108645295D02*
X151785714Y-108692914D01*
X151785714Y-108692914D02*
X151738095Y-108788152D01*
X151738095Y-108788152D02*
X151690476Y-108835771D01*
X151690476Y-108835771D02*
X151595238Y-108883390D01*
X151595238Y-108883390D02*
X151404762Y-108883390D01*
X151404762Y-108883390D02*
X151309524Y-108931009D01*
X151309524Y-108931009D02*
X151261905Y-108978628D01*
X151261905Y-108978628D02*
X151214286Y-109073866D01*
X151214286Y-109073866D02*
X151214286Y-109264342D01*
X151214286Y-109264342D02*
X151261905Y-109359580D01*
X151261905Y-109359580D02*
X151309524Y-109407200D01*
X151309524Y-109407200D02*
X151404762Y-109454819D01*
X151404762Y-109454819D02*
X151595238Y-109454819D01*
X151595238Y-109454819D02*
X151690476Y-109407200D01*
X151690476Y-109407200D02*
X151738095Y-109359580D01*
X151738095Y-109359580D02*
X151785714Y-109264342D01*
X151785714Y-109264342D02*
X151785714Y-109073866D01*
X151785714Y-109073866D02*
X151738095Y-108978628D01*
X151738095Y-108978628D02*
X151690476Y-108931009D01*
X151690476Y-108931009D02*
X151595238Y-108883390D01*
X144738095Y-116454819D02*
X144738095Y-117264342D01*
X144738095Y-117264342D02*
X144785714Y-117359580D01*
X144785714Y-117359580D02*
X144833333Y-117407200D01*
X144833333Y-117407200D02*
X144928571Y-117454819D01*
X144928571Y-117454819D02*
X145119047Y-117454819D01*
X145119047Y-117454819D02*
X145214285Y-117407200D01*
X145214285Y-117407200D02*
X145261904Y-117359580D01*
X145261904Y-117359580D02*
X145309523Y-117264342D01*
X145309523Y-117264342D02*
X145309523Y-116454819D01*
X146309523Y-117454819D02*
X145738095Y-117454819D01*
X146023809Y-117454819D02*
X146023809Y-116454819D01*
X146023809Y-116454819D02*
X145928571Y-116597676D01*
X145928571Y-116597676D02*
X145833333Y-116692914D01*
X145833333Y-116692914D02*
X145738095Y-116740533D01*
X157857142Y-105179580D02*
X157809523Y-105227200D01*
X157809523Y-105227200D02*
X157666666Y-105274819D01*
X157666666Y-105274819D02*
X157571428Y-105274819D01*
X157571428Y-105274819D02*
X157428571Y-105227200D01*
X157428571Y-105227200D02*
X157333333Y-105131961D01*
X157333333Y-105131961D02*
X157285714Y-105036723D01*
X157285714Y-105036723D02*
X157238095Y-104846247D01*
X157238095Y-104846247D02*
X157238095Y-104703390D01*
X157238095Y-104703390D02*
X157285714Y-104512914D01*
X157285714Y-104512914D02*
X157333333Y-104417676D01*
X157333333Y-104417676D02*
X157428571Y-104322438D01*
X157428571Y-104322438D02*
X157571428Y-104274819D01*
X157571428Y-104274819D02*
X157666666Y-104274819D01*
X157666666Y-104274819D02*
X157809523Y-104322438D01*
X157809523Y-104322438D02*
X157857142Y-104370057D01*
X158809523Y-105274819D02*
X158238095Y-105274819D01*
X158523809Y-105274819D02*
X158523809Y-104274819D01*
X158523809Y-104274819D02*
X158428571Y-104417676D01*
X158428571Y-104417676D02*
X158333333Y-104512914D01*
X158333333Y-104512914D02*
X158238095Y-104560533D01*
X159428571Y-104274819D02*
X159523809Y-104274819D01*
X159523809Y-104274819D02*
X159619047Y-104322438D01*
X159619047Y-104322438D02*
X159666666Y-104370057D01*
X159666666Y-104370057D02*
X159714285Y-104465295D01*
X159714285Y-104465295D02*
X159761904Y-104655771D01*
X159761904Y-104655771D02*
X159761904Y-104893866D01*
X159761904Y-104893866D02*
X159714285Y-105084342D01*
X159714285Y-105084342D02*
X159666666Y-105179580D01*
X159666666Y-105179580D02*
X159619047Y-105227200D01*
X159619047Y-105227200D02*
X159523809Y-105274819D01*
X159523809Y-105274819D02*
X159428571Y-105274819D01*
X159428571Y-105274819D02*
X159333333Y-105227200D01*
X159333333Y-105227200D02*
X159285714Y-105179580D01*
X159285714Y-105179580D02*
X159238095Y-105084342D01*
X159238095Y-105084342D02*
X159190476Y-104893866D01*
X159190476Y-104893866D02*
X159190476Y-104655771D01*
X159190476Y-104655771D02*
X159238095Y-104465295D01*
X159238095Y-104465295D02*
X159285714Y-104370057D01*
X159285714Y-104370057D02*
X159333333Y-104322438D01*
X159333333Y-104322438D02*
X159428571Y-104274819D01*
X139333333Y-124609580D02*
X139285714Y-124657200D01*
X139285714Y-124657200D02*
X139142857Y-124704819D01*
X139142857Y-124704819D02*
X139047619Y-124704819D01*
X139047619Y-124704819D02*
X138904762Y-124657200D01*
X138904762Y-124657200D02*
X138809524Y-124561961D01*
X138809524Y-124561961D02*
X138761905Y-124466723D01*
X138761905Y-124466723D02*
X138714286Y-124276247D01*
X138714286Y-124276247D02*
X138714286Y-124133390D01*
X138714286Y-124133390D02*
X138761905Y-123942914D01*
X138761905Y-123942914D02*
X138809524Y-123847676D01*
X138809524Y-123847676D02*
X138904762Y-123752438D01*
X138904762Y-123752438D02*
X139047619Y-123704819D01*
X139047619Y-123704819D02*
X139142857Y-123704819D01*
X139142857Y-123704819D02*
X139285714Y-123752438D01*
X139285714Y-123752438D02*
X139333333Y-123800057D01*
X139666667Y-123704819D02*
X140333333Y-123704819D01*
X140333333Y-123704819D02*
X139904762Y-124704819D01*
X154166666Y-110931009D02*
X153833333Y-110931009D01*
X153833333Y-111454819D02*
X153833333Y-110454819D01*
X153833333Y-110454819D02*
X154309523Y-110454819D01*
X155023809Y-110931009D02*
X155166666Y-110978628D01*
X155166666Y-110978628D02*
X155214285Y-111026247D01*
X155214285Y-111026247D02*
X155261904Y-111121485D01*
X155261904Y-111121485D02*
X155261904Y-111264342D01*
X155261904Y-111264342D02*
X155214285Y-111359580D01*
X155214285Y-111359580D02*
X155166666Y-111407200D01*
X155166666Y-111407200D02*
X155071428Y-111454819D01*
X155071428Y-111454819D02*
X154690476Y-111454819D01*
X154690476Y-111454819D02*
X154690476Y-110454819D01*
X154690476Y-110454819D02*
X155023809Y-110454819D01*
X155023809Y-110454819D02*
X155119047Y-110502438D01*
X155119047Y-110502438D02*
X155166666Y-110550057D01*
X155166666Y-110550057D02*
X155214285Y-110645295D01*
X155214285Y-110645295D02*
X155214285Y-110740533D01*
X155214285Y-110740533D02*
X155166666Y-110835771D01*
X155166666Y-110835771D02*
X155119047Y-110883390D01*
X155119047Y-110883390D02*
X155023809Y-110931009D01*
X155023809Y-110931009D02*
X154690476Y-110931009D01*
X156214285Y-111454819D02*
X155642857Y-111454819D01*
X155928571Y-111454819D02*
X155928571Y-110454819D01*
X155928571Y-110454819D02*
X155833333Y-110597676D01*
X155833333Y-110597676D02*
X155738095Y-110692914D01*
X155738095Y-110692914D02*
X155642857Y-110740533D01*
X155833333Y-113359580D02*
X155785714Y-113407200D01*
X155785714Y-113407200D02*
X155642857Y-113454819D01*
X155642857Y-113454819D02*
X155547619Y-113454819D01*
X155547619Y-113454819D02*
X155404762Y-113407200D01*
X155404762Y-113407200D02*
X155309524Y-113311961D01*
X155309524Y-113311961D02*
X155261905Y-113216723D01*
X155261905Y-113216723D02*
X155214286Y-113026247D01*
X155214286Y-113026247D02*
X155214286Y-112883390D01*
X155214286Y-112883390D02*
X155261905Y-112692914D01*
X155261905Y-112692914D02*
X155309524Y-112597676D01*
X155309524Y-112597676D02*
X155404762Y-112502438D01*
X155404762Y-112502438D02*
X155547619Y-112454819D01*
X155547619Y-112454819D02*
X155642857Y-112454819D01*
X155642857Y-112454819D02*
X155785714Y-112502438D01*
X155785714Y-112502438D02*
X155833333Y-112550057D01*
X156690476Y-112788152D02*
X156690476Y-113454819D01*
X156452381Y-112407200D02*
X156214286Y-113121485D01*
X156214286Y-113121485D02*
X156833333Y-113121485D01*
X157583333Y-110859580D02*
X157535714Y-110907200D01*
X157535714Y-110907200D02*
X157392857Y-110954819D01*
X157392857Y-110954819D02*
X157297619Y-110954819D01*
X157297619Y-110954819D02*
X157154762Y-110907200D01*
X157154762Y-110907200D02*
X157059524Y-110811961D01*
X157059524Y-110811961D02*
X157011905Y-110716723D01*
X157011905Y-110716723D02*
X156964286Y-110526247D01*
X156964286Y-110526247D02*
X156964286Y-110383390D01*
X156964286Y-110383390D02*
X157011905Y-110192914D01*
X157011905Y-110192914D02*
X157059524Y-110097676D01*
X157059524Y-110097676D02*
X157154762Y-110002438D01*
X157154762Y-110002438D02*
X157297619Y-109954819D01*
X157297619Y-109954819D02*
X157392857Y-109954819D01*
X157392857Y-109954819D02*
X157535714Y-110002438D01*
X157535714Y-110002438D02*
X157583333Y-110050057D01*
X158059524Y-110954819D02*
X158250000Y-110954819D01*
X158250000Y-110954819D02*
X158345238Y-110907200D01*
X158345238Y-110907200D02*
X158392857Y-110859580D01*
X158392857Y-110859580D02*
X158488095Y-110716723D01*
X158488095Y-110716723D02*
X158535714Y-110526247D01*
X158535714Y-110526247D02*
X158535714Y-110145295D01*
X158535714Y-110145295D02*
X158488095Y-110050057D01*
X158488095Y-110050057D02*
X158440476Y-110002438D01*
X158440476Y-110002438D02*
X158345238Y-109954819D01*
X158345238Y-109954819D02*
X158154762Y-109954819D01*
X158154762Y-109954819D02*
X158059524Y-110002438D01*
X158059524Y-110002438D02*
X158011905Y-110050057D01*
X158011905Y-110050057D02*
X157964286Y-110145295D01*
X157964286Y-110145295D02*
X157964286Y-110383390D01*
X157964286Y-110383390D02*
X158011905Y-110478628D01*
X158011905Y-110478628D02*
X158059524Y-110526247D01*
X158059524Y-110526247D02*
X158154762Y-110573866D01*
X158154762Y-110573866D02*
X158345238Y-110573866D01*
X158345238Y-110573866D02*
X158440476Y-110526247D01*
X158440476Y-110526247D02*
X158488095Y-110478628D01*
X158488095Y-110478628D02*
X158535714Y-110383390D01*
X155557142Y-100317080D02*
X155509523Y-100364700D01*
X155509523Y-100364700D02*
X155366666Y-100412319D01*
X155366666Y-100412319D02*
X155271428Y-100412319D01*
X155271428Y-100412319D02*
X155128571Y-100364700D01*
X155128571Y-100364700D02*
X155033333Y-100269461D01*
X155033333Y-100269461D02*
X154985714Y-100174223D01*
X154985714Y-100174223D02*
X154938095Y-99983747D01*
X154938095Y-99983747D02*
X154938095Y-99840890D01*
X154938095Y-99840890D02*
X154985714Y-99650414D01*
X154985714Y-99650414D02*
X155033333Y-99555176D01*
X155033333Y-99555176D02*
X155128571Y-99459938D01*
X155128571Y-99459938D02*
X155271428Y-99412319D01*
X155271428Y-99412319D02*
X155366666Y-99412319D01*
X155366666Y-99412319D02*
X155509523Y-99459938D01*
X155509523Y-99459938D02*
X155557142Y-99507557D01*
X156509523Y-100412319D02*
X155938095Y-100412319D01*
X156223809Y-100412319D02*
X156223809Y-99412319D01*
X156223809Y-99412319D02*
X156128571Y-99555176D01*
X156128571Y-99555176D02*
X156033333Y-99650414D01*
X156033333Y-99650414D02*
X155938095Y-99698033D01*
X157461904Y-100412319D02*
X156890476Y-100412319D01*
X157176190Y-100412319D02*
X157176190Y-99412319D01*
X157176190Y-99412319D02*
X157080952Y-99555176D01*
X157080952Y-99555176D02*
X156985714Y-99650414D01*
X156985714Y-99650414D02*
X156890476Y-99698033D01*
X155833333Y-117359580D02*
X155785714Y-117407200D01*
X155785714Y-117407200D02*
X155642857Y-117454819D01*
X155642857Y-117454819D02*
X155547619Y-117454819D01*
X155547619Y-117454819D02*
X155404762Y-117407200D01*
X155404762Y-117407200D02*
X155309524Y-117311961D01*
X155309524Y-117311961D02*
X155261905Y-117216723D01*
X155261905Y-117216723D02*
X155214286Y-117026247D01*
X155214286Y-117026247D02*
X155214286Y-116883390D01*
X155214286Y-116883390D02*
X155261905Y-116692914D01*
X155261905Y-116692914D02*
X155309524Y-116597676D01*
X155309524Y-116597676D02*
X155404762Y-116502438D01*
X155404762Y-116502438D02*
X155547619Y-116454819D01*
X155547619Y-116454819D02*
X155642857Y-116454819D01*
X155642857Y-116454819D02*
X155785714Y-116502438D01*
X155785714Y-116502438D02*
X155833333Y-116550057D01*
X156214286Y-116550057D02*
X156261905Y-116502438D01*
X156261905Y-116502438D02*
X156357143Y-116454819D01*
X156357143Y-116454819D02*
X156595238Y-116454819D01*
X156595238Y-116454819D02*
X156690476Y-116502438D01*
X156690476Y-116502438D02*
X156738095Y-116550057D01*
X156738095Y-116550057D02*
X156785714Y-116645295D01*
X156785714Y-116645295D02*
X156785714Y-116740533D01*
X156785714Y-116740533D02*
X156738095Y-116883390D01*
X156738095Y-116883390D02*
X156166667Y-117454819D01*
X156166667Y-117454819D02*
X156785714Y-117454819D01*
X107936666Y-103204819D02*
X107936666Y-103919104D01*
X107936666Y-103919104D02*
X107889047Y-104061961D01*
X107889047Y-104061961D02*
X107793809Y-104157200D01*
X107793809Y-104157200D02*
X107650952Y-104204819D01*
X107650952Y-104204819D02*
X107555714Y-104204819D01*
X108365238Y-103300057D02*
X108412857Y-103252438D01*
X108412857Y-103252438D02*
X108508095Y-103204819D01*
X108508095Y-103204819D02*
X108746190Y-103204819D01*
X108746190Y-103204819D02*
X108841428Y-103252438D01*
X108841428Y-103252438D02*
X108889047Y-103300057D01*
X108889047Y-103300057D02*
X108936666Y-103395295D01*
X108936666Y-103395295D02*
X108936666Y-103490533D01*
X108936666Y-103490533D02*
X108889047Y-103633390D01*
X108889047Y-103633390D02*
X108317619Y-104204819D01*
X108317619Y-104204819D02*
X108936666Y-104204819D01*
X129666667Y-94157200D02*
X129809524Y-94204819D01*
X129809524Y-94204819D02*
X130047619Y-94204819D01*
X130047619Y-94204819D02*
X130142857Y-94157200D01*
X130142857Y-94157200D02*
X130190476Y-94109580D01*
X130190476Y-94109580D02*
X130238095Y-94014342D01*
X130238095Y-94014342D02*
X130238095Y-93919104D01*
X130238095Y-93919104D02*
X130190476Y-93823866D01*
X130190476Y-93823866D02*
X130142857Y-93776247D01*
X130142857Y-93776247D02*
X130047619Y-93728628D01*
X130047619Y-93728628D02*
X129857143Y-93681009D01*
X129857143Y-93681009D02*
X129761905Y-93633390D01*
X129761905Y-93633390D02*
X129714286Y-93585771D01*
X129714286Y-93585771D02*
X129666667Y-93490533D01*
X129666667Y-93490533D02*
X129666667Y-93395295D01*
X129666667Y-93395295D02*
X129714286Y-93300057D01*
X129714286Y-93300057D02*
X129761905Y-93252438D01*
X129761905Y-93252438D02*
X129857143Y-93204819D01*
X129857143Y-93204819D02*
X130095238Y-93204819D01*
X130095238Y-93204819D02*
X130238095Y-93252438D01*
X130571429Y-93204819D02*
X130809524Y-94204819D01*
X130809524Y-94204819D02*
X131000000Y-93490533D01*
X131000000Y-93490533D02*
X131190476Y-94204819D01*
X131190476Y-94204819D02*
X131428572Y-93204819D01*
X131761905Y-93300057D02*
X131809524Y-93252438D01*
X131809524Y-93252438D02*
X131904762Y-93204819D01*
X131904762Y-93204819D02*
X132142857Y-93204819D01*
X132142857Y-93204819D02*
X132238095Y-93252438D01*
X132238095Y-93252438D02*
X132285714Y-93300057D01*
X132285714Y-93300057D02*
X132333333Y-93395295D01*
X132333333Y-93395295D02*
X132333333Y-93490533D01*
X132333333Y-93490533D02*
X132285714Y-93633390D01*
X132285714Y-93633390D02*
X131714286Y-94204819D01*
X131714286Y-94204819D02*
X132333333Y-94204819D01*
X134654819Y-118833333D02*
X135369104Y-118833333D01*
X135369104Y-118833333D02*
X135511961Y-118880952D01*
X135511961Y-118880952D02*
X135607200Y-118976190D01*
X135607200Y-118976190D02*
X135654819Y-119119047D01*
X135654819Y-119119047D02*
X135654819Y-119214285D01*
X135654819Y-118357142D02*
X134654819Y-118357142D01*
X134654819Y-118357142D02*
X134654819Y-117976190D01*
X134654819Y-117976190D02*
X134702438Y-117880952D01*
X134702438Y-117880952D02*
X134750057Y-117833333D01*
X134750057Y-117833333D02*
X134845295Y-117785714D01*
X134845295Y-117785714D02*
X134988152Y-117785714D01*
X134988152Y-117785714D02*
X135083390Y-117833333D01*
X135083390Y-117833333D02*
X135131009Y-117880952D01*
X135131009Y-117880952D02*
X135178628Y-117976190D01*
X135178628Y-117976190D02*
X135178628Y-118357142D01*
X135654819Y-116833333D02*
X135654819Y-117404761D01*
X135654819Y-117119047D02*
X134654819Y-117119047D01*
X134654819Y-117119047D02*
X134797676Y-117214285D01*
X134797676Y-117214285D02*
X134892914Y-117309523D01*
X134892914Y-117309523D02*
X134940533Y-117404761D01*
X148333333Y-105454819D02*
X148000000Y-104978628D01*
X147761905Y-105454819D02*
X147761905Y-104454819D01*
X147761905Y-104454819D02*
X148142857Y-104454819D01*
X148142857Y-104454819D02*
X148238095Y-104502438D01*
X148238095Y-104502438D02*
X148285714Y-104550057D01*
X148285714Y-104550057D02*
X148333333Y-104645295D01*
X148333333Y-104645295D02*
X148333333Y-104788152D01*
X148333333Y-104788152D02*
X148285714Y-104883390D01*
X148285714Y-104883390D02*
X148238095Y-104931009D01*
X148238095Y-104931009D02*
X148142857Y-104978628D01*
X148142857Y-104978628D02*
X147761905Y-104978628D01*
X148666667Y-104454819D02*
X149285714Y-104454819D01*
X149285714Y-104454819D02*
X148952381Y-104835771D01*
X148952381Y-104835771D02*
X149095238Y-104835771D01*
X149095238Y-104835771D02*
X149190476Y-104883390D01*
X149190476Y-104883390D02*
X149238095Y-104931009D01*
X149238095Y-104931009D02*
X149285714Y-105026247D01*
X149285714Y-105026247D02*
X149285714Y-105264342D01*
X149285714Y-105264342D02*
X149238095Y-105359580D01*
X149238095Y-105359580D02*
X149190476Y-105407200D01*
X149190476Y-105407200D02*
X149095238Y-105454819D01*
X149095238Y-105454819D02*
X148809524Y-105454819D01*
X148809524Y-105454819D02*
X148714286Y-105407200D01*
X148714286Y-105407200D02*
X148666667Y-105359580D01*
X136833333Y-123859580D02*
X136785714Y-123907200D01*
X136785714Y-123907200D02*
X136642857Y-123954819D01*
X136642857Y-123954819D02*
X136547619Y-123954819D01*
X136547619Y-123954819D02*
X136404762Y-123907200D01*
X136404762Y-123907200D02*
X136309524Y-123811961D01*
X136309524Y-123811961D02*
X136261905Y-123716723D01*
X136261905Y-123716723D02*
X136214286Y-123526247D01*
X136214286Y-123526247D02*
X136214286Y-123383390D01*
X136214286Y-123383390D02*
X136261905Y-123192914D01*
X136261905Y-123192914D02*
X136309524Y-123097676D01*
X136309524Y-123097676D02*
X136404762Y-123002438D01*
X136404762Y-123002438D02*
X136547619Y-122954819D01*
X136547619Y-122954819D02*
X136642857Y-122954819D01*
X136642857Y-122954819D02*
X136785714Y-123002438D01*
X136785714Y-123002438D02*
X136833333Y-123050057D01*
X137738095Y-122954819D02*
X137261905Y-122954819D01*
X137261905Y-122954819D02*
X137214286Y-123431009D01*
X137214286Y-123431009D02*
X137261905Y-123383390D01*
X137261905Y-123383390D02*
X137357143Y-123335771D01*
X137357143Y-123335771D02*
X137595238Y-123335771D01*
X137595238Y-123335771D02*
X137690476Y-123383390D01*
X137690476Y-123383390D02*
X137738095Y-123431009D01*
X137738095Y-123431009D02*
X137785714Y-123526247D01*
X137785714Y-123526247D02*
X137785714Y-123764342D01*
X137785714Y-123764342D02*
X137738095Y-123859580D01*
X137738095Y-123859580D02*
X137690476Y-123907200D01*
X137690476Y-123907200D02*
X137595238Y-123954819D01*
X137595238Y-123954819D02*
X137357143Y-123954819D01*
X137357143Y-123954819D02*
X137261905Y-123907200D01*
X137261905Y-123907200D02*
X137214286Y-123859580D01*
X155833333Y-115359580D02*
X155785714Y-115407200D01*
X155785714Y-115407200D02*
X155642857Y-115454819D01*
X155642857Y-115454819D02*
X155547619Y-115454819D01*
X155547619Y-115454819D02*
X155404762Y-115407200D01*
X155404762Y-115407200D02*
X155309524Y-115311961D01*
X155309524Y-115311961D02*
X155261905Y-115216723D01*
X155261905Y-115216723D02*
X155214286Y-115026247D01*
X155214286Y-115026247D02*
X155214286Y-114883390D01*
X155214286Y-114883390D02*
X155261905Y-114692914D01*
X155261905Y-114692914D02*
X155309524Y-114597676D01*
X155309524Y-114597676D02*
X155404762Y-114502438D01*
X155404762Y-114502438D02*
X155547619Y-114454819D01*
X155547619Y-114454819D02*
X155642857Y-114454819D01*
X155642857Y-114454819D02*
X155785714Y-114502438D01*
X155785714Y-114502438D02*
X155833333Y-114550057D01*
X156166667Y-114454819D02*
X156785714Y-114454819D01*
X156785714Y-114454819D02*
X156452381Y-114835771D01*
X156452381Y-114835771D02*
X156595238Y-114835771D01*
X156595238Y-114835771D02*
X156690476Y-114883390D01*
X156690476Y-114883390D02*
X156738095Y-114931009D01*
X156738095Y-114931009D02*
X156785714Y-115026247D01*
X156785714Y-115026247D02*
X156785714Y-115264342D01*
X156785714Y-115264342D02*
X156738095Y-115359580D01*
X156738095Y-115359580D02*
X156690476Y-115407200D01*
X156690476Y-115407200D02*
X156595238Y-115454819D01*
X156595238Y-115454819D02*
X156309524Y-115454819D01*
X156309524Y-115454819D02*
X156214286Y-115407200D01*
X156214286Y-115407200D02*
X156166667Y-115359580D01*
X123374819Y-97328333D02*
X124089104Y-97328333D01*
X124089104Y-97328333D02*
X124231961Y-97375952D01*
X124231961Y-97375952D02*
X124327200Y-97471190D01*
X124327200Y-97471190D02*
X124374819Y-97614047D01*
X124374819Y-97614047D02*
X124374819Y-97709285D01*
X124374819Y-96328333D02*
X124374819Y-96899761D01*
X124374819Y-96614047D02*
X123374819Y-96614047D01*
X123374819Y-96614047D02*
X123517676Y-96709285D01*
X123517676Y-96709285D02*
X123612914Y-96804523D01*
X123612914Y-96804523D02*
X123660533Y-96899761D01*
X142154819Y-103361904D02*
X142964342Y-103361904D01*
X142964342Y-103361904D02*
X143059580Y-103314285D01*
X143059580Y-103314285D02*
X143107200Y-103266666D01*
X143107200Y-103266666D02*
X143154819Y-103171428D01*
X143154819Y-103171428D02*
X143154819Y-102980952D01*
X143154819Y-102980952D02*
X143107200Y-102885714D01*
X143107200Y-102885714D02*
X143059580Y-102838095D01*
X143059580Y-102838095D02*
X142964342Y-102790476D01*
X142964342Y-102790476D02*
X142154819Y-102790476D01*
X142154819Y-102409523D02*
X142154819Y-101790476D01*
X142154819Y-101790476D02*
X142535771Y-102123809D01*
X142535771Y-102123809D02*
X142535771Y-101980952D01*
X142535771Y-101980952D02*
X142583390Y-101885714D01*
X142583390Y-101885714D02*
X142631009Y-101838095D01*
X142631009Y-101838095D02*
X142726247Y-101790476D01*
X142726247Y-101790476D02*
X142964342Y-101790476D01*
X142964342Y-101790476D02*
X143059580Y-101838095D01*
X143059580Y-101838095D02*
X143107200Y-101885714D01*
X143107200Y-101885714D02*
X143154819Y-101980952D01*
X143154819Y-101980952D02*
X143154819Y-102266666D01*
X143154819Y-102266666D02*
X143107200Y-102361904D01*
X143107200Y-102361904D02*
X143059580Y-102409523D01*
X138333333Y-110359580D02*
X138285714Y-110407200D01*
X138285714Y-110407200D02*
X138142857Y-110454819D01*
X138142857Y-110454819D02*
X138047619Y-110454819D01*
X138047619Y-110454819D02*
X137904762Y-110407200D01*
X137904762Y-110407200D02*
X137809524Y-110311961D01*
X137809524Y-110311961D02*
X137761905Y-110216723D01*
X137761905Y-110216723D02*
X137714286Y-110026247D01*
X137714286Y-110026247D02*
X137714286Y-109883390D01*
X137714286Y-109883390D02*
X137761905Y-109692914D01*
X137761905Y-109692914D02*
X137809524Y-109597676D01*
X137809524Y-109597676D02*
X137904762Y-109502438D01*
X137904762Y-109502438D02*
X138047619Y-109454819D01*
X138047619Y-109454819D02*
X138142857Y-109454819D01*
X138142857Y-109454819D02*
X138285714Y-109502438D01*
X138285714Y-109502438D02*
X138333333Y-109550057D01*
X139190476Y-109454819D02*
X139000000Y-109454819D01*
X139000000Y-109454819D02*
X138904762Y-109502438D01*
X138904762Y-109502438D02*
X138857143Y-109550057D01*
X138857143Y-109550057D02*
X138761905Y-109692914D01*
X138761905Y-109692914D02*
X138714286Y-109883390D01*
X138714286Y-109883390D02*
X138714286Y-110264342D01*
X138714286Y-110264342D02*
X138761905Y-110359580D01*
X138761905Y-110359580D02*
X138809524Y-110407200D01*
X138809524Y-110407200D02*
X138904762Y-110454819D01*
X138904762Y-110454819D02*
X139095238Y-110454819D01*
X139095238Y-110454819D02*
X139190476Y-110407200D01*
X139190476Y-110407200D02*
X139238095Y-110359580D01*
X139238095Y-110359580D02*
X139285714Y-110264342D01*
X139285714Y-110264342D02*
X139285714Y-110026247D01*
X139285714Y-110026247D02*
X139238095Y-109931009D01*
X139238095Y-109931009D02*
X139190476Y-109883390D01*
X139190476Y-109883390D02*
X139095238Y-109835771D01*
X139095238Y-109835771D02*
X138904762Y-109835771D01*
X138904762Y-109835771D02*
X138809524Y-109883390D01*
X138809524Y-109883390D02*
X138761905Y-109931009D01*
X138761905Y-109931009D02*
X138714286Y-110026247D01*
X158454819Y-97666666D02*
X157978628Y-97999999D01*
X158454819Y-98238094D02*
X157454819Y-98238094D01*
X157454819Y-98238094D02*
X157454819Y-97857142D01*
X157454819Y-97857142D02*
X157502438Y-97761904D01*
X157502438Y-97761904D02*
X157550057Y-97714285D01*
X157550057Y-97714285D02*
X157645295Y-97666666D01*
X157645295Y-97666666D02*
X157788152Y-97666666D01*
X157788152Y-97666666D02*
X157883390Y-97714285D01*
X157883390Y-97714285D02*
X157931009Y-97761904D01*
X157931009Y-97761904D02*
X157978628Y-97857142D01*
X157978628Y-97857142D02*
X157978628Y-98238094D01*
X157788152Y-96809523D02*
X158454819Y-96809523D01*
X157407200Y-97047618D02*
X158121485Y-97285713D01*
X158121485Y-97285713D02*
X158121485Y-96666666D01*
D12*
%TO.C,P1*%
X149270000Y-96450000D02*
X149270000Y-95550000D01*
X149270000Y-92850000D02*
X149270000Y-90120000D01*
X149270000Y-90120000D02*
X140080000Y-90120000D01*
X149150000Y-99530000D02*
X140200000Y-99530000D01*
X140080000Y-96450000D02*
X140080000Y-95550000D01*
X140080000Y-92850000D02*
X140080000Y-90120000D01*
%TO.C,Y2*%
X142340000Y-122390000D02*
X142340000Y-125110000D01*
X142340000Y-125110000D02*
X145660000Y-125110000D01*
%TO.C,C15*%
X143988748Y-125515000D02*
X144511252Y-125515000D01*
X143988748Y-126985000D02*
X144511252Y-126985000D01*
%TO.C,C14*%
X111515000Y-97261252D02*
X111515000Y-96738748D01*
X112985000Y-97261252D02*
X112985000Y-96738748D01*
%TO.C,R5*%
X133515000Y-118227064D02*
X133515000Y-117772936D01*
X134985000Y-118227064D02*
X134985000Y-117772936D01*
%TO.C,C1*%
X152738748Y-118265000D02*
X153261252Y-118265000D01*
X152738748Y-119735000D02*
X153261252Y-119735000D01*
%TO.C,R1*%
X150265000Y-102727064D02*
X150265000Y-102272936D01*
X151735000Y-102727064D02*
X151735000Y-102272936D01*
%TO.C,U2*%
X152140000Y-104227500D02*
X152190000Y-104227500D01*
X152140000Y-106047500D02*
X152140000Y-104227500D01*
X152190000Y-106047500D02*
X152140000Y-106047500D01*
X154090000Y-106047500D02*
X153310000Y-106047500D01*
X155210000Y-104227500D02*
X155260000Y-104227500D01*
X155260000Y-104227500D02*
X155260000Y-106047500D01*
X155260000Y-106047500D02*
X155210000Y-106047500D01*
X155540000Y-103927500D02*
X155210000Y-103687500D01*
X155540000Y-103447500D01*
X155540000Y-103927500D01*
G36*
X155540000Y-103927500D02*
G01*
X155210000Y-103687500D01*
X155540000Y-103447500D01*
X155540000Y-103927500D01*
G37*
%TO.C,D2*%
X152540000Y-95640000D02*
X152540000Y-98500000D01*
X154460000Y-95640000D02*
X152540000Y-95640000D01*
X154460000Y-98500000D02*
X154460000Y-95640000D01*
%TO.C,R6*%
X131265000Y-118227064D02*
X131265000Y-117772936D01*
X132735000Y-118227064D02*
X132735000Y-117772936D01*
%TO.C,C8*%
X148765000Y-110011252D02*
X148765000Y-109488748D01*
X150235000Y-110011252D02*
X150235000Y-109488748D01*
%TO.C,U1*%
X141390000Y-113390000D02*
X141840000Y-113390000D01*
X141390000Y-113840000D02*
X141390000Y-113390000D01*
X141390000Y-120610000D02*
X141390000Y-120160000D01*
X141840000Y-120610000D02*
X141390000Y-120610000D01*
X148160000Y-113390000D02*
X148610000Y-113390000D01*
X148610000Y-113390000D02*
X148610000Y-113840000D01*
X148610000Y-120160000D02*
X148610000Y-120610000D01*
X148610000Y-120610000D02*
X148160000Y-120610000D01*
X141840000Y-121250000D02*
X141370000Y-121590000D01*
X141370000Y-120910000D01*
X141840000Y-121250000D01*
G36*
X141840000Y-121250000D02*
G01*
X141370000Y-121590000D01*
X141370000Y-120910000D01*
X141840000Y-121250000D01*
G37*
%TO.C,C10*%
X157488748Y-105765000D02*
X158011252Y-105765000D01*
X157488748Y-107235000D02*
X158011252Y-107235000D01*
%TO.C,C7*%
X140515000Y-123988748D02*
X140515000Y-124511252D01*
X141985000Y-123988748D02*
X141985000Y-124511252D01*
%TO.C,FB1*%
X152589758Y-110440000D02*
X153410242Y-110440000D01*
X152589758Y-111560000D02*
X153410242Y-111560000D01*
%TO.C,C4*%
X152738748Y-112265000D02*
X153261252Y-112265000D01*
X152738748Y-113735000D02*
X153261252Y-113735000D01*
%TO.C,C9*%
X157488748Y-108015000D02*
X158011252Y-108015000D01*
X157488748Y-109485000D02*
X158011252Y-109485000D01*
%TO.C,C11*%
X155938748Y-100902500D02*
X156461252Y-100902500D01*
X155938748Y-102372500D02*
X156461252Y-102372500D01*
%TO.C,C2*%
X152738748Y-116265000D02*
X153261252Y-116265000D01*
X152738748Y-117735000D02*
X153261252Y-117735000D01*
%TO.C,J2*%
X105620000Y-104750000D02*
X107000000Y-104750000D01*
X105620000Y-106130000D02*
X105620000Y-104750000D01*
X105620000Y-107400000D02*
X105620000Y-130370000D01*
X105620000Y-107400000D02*
X108270000Y-107400000D01*
X105620000Y-130370000D02*
X110920000Y-130370000D01*
X108270000Y-104750000D02*
X110920000Y-104750000D01*
X108270000Y-107400000D02*
X108270000Y-104750000D01*
X110920000Y-104750000D02*
X110920000Y-130370000D01*
%TO.C,SW2*%
X127500000Y-97250000D02*
X127500000Y-98750000D01*
X128750000Y-101250000D02*
X133250000Y-101250000D01*
X133250000Y-94750000D02*
X128750000Y-94750000D01*
X134500000Y-98750000D02*
X134500000Y-97250000D01*
%TO.C,JP1*%
X136000000Y-115950000D02*
X138000000Y-115950000D01*
X136000000Y-120050000D02*
X136000000Y-115950000D01*
X138000000Y-115950000D02*
X138000000Y-120050000D01*
X138000000Y-120050000D02*
X136000000Y-120050000D01*
X138200000Y-119300000D02*
X138500000Y-119000000D01*
X138200000Y-119300000D02*
X138500000Y-119600000D01*
X138500000Y-119600000D02*
X138500000Y-119000000D01*
%TO.C,R3*%
X147765000Y-102272936D02*
X147765000Y-102727064D01*
X149235000Y-102272936D02*
X149235000Y-102727064D01*
%TO.C,C5*%
X138223752Y-121265000D02*
X137701248Y-121265000D01*
X138223752Y-122735000D02*
X137701248Y-122735000D01*
%TO.C,C3*%
X152738748Y-114265000D02*
X153261252Y-114265000D01*
X152738748Y-115735000D02*
X153261252Y-115735000D01*
%TO.C,J1*%
X115080000Y-94345000D02*
X115080000Y-99645000D01*
X120270000Y-94345000D02*
X115080000Y-94345000D01*
X120270000Y-94345000D02*
X120270000Y-96995000D01*
X120270000Y-96995000D02*
X122920000Y-96995000D01*
X121540000Y-94345000D02*
X122920000Y-94345000D01*
X122920000Y-94345000D02*
X122920000Y-95725000D01*
X122920000Y-96995000D02*
X122920000Y-99645000D01*
X122920000Y-99645000D02*
X115080000Y-99645000D01*
%TO.C,U3*%
X143540000Y-101690000D02*
X143590000Y-101690000D01*
X143540000Y-103510000D02*
X143540000Y-101690000D01*
X143590000Y-103510000D02*
X143540000Y-103510000D01*
X146610000Y-101690000D02*
X146660000Y-101690000D01*
X146660000Y-101690000D02*
X146660000Y-103510000D01*
X146660000Y-103510000D02*
X146610000Y-103510000D01*
X143590000Y-104050000D02*
X143260000Y-104290000D01*
X143260000Y-103810000D01*
X143590000Y-104050000D01*
G36*
X143590000Y-104050000D02*
G01*
X143260000Y-104290000D01*
X143260000Y-103810000D01*
X143590000Y-104050000D01*
G37*
%TO.C,C6*%
X139765000Y-110261252D02*
X139765000Y-109738748D01*
X141235000Y-110261252D02*
X141235000Y-109738748D01*
%TO.C,R4*%
X155515000Y-97727064D02*
X155515000Y-97272936D01*
X156985000Y-97727064D02*
X156985000Y-97272936D01*
%TD*%
M02*
