M48
; DRILL file {KiCad 9.0.8} date 2026-03-21T14:42:45+0200
; FORMAT={-:-/ absolute / metric / decimal}
; #@! TF.CreationDate,2026-03-21T14:42:45+02:00
; #@! TF.GenerationSoftware,Kicad,Pcbnew,9.0.8
; #@! TF.FileFunction,Plated,1,4,PTH
FMAT,2
METRIC
; #@! TA.AperFunction,Plated,PTH,ViaDrill
T1C0.300
; #@! TA.AperFunction,Plated,PTH,ComponentDrill
T2C0.600
; #@! TA.AperFunction,Plated,PTH,ComponentDrill
T3C1.000
; #@! TA.AperFunction,Plated,PTH,ComponentDrill
T4C1.050
; #@! TA.AperFunction,Plated,PTH,ComponentDrill
T5C1.100
%
G90
G05
T1
X110.0Y-135.0
X112.5Y-99.0
X116.0Y-104.0
X120.0Y-110.0
X120.0Y-117.0
X123.8Y-142.0
X127.85Y-140.85
X132.0Y-120.25
X134.25Y-120.25
X134.65Y-133.15
X135.0Y-105.0
X136.0Y-122.0
X136.5Y-133.4
X136.75Y-115.125
X137.9Y-134.75
X138.0Y-133.5
X138.25Y-132.0
X138.5Y-116.5
X138.5Y-120.0
X138.85Y-103.2
X139.0Y-112.0
X139.0Y-117.65
X139.0Y-119.5
X139.75Y-126.5
X139.8Y-138.1
X140.0Y-140.0
X140.5Y-108.0
X141.0Y-128.0
X141.25Y-126.75
X142.5Y-107.0
X142.625Y-111.125
X143.0Y-125.5
X143.125Y-106.25
X143.5Y-116.0
X144.35Y-106.0
X144.375Y-108.862
X144.875Y-110.241
X145.692Y-109.308
X145.881Y-111.502
X146.15Y-103.1
X146.681Y-111.491
X147.5Y-111.5
X147.5Y-119.5
X148.35Y-104.95
X149.4Y-107.1
X149.5Y-108.0
X150.0Y-135.0
X150.5Y-115.0
X150.5Y-117.0
X150.75Y-126.5
X153.5Y-95.5
X153.5Y-102.5
X155.0Y-113.0
X155.0Y-115.0
X155.0Y-117.0
X155.0Y-119.0
X158.0Y-101.5
X159.5Y-106.5
X159.5Y-108.5
X160.0Y-125.0
X160.0Y-135.0
X162.5Y-99.7
X167.3Y-97.4
X168.9Y-142.95
X170.0Y-97.0
X170.0Y-106.0
X170.0Y-115.0
X170.0Y-125.0
X170.0Y-135.0
X172.287Y-141.05
X180.0Y-106.0
X180.0Y-115.0
X180.0Y-125.0
X180.0Y-135.0
T3
X107.0Y-106.13
X107.0Y-108.67
X107.0Y-111.21
X107.0Y-113.75
X107.0Y-116.29
X107.0Y-118.83
X107.0Y-121.37
X107.0Y-123.91
X107.0Y-126.45
X107.0Y-128.99
X109.54Y-106.13
X109.54Y-108.67
X109.54Y-111.21
X109.54Y-113.75
X109.54Y-116.29
X109.54Y-118.83
X109.54Y-121.37
X109.54Y-123.91
X109.54Y-126.45
X109.54Y-128.99
X116.46Y-95.725
X116.46Y-98.265
X119.0Y-95.725
X119.0Y-98.265
X121.54Y-95.725
X121.54Y-98.265
T4
X121.0Y-139.05
X165.6Y-139.05
T5
X127.75Y-95.75
X127.75Y-100.25
X134.25Y-95.75
X134.25Y-100.25
T2
G00X140.33Y-94.725
M15
G01X140.33Y-93.925
M16
G05
G00X140.33Y-99.055
M15
G01X140.33Y-97.955
M16
G05
G00X148.97Y-94.725
M15
G01X148.97Y-93.925
M16
G05
G00X148.97Y-99.055
M15
G01X148.97Y-97.955
M16
G05
M30
