%TF.GenerationSoftware,KiCad,Pcbnew,9.0.8*%
%TF.CreationDate,2026-03-21T14:42:46+02:00*%
%TF.ProjectId,sound_spectrum_v1,736f756e-645f-4737-9065-637472756d5f,rev?*%
%TF.SameCoordinates,Original*%
%TF.FileFunction,Copper,L3,Inr*%
%TF.FilePolarity,Positive*%
%FSLAX46Y46*%
G04 Gerber Fmt 4.6, Leading zero omitted, Abs format (unit mm)*
G04 Created by KiCad (PCBNEW 9.0.8) date 2026-03-21 14:42:46*
%MOMM*%
%LPD*%
G01*
G04 APERTURE LIST*
%TA.AperFunction,ComponentPad*%
%ADD10C,1.650000*%
%TD*%
%TA.AperFunction,ComponentPad*%
%ADD11R,1.700000X1.700000*%
%TD*%
%TA.AperFunction,ComponentPad*%
%ADD12C,1.700000*%
%TD*%
%TA.AperFunction,ComponentPad*%
%ADD13C,2.000000*%
%TD*%
%TA.AperFunction,HeatsinkPad*%
%ADD14O,1.000000X2.100000*%
%TD*%
%TA.AperFunction,HeatsinkPad*%
%ADD15O,1.000000X1.800000*%
%TD*%
%TA.AperFunction,ViaPad*%
%ADD16C,0.600000*%
%TD*%
G04 APERTURE END LIST*
D10*
%TO.N,GND*%
%TO.C,IC1-L1*%
X165600000Y-139050000D03*
%TD*%
%TO.N,GND*%
%TO.C,IC2-R1*%
X121000000Y-139050000D03*
%TD*%
D11*
%TO.N,+3.3V*%
%TO.C,J2*%
X107000000Y-106130000D03*
D12*
X109540000Y-106130000D03*
X107000000Y-108670000D03*
%TO.N,GND*%
X109540000Y-108670000D03*
X107000000Y-111210000D03*
X109540000Y-111210000D03*
X107000000Y-113750000D03*
%TO.N,VBUS*%
X109540000Y-113750000D03*
X107000000Y-116290000D03*
X109540000Y-116290000D03*
%TO.N,GND*%
X107000000Y-118830000D03*
%TO.N,UART_RX*%
X109540000Y-118830000D03*
%TO.N,UART_TX*%
X107000000Y-121370000D03*
%TO.N,UART_CK*%
X109540000Y-121370000D03*
%TO.N,SPI_NSS*%
X107000000Y-123910000D03*
%TO.N,SPI_SCK*%
X109540000Y-123910000D03*
%TO.N,SPI_MISO*%
X107000000Y-126450000D03*
%TO.N,SPI_MOSI*%
X109540000Y-126450000D03*
%TO.N,I2C_SCL*%
X107000000Y-128990000D03*
%TO.N,I2C_SDA*%
X109540000Y-128990000D03*
%TD*%
D13*
%TO.N,GND*%
%TO.C,SW2*%
X127750000Y-95750000D03*
X134250000Y-95750000D03*
%TO.N,NRST*%
X127750000Y-100250000D03*
X134250000Y-100250000D03*
%TD*%
D14*
%TO.N,GND*%
%TO.C,P1*%
X148970000Y-98505000D03*
D15*
X148970000Y-94325000D03*
D14*
X140330000Y-98505000D03*
D15*
X140330000Y-94325000D03*
%TD*%
D11*
%TO.N,+3.3V*%
%TO.C,J1*%
X121540000Y-95725000D03*
D12*
%TO.N,SWCLK*%
X121540000Y-98265000D03*
%TO.N,GND*%
X119000000Y-95725000D03*
%TO.N,SWDIO*%
X119000000Y-98265000D03*
%TO.N,NRST*%
X116460000Y-95725000D03*
%TO.N,SWO*%
X116460000Y-98265000D03*
%TD*%
D16*
%TO.N,LED_DBG*%
X167300000Y-97400000D03*
X149400000Y-107100000D03*
%TO.N,GND*%
X162500000Y-99700000D03*
%TO.N,+3.3V*%
X139800000Y-138100000D03*
%TO.N,SPI_NSS*%
X147500000Y-119500000D03*
X141000000Y-128000000D03*
%TO.N,GND*%
X150750000Y-126500000D03*
X143000000Y-125500000D03*
%TO.N,NRST*%
X143500000Y-116000000D03*
X142500000Y-107000000D03*
%TO.N,+3.3V*%
X139000000Y-112000000D03*
X139750000Y-126500000D03*
X138500000Y-116500000D03*
%TO.N,VBUS*%
X138850000Y-103200000D03*
%TO.N,UART_CK*%
X145691942Y-109308058D03*
%TO.N,I2C_SDA*%
X139000000Y-117650000D03*
X134250000Y-120250000D03*
%TO.N,I2C_SCL*%
X132000000Y-120250000D03*
X136750000Y-115125000D03*
%TO.N,UART_RX*%
X144375000Y-108862325D03*
%TO.N,UART_TX*%
X144874999Y-110241117D03*
%TO.N,I2S_WS*%
X138000000Y-133500000D03*
X147500000Y-111500000D03*
X138250000Y-132000000D03*
%TO.N,I2S_SD*%
X137900000Y-134750000D03*
X145881082Y-111501507D03*
X134650000Y-133150000D03*
%TO.N,USB_P*%
X143125000Y-106250000D03*
X144350000Y-106000000D03*
%TO.N,GND*%
X123800000Y-142000000D03*
X170000000Y-125000000D03*
X153500000Y-102500000D03*
X155000000Y-115000000D03*
X135000000Y-105000000D03*
X170000000Y-97000000D03*
X180000000Y-135000000D03*
X159500000Y-108500000D03*
X172287500Y-141050000D03*
X140500000Y-108000000D03*
X142625000Y-111125000D03*
X150500000Y-115000000D03*
X155000000Y-119000000D03*
X160000000Y-135000000D03*
X153500000Y-95500000D03*
X170000000Y-115000000D03*
X180000000Y-115000000D03*
X180000000Y-125000000D03*
X138500000Y-120000000D03*
X158000000Y-101500000D03*
X136000000Y-122000000D03*
X150000000Y-135000000D03*
X120000000Y-110000000D03*
X116000000Y-104000000D03*
X146150000Y-103100000D03*
X139000000Y-119500000D03*
X140000000Y-140000000D03*
X170000000Y-106000000D03*
X150500000Y-117000000D03*
X160000000Y-125000000D03*
X112500000Y-99000000D03*
X168900000Y-142950000D03*
X155000000Y-117000000D03*
X155000000Y-113000000D03*
X180000000Y-106000000D03*
X159500000Y-106500000D03*
X170000000Y-135000000D03*
X148350000Y-104950000D03*
X141250000Y-126750000D03*
X120000000Y-117000000D03*
X110000000Y-135000000D03*
X149500000Y-108000000D03*
X127850000Y-140850000D03*
%TO.N,I2S_CK*%
X146681020Y-111491374D03*
X136500000Y-133400000D03*
%TD*%
%TA.AperFunction,Conductor*%
%TO.N,GND*%
G36*
X108115270Y-119591717D02*
G01*
X108115270Y-119591716D01*
X108154622Y-119537555D01*
X108159232Y-119528507D01*
X108207205Y-119477709D01*
X108275025Y-119460912D01*
X108341161Y-119483447D01*
X108380204Y-119528504D01*
X108384949Y-119537817D01*
X108509890Y-119709786D01*
X108660213Y-119860109D01*
X108832182Y-119985050D01*
X108840946Y-119989516D01*
X108891742Y-120037491D01*
X108908536Y-120105312D01*
X108885998Y-120171447D01*
X108840946Y-120210484D01*
X108832182Y-120214949D01*
X108660213Y-120339890D01*
X108509890Y-120490213D01*
X108384949Y-120662182D01*
X108380484Y-120670946D01*
X108332509Y-120721742D01*
X108264688Y-120738536D01*
X108198553Y-120715998D01*
X108159516Y-120670946D01*
X108155050Y-120662182D01*
X108030109Y-120490213D01*
X107879786Y-120339890D01*
X107707817Y-120214949D01*
X107698504Y-120210204D01*
X107647707Y-120162230D01*
X107630912Y-120094409D01*
X107653449Y-120028274D01*
X107698507Y-119989232D01*
X107707555Y-119984622D01*
X107761716Y-119945270D01*
X107761717Y-119945270D01*
X107129408Y-119312962D01*
X107192993Y-119295925D01*
X107307007Y-119230099D01*
X107400099Y-119137007D01*
X107465925Y-119022993D01*
X107482962Y-118959409D01*
X108115270Y-119591717D01*
G37*
%TD.AperFunction*%
%TA.AperFunction,Conductor*%
G36*
X108341444Y-116943999D02*
G01*
X108380486Y-116989056D01*
X108384951Y-116997820D01*
X108509890Y-117169786D01*
X108660213Y-117320109D01*
X108832182Y-117445050D01*
X108840946Y-117449516D01*
X108891742Y-117497491D01*
X108908536Y-117565312D01*
X108885998Y-117631447D01*
X108840946Y-117670484D01*
X108832182Y-117674949D01*
X108660213Y-117799890D01*
X108509890Y-117950213D01*
X108384949Y-118122182D01*
X108380202Y-118131499D01*
X108332227Y-118182293D01*
X108264405Y-118199087D01*
X108198271Y-118176548D01*
X108159234Y-118131495D01*
X108154626Y-118122452D01*
X108115270Y-118068282D01*
X108115269Y-118068282D01*
X107482962Y-118700590D01*
X107465925Y-118637007D01*
X107400099Y-118522993D01*
X107307007Y-118429901D01*
X107192993Y-118364075D01*
X107129409Y-118347037D01*
X107761716Y-117714728D01*
X107707547Y-117675373D01*
X107707547Y-117675372D01*
X107698500Y-117670763D01*
X107647706Y-117622788D01*
X107630912Y-117554966D01*
X107653451Y-117488832D01*
X107698508Y-117449793D01*
X107707816Y-117445051D01*
X107850895Y-117341099D01*
X107879786Y-117320109D01*
X107879788Y-117320106D01*
X107879792Y-117320104D01*
X108030104Y-117169792D01*
X108030106Y-117169788D01*
X108030109Y-117169786D01*
X108155048Y-116997820D01*
X108155047Y-116997820D01*
X108155051Y-116997816D01*
X108159514Y-116989054D01*
X108207488Y-116938259D01*
X108275308Y-116921463D01*
X108341444Y-116943999D01*
G37*
%TD.AperFunction*%
%TA.AperFunction,Conductor*%
G36*
X108115270Y-114511717D02*
G01*
X108115270Y-114511716D01*
X108154622Y-114457555D01*
X108159232Y-114448507D01*
X108207205Y-114397709D01*
X108275025Y-114380912D01*
X108341161Y-114403447D01*
X108380204Y-114448504D01*
X108384949Y-114457817D01*
X108509890Y-114629786D01*
X108660213Y-114780109D01*
X108832182Y-114905050D01*
X108840946Y-114909516D01*
X108891742Y-114957491D01*
X108908536Y-115025312D01*
X108885998Y-115091447D01*
X108840946Y-115130484D01*
X108832182Y-115134949D01*
X108660213Y-115259890D01*
X108509890Y-115410213D01*
X108384949Y-115582182D01*
X108380484Y-115590946D01*
X108332509Y-115641742D01*
X108264688Y-115658536D01*
X108198553Y-115635998D01*
X108159516Y-115590946D01*
X108155050Y-115582182D01*
X108030109Y-115410213D01*
X107879786Y-115259890D01*
X107707817Y-115134949D01*
X107698504Y-115130204D01*
X107647707Y-115082230D01*
X107630912Y-115014409D01*
X107653449Y-114948274D01*
X107698507Y-114909232D01*
X107707555Y-114904622D01*
X107761716Y-114865270D01*
X107761717Y-114865270D01*
X107129408Y-114232962D01*
X107192993Y-114215925D01*
X107307007Y-114150099D01*
X107400099Y-114057007D01*
X107465925Y-113942993D01*
X107482962Y-113879409D01*
X108115270Y-114511717D01*
G37*
%TD.AperFunction*%
%TA.AperFunction,Conductor*%
G36*
X109074075Y-111402993D02*
G01*
X109139901Y-111517007D01*
X109232993Y-111610099D01*
X109347007Y-111675925D01*
X109410590Y-111692962D01*
X108778282Y-112325269D01*
X108778282Y-112325270D01*
X108832452Y-112364626D01*
X108832451Y-112364626D01*
X108841495Y-112369234D01*
X108892292Y-112417208D01*
X108909087Y-112485029D01*
X108886550Y-112551164D01*
X108841499Y-112590202D01*
X108832182Y-112594949D01*
X108660213Y-112719890D01*
X108509890Y-112870213D01*
X108384949Y-113042182D01*
X108380202Y-113051499D01*
X108332227Y-113102293D01*
X108264405Y-113119087D01*
X108198271Y-113096548D01*
X108159234Y-113051495D01*
X108154626Y-113042452D01*
X108115270Y-112988282D01*
X108115269Y-112988282D01*
X107482962Y-113620590D01*
X107465925Y-113557007D01*
X107400099Y-113442993D01*
X107307007Y-113349901D01*
X107192993Y-113284075D01*
X107129409Y-113267037D01*
X107761716Y-112634728D01*
X107707550Y-112595375D01*
X107697954Y-112590486D01*
X107647157Y-112542512D01*
X107630361Y-112474692D01*
X107652897Y-112408556D01*
X107697954Y-112369514D01*
X107707554Y-112364622D01*
X107761716Y-112325270D01*
X107761717Y-112325270D01*
X107129408Y-111692962D01*
X107192993Y-111675925D01*
X107307007Y-111610099D01*
X107400099Y-111517007D01*
X107465925Y-111402993D01*
X107482962Y-111339409D01*
X108115270Y-111971717D01*
X108115270Y-111971716D01*
X108154622Y-111917554D01*
X108159514Y-111907954D01*
X108207488Y-111857157D01*
X108275308Y-111840361D01*
X108341444Y-111862897D01*
X108380486Y-111907954D01*
X108385375Y-111917550D01*
X108424728Y-111971716D01*
X109057037Y-111339408D01*
X109074075Y-111402993D01*
G37*
%TD.AperFunction*%
%TA.AperFunction,Conductor*%
G36*
X109074075Y-108862993D02*
G01*
X109139901Y-108977007D01*
X109232993Y-109070099D01*
X109347007Y-109135925D01*
X109410591Y-109152962D01*
X108809971Y-109753581D01*
X108888711Y-109870895D01*
X108889920Y-109874729D01*
X108892844Y-109877491D01*
X108900343Y-109907778D01*
X108909727Y-109937529D01*
X108908671Y-109941408D01*
X108909638Y-109945312D01*
X108899573Y-109974844D01*
X108891383Y-110004947D01*
X108888397Y-110007640D01*
X108887100Y-110011447D01*
X108842051Y-110050483D01*
X108832440Y-110055380D01*
X108778282Y-110094727D01*
X108778282Y-110094728D01*
X109410591Y-110727037D01*
X109347007Y-110744075D01*
X109232993Y-110809901D01*
X109139901Y-110902993D01*
X109074075Y-111017007D01*
X109057037Y-111080591D01*
X108424728Y-110448282D01*
X108424727Y-110448282D01*
X108385380Y-110502440D01*
X108380483Y-110512051D01*
X108332506Y-110562845D01*
X108264684Y-110579638D01*
X108198550Y-110557098D01*
X108159516Y-110512048D01*
X108154626Y-110502452D01*
X108115270Y-110448282D01*
X108115269Y-110448282D01*
X107482962Y-111080590D01*
X107465925Y-111017007D01*
X107400099Y-110902993D01*
X107307007Y-110809901D01*
X107192993Y-110744075D01*
X107129409Y-110727037D01*
X107761716Y-110094728D01*
X107707547Y-110055373D01*
X107707547Y-110055372D01*
X107698500Y-110050763D01*
X107647706Y-110002788D01*
X107630912Y-109934966D01*
X107653451Y-109868832D01*
X107698508Y-109829793D01*
X107707816Y-109825051D01*
X107837504Y-109730828D01*
X107879786Y-109700109D01*
X107879788Y-109700106D01*
X107879792Y-109700104D01*
X108030104Y-109549792D01*
X108030106Y-109549788D01*
X108030109Y-109549786D01*
X108115890Y-109431717D01*
X108155051Y-109377816D01*
X108159793Y-109368508D01*
X108207763Y-109317711D01*
X108275583Y-109300911D01*
X108341719Y-109323445D01*
X108380763Y-109368500D01*
X108385373Y-109377547D01*
X108424728Y-109431716D01*
X109057037Y-108799408D01*
X109074075Y-108862993D01*
G37*
%TD.AperFunction*%
%TA.AperFunction,Conductor*%
G36*
X108518418Y-107025417D02*
G01*
X108546673Y-107046569D01*
X108660213Y-107160109D01*
X108832179Y-107285048D01*
X108832181Y-107285049D01*
X108832184Y-107285051D01*
X108841493Y-107289794D01*
X108892290Y-107337766D01*
X108909087Y-107405587D01*
X108886552Y-107471722D01*
X108841505Y-107510760D01*
X108832446Y-107515376D01*
X108832440Y-107515380D01*
X108778282Y-107554727D01*
X108778282Y-107554728D01*
X109410591Y-108187037D01*
X109347007Y-108204075D01*
X109232993Y-108269901D01*
X109139901Y-108362993D01*
X109074075Y-108477007D01*
X109057037Y-108540591D01*
X108424728Y-107908282D01*
X108424727Y-107908282D01*
X108385380Y-107962440D01*
X108385376Y-107962446D01*
X108380760Y-107971505D01*
X108332781Y-108022297D01*
X108264959Y-108039087D01*
X108198826Y-108016543D01*
X108159794Y-107971493D01*
X108155051Y-107962184D01*
X108155049Y-107962181D01*
X108155048Y-107962179D01*
X108030109Y-107790213D01*
X107916569Y-107676673D01*
X107883084Y-107615350D01*
X107888068Y-107545658D01*
X107929940Y-107489725D01*
X107960915Y-107472810D01*
X108092331Y-107423796D01*
X108207546Y-107337546D01*
X108293796Y-107222331D01*
X108342810Y-107090916D01*
X108384681Y-107034984D01*
X108450145Y-107010566D01*
X108518418Y-107025417D01*
G37*
%TD.AperFunction*%
%TA.AperFunction,Conductor*%
G36*
X118534075Y-95917993D02*
G01*
X118599901Y-96032007D01*
X118692993Y-96125099D01*
X118807007Y-96190925D01*
X118870590Y-96207962D01*
X118238282Y-96840269D01*
X118238282Y-96840270D01*
X118292452Y-96879626D01*
X118292451Y-96879626D01*
X118301495Y-96884234D01*
X118352292Y-96932208D01*
X118369087Y-97000029D01*
X118346550Y-97066164D01*
X118301499Y-97105202D01*
X118292182Y-97109949D01*
X118120213Y-97234890D01*
X117969890Y-97385213D01*
X117844949Y-97557182D01*
X117840484Y-97565946D01*
X117792509Y-97616742D01*
X117724688Y-97633536D01*
X117658553Y-97610998D01*
X117619516Y-97565946D01*
X117615050Y-97557182D01*
X117490109Y-97385213D01*
X117339786Y-97234890D01*
X117167820Y-97109951D01*
X117167115Y-97109591D01*
X117159054Y-97105485D01*
X117108259Y-97057512D01*
X117091463Y-96989692D01*
X117113999Y-96923556D01*
X117159054Y-96884515D01*
X117167816Y-96880051D01*
X117189789Y-96864086D01*
X117339786Y-96755109D01*
X117339788Y-96755106D01*
X117339792Y-96755104D01*
X117490104Y-96604792D01*
X117490106Y-96604788D01*
X117490109Y-96604786D01*
X117557515Y-96512007D01*
X117615051Y-96432816D01*
X117619793Y-96423508D01*
X117667763Y-96372711D01*
X117735583Y-96355911D01*
X117801719Y-96378445D01*
X117840763Y-96423500D01*
X117845373Y-96432547D01*
X117884728Y-96486716D01*
X118517037Y-95854408D01*
X118534075Y-95917993D01*
G37*
%TD.AperFunction*%
%TA.AperFunction,Conductor*%
G36*
X120153181Y-96524628D02*
G01*
X120186666Y-96585951D01*
X120189500Y-96612300D01*
X120189500Y-96622865D01*
X120189501Y-96622876D01*
X120195908Y-96682483D01*
X120246202Y-96817328D01*
X120246206Y-96817335D01*
X120332452Y-96932544D01*
X120332455Y-96932547D01*
X120447664Y-97018793D01*
X120447671Y-97018797D01*
X120579082Y-97067810D01*
X120635016Y-97109681D01*
X120659433Y-97175145D01*
X120644582Y-97243418D01*
X120623431Y-97271673D01*
X120509889Y-97385215D01*
X120384949Y-97557182D01*
X120380484Y-97565946D01*
X120332509Y-97616742D01*
X120264688Y-97633536D01*
X120198553Y-97610998D01*
X120159516Y-97565946D01*
X120155050Y-97557182D01*
X120030109Y-97385213D01*
X119879786Y-97234890D01*
X119707817Y-97109949D01*
X119698504Y-97105204D01*
X119647707Y-97057230D01*
X119630912Y-96989409D01*
X119653449Y-96923274D01*
X119698507Y-96884232D01*
X119707555Y-96879622D01*
X119761716Y-96840270D01*
X119761717Y-96840270D01*
X119129408Y-96207962D01*
X119192993Y-96190925D01*
X119307007Y-96125099D01*
X119400099Y-96032007D01*
X119465925Y-95917993D01*
X119482962Y-95854409D01*
X120153181Y-96524628D01*
G37*
%TD.AperFunction*%
%TA.AperFunction,Conductor*%
G36*
X183423471Y-92570695D02*
G01*
X183459082Y-92572694D01*
X183713065Y-92586958D01*
X183726865Y-92588512D01*
X184009378Y-92636513D01*
X184022934Y-92639607D01*
X184298294Y-92718937D01*
X184311420Y-92723530D01*
X184576164Y-92833191D01*
X184588678Y-92839217D01*
X184784743Y-92947578D01*
X184839484Y-92977833D01*
X184851258Y-92985231D01*
X184949425Y-93054884D01*
X185081009Y-93148248D01*
X185084960Y-93151051D01*
X185095832Y-93159721D01*
X185309500Y-93350666D01*
X185319333Y-93360499D01*
X185510278Y-93574167D01*
X185518948Y-93585039D01*
X185684768Y-93818741D01*
X185692166Y-93830515D01*
X185830778Y-94081314D01*
X185836811Y-94093842D01*
X185946469Y-94358580D01*
X185951062Y-94371705D01*
X186030392Y-94647065D01*
X186033486Y-94660622D01*
X186081485Y-94943124D01*
X186083042Y-94956942D01*
X186099305Y-95246527D01*
X186099500Y-95253480D01*
X186099500Y-142866519D01*
X186099305Y-142873472D01*
X186083042Y-143163057D01*
X186081485Y-143176875D01*
X186033486Y-143459377D01*
X186030392Y-143472934D01*
X185951062Y-143748294D01*
X185946469Y-143761419D01*
X185836811Y-144026157D01*
X185830778Y-144038685D01*
X185692166Y-144289484D01*
X185684768Y-144301258D01*
X185518948Y-144534960D01*
X185510278Y-144545832D01*
X185319333Y-144759500D01*
X185309500Y-144769333D01*
X185095832Y-144960278D01*
X185084960Y-144968948D01*
X184851258Y-145134768D01*
X184839484Y-145142166D01*
X184588685Y-145280778D01*
X184576157Y-145286811D01*
X184311419Y-145396469D01*
X184298294Y-145401062D01*
X184022934Y-145480392D01*
X184009377Y-145483486D01*
X183726875Y-145531485D01*
X183713057Y-145533042D01*
X183423472Y-145549305D01*
X183416519Y-145549500D01*
X104183481Y-145549500D01*
X104176528Y-145549305D01*
X103886942Y-145533042D01*
X103873124Y-145531485D01*
X103590622Y-145483486D01*
X103577065Y-145480392D01*
X103301705Y-145401062D01*
X103288580Y-145396469D01*
X103023842Y-145286811D01*
X103011314Y-145280778D01*
X102760515Y-145142166D01*
X102748741Y-145134768D01*
X102515039Y-144968948D01*
X102504167Y-144960278D01*
X102290499Y-144769333D01*
X102280666Y-144759500D01*
X102089721Y-144545832D01*
X102081051Y-144534960D01*
X101915231Y-144301258D01*
X101907833Y-144289484D01*
X101769221Y-144038685D01*
X101763191Y-144026164D01*
X101653530Y-143761419D01*
X101648937Y-143748294D01*
X101569607Y-143472934D01*
X101566513Y-143459377D01*
X101558241Y-143410693D01*
X101518512Y-143176865D01*
X101516958Y-143163065D01*
X101500695Y-142873471D01*
X101500500Y-142866519D01*
X101500500Y-140928711D01*
X104149500Y-140928711D01*
X104149500Y-141171288D01*
X104181161Y-141411785D01*
X104243947Y-141646104D01*
X104336773Y-141870205D01*
X104336776Y-141870212D01*
X104458064Y-142080289D01*
X104458066Y-142080292D01*
X104458067Y-142080293D01*
X104605733Y-142272736D01*
X104605739Y-142272743D01*
X104777256Y-142444260D01*
X104777262Y-142444265D01*
X104969711Y-142591936D01*
X105179788Y-142713224D01*
X105403900Y-142806054D01*
X105638211Y-142868838D01*
X105818586Y-142892584D01*
X105878711Y-142900500D01*
X105878712Y-142900500D01*
X106121289Y-142900500D01*
X106169388Y-142894167D01*
X106361789Y-142868838D01*
X106596100Y-142806054D01*
X106820212Y-142713224D01*
X107030289Y-142591936D01*
X107222738Y-142444265D01*
X107394265Y-142272738D01*
X107541936Y-142080289D01*
X107663224Y-141870212D01*
X107756054Y-141646100D01*
X107818838Y-141411789D01*
X107850500Y-141171288D01*
X107850500Y-140928712D01*
X107850500Y-140928711D01*
X179749500Y-140928711D01*
X179749500Y-141171288D01*
X179781161Y-141411785D01*
X179843947Y-141646104D01*
X179936773Y-141870205D01*
X179936776Y-141870212D01*
X180058064Y-142080289D01*
X180058066Y-142080292D01*
X180058067Y-142080293D01*
X180205733Y-142272736D01*
X180205739Y-142272743D01*
X180377256Y-142444260D01*
X180377262Y-142444265D01*
X180569711Y-142591936D01*
X180779788Y-142713224D01*
X181003900Y-142806054D01*
X181238211Y-142868838D01*
X181418586Y-142892584D01*
X181478711Y-142900500D01*
X181478712Y-142900500D01*
X181721289Y-142900500D01*
X181769388Y-142894167D01*
X181961789Y-142868838D01*
X182196100Y-142806054D01*
X182420212Y-142713224D01*
X182630289Y-142591936D01*
X182822738Y-142444265D01*
X182994265Y-142272738D01*
X183141936Y-142080289D01*
X183263224Y-141870212D01*
X183356054Y-141646100D01*
X183418838Y-141411789D01*
X183450500Y-141171288D01*
X183450500Y-140928712D01*
X183418838Y-140688211D01*
X183356054Y-140453900D01*
X183263224Y-140229788D01*
X183141936Y-140019711D01*
X182994265Y-139827262D01*
X182994260Y-139827256D01*
X182822743Y-139655739D01*
X182822736Y-139655733D01*
X182630293Y-139508067D01*
X182630292Y-139508066D01*
X182630289Y-139508064D01*
X182420212Y-139386776D01*
X182420205Y-139386773D01*
X182196104Y-139293947D01*
X181961785Y-139231161D01*
X181721289Y-139199500D01*
X181721288Y-139199500D01*
X181478712Y-139199500D01*
X181478711Y-139199500D01*
X181238214Y-139231161D01*
X181003895Y-139293947D01*
X180779794Y-139386773D01*
X180779785Y-139386777D01*
X180569706Y-139508067D01*
X180377263Y-139655733D01*
X180377256Y-139655739D01*
X180205739Y-139827256D01*
X180205733Y-139827263D01*
X180058067Y-140019706D01*
X179936777Y-140229785D01*
X179936773Y-140229794D01*
X179843947Y-140453895D01*
X179781161Y-140688214D01*
X179749500Y-140928711D01*
X107850500Y-140928711D01*
X107818838Y-140688211D01*
X107756054Y-140453900D01*
X107663224Y-140229788D01*
X107541936Y-140019711D01*
X107394265Y-139827262D01*
X107394260Y-139827256D01*
X107222743Y-139655739D01*
X107222736Y-139655733D01*
X107030293Y-139508067D01*
X107030292Y-139508066D01*
X107030289Y-139508064D01*
X106820212Y-139386776D01*
X106820205Y-139386773D01*
X106596104Y-139293947D01*
X106361785Y-139231161D01*
X106121289Y-139199500D01*
X106121288Y-139199500D01*
X105878712Y-139199500D01*
X105878711Y-139199500D01*
X105638214Y-139231161D01*
X105403895Y-139293947D01*
X105179794Y-139386773D01*
X105179785Y-139386777D01*
X104969706Y-139508067D01*
X104777263Y-139655733D01*
X104777256Y-139655739D01*
X104605739Y-139827256D01*
X104605733Y-139827263D01*
X104458067Y-140019706D01*
X104336777Y-140229785D01*
X104336773Y-140229794D01*
X104243947Y-140453895D01*
X104181161Y-140688214D01*
X104149500Y-140928711D01*
X101500500Y-140928711D01*
X101500500Y-138945720D01*
X119675000Y-138945720D01*
X119675000Y-139154279D01*
X119707626Y-139360272D01*
X119772075Y-139558627D01*
X119866759Y-139744451D01*
X119902627Y-139793818D01*
X119902627Y-139793819D01*
X120496624Y-139199822D01*
X120510778Y-139252642D01*
X120579896Y-139372357D01*
X120677643Y-139470104D01*
X120797358Y-139539222D01*
X120850177Y-139553375D01*
X120256179Y-140147371D01*
X120256180Y-140147372D01*
X120305543Y-140183236D01*
X120305556Y-140183244D01*
X120491372Y-140277924D01*
X120689727Y-140342373D01*
X120895721Y-140375000D01*
X121104279Y-140375000D01*
X121310272Y-140342373D01*
X121508627Y-140277924D01*
X121694451Y-140183240D01*
X121743818Y-140147372D01*
X121743818Y-140147371D01*
X121149822Y-139553375D01*
X121202642Y-139539222D01*
X121322357Y-139470104D01*
X121420104Y-139372357D01*
X121489222Y-139252642D01*
X121503375Y-139199822D01*
X122097371Y-139793818D01*
X122097372Y-139793818D01*
X122133240Y-139744451D01*
X122227924Y-139558627D01*
X122292373Y-139360272D01*
X122325000Y-139154279D01*
X122325000Y-138945720D01*
X164275000Y-138945720D01*
X164275000Y-139154279D01*
X164307626Y-139360272D01*
X164372075Y-139558627D01*
X164466759Y-139744451D01*
X164502627Y-139793818D01*
X164502627Y-139793819D01*
X165096624Y-139199822D01*
X165110778Y-139252642D01*
X165179896Y-139372357D01*
X165277643Y-139470104D01*
X165397358Y-139539222D01*
X165450177Y-139553375D01*
X164856179Y-140147371D01*
X164856180Y-140147372D01*
X164905543Y-140183236D01*
X164905556Y-140183244D01*
X165091372Y-140277924D01*
X165289727Y-140342373D01*
X165495721Y-140375000D01*
X165704279Y-140375000D01*
X165910272Y-140342373D01*
X166108627Y-140277924D01*
X166294451Y-140183240D01*
X166343818Y-140147372D01*
X166343818Y-140147371D01*
X165749822Y-139553375D01*
X165802642Y-139539222D01*
X165922357Y-139470104D01*
X166020104Y-139372357D01*
X166089222Y-139252642D01*
X166103375Y-139199822D01*
X166697371Y-139793818D01*
X166697372Y-139793818D01*
X166733240Y-139744451D01*
X166827924Y-139558627D01*
X166892373Y-139360272D01*
X166925000Y-139154279D01*
X166925000Y-138945720D01*
X166892373Y-138739727D01*
X166827924Y-138541372D01*
X166733244Y-138355556D01*
X166733236Y-138355543D01*
X166697372Y-138306180D01*
X166697371Y-138306179D01*
X166103374Y-138900176D01*
X166089222Y-138847358D01*
X166020104Y-138727643D01*
X165922357Y-138629896D01*
X165802642Y-138560778D01*
X165749821Y-138546624D01*
X166343819Y-137952627D01*
X166294451Y-137916759D01*
X166108627Y-137822075D01*
X165910272Y-137757626D01*
X165704279Y-137725000D01*
X165495721Y-137725000D01*
X165289727Y-137757626D01*
X165091372Y-137822075D01*
X164905552Y-137916757D01*
X164856180Y-137952627D01*
X165450178Y-138546624D01*
X165397358Y-138560778D01*
X165277643Y-138629896D01*
X165179896Y-138727643D01*
X165110778Y-138847358D01*
X165096624Y-138900177D01*
X164502627Y-138306180D01*
X164466757Y-138355552D01*
X164372075Y-138541372D01*
X164307626Y-138739727D01*
X164275000Y-138945720D01*
X122325000Y-138945720D01*
X122292373Y-138739727D01*
X122227924Y-138541372D01*
X122133244Y-138355556D01*
X122133236Y-138355543D01*
X122097372Y-138306180D01*
X122097371Y-138306179D01*
X121503374Y-138900176D01*
X121489222Y-138847358D01*
X121420104Y-138727643D01*
X121322357Y-138629896D01*
X121202642Y-138560778D01*
X121149821Y-138546624D01*
X121675293Y-138021153D01*
X138999500Y-138021153D01*
X138999500Y-138178846D01*
X139030261Y-138333489D01*
X139030264Y-138333501D01*
X139090602Y-138479172D01*
X139090609Y-138479185D01*
X139178210Y-138610288D01*
X139178213Y-138610292D01*
X139289707Y-138721786D01*
X139289711Y-138721789D01*
X139420814Y-138809390D01*
X139420827Y-138809397D01*
X139566498Y-138869735D01*
X139566503Y-138869737D01*
X139721153Y-138900499D01*
X139721156Y-138900500D01*
X139721158Y-138900500D01*
X139878844Y-138900500D01*
X139878845Y-138900499D01*
X140033497Y-138869737D01*
X140138395Y-138826287D01*
X140138396Y-138826287D01*
X140159376Y-138817596D01*
X140179179Y-138809394D01*
X140310289Y-138721789D01*
X140421789Y-138610289D01*
X140509394Y-138479179D01*
X140569737Y-138333497D01*
X140600500Y-138178842D01*
X140600500Y-138021158D01*
X140569737Y-137866503D01*
X140569735Y-137866498D01*
X140509397Y-137720827D01*
X140509390Y-137720814D01*
X140421789Y-137589711D01*
X140421786Y-137589707D01*
X140310292Y-137478213D01*
X140310288Y-137478210D01*
X140179185Y-137390609D01*
X140179172Y-137390602D01*
X140033501Y-137330264D01*
X140033489Y-137330261D01*
X139878845Y-137299500D01*
X139878842Y-137299500D01*
X139721158Y-137299500D01*
X139721155Y-137299500D01*
X139566510Y-137330261D01*
X139566498Y-137330264D01*
X139420827Y-137390602D01*
X139420814Y-137390609D01*
X139289711Y-137478210D01*
X139289707Y-137478213D01*
X139178213Y-137589707D01*
X139178210Y-137589711D01*
X139090609Y-137720814D01*
X139090602Y-137720827D01*
X139030264Y-137866498D01*
X139030261Y-137866510D01*
X138999500Y-138021153D01*
X121675293Y-138021153D01*
X121743819Y-137952627D01*
X121694451Y-137916759D01*
X121508627Y-137822075D01*
X121310272Y-137757626D01*
X121104279Y-137725000D01*
X120895721Y-137725000D01*
X120689727Y-137757626D01*
X120491372Y-137822075D01*
X120305552Y-137916757D01*
X120256180Y-137952627D01*
X120850178Y-138546624D01*
X120797358Y-138560778D01*
X120677643Y-138629896D01*
X120579896Y-138727643D01*
X120510778Y-138847358D01*
X120496624Y-138900177D01*
X119902627Y-138306180D01*
X119866757Y-138355552D01*
X119772075Y-138541372D01*
X119707626Y-138739727D01*
X119675000Y-138945720D01*
X101500500Y-138945720D01*
X101500500Y-133071153D01*
X133849500Y-133071153D01*
X133849500Y-133228846D01*
X133880261Y-133383489D01*
X133880264Y-133383501D01*
X133940602Y-133529172D01*
X133940609Y-133529185D01*
X134028210Y-133660288D01*
X134028213Y-133660292D01*
X134139707Y-133771786D01*
X134139711Y-133771789D01*
X134270814Y-133859390D01*
X134270827Y-133859397D01*
X134416498Y-133919735D01*
X134416503Y-133919737D01*
X134571153Y-133950499D01*
X134571156Y-133950500D01*
X134571158Y-133950500D01*
X134728844Y-133950500D01*
X134728845Y-133950499D01*
X134883497Y-133919737D01*
X135029179Y-133859394D01*
X135160289Y-133771789D01*
X135271789Y-133660289D01*
X135359394Y-133529179D01*
X135419737Y-133383497D01*
X135432138Y-133321153D01*
X135699500Y-133321153D01*
X135699500Y-133478846D01*
X135730261Y-133633489D01*
X135730264Y-133633501D01*
X135790602Y-133779172D01*
X135790609Y-133779185D01*
X135878210Y-133910288D01*
X135878213Y-133910292D01*
X135989707Y-134021786D01*
X135989711Y-134021789D01*
X136120814Y-134109390D01*
X136120827Y-134109397D01*
X136253654Y-134164415D01*
X136266503Y-134169737D01*
X136421153Y-134200499D01*
X136421156Y-134200500D01*
X136421158Y-134200500D01*
X136578844Y-134200500D01*
X136578845Y-134200499D01*
X136733497Y-134169737D01*
X136879179Y-134109394D01*
X137010289Y-134021789D01*
X137028821Y-134003257D01*
X137126097Y-133905982D01*
X137127414Y-133907299D01*
X137142502Y-133897017D01*
X137162570Y-133878991D01*
X137170942Y-133877634D01*
X137177949Y-133872859D01*
X137204912Y-133872129D01*
X137231540Y-133867815D01*
X137239314Y-133871199D01*
X137247793Y-133870970D01*
X137270873Y-133884936D01*
X137295604Y-133895701D01*
X137303868Y-133904901D01*
X137307571Y-133907142D01*
X137319189Y-133921957D01*
X137373512Y-134003257D01*
X137394390Y-134069935D01*
X137375905Y-134137315D01*
X137358092Y-134159829D01*
X137278210Y-134239711D01*
X137190609Y-134370814D01*
X137190602Y-134370827D01*
X137130264Y-134516498D01*
X137130261Y-134516510D01*
X137099500Y-134671153D01*
X137099500Y-134828846D01*
X137130261Y-134983489D01*
X137130264Y-134983501D01*
X137190602Y-135129172D01*
X137190609Y-135129185D01*
X137278210Y-135260288D01*
X137278213Y-135260292D01*
X137389707Y-135371786D01*
X137389711Y-135371789D01*
X137520814Y-135459390D01*
X137520827Y-135459397D01*
X137666498Y-135519735D01*
X137666503Y-135519737D01*
X137821153Y-135550499D01*
X137821156Y-135550500D01*
X137821158Y-135550500D01*
X137978844Y-135550500D01*
X137978845Y-135550499D01*
X138133497Y-135519737D01*
X138279179Y-135459394D01*
X138410289Y-135371789D01*
X138521789Y-135260289D01*
X138609394Y-135129179D01*
X138669737Y-134983497D01*
X138700500Y-134828842D01*
X138700500Y-134671158D01*
X138700500Y-134671155D01*
X138700499Y-134671153D01*
X138669738Y-134516510D01*
X138669737Y-134516503D01*
X138669735Y-134516498D01*
X138609397Y-134370827D01*
X138609390Y-134370814D01*
X138526487Y-134246741D01*
X138505609Y-134180063D01*
X138524094Y-134112683D01*
X138541905Y-134090172D01*
X138621789Y-134010289D01*
X138709394Y-133879179D01*
X138769737Y-133733497D01*
X138800500Y-133578842D01*
X138800500Y-133421158D01*
X138800500Y-133421155D01*
X138800499Y-133421153D01*
X138769737Y-133266503D01*
X138754138Y-133228844D01*
X138709397Y-133120827D01*
X138709390Y-133120814D01*
X138621789Y-132989711D01*
X138621786Y-132989707D01*
X138556964Y-132924885D01*
X138523479Y-132863562D01*
X138528463Y-132793870D01*
X138570335Y-132737937D01*
X138597190Y-132722643D01*
X138629179Y-132709394D01*
X138760289Y-132621789D01*
X138871789Y-132510289D01*
X138959394Y-132379179D01*
X139019737Y-132233497D01*
X139050500Y-132078842D01*
X139050500Y-131921158D01*
X139050500Y-131921155D01*
X139050499Y-131921153D01*
X139019738Y-131766510D01*
X139019737Y-131766503D01*
X139019735Y-131766498D01*
X138959397Y-131620827D01*
X138959390Y-131620814D01*
X138871789Y-131489711D01*
X138871786Y-131489707D01*
X138760292Y-131378213D01*
X138760288Y-131378210D01*
X138629185Y-131290609D01*
X138629172Y-131290602D01*
X138483501Y-131230264D01*
X138483489Y-131230261D01*
X138328845Y-131199500D01*
X138328842Y-131199500D01*
X138171158Y-131199500D01*
X138171155Y-131199500D01*
X138016510Y-131230261D01*
X138016498Y-131230264D01*
X137870827Y-131290602D01*
X137870814Y-131290609D01*
X137739711Y-131378210D01*
X137739707Y-131378213D01*
X137628213Y-131489707D01*
X137628210Y-131489711D01*
X137540609Y-131620814D01*
X137540602Y-131620827D01*
X137480264Y-131766498D01*
X137480261Y-131766510D01*
X137449500Y-131921153D01*
X137449500Y-132078846D01*
X137480261Y-132233489D01*
X137480264Y-132233501D01*
X137540602Y-132379172D01*
X137540609Y-132379185D01*
X137628210Y-132510288D01*
X137628213Y-132510292D01*
X137693035Y-132575114D01*
X137726520Y-132636437D01*
X137721536Y-132706129D01*
X137679664Y-132762062D01*
X137652809Y-132777355D01*
X137620826Y-132790603D01*
X137620814Y-132790609D01*
X137489711Y-132878210D01*
X137489707Y-132878213D01*
X137373903Y-132994018D01*
X137372591Y-132992706D01*
X137322004Y-133027155D01*
X137252159Y-133029017D01*
X137192396Y-132992822D01*
X137180810Y-132978042D01*
X137121789Y-132889710D01*
X137010292Y-132778213D01*
X137010288Y-132778210D01*
X136879185Y-132690609D01*
X136879172Y-132690602D01*
X136733501Y-132630264D01*
X136733489Y-132630261D01*
X136578845Y-132599500D01*
X136578842Y-132599500D01*
X136421158Y-132599500D01*
X136421155Y-132599500D01*
X136266510Y-132630261D01*
X136266498Y-132630264D01*
X136120827Y-132690602D01*
X136120814Y-132690609D01*
X135989711Y-132778210D01*
X135989707Y-132778213D01*
X135878213Y-132889707D01*
X135878210Y-132889711D01*
X135790609Y-133020814D01*
X135790602Y-133020827D01*
X135730264Y-133166498D01*
X135730261Y-133166510D01*
X135699500Y-133321153D01*
X135432138Y-133321153D01*
X135443010Y-133266498D01*
X135450500Y-133228844D01*
X135450500Y-133071155D01*
X135450499Y-133071153D01*
X135419737Y-132916503D01*
X135419735Y-132916498D01*
X135359397Y-132770827D01*
X135359390Y-132770814D01*
X135271789Y-132639711D01*
X135271786Y-132639707D01*
X135160292Y-132528213D01*
X135160288Y-132528210D01*
X135029185Y-132440609D01*
X135029172Y-132440602D01*
X134883501Y-132380264D01*
X134883489Y-132380261D01*
X134728845Y-132349500D01*
X134728842Y-132349500D01*
X134571158Y-132349500D01*
X134571155Y-132349500D01*
X134416510Y-132380261D01*
X134416498Y-132380264D01*
X134270827Y-132440602D01*
X134270814Y-132440609D01*
X134139711Y-132528210D01*
X134139707Y-132528213D01*
X134028213Y-132639707D01*
X134028210Y-132639711D01*
X133940609Y-132770814D01*
X133940602Y-132770827D01*
X133880264Y-132916498D01*
X133880261Y-132916510D01*
X133849500Y-133071153D01*
X101500500Y-133071153D01*
X101500500Y-105232135D01*
X105649500Y-105232135D01*
X105649500Y-107027870D01*
X105649501Y-107027876D01*
X105655908Y-107087483D01*
X105706202Y-107222328D01*
X105706206Y-107222335D01*
X105792452Y-107337544D01*
X105792455Y-107337547D01*
X105907664Y-107423793D01*
X105907671Y-107423797D01*
X106039082Y-107472810D01*
X106095016Y-107514681D01*
X106119433Y-107580145D01*
X106104582Y-107648418D01*
X106083431Y-107676673D01*
X105969889Y-107790215D01*
X105844951Y-107962179D01*
X105748444Y-108151585D01*
X105682753Y-108353760D01*
X105658394Y-108507558D01*
X105649500Y-108563713D01*
X105649500Y-108776287D01*
X105659534Y-108839644D01*
X105682735Y-108986127D01*
X105682754Y-108986243D01*
X105711450Y-109074561D01*
X105748444Y-109188414D01*
X105844951Y-109377820D01*
X105969890Y-109549786D01*
X106120213Y-109700109D01*
X106292179Y-109825048D01*
X106292181Y-109825049D01*
X106292184Y-109825051D01*
X106301493Y-109829794D01*
X106352290Y-109877766D01*
X106369087Y-109945587D01*
X106346552Y-110011722D01*
X106301505Y-110050760D01*
X106292446Y-110055376D01*
X106292440Y-110055380D01*
X106238282Y-110094727D01*
X106238282Y-110094728D01*
X106870591Y-110727037D01*
X106807007Y-110744075D01*
X106692993Y-110809901D01*
X106599901Y-110902993D01*
X106534075Y-111017007D01*
X106517037Y-111080591D01*
X105884728Y-110448282D01*
X105884727Y-110448282D01*
X105845380Y-110502439D01*
X105748904Y-110691782D01*
X105683242Y-110893869D01*
X105683242Y-110893872D01*
X105650000Y-111103753D01*
X105650000Y-111316246D01*
X105683242Y-111526127D01*
X105683242Y-111526130D01*
X105748904Y-111728217D01*
X105845375Y-111917550D01*
X105884728Y-111971716D01*
X106517037Y-111339408D01*
X106534075Y-111402993D01*
X106599901Y-111517007D01*
X106692993Y-111610099D01*
X106807007Y-111675925D01*
X106870591Y-111692962D01*
X106269971Y-112293581D01*
X106348711Y-112410895D01*
X106349920Y-112414729D01*
X106352844Y-112417491D01*
X106360343Y-112447778D01*
X106369727Y-112477529D01*
X106368671Y-112481408D01*
X106369638Y-112485312D01*
X106359573Y-112514844D01*
X106351383Y-112544947D01*
X106348397Y-112547640D01*
X106347100Y-112551447D01*
X106302051Y-112590483D01*
X106292440Y-112595380D01*
X106238282Y-112634727D01*
X106238282Y-112634728D01*
X106870591Y-113267037D01*
X106807007Y-113284075D01*
X106692993Y-113349901D01*
X106599901Y-113442993D01*
X106534075Y-113557007D01*
X106517037Y-113620591D01*
X105884728Y-112988282D01*
X105884727Y-112988282D01*
X105845380Y-113042439D01*
X105748904Y-113231782D01*
X105683242Y-113433869D01*
X105683242Y-113433872D01*
X105650000Y-113643753D01*
X105650000Y-113856246D01*
X105683242Y-114066127D01*
X105683242Y-114066130D01*
X105748904Y-114268217D01*
X105845375Y-114457550D01*
X105884728Y-114511716D01*
X106517037Y-113879408D01*
X106534075Y-113942993D01*
X106599901Y-114057007D01*
X106692993Y-114150099D01*
X106807007Y-114215925D01*
X106870590Y-114232962D01*
X106238282Y-114865269D01*
X106238282Y-114865270D01*
X106292452Y-114904626D01*
X106292451Y-114904626D01*
X106301495Y-114909234D01*
X106352292Y-114957208D01*
X106369087Y-115025029D01*
X106346550Y-115091164D01*
X106301499Y-115130202D01*
X106292182Y-115134949D01*
X106120213Y-115259890D01*
X105969890Y-115410213D01*
X105844951Y-115582179D01*
X105748444Y-115771585D01*
X105682753Y-115973760D01*
X105666109Y-116078846D01*
X105649500Y-116183713D01*
X105649500Y-116396287D01*
X105653439Y-116421155D01*
X105678414Y-116578846D01*
X105682754Y-116606243D01*
X105745872Y-116800500D01*
X105748444Y-116808414D01*
X105844951Y-116997820D01*
X105969890Y-117169786D01*
X106120213Y-117320109D01*
X106292179Y-117445048D01*
X106292181Y-117445049D01*
X106292184Y-117445051D01*
X106301493Y-117449794D01*
X106352290Y-117497766D01*
X106369087Y-117565587D01*
X106346552Y-117631722D01*
X106301505Y-117670760D01*
X106292446Y-117675376D01*
X106292440Y-117675380D01*
X106238282Y-117714727D01*
X106238282Y-117714728D01*
X106870591Y-118347037D01*
X106807007Y-118364075D01*
X106692993Y-118429901D01*
X106599901Y-118522993D01*
X106534075Y-118637007D01*
X106517037Y-118700591D01*
X105884728Y-118068282D01*
X105884727Y-118068282D01*
X105845380Y-118122439D01*
X105748904Y-118311782D01*
X105683242Y-118513869D01*
X105683242Y-118513872D01*
X105650000Y-118723753D01*
X105650000Y-118936246D01*
X105683242Y-119146127D01*
X105683242Y-119146130D01*
X105748904Y-119348217D01*
X105845375Y-119537550D01*
X105884728Y-119591716D01*
X106517037Y-118959408D01*
X106534075Y-119022993D01*
X106599901Y-119137007D01*
X106692993Y-119230099D01*
X106807007Y-119295925D01*
X106870590Y-119312962D01*
X106238282Y-119945269D01*
X106238282Y-119945270D01*
X106292452Y-119984626D01*
X106292451Y-119984626D01*
X106301495Y-119989234D01*
X106352292Y-120037208D01*
X106369087Y-120105029D01*
X106346550Y-120171164D01*
X106301499Y-120210202D01*
X106292182Y-120214949D01*
X106120213Y-120339890D01*
X105969890Y-120490213D01*
X105844951Y-120662179D01*
X105748444Y-120851585D01*
X105682753Y-121053760D01*
X105649500Y-121263713D01*
X105649500Y-121476286D01*
X105682753Y-121686239D01*
X105748444Y-121888414D01*
X105844951Y-122077820D01*
X105969890Y-122249786D01*
X106120213Y-122400109D01*
X106292182Y-122525050D01*
X106300946Y-122529516D01*
X106351742Y-122577491D01*
X106368536Y-122645312D01*
X106345998Y-122711447D01*
X106300946Y-122750484D01*
X106292182Y-122754949D01*
X106120213Y-122879890D01*
X105969890Y-123030213D01*
X105844951Y-123202179D01*
X105748444Y-123391585D01*
X105682753Y-123593760D01*
X105649500Y-123803713D01*
X105649500Y-124016286D01*
X105682753Y-124226239D01*
X105748444Y-124428414D01*
X105844951Y-124617820D01*
X105969890Y-124789786D01*
X106120213Y-124940109D01*
X106292182Y-125065050D01*
X106300946Y-125069516D01*
X106351742Y-125117491D01*
X106368536Y-125185312D01*
X106345998Y-125251447D01*
X106300946Y-125290484D01*
X106292182Y-125294949D01*
X106120213Y-125419890D01*
X105969890Y-125570213D01*
X105844951Y-125742179D01*
X105748444Y-125931585D01*
X105682753Y-126133760D01*
X105649500Y-126343713D01*
X105649500Y-126556286D01*
X105677567Y-126733497D01*
X105682754Y-126766243D01*
X105719451Y-126879185D01*
X105748444Y-126968414D01*
X105844951Y-127157820D01*
X105969890Y-127329786D01*
X106120213Y-127480109D01*
X106292182Y-127605050D01*
X106300946Y-127609516D01*
X106351742Y-127657491D01*
X106368536Y-127725312D01*
X106345998Y-127791447D01*
X106300946Y-127830484D01*
X106292182Y-127834949D01*
X106120213Y-127959890D01*
X105969890Y-128110213D01*
X105844951Y-128282179D01*
X105748444Y-128471585D01*
X105682753Y-128673760D01*
X105649500Y-128883713D01*
X105649500Y-129096286D01*
X105682753Y-129306239D01*
X105748444Y-129508414D01*
X105844951Y-129697820D01*
X105969890Y-129869786D01*
X106120213Y-130020109D01*
X106292179Y-130145048D01*
X106292181Y-130145049D01*
X106292184Y-130145051D01*
X106481588Y-130241557D01*
X106683757Y-130307246D01*
X106893713Y-130340500D01*
X106893714Y-130340500D01*
X107106286Y-130340500D01*
X107106287Y-130340500D01*
X107316243Y-130307246D01*
X107518412Y-130241557D01*
X107707816Y-130145051D01*
X107729789Y-130129086D01*
X107879786Y-130020109D01*
X107879788Y-130020106D01*
X107879792Y-130020104D01*
X108030104Y-129869792D01*
X108030106Y-129869788D01*
X108030109Y-129869786D01*
X108155048Y-129697820D01*
X108155047Y-129697820D01*
X108155051Y-129697816D01*
X108159514Y-129689054D01*
X108207488Y-129638259D01*
X108275308Y-129621463D01*
X108341444Y-129643999D01*
X108380486Y-129689056D01*
X108384951Y-129697820D01*
X108509890Y-129869786D01*
X108660213Y-130020109D01*
X108832179Y-130145048D01*
X108832181Y-130145049D01*
X108832184Y-130145051D01*
X109021588Y-130241557D01*
X109223757Y-130307246D01*
X109433713Y-130340500D01*
X109433714Y-130340500D01*
X109646286Y-130340500D01*
X109646287Y-130340500D01*
X109856243Y-130307246D01*
X110058412Y-130241557D01*
X110247816Y-130145051D01*
X110269789Y-130129086D01*
X110419786Y-130020109D01*
X110419788Y-130020106D01*
X110419792Y-130020104D01*
X110570104Y-129869792D01*
X110570106Y-129869788D01*
X110570109Y-129869786D01*
X110695048Y-129697820D01*
X110695047Y-129697820D01*
X110695051Y-129697816D01*
X110791557Y-129508412D01*
X110857246Y-129306243D01*
X110890500Y-129096287D01*
X110890500Y-128883713D01*
X110857246Y-128673757D01*
X110791557Y-128471588D01*
X110695051Y-128282184D01*
X110695049Y-128282181D01*
X110695048Y-128282179D01*
X110570109Y-128110213D01*
X110419786Y-127959890D01*
X110366468Y-127921153D01*
X140199500Y-127921153D01*
X140199500Y-128078846D01*
X140230261Y-128233489D01*
X140230264Y-128233501D01*
X140290602Y-128379172D01*
X140290609Y-128379185D01*
X140378210Y-128510288D01*
X140378213Y-128510292D01*
X140489707Y-128621786D01*
X140489711Y-128621789D01*
X140620814Y-128709390D01*
X140620827Y-128709397D01*
X140766498Y-128769735D01*
X140766503Y-128769737D01*
X140921153Y-128800499D01*
X140921156Y-128800500D01*
X140921158Y-128800500D01*
X141078844Y-128800500D01*
X141078845Y-128800499D01*
X141233497Y-128769737D01*
X141379179Y-128709394D01*
X141510289Y-128621789D01*
X141621789Y-128510289D01*
X141709394Y-128379179D01*
X141769737Y-128233497D01*
X141800500Y-128078842D01*
X141800500Y-127921158D01*
X141800500Y-127921155D01*
X141800499Y-127921153D01*
X141782464Y-127830486D01*
X141769737Y-127766503D01*
X141750475Y-127720000D01*
X141709397Y-127620827D01*
X141709390Y-127620814D01*
X141621789Y-127489711D01*
X141621786Y-127489707D01*
X141510292Y-127378213D01*
X141510288Y-127378210D01*
X141379185Y-127290609D01*
X141379172Y-127290602D01*
X141233501Y-127230264D01*
X141233489Y-127230261D01*
X141078845Y-127199500D01*
X141078842Y-127199500D01*
X140921158Y-127199500D01*
X140921155Y-127199500D01*
X140766510Y-127230261D01*
X140766498Y-127230264D01*
X140620827Y-127290602D01*
X140620814Y-127290609D01*
X140489711Y-127378210D01*
X140489707Y-127378213D01*
X140378213Y-127489707D01*
X140378210Y-127489711D01*
X140290609Y-127620814D01*
X140290602Y-127620827D01*
X140230264Y-127766498D01*
X140230261Y-127766510D01*
X140199500Y-127921153D01*
X110366468Y-127921153D01*
X110247820Y-127834951D01*
X110247115Y-127834591D01*
X110239054Y-127830485D01*
X110188259Y-127782512D01*
X110171463Y-127714692D01*
X110193999Y-127648556D01*
X110239054Y-127609515D01*
X110247816Y-127605051D01*
X110269789Y-127589086D01*
X110419786Y-127480109D01*
X110419788Y-127480106D01*
X110419792Y-127480104D01*
X110570104Y-127329792D01*
X110570106Y-127329788D01*
X110570109Y-127329786D01*
X110695048Y-127157820D01*
X110695047Y-127157820D01*
X110695051Y-127157816D01*
X110791557Y-126968412D01*
X110857246Y-126766243D01*
X110890500Y-126556287D01*
X110890500Y-126421153D01*
X138949500Y-126421153D01*
X138949500Y-126578846D01*
X138980261Y-126733489D01*
X138980264Y-126733501D01*
X139040602Y-126879172D01*
X139040609Y-126879185D01*
X139128210Y-127010288D01*
X139128213Y-127010292D01*
X139239707Y-127121786D01*
X139239711Y-127121789D01*
X139370814Y-127209390D01*
X139370827Y-127209397D01*
X139516498Y-127269735D01*
X139516503Y-127269737D01*
X139671153Y-127300499D01*
X139671156Y-127300500D01*
X139671158Y-127300500D01*
X139828844Y-127300500D01*
X139828845Y-127300499D01*
X139983497Y-127269737D01*
X140129179Y-127209394D01*
X140260289Y-127121789D01*
X140371789Y-127010289D01*
X140459394Y-126879179D01*
X140519737Y-126733497D01*
X140550500Y-126578842D01*
X140550500Y-126421158D01*
X140550500Y-126421155D01*
X140550499Y-126421153D01*
X140519738Y-126266510D01*
X140519737Y-126266503D01*
X140519735Y-126266498D01*
X140459397Y-126120827D01*
X140459390Y-126120814D01*
X140371789Y-125989711D01*
X140371786Y-125989707D01*
X140260292Y-125878213D01*
X140260288Y-125878210D01*
X140129185Y-125790609D01*
X140129172Y-125790602D01*
X139983501Y-125730264D01*
X139983489Y-125730261D01*
X139828845Y-125699500D01*
X139828842Y-125699500D01*
X139671158Y-125699500D01*
X139671155Y-125699500D01*
X139516510Y-125730261D01*
X139516498Y-125730264D01*
X139370827Y-125790602D01*
X139370814Y-125790609D01*
X139239711Y-125878210D01*
X139239707Y-125878213D01*
X139128213Y-125989707D01*
X139128210Y-125989711D01*
X139040609Y-126120814D01*
X139040602Y-126120827D01*
X138980264Y-126266498D01*
X138980261Y-126266510D01*
X138949500Y-126421153D01*
X110890500Y-126421153D01*
X110890500Y-126343713D01*
X110857246Y-126133757D01*
X110791557Y-125931588D01*
X110695051Y-125742184D01*
X110695049Y-125742181D01*
X110695048Y-125742179D01*
X110570109Y-125570213D01*
X110419786Y-125419890D01*
X110247820Y-125294951D01*
X110247115Y-125294591D01*
X110239054Y-125290485D01*
X110188259Y-125242512D01*
X110171463Y-125174692D01*
X110193999Y-125108556D01*
X110239054Y-125069515D01*
X110247816Y-125065051D01*
X110269789Y-125049086D01*
X110419786Y-124940109D01*
X110419788Y-124940106D01*
X110419792Y-124940104D01*
X110570104Y-124789792D01*
X110570106Y-124789788D01*
X110570109Y-124789786D01*
X110695048Y-124617820D01*
X110695047Y-124617820D01*
X110695051Y-124617816D01*
X110791557Y-124428412D01*
X110857246Y-124226243D01*
X110890500Y-124016287D01*
X110890500Y-123803713D01*
X110857246Y-123593757D01*
X110791557Y-123391588D01*
X110695051Y-123202184D01*
X110695049Y-123202181D01*
X110695048Y-123202179D01*
X110570109Y-123030213D01*
X110419786Y-122879890D01*
X110247820Y-122754951D01*
X110247115Y-122754591D01*
X110239054Y-122750485D01*
X110188259Y-122702512D01*
X110171463Y-122634692D01*
X110193999Y-122568556D01*
X110239054Y-122529515D01*
X110247816Y-122525051D01*
X110269789Y-122509086D01*
X110419786Y-122400109D01*
X110419788Y-122400106D01*
X110419792Y-122400104D01*
X110570104Y-122249792D01*
X110570106Y-122249788D01*
X110570109Y-122249786D01*
X110695048Y-122077820D01*
X110695047Y-122077820D01*
X110695051Y-122077816D01*
X110791557Y-121888412D01*
X110857246Y-121686243D01*
X110890500Y-121476287D01*
X110890500Y-121263713D01*
X110857246Y-121053757D01*
X110791557Y-120851588D01*
X110695051Y-120662184D01*
X110695049Y-120662181D01*
X110695048Y-120662179D01*
X110570109Y-120490213D01*
X110419792Y-120339896D01*
X110404577Y-120328842D01*
X110247816Y-120214949D01*
X110231840Y-120206808D01*
X110225165Y-120202226D01*
X110208011Y-120181166D01*
X110197409Y-120171153D01*
X131199500Y-120171153D01*
X131199500Y-120328846D01*
X131230261Y-120483489D01*
X131230264Y-120483501D01*
X131290602Y-120629172D01*
X131290609Y-120629185D01*
X131378210Y-120760288D01*
X131378213Y-120760292D01*
X131489707Y-120871786D01*
X131489711Y-120871789D01*
X131620814Y-120959390D01*
X131620827Y-120959397D01*
X131766498Y-121019735D01*
X131766503Y-121019737D01*
X131921153Y-121050499D01*
X131921156Y-121050500D01*
X131921158Y-121050500D01*
X132078844Y-121050500D01*
X132078845Y-121050499D01*
X132233497Y-121019737D01*
X132379179Y-120959394D01*
X132510289Y-120871789D01*
X132621789Y-120760289D01*
X132709394Y-120629179D01*
X132769737Y-120483497D01*
X132800500Y-120328842D01*
X132800500Y-120171158D01*
X132800500Y-120171155D01*
X132800499Y-120171153D01*
X133449500Y-120171153D01*
X133449500Y-120328846D01*
X133480261Y-120483489D01*
X133480264Y-120483501D01*
X133540602Y-120629172D01*
X133540609Y-120629185D01*
X133628210Y-120760288D01*
X133628213Y-120760292D01*
X133739707Y-120871786D01*
X133739711Y-120871789D01*
X133870814Y-120959390D01*
X133870827Y-120959397D01*
X134016498Y-121019735D01*
X134016503Y-121019737D01*
X134171153Y-121050499D01*
X134171156Y-121050500D01*
X134171158Y-121050500D01*
X134328844Y-121050500D01*
X134328845Y-121050499D01*
X134483497Y-121019737D01*
X134629179Y-120959394D01*
X134760289Y-120871789D01*
X134871789Y-120760289D01*
X134959394Y-120629179D01*
X135019737Y-120483497D01*
X135050500Y-120328842D01*
X135050500Y-120171158D01*
X135050500Y-120171155D01*
X135050499Y-120171153D01*
X135035290Y-120094692D01*
X135019737Y-120016503D01*
X135017163Y-120010288D01*
X134959397Y-119870827D01*
X134959390Y-119870814D01*
X134871789Y-119739711D01*
X134871786Y-119739707D01*
X134760292Y-119628213D01*
X134760288Y-119628210D01*
X134629185Y-119540609D01*
X134629173Y-119540602D01*
X134602674Y-119529627D01*
X134483501Y-119480264D01*
X134483489Y-119480261D01*
X134328845Y-119449500D01*
X134328842Y-119449500D01*
X134171158Y-119449500D01*
X134171155Y-119449500D01*
X134016510Y-119480261D01*
X134016498Y-119480264D01*
X133870827Y-119540602D01*
X133870814Y-119540609D01*
X133739711Y-119628210D01*
X133739707Y-119628213D01*
X133628213Y-119739707D01*
X133628210Y-119739711D01*
X133540609Y-119870814D01*
X133540602Y-119870827D01*
X133480264Y-120016498D01*
X133480261Y-120016510D01*
X133449500Y-120171153D01*
X132800499Y-120171153D01*
X132785290Y-120094692D01*
X132769737Y-120016503D01*
X132767163Y-120010288D01*
X132709397Y-119870827D01*
X132709390Y-119870814D01*
X132621789Y-119739711D01*
X132621786Y-119739707D01*
X132510292Y-119628213D01*
X132510288Y-119628210D01*
X132379185Y-119540609D01*
X132379172Y-119540602D01*
X132233501Y-119480264D01*
X132233489Y-119480261D01*
X132078845Y-119449500D01*
X132078842Y-119449500D01*
X131921158Y-119449500D01*
X131921155Y-119449500D01*
X131766510Y-119480261D01*
X131766498Y-119480264D01*
X131620827Y-119540602D01*
X131620814Y-119540609D01*
X131489711Y-119628210D01*
X131489707Y-119628213D01*
X131378213Y-119739707D01*
X131378210Y-119739711D01*
X131290609Y-119870814D01*
X131290602Y-119870827D01*
X131230264Y-120016498D01*
X131230261Y-120016510D01*
X131199500Y-120171153D01*
X110197409Y-120171153D01*
X110188259Y-120162512D01*
X110186267Y-120154472D01*
X110181039Y-120148053D01*
X110177993Y-120121060D01*
X110171463Y-120094692D01*
X110174133Y-120086854D01*
X110173205Y-120078624D01*
X110185237Y-120054268D01*
X110193999Y-120028556D01*
X110200889Y-120022584D01*
X110204152Y-120015982D01*
X110218346Y-120007458D01*
X110239054Y-119989515D01*
X110247816Y-119985051D01*
X110302572Y-119945269D01*
X110419786Y-119860109D01*
X110419788Y-119860106D01*
X110419792Y-119860104D01*
X110570104Y-119709792D01*
X110570106Y-119709788D01*
X110570109Y-119709786D01*
X110695048Y-119537820D01*
X110695050Y-119537817D01*
X110695051Y-119537816D01*
X110754494Y-119421153D01*
X146699500Y-119421153D01*
X146699500Y-119578846D01*
X146730261Y-119733489D01*
X146730264Y-119733501D01*
X146790602Y-119879172D01*
X146790609Y-119879185D01*
X146878210Y-120010288D01*
X146878213Y-120010292D01*
X146989707Y-120121786D01*
X146989711Y-120121789D01*
X147120814Y-120209390D01*
X147120827Y-120209397D01*
X147258304Y-120266341D01*
X147266503Y-120269737D01*
X147421153Y-120300499D01*
X147421156Y-120300500D01*
X147421158Y-120300500D01*
X147578844Y-120300500D01*
X147578845Y-120300499D01*
X147733497Y-120269737D01*
X147865768Y-120214949D01*
X147879172Y-120209397D01*
X147879172Y-120209396D01*
X147879179Y-120209394D01*
X148010289Y-120121789D01*
X148121789Y-120010289D01*
X148209394Y-119879179D01*
X148212854Y-119870827D01*
X148267163Y-119739711D01*
X148269737Y-119733497D01*
X148300500Y-119578842D01*
X148300500Y-119421158D01*
X148300500Y-119421155D01*
X148300499Y-119421153D01*
X148269738Y-119266510D01*
X148269737Y-119266503D01*
X148219924Y-119146243D01*
X148209397Y-119120827D01*
X148209390Y-119120814D01*
X148121789Y-118989711D01*
X148121786Y-118989707D01*
X148010292Y-118878213D01*
X148010288Y-118878210D01*
X147879185Y-118790609D01*
X147879172Y-118790602D01*
X147733501Y-118730264D01*
X147733489Y-118730261D01*
X147578845Y-118699500D01*
X147578842Y-118699500D01*
X147421158Y-118699500D01*
X147421155Y-118699500D01*
X147266510Y-118730261D01*
X147266498Y-118730264D01*
X147120827Y-118790602D01*
X147120814Y-118790609D01*
X146989711Y-118878210D01*
X146989707Y-118878213D01*
X146878213Y-118989707D01*
X146878210Y-118989711D01*
X146790609Y-119120814D01*
X146790602Y-119120827D01*
X146730264Y-119266498D01*
X146730261Y-119266510D01*
X146699500Y-119421153D01*
X110754494Y-119421153D01*
X110791557Y-119348412D01*
X110857246Y-119146243D01*
X110890500Y-118936287D01*
X110890500Y-118723713D01*
X110857246Y-118513757D01*
X110791557Y-118311588D01*
X110695051Y-118122184D01*
X110695049Y-118122181D01*
X110695048Y-118122179D01*
X110570109Y-117950213D01*
X110419786Y-117799890D01*
X110247820Y-117674951D01*
X110239600Y-117670763D01*
X110239054Y-117670485D01*
X110188259Y-117622512D01*
X110171463Y-117554692D01*
X110193999Y-117488556D01*
X110239054Y-117449515D01*
X110247816Y-117445051D01*
X110287116Y-117416498D01*
X110419786Y-117320109D01*
X110419788Y-117320106D01*
X110419792Y-117320104D01*
X110570104Y-117169792D01*
X110570106Y-117169788D01*
X110570109Y-117169786D01*
X110695048Y-116997820D01*
X110695047Y-116997820D01*
X110695051Y-116997816D01*
X110791557Y-116808412D01*
X110857246Y-116606243D01*
X110886562Y-116421153D01*
X137699500Y-116421153D01*
X137699500Y-116578846D01*
X137730261Y-116733489D01*
X137730264Y-116733501D01*
X137790602Y-116879172D01*
X137790609Y-116879185D01*
X137878210Y-117010288D01*
X137878213Y-117010292D01*
X137989707Y-117121786D01*
X137989711Y-117121789D01*
X138120814Y-117209390D01*
X138120826Y-117209397D01*
X138172898Y-117230965D01*
X138227302Y-117274805D01*
X138249367Y-117341099D01*
X138240008Y-117392977D01*
X138230262Y-117416506D01*
X138230260Y-117416511D01*
X138199500Y-117571153D01*
X138199500Y-117728846D01*
X138230261Y-117883489D01*
X138230264Y-117883501D01*
X138290602Y-118029172D01*
X138290609Y-118029185D01*
X138378210Y-118160288D01*
X138378213Y-118160292D01*
X138489707Y-118271786D01*
X138489711Y-118271789D01*
X138620814Y-118359390D01*
X138620827Y-118359397D01*
X138766498Y-118419735D01*
X138766503Y-118419737D01*
X138921153Y-118450499D01*
X138921156Y-118450500D01*
X138921158Y-118450500D01*
X139078844Y-118450500D01*
X139078845Y-118450499D01*
X139233497Y-118419737D01*
X139379179Y-118359394D01*
X139510289Y-118271789D01*
X139621789Y-118160289D01*
X139709394Y-118029179D01*
X139769737Y-117883497D01*
X139800500Y-117728842D01*
X139800500Y-117571158D01*
X139800500Y-117571155D01*
X139800499Y-117571153D01*
X139799337Y-117565312D01*
X139769737Y-117416503D01*
X139729808Y-117320104D01*
X139709397Y-117270827D01*
X139709390Y-117270814D01*
X139621789Y-117139711D01*
X139621786Y-117139707D01*
X139510292Y-117028213D01*
X139510288Y-117028210D01*
X139379185Y-116940609D01*
X139379176Y-116940604D01*
X139327100Y-116919034D01*
X139272697Y-116875193D01*
X139250632Y-116808899D01*
X139259993Y-116757020D01*
X139269737Y-116733497D01*
X139300500Y-116578842D01*
X139300500Y-116421158D01*
X139300500Y-116421155D01*
X139300499Y-116421153D01*
X139269738Y-116266510D01*
X139269737Y-116266503D01*
X139235445Y-116183713D01*
X139209397Y-116120827D01*
X139209390Y-116120814D01*
X139121790Y-115989712D01*
X139121784Y-115989705D01*
X139053232Y-115921153D01*
X142699500Y-115921153D01*
X142699500Y-116078846D01*
X142730261Y-116233489D01*
X142730264Y-116233501D01*
X142790602Y-116379172D01*
X142790609Y-116379185D01*
X142878210Y-116510288D01*
X142878213Y-116510292D01*
X142989707Y-116621786D01*
X142989711Y-116621789D01*
X143120814Y-116709390D01*
X143120827Y-116709397D01*
X143266498Y-116769735D01*
X143266503Y-116769737D01*
X143421153Y-116800499D01*
X143421156Y-116800500D01*
X143421158Y-116800500D01*
X143578844Y-116800500D01*
X143578845Y-116800499D01*
X143733497Y-116769737D01*
X143879179Y-116709394D01*
X144010289Y-116621789D01*
X144121789Y-116510289D01*
X144209394Y-116379179D01*
X144269737Y-116233497D01*
X144300500Y-116078842D01*
X144300500Y-115921158D01*
X144300500Y-115921155D01*
X144300499Y-115921153D01*
X144295245Y-115894738D01*
X144269737Y-115766503D01*
X144261570Y-115746786D01*
X144209397Y-115620827D01*
X144209390Y-115620814D01*
X144121789Y-115489711D01*
X144121786Y-115489707D01*
X144010292Y-115378213D01*
X144010288Y-115378210D01*
X143879185Y-115290609D01*
X143879172Y-115290602D01*
X143733501Y-115230264D01*
X143733489Y-115230261D01*
X143578845Y-115199500D01*
X143578842Y-115199500D01*
X143421158Y-115199500D01*
X143421155Y-115199500D01*
X143266510Y-115230261D01*
X143266498Y-115230264D01*
X143120827Y-115290602D01*
X143120814Y-115290609D01*
X142989711Y-115378210D01*
X142989707Y-115378213D01*
X142878213Y-115489707D01*
X142878210Y-115489711D01*
X142790609Y-115620814D01*
X142790602Y-115620827D01*
X142730264Y-115766498D01*
X142730261Y-115766510D01*
X142699500Y-115921153D01*
X139053232Y-115921153D01*
X139010292Y-115878213D01*
X139010288Y-115878210D01*
X138879185Y-115790609D01*
X138879172Y-115790602D01*
X138733501Y-115730264D01*
X138733489Y-115730261D01*
X138578845Y-115699500D01*
X138578842Y-115699500D01*
X138421158Y-115699500D01*
X138421155Y-115699500D01*
X138266510Y-115730261D01*
X138266498Y-115730264D01*
X138120827Y-115790602D01*
X138120814Y-115790609D01*
X137989711Y-115878210D01*
X137989707Y-115878213D01*
X137878213Y-115989707D01*
X137878210Y-115989711D01*
X137790609Y-116120814D01*
X137790602Y-116120827D01*
X137730264Y-116266498D01*
X137730261Y-116266510D01*
X137699500Y-116421153D01*
X110886562Y-116421153D01*
X110890500Y-116396287D01*
X110890500Y-116183713D01*
X110857246Y-115973757D01*
X110791557Y-115771588D01*
X110695051Y-115582184D01*
X110695049Y-115582181D01*
X110695048Y-115582179D01*
X110570109Y-115410213D01*
X110419790Y-115259894D01*
X110419785Y-115259890D01*
X110259306Y-115143296D01*
X110259298Y-115143291D01*
X110247816Y-115134949D01*
X110234774Y-115128304D01*
X110230687Y-115125806D01*
X110210308Y-115103335D01*
X110188259Y-115082512D01*
X110187070Y-115077713D01*
X110183749Y-115074051D01*
X110179091Y-115046153D01*
X135949500Y-115046153D01*
X135949500Y-115203846D01*
X135980261Y-115358489D01*
X135980264Y-115358501D01*
X136040602Y-115504172D01*
X136040609Y-115504185D01*
X136128210Y-115635288D01*
X136128213Y-115635292D01*
X136239707Y-115746786D01*
X136239711Y-115746789D01*
X136370814Y-115834390D01*
X136370827Y-115834397D01*
X136476603Y-115878210D01*
X136516503Y-115894737D01*
X136671153Y-115925499D01*
X136671156Y-115925500D01*
X136671158Y-115925500D01*
X136828844Y-115925500D01*
X136828845Y-115925499D01*
X136983497Y-115894737D01*
X137129179Y-115834394D01*
X137260289Y-115746789D01*
X137371789Y-115635289D01*
X137459394Y-115504179D01*
X137465389Y-115489707D01*
X137511571Y-115378211D01*
X137519737Y-115358497D01*
X137550500Y-115203842D01*
X137550500Y-115046158D01*
X137550500Y-115046155D01*
X137550499Y-115046153D01*
X137541628Y-115001557D01*
X137519737Y-114891503D01*
X137508871Y-114865269D01*
X137459397Y-114745827D01*
X137459390Y-114745814D01*
X137371789Y-114614711D01*
X137371786Y-114614707D01*
X137260292Y-114503213D01*
X137260288Y-114503210D01*
X137129185Y-114415609D01*
X137129172Y-114415602D01*
X136983501Y-114355264D01*
X136983489Y-114355261D01*
X136828845Y-114324500D01*
X136828842Y-114324500D01*
X136671158Y-114324500D01*
X136671155Y-114324500D01*
X136516510Y-114355261D01*
X136516498Y-114355264D01*
X136370827Y-114415602D01*
X136370814Y-114415609D01*
X136239711Y-114503210D01*
X136239707Y-114503213D01*
X136128213Y-114614707D01*
X136128210Y-114614711D01*
X136040609Y-114745814D01*
X136040602Y-114745827D01*
X135980264Y-114891498D01*
X135980261Y-114891510D01*
X135949500Y-115046153D01*
X110179091Y-115046153D01*
X110178753Y-115044129D01*
X110171463Y-115014692D01*
X110173057Y-115010012D01*
X110172243Y-115005135D01*
X110184217Y-114977262D01*
X110193999Y-114948556D01*
X110198062Y-114945035D01*
X110199822Y-114940939D01*
X110213257Y-114931868D01*
X110239054Y-114909515D01*
X110247816Y-114905051D01*
X110302572Y-114865269D01*
X110419786Y-114780109D01*
X110419788Y-114780106D01*
X110419792Y-114780104D01*
X110570104Y-114629792D01*
X110570106Y-114629788D01*
X110570109Y-114629786D01*
X110695048Y-114457820D01*
X110695050Y-114457817D01*
X110695051Y-114457816D01*
X110791557Y-114268412D01*
X110857246Y-114066243D01*
X110890500Y-113856287D01*
X110890500Y-113643713D01*
X110857246Y-113433757D01*
X110791557Y-113231588D01*
X110695051Y-113042184D01*
X110695049Y-113042181D01*
X110695048Y-113042179D01*
X110570109Y-112870213D01*
X110419786Y-112719890D01*
X110247817Y-112594949D01*
X110238504Y-112590204D01*
X110187707Y-112542230D01*
X110170912Y-112474409D01*
X110193449Y-112408274D01*
X110238507Y-112369232D01*
X110247555Y-112364622D01*
X110301716Y-112325270D01*
X110301717Y-112325270D01*
X109669408Y-111692962D01*
X109732993Y-111675925D01*
X109847007Y-111610099D01*
X109940099Y-111517007D01*
X110005925Y-111402993D01*
X110022962Y-111339409D01*
X110655270Y-111971717D01*
X110655270Y-111971716D01*
X110692007Y-111921153D01*
X138199500Y-111921153D01*
X138199500Y-112078846D01*
X138230261Y-112233489D01*
X138230264Y-112233501D01*
X138290602Y-112379172D01*
X138290609Y-112379185D01*
X138378210Y-112510288D01*
X138378213Y-112510292D01*
X138489707Y-112621786D01*
X138489711Y-112621789D01*
X138620814Y-112709390D01*
X138620827Y-112709397D01*
X138766498Y-112769735D01*
X138766503Y-112769737D01*
X138921153Y-112800499D01*
X138921156Y-112800500D01*
X138921158Y-112800500D01*
X139078844Y-112800500D01*
X139078845Y-112800499D01*
X139233497Y-112769737D01*
X139379179Y-112709394D01*
X139510289Y-112621789D01*
X139621789Y-112510289D01*
X139709394Y-112379179D01*
X139769737Y-112233497D01*
X139800500Y-112078842D01*
X139800500Y-111921158D01*
X139800500Y-111921155D01*
X139800499Y-111921153D01*
X139792451Y-111880692D01*
X139769737Y-111766503D01*
X139769735Y-111766498D01*
X139709397Y-111620827D01*
X139709390Y-111620814D01*
X139621789Y-111489711D01*
X139621786Y-111489707D01*
X139510292Y-111378213D01*
X139510288Y-111378210D01*
X139379185Y-111290609D01*
X139379172Y-111290602D01*
X139233501Y-111230264D01*
X139233489Y-111230261D01*
X139078845Y-111199500D01*
X139078842Y-111199500D01*
X138921158Y-111199500D01*
X138921155Y-111199500D01*
X138766510Y-111230261D01*
X138766498Y-111230264D01*
X138620827Y-111290602D01*
X138620814Y-111290609D01*
X138489711Y-111378210D01*
X138489707Y-111378213D01*
X138378213Y-111489707D01*
X138378210Y-111489711D01*
X138290609Y-111620814D01*
X138290602Y-111620827D01*
X138230264Y-111766498D01*
X138230261Y-111766510D01*
X138199500Y-111921153D01*
X110692007Y-111921153D01*
X110694624Y-111917551D01*
X110724576Y-111858770D01*
X110791095Y-111728217D01*
X110856757Y-111526130D01*
X110856757Y-111526127D01*
X110890000Y-111316246D01*
X110890000Y-111103753D01*
X110856757Y-110893872D01*
X110856757Y-110893869D01*
X110791095Y-110691782D01*
X110694624Y-110502449D01*
X110655270Y-110448282D01*
X110655269Y-110448282D01*
X110022962Y-111080590D01*
X110005925Y-111017007D01*
X109940099Y-110902993D01*
X109847007Y-110809901D01*
X109732993Y-110744075D01*
X109669409Y-110727037D01*
X110301716Y-110094728D01*
X110247550Y-110055375D01*
X110237954Y-110050486D01*
X110187157Y-110002512D01*
X110170361Y-109934692D01*
X110192897Y-109868556D01*
X110237954Y-109829514D01*
X110247554Y-109824622D01*
X110301716Y-109785270D01*
X110301717Y-109785270D01*
X109669408Y-109152962D01*
X109732993Y-109135925D01*
X109847007Y-109070099D01*
X109940099Y-108977007D01*
X110005925Y-108862993D01*
X110022962Y-108799409D01*
X110655270Y-109431717D01*
X110655270Y-109431716D01*
X110694622Y-109377554D01*
X110791095Y-109188217D01*
X110856757Y-108986130D01*
X110856757Y-108986127D01*
X110888855Y-108783478D01*
X143574500Y-108783478D01*
X143574500Y-108941171D01*
X143605261Y-109095814D01*
X143605264Y-109095826D01*
X143665602Y-109241497D01*
X143665609Y-109241510D01*
X143753210Y-109372613D01*
X143753213Y-109372617D01*
X143864707Y-109484111D01*
X143864711Y-109484114D01*
X143995814Y-109571715D01*
X143995827Y-109571722D01*
X144141088Y-109631890D01*
X144195492Y-109675730D01*
X144217557Y-109742024D01*
X144200278Y-109809724D01*
X144196739Y-109815341D01*
X144165607Y-109861933D01*
X144165601Y-109861944D01*
X144105263Y-110007615D01*
X144105260Y-110007627D01*
X144074499Y-110162270D01*
X144074499Y-110319963D01*
X144105260Y-110474606D01*
X144105263Y-110474618D01*
X144165601Y-110620289D01*
X144165608Y-110620302D01*
X144253209Y-110751405D01*
X144253212Y-110751409D01*
X144364706Y-110862903D01*
X144364710Y-110862906D01*
X144495813Y-110950507D01*
X144495826Y-110950514D01*
X144594096Y-110991218D01*
X144641502Y-111010854D01*
X144796152Y-111041616D01*
X144796155Y-111041617D01*
X144796157Y-111041617D01*
X144953842Y-111041617D01*
X144966928Y-111039013D01*
X145000151Y-111032405D01*
X145069742Y-111038631D01*
X145124920Y-111081494D01*
X145148165Y-111147383D01*
X145138905Y-111201473D01*
X145111345Y-111268010D01*
X145111344Y-111268013D01*
X145111344Y-111268014D01*
X145111343Y-111268017D01*
X145080582Y-111422660D01*
X145080582Y-111580353D01*
X145111343Y-111734996D01*
X145111346Y-111735008D01*
X145171684Y-111880679D01*
X145171691Y-111880692D01*
X145259292Y-112011795D01*
X145259295Y-112011799D01*
X145370789Y-112123293D01*
X145370793Y-112123296D01*
X145501896Y-112210897D01*
X145501909Y-112210904D01*
X145623124Y-112261112D01*
X145647585Y-112271244D01*
X145759880Y-112293581D01*
X145802235Y-112302006D01*
X145802238Y-112302007D01*
X145802240Y-112302007D01*
X145959926Y-112302007D01*
X145959927Y-112302006D01*
X146114579Y-112271244D01*
X146245831Y-112216877D01*
X146315300Y-112209409D01*
X146340730Y-112216876D01*
X146447523Y-112261111D01*
X146602173Y-112291873D01*
X146602176Y-112291874D01*
X146602178Y-112291874D01*
X146759864Y-112291874D01*
X146759865Y-112291873D01*
X146914517Y-112261111D01*
X147032645Y-112212180D01*
X147102114Y-112204712D01*
X147127550Y-112212181D01*
X147266503Y-112269737D01*
X147421153Y-112300499D01*
X147421156Y-112300500D01*
X147421158Y-112300500D01*
X147578844Y-112300500D01*
X147578845Y-112300499D01*
X147733497Y-112269737D01*
X147875541Y-112210901D01*
X147879172Y-112209397D01*
X147879172Y-112209396D01*
X147879179Y-112209394D01*
X148010289Y-112121789D01*
X148121789Y-112010289D01*
X148209394Y-111879179D01*
X148269737Y-111733497D01*
X148300500Y-111578842D01*
X148300500Y-111421158D01*
X148300500Y-111421155D01*
X148300499Y-111421153D01*
X148291957Y-111378210D01*
X148269737Y-111266503D01*
X148269735Y-111266498D01*
X148209397Y-111120827D01*
X148209390Y-111120814D01*
X148121789Y-110989711D01*
X148121786Y-110989707D01*
X148010292Y-110878213D01*
X148010288Y-110878210D01*
X147879185Y-110790609D01*
X147879172Y-110790602D01*
X147733501Y-110730264D01*
X147733489Y-110730261D01*
X147578845Y-110699500D01*
X147578842Y-110699500D01*
X147421158Y-110699500D01*
X147421155Y-110699500D01*
X147266510Y-110730261D01*
X147266498Y-110730264D01*
X147148375Y-110779192D01*
X147078906Y-110786661D01*
X147053471Y-110779192D01*
X146914521Y-110721638D01*
X146914509Y-110721635D01*
X146759865Y-110690874D01*
X146759862Y-110690874D01*
X146602178Y-110690874D01*
X146602175Y-110690874D01*
X146447530Y-110721635D01*
X146447518Y-110721638D01*
X146316271Y-110776002D01*
X146246802Y-110783471D01*
X146221367Y-110776002D01*
X146114583Y-110731771D01*
X146114571Y-110731768D01*
X145959927Y-110701007D01*
X145959924Y-110701007D01*
X145802240Y-110701007D01*
X145755927Y-110710219D01*
X145686336Y-110703991D01*
X145631159Y-110661127D01*
X145607915Y-110595237D01*
X145617175Y-110541151D01*
X145644736Y-110474614D01*
X145675499Y-110319959D01*
X145675499Y-110229275D01*
X145695184Y-110162236D01*
X145747988Y-110116481D01*
X145775307Y-110107658D01*
X145925439Y-110077795D01*
X146038108Y-110031125D01*
X146071114Y-110017455D01*
X146071114Y-110017454D01*
X146071121Y-110017452D01*
X146202231Y-109929847D01*
X146313731Y-109818347D01*
X146401336Y-109687237D01*
X146461679Y-109541555D01*
X146492442Y-109386900D01*
X146492442Y-109229216D01*
X146492442Y-109229213D01*
X146492441Y-109229211D01*
X146484326Y-109188414D01*
X146461679Y-109074561D01*
X146459831Y-109070099D01*
X146401339Y-108928885D01*
X146401332Y-108928872D01*
X146313731Y-108797769D01*
X146313728Y-108797765D01*
X146202234Y-108686271D01*
X146202230Y-108686268D01*
X146071127Y-108598667D01*
X146071114Y-108598660D01*
X145925443Y-108538322D01*
X145925431Y-108538319D01*
X145770787Y-108507558D01*
X145770784Y-108507558D01*
X145613100Y-108507558D01*
X145613097Y-108507558D01*
X145458452Y-108538319D01*
X145458440Y-108538322D01*
X145312769Y-108598660D01*
X145312753Y-108598669D01*
X145297003Y-108609193D01*
X145230325Y-108630070D01*
X145162945Y-108611584D01*
X145116256Y-108559605D01*
X145113553Y-108553542D01*
X145084397Y-108483152D01*
X145084390Y-108483139D01*
X144996789Y-108352036D01*
X144996786Y-108352032D01*
X144885292Y-108240538D01*
X144885288Y-108240535D01*
X144754185Y-108152934D01*
X144754172Y-108152927D01*
X144608501Y-108092589D01*
X144608489Y-108092586D01*
X144453845Y-108061825D01*
X144453842Y-108061825D01*
X144296158Y-108061825D01*
X144296155Y-108061825D01*
X144141510Y-108092586D01*
X144141498Y-108092589D01*
X143995827Y-108152927D01*
X143995814Y-108152934D01*
X143864711Y-108240535D01*
X143864707Y-108240538D01*
X143753213Y-108352032D01*
X143753210Y-108352036D01*
X143665609Y-108483139D01*
X143665602Y-108483152D01*
X143605264Y-108628823D01*
X143605261Y-108628835D01*
X143574500Y-108783478D01*
X110888855Y-108783478D01*
X110890000Y-108776246D01*
X110890000Y-108563753D01*
X110856757Y-108353872D01*
X110856757Y-108353869D01*
X110791095Y-108151782D01*
X110694624Y-107962449D01*
X110655270Y-107908282D01*
X110655269Y-107908282D01*
X110022962Y-108540590D01*
X110005925Y-108477007D01*
X109940099Y-108362993D01*
X109847007Y-108269901D01*
X109732993Y-108204075D01*
X109669409Y-108187037D01*
X110301716Y-107554728D01*
X110247547Y-107515373D01*
X110247547Y-107515372D01*
X110238500Y-107510763D01*
X110187706Y-107462788D01*
X110170912Y-107394966D01*
X110193451Y-107328832D01*
X110238508Y-107289793D01*
X110247816Y-107285051D01*
X110393996Y-107178846D01*
X110419786Y-107160109D01*
X110419788Y-107160106D01*
X110419792Y-107160104D01*
X110570104Y-107009792D01*
X110634504Y-106921153D01*
X141699500Y-106921153D01*
X141699500Y-107078846D01*
X141730261Y-107233489D01*
X141730264Y-107233501D01*
X141790602Y-107379172D01*
X141790609Y-107379185D01*
X141878210Y-107510288D01*
X141878213Y-107510292D01*
X141989707Y-107621786D01*
X141989711Y-107621789D01*
X142120814Y-107709390D01*
X142120827Y-107709397D01*
X142266498Y-107769735D01*
X142266503Y-107769737D01*
X142421153Y-107800499D01*
X142421156Y-107800500D01*
X142421158Y-107800500D01*
X142578844Y-107800500D01*
X142578845Y-107800499D01*
X142733497Y-107769737D01*
X142879179Y-107709394D01*
X143010289Y-107621789D01*
X143121789Y-107510289D01*
X143209394Y-107379179D01*
X143269737Y-107233497D01*
X143284336Y-107160104D01*
X143295175Y-107105615D01*
X143327560Y-107043704D01*
X143360665Y-107021153D01*
X148599500Y-107021153D01*
X148599500Y-107178846D01*
X148630261Y-107333489D01*
X148630264Y-107333501D01*
X148690602Y-107479172D01*
X148690609Y-107479185D01*
X148778210Y-107610288D01*
X148778213Y-107610292D01*
X148889707Y-107721786D01*
X148889711Y-107721789D01*
X149020814Y-107809390D01*
X149020827Y-107809397D01*
X149166498Y-107869735D01*
X149166503Y-107869737D01*
X149321153Y-107900499D01*
X149321156Y-107900500D01*
X149321158Y-107900500D01*
X149478844Y-107900500D01*
X149478845Y-107900499D01*
X149633497Y-107869737D01*
X149779179Y-107809394D01*
X149910289Y-107721789D01*
X150021789Y-107610289D01*
X150109394Y-107479179D01*
X150169737Y-107333497D01*
X150200500Y-107178842D01*
X150200500Y-107021158D01*
X150200500Y-107021155D01*
X150200499Y-107021153D01*
X150188213Y-106959390D01*
X150169737Y-106866503D01*
X150159661Y-106842178D01*
X150109397Y-106720827D01*
X150109390Y-106720814D01*
X150021789Y-106589711D01*
X150021786Y-106589707D01*
X149910292Y-106478213D01*
X149910288Y-106478210D01*
X149779185Y-106390609D01*
X149779172Y-106390602D01*
X149633501Y-106330264D01*
X149633489Y-106330261D01*
X149478845Y-106299500D01*
X149478842Y-106299500D01*
X149321158Y-106299500D01*
X149321155Y-106299500D01*
X149166510Y-106330261D01*
X149166498Y-106330264D01*
X149020827Y-106390602D01*
X149020814Y-106390609D01*
X148889711Y-106478210D01*
X148889707Y-106478213D01*
X148778213Y-106589707D01*
X148778210Y-106589711D01*
X148690609Y-106720814D01*
X148690602Y-106720827D01*
X148630264Y-106866498D01*
X148630261Y-106866510D01*
X148599500Y-107021153D01*
X143360665Y-107021153D01*
X143369333Y-107015248D01*
X143504179Y-106959394D01*
X143504185Y-106959390D01*
X143575164Y-106911964D01*
X143606224Y-106891209D01*
X143635289Y-106871789D01*
X143746789Y-106760289D01*
X143770558Y-106724716D01*
X143824169Y-106679912D01*
X143893494Y-106671204D01*
X143942551Y-106690505D01*
X143970815Y-106709390D01*
X143970821Y-106709394D01*
X143970823Y-106709395D01*
X143970827Y-106709397D01*
X144093693Y-106760289D01*
X144116503Y-106769737D01*
X144271153Y-106800499D01*
X144271156Y-106800500D01*
X144271158Y-106800500D01*
X144428844Y-106800500D01*
X144428845Y-106800499D01*
X144583497Y-106769737D01*
X144701592Y-106720821D01*
X144729172Y-106709397D01*
X144729172Y-106709396D01*
X144729179Y-106709394D01*
X144860289Y-106621789D01*
X144971789Y-106510289D01*
X145059394Y-106379179D01*
X145119737Y-106233497D01*
X145150500Y-106078842D01*
X145150500Y-105921158D01*
X145150500Y-105921155D01*
X145150499Y-105921153D01*
X145119738Y-105766510D01*
X145119737Y-105766503D01*
X145119735Y-105766498D01*
X145059397Y-105620827D01*
X145059390Y-105620814D01*
X144971789Y-105489711D01*
X144971786Y-105489707D01*
X144860292Y-105378213D01*
X144860288Y-105378210D01*
X144729185Y-105290609D01*
X144729172Y-105290602D01*
X144583501Y-105230264D01*
X144583489Y-105230261D01*
X144428845Y-105199500D01*
X144428842Y-105199500D01*
X144271158Y-105199500D01*
X144271155Y-105199500D01*
X144116510Y-105230261D01*
X144116498Y-105230264D01*
X143970827Y-105290602D01*
X143970814Y-105290609D01*
X143839711Y-105378210D01*
X143839707Y-105378213D01*
X143728211Y-105489709D01*
X143704440Y-105525285D01*
X143650827Y-105570089D01*
X143581501Y-105578795D01*
X143532448Y-105559494D01*
X143504185Y-105540609D01*
X143504172Y-105540602D01*
X143358501Y-105480264D01*
X143358489Y-105480261D01*
X143203845Y-105449500D01*
X143203842Y-105449500D01*
X143046158Y-105449500D01*
X143046155Y-105449500D01*
X142891510Y-105480261D01*
X142891498Y-105480264D01*
X142745827Y-105540602D01*
X142745814Y-105540609D01*
X142614711Y-105628210D01*
X142614707Y-105628213D01*
X142503213Y-105739707D01*
X142503210Y-105739711D01*
X142415609Y-105870814D01*
X142415602Y-105870827D01*
X142355264Y-106016498D01*
X142355261Y-106016508D01*
X142329825Y-106144384D01*
X142297440Y-106206295D01*
X142255661Y-106234753D01*
X142120824Y-106290604D01*
X142120814Y-106290609D01*
X141989711Y-106378210D01*
X141989707Y-106378213D01*
X141878213Y-106489707D01*
X141878210Y-106489711D01*
X141790609Y-106620814D01*
X141790602Y-106620827D01*
X141730264Y-106766498D01*
X141730261Y-106766510D01*
X141699500Y-106921153D01*
X110634504Y-106921153D01*
X110695051Y-106837816D01*
X110791557Y-106648412D01*
X110857246Y-106446243D01*
X110890500Y-106236287D01*
X110890500Y-106023713D01*
X110857246Y-105813757D01*
X110791557Y-105611588D01*
X110695051Y-105422184D01*
X110695049Y-105422181D01*
X110695048Y-105422179D01*
X110570109Y-105250213D01*
X110419786Y-105099890D01*
X110247820Y-104974951D01*
X110058414Y-104878444D01*
X110058413Y-104878443D01*
X110058412Y-104878443D01*
X109856243Y-104812754D01*
X109856241Y-104812753D01*
X109856240Y-104812753D01*
X109694957Y-104787208D01*
X109646287Y-104779500D01*
X109433713Y-104779500D01*
X109385042Y-104787208D01*
X109223760Y-104812753D01*
X109021585Y-104878444D01*
X108832179Y-104974951D01*
X108660215Y-105099889D01*
X108546673Y-105213431D01*
X108485350Y-105246915D01*
X108415658Y-105241931D01*
X108359725Y-105200059D01*
X108342810Y-105169082D01*
X108293797Y-105037671D01*
X108293793Y-105037664D01*
X108207547Y-104922455D01*
X108207544Y-104922452D01*
X108092335Y-104836206D01*
X108092328Y-104836202D01*
X107957482Y-104785908D01*
X107957483Y-104785908D01*
X107897883Y-104779501D01*
X107897881Y-104779500D01*
X107897873Y-104779500D01*
X107897864Y-104779500D01*
X106102129Y-104779500D01*
X106102123Y-104779501D01*
X106042516Y-104785908D01*
X105907671Y-104836202D01*
X105907664Y-104836206D01*
X105792455Y-104922452D01*
X105792452Y-104922455D01*
X105706206Y-105037664D01*
X105706202Y-105037671D01*
X105655908Y-105172517D01*
X105649501Y-105232116D01*
X105649500Y-105232135D01*
X101500500Y-105232135D01*
X101500500Y-103121153D01*
X138049500Y-103121153D01*
X138049500Y-103278846D01*
X138080261Y-103433489D01*
X138080264Y-103433501D01*
X138140602Y-103579172D01*
X138140609Y-103579185D01*
X138228210Y-103710288D01*
X138228213Y-103710292D01*
X138339707Y-103821786D01*
X138339711Y-103821789D01*
X138470814Y-103909390D01*
X138470827Y-103909397D01*
X138616498Y-103969735D01*
X138616503Y-103969737D01*
X138771153Y-104000499D01*
X138771156Y-104000500D01*
X138771158Y-104000500D01*
X138928844Y-104000500D01*
X138928845Y-104000499D01*
X139083497Y-103969737D01*
X139229179Y-103909394D01*
X139360289Y-103821789D01*
X139471789Y-103710289D01*
X139559394Y-103579179D01*
X139619737Y-103433497D01*
X139650500Y-103278842D01*
X139650500Y-103121158D01*
X139650500Y-103121155D01*
X139650499Y-103121153D01*
X139619738Y-102966510D01*
X139619737Y-102966503D01*
X139619735Y-102966498D01*
X139559397Y-102820827D01*
X139559390Y-102820814D01*
X139471789Y-102689711D01*
X139471786Y-102689707D01*
X139360292Y-102578213D01*
X139360288Y-102578210D01*
X139229185Y-102490609D01*
X139229172Y-102490602D01*
X139083501Y-102430264D01*
X139083489Y-102430261D01*
X138928845Y-102399500D01*
X138928842Y-102399500D01*
X138771158Y-102399500D01*
X138771155Y-102399500D01*
X138616510Y-102430261D01*
X138616498Y-102430264D01*
X138470827Y-102490602D01*
X138470814Y-102490609D01*
X138339711Y-102578210D01*
X138339707Y-102578213D01*
X138228213Y-102689707D01*
X138228210Y-102689711D01*
X138140609Y-102820814D01*
X138140602Y-102820827D01*
X138080264Y-102966498D01*
X138080261Y-102966510D01*
X138049500Y-103121153D01*
X101500500Y-103121153D01*
X101500500Y-100131902D01*
X126249500Y-100131902D01*
X126249500Y-100368097D01*
X126286446Y-100601368D01*
X126359433Y-100825996D01*
X126466657Y-101036433D01*
X126605483Y-101227510D01*
X126772490Y-101394517D01*
X126963567Y-101533343D01*
X127062991Y-101584002D01*
X127174003Y-101640566D01*
X127174005Y-101640566D01*
X127174008Y-101640568D01*
X127294412Y-101679689D01*
X127398631Y-101713553D01*
X127631903Y-101750500D01*
X127631908Y-101750500D01*
X127868097Y-101750500D01*
X128101368Y-101713553D01*
X128325992Y-101640568D01*
X128536433Y-101533343D01*
X128727510Y-101394517D01*
X128894517Y-101227510D01*
X129033343Y-101036433D01*
X129140568Y-100825992D01*
X129213553Y-100601368D01*
X129250500Y-100368097D01*
X129250500Y-100131902D01*
X132749500Y-100131902D01*
X132749500Y-100368097D01*
X132786446Y-100601368D01*
X132859433Y-100825996D01*
X132966657Y-101036433D01*
X133105483Y-101227510D01*
X133272490Y-101394517D01*
X133463567Y-101533343D01*
X133562991Y-101584002D01*
X133674003Y-101640566D01*
X133674005Y-101640566D01*
X133674008Y-101640568D01*
X133794412Y-101679689D01*
X133898631Y-101713553D01*
X134131903Y-101750500D01*
X134131908Y-101750500D01*
X134368097Y-101750500D01*
X134601368Y-101713553D01*
X134825992Y-101640568D01*
X135036433Y-101533343D01*
X135227510Y-101394517D01*
X135394517Y-101227510D01*
X135533343Y-101036433D01*
X135640568Y-100825992D01*
X135713553Y-100601368D01*
X135750500Y-100368097D01*
X135750500Y-100131902D01*
X135713553Y-99898631D01*
X135640566Y-99674003D01*
X135560343Y-99516557D01*
X135533343Y-99463567D01*
X135394517Y-99272490D01*
X135227510Y-99105483D01*
X135036433Y-98966657D01*
X135031328Y-98964056D01*
X134825996Y-98859433D01*
X134709462Y-98821569D01*
X134601368Y-98786446D01*
X134368097Y-98749500D01*
X134368092Y-98749500D01*
X134131908Y-98749500D01*
X134131903Y-98749500D01*
X133898631Y-98786446D01*
X133674003Y-98859433D01*
X133463566Y-98966657D01*
X133354550Y-99045862D01*
X133272490Y-99105483D01*
X133272488Y-99105485D01*
X133272487Y-99105485D01*
X133105485Y-99272487D01*
X133105485Y-99272488D01*
X133105483Y-99272490D01*
X133060389Y-99334556D01*
X132966657Y-99463566D01*
X132859433Y-99674003D01*
X132786446Y-99898631D01*
X132749500Y-100131902D01*
X129250500Y-100131902D01*
X129213553Y-99898631D01*
X129140566Y-99674003D01*
X129060343Y-99516557D01*
X129033343Y-99463567D01*
X128894517Y-99272490D01*
X128727510Y-99105483D01*
X128536433Y-98966657D01*
X128531328Y-98964056D01*
X128325996Y-98859433D01*
X128101368Y-98786446D01*
X127868097Y-98749500D01*
X127868092Y-98749500D01*
X127631908Y-98749500D01*
X127631903Y-98749500D01*
X127398631Y-98786446D01*
X127174003Y-98859433D01*
X126963566Y-98966657D01*
X126854550Y-99045862D01*
X126772490Y-99105483D01*
X126772488Y-99105485D01*
X126772487Y-99105485D01*
X126605485Y-99272487D01*
X126605485Y-99272488D01*
X126605483Y-99272490D01*
X126560389Y-99334556D01*
X126466657Y-99463566D01*
X126359433Y-99674003D01*
X126286446Y-99898631D01*
X126249500Y-100131902D01*
X101500500Y-100131902D01*
X101500500Y-96948711D01*
X104149500Y-96948711D01*
X104149500Y-97191288D01*
X104180860Y-97429500D01*
X104181162Y-97431789D01*
X104193771Y-97478846D01*
X104243947Y-97666104D01*
X104300796Y-97803349D01*
X104336776Y-97890212D01*
X104458064Y-98100289D01*
X104458066Y-98100292D01*
X104458067Y-98100293D01*
X104605733Y-98292736D01*
X104605739Y-98292743D01*
X104777256Y-98464260D01*
X104777263Y-98464266D01*
X104778891Y-98465515D01*
X104969711Y-98611936D01*
X105179788Y-98733224D01*
X105403900Y-98826054D01*
X105638211Y-98888838D01*
X105818586Y-98912584D01*
X105878711Y-98920500D01*
X105878712Y-98920500D01*
X106121289Y-98920500D01*
X106176290Y-98913259D01*
X106361789Y-98888838D01*
X106596100Y-98826054D01*
X106820212Y-98733224D01*
X107030289Y-98611936D01*
X107222738Y-98464265D01*
X107394265Y-98292738D01*
X107541936Y-98100289D01*
X107663224Y-97890212D01*
X107756054Y-97666100D01*
X107818838Y-97431789D01*
X107850500Y-97191288D01*
X107850500Y-96948712D01*
X107848371Y-96932544D01*
X107837648Y-96851087D01*
X107818838Y-96708211D01*
X107756054Y-96473900D01*
X107663224Y-96249788D01*
X107541936Y-96039711D01*
X107394265Y-95847262D01*
X107394260Y-95847256D01*
X107222743Y-95675739D01*
X107222736Y-95675733D01*
X107148426Y-95618713D01*
X115109500Y-95618713D01*
X115109500Y-95831286D01*
X115142510Y-96039706D01*
X115142754Y-96041243D01*
X115157851Y-96087708D01*
X115208444Y-96243414D01*
X115304951Y-96432820D01*
X115429890Y-96604786D01*
X115580213Y-96755109D01*
X115752182Y-96880050D01*
X115760946Y-96884516D01*
X115811742Y-96932491D01*
X115828536Y-97000312D01*
X115805998Y-97066447D01*
X115760946Y-97105484D01*
X115752182Y-97109949D01*
X115580213Y-97234890D01*
X115429890Y-97385213D01*
X115304951Y-97557179D01*
X115208444Y-97746585D01*
X115208443Y-97746587D01*
X115208443Y-97746588D01*
X115197852Y-97779185D01*
X115142753Y-97948760D01*
X115109500Y-98158713D01*
X115109500Y-98371286D01*
X115136424Y-98541281D01*
X115142754Y-98581243D01*
X115199211Y-98755000D01*
X115208444Y-98783414D01*
X115304951Y-98972820D01*
X115429890Y-99144786D01*
X115580213Y-99295109D01*
X115752179Y-99420048D01*
X115752181Y-99420049D01*
X115752184Y-99420051D01*
X115941588Y-99516557D01*
X116143757Y-99582246D01*
X116353713Y-99615500D01*
X116353714Y-99615500D01*
X116566286Y-99615500D01*
X116566287Y-99615500D01*
X116776243Y-99582246D01*
X116978412Y-99516557D01*
X117167816Y-99420051D01*
X117257352Y-99355000D01*
X117339786Y-99295109D01*
X117339788Y-99295106D01*
X117339792Y-99295104D01*
X117490104Y-99144792D01*
X117490106Y-99144788D01*
X117490109Y-99144786D01*
X117615048Y-98972820D01*
X117615047Y-98972820D01*
X117615051Y-98972816D01*
X117619514Y-98964054D01*
X117667488Y-98913259D01*
X117735308Y-98896463D01*
X117801444Y-98918999D01*
X117840486Y-98964056D01*
X117844951Y-98972820D01*
X117969890Y-99144786D01*
X118120213Y-99295109D01*
X118292179Y-99420048D01*
X118292181Y-99420049D01*
X118292184Y-99420051D01*
X118481588Y-99516557D01*
X118683757Y-99582246D01*
X118893713Y-99615500D01*
X118893714Y-99615500D01*
X119106286Y-99615500D01*
X119106287Y-99615500D01*
X119316243Y-99582246D01*
X119518412Y-99516557D01*
X119707816Y-99420051D01*
X119797352Y-99355000D01*
X119879786Y-99295109D01*
X119879788Y-99295106D01*
X119879792Y-99295104D01*
X120030104Y-99144792D01*
X120030106Y-99144788D01*
X120030109Y-99144786D01*
X120155048Y-98972820D01*
X120155047Y-98972820D01*
X120155051Y-98972816D01*
X120159514Y-98964054D01*
X120207488Y-98913259D01*
X120275308Y-98896463D01*
X120341444Y-98918999D01*
X120380486Y-98964056D01*
X120384951Y-98972820D01*
X120509890Y-99144786D01*
X120660213Y-99295109D01*
X120832179Y-99420048D01*
X120832181Y-99420049D01*
X120832184Y-99420051D01*
X121021588Y-99516557D01*
X121223757Y-99582246D01*
X121433713Y-99615500D01*
X121433714Y-99615500D01*
X121646286Y-99615500D01*
X121646287Y-99615500D01*
X121856243Y-99582246D01*
X122058412Y-99516557D01*
X122247816Y-99420051D01*
X122337352Y-99355000D01*
X122419786Y-99295109D01*
X122419788Y-99295106D01*
X122419792Y-99295104D01*
X122570104Y-99144792D01*
X122570106Y-99144788D01*
X122570109Y-99144786D01*
X122695048Y-98972820D01*
X122695047Y-98972820D01*
X122695051Y-98972816D01*
X122791557Y-98783412D01*
X122857246Y-98581243D01*
X122890500Y-98371287D01*
X122890500Y-98158713D01*
X122857246Y-97948757D01*
X122827271Y-97856504D01*
X139330000Y-97856504D01*
X139330000Y-98255000D01*
X140030000Y-98255000D01*
X140030000Y-98755000D01*
X139330000Y-98755000D01*
X139330000Y-99153495D01*
X139368427Y-99346681D01*
X139368430Y-99346693D01*
X139443807Y-99528671D01*
X139443814Y-99528684D01*
X139553248Y-99692462D01*
X139553251Y-99692466D01*
X139692533Y-99831748D01*
X139692537Y-99831751D01*
X139856315Y-99941185D01*
X139856328Y-99941192D01*
X140038308Y-100016569D01*
X140080000Y-100024862D01*
X140080000Y-99221988D01*
X140089940Y-99239205D01*
X140145795Y-99295060D01*
X140214204Y-99334556D01*
X140290504Y-99355000D01*
X140369496Y-99355000D01*
X140445796Y-99334556D01*
X140514205Y-99295060D01*
X140570060Y-99239205D01*
X140580000Y-99221988D01*
X140580000Y-100024862D01*
X140621690Y-100016569D01*
X140621692Y-100016569D01*
X140803671Y-99941192D01*
X140803684Y-99941185D01*
X140967462Y-99831751D01*
X140967466Y-99831748D01*
X141106748Y-99692466D01*
X141106751Y-99692462D01*
X141216185Y-99528684D01*
X141216192Y-99528671D01*
X141291569Y-99346693D01*
X141291572Y-99346681D01*
X141329999Y-99153495D01*
X141330000Y-99153492D01*
X141330000Y-98755000D01*
X140630000Y-98755000D01*
X140630000Y-98255000D01*
X141168216Y-98255000D01*
X141235255Y-98274685D01*
X141275602Y-98316999D01*
X141299485Y-98358365D01*
X141406635Y-98465515D01*
X141537865Y-98541281D01*
X141684234Y-98580500D01*
X141684236Y-98580500D01*
X141835764Y-98580500D01*
X141835766Y-98580500D01*
X141982135Y-98541281D01*
X142113365Y-98465515D01*
X142220515Y-98358365D01*
X142296281Y-98227135D01*
X142335500Y-98080766D01*
X142335500Y-97929234D01*
X146964500Y-97929234D01*
X146964500Y-98080765D01*
X147003719Y-98227136D01*
X147019807Y-98255000D01*
X147079485Y-98358365D01*
X147186635Y-98465515D01*
X147317865Y-98541281D01*
X147464234Y-98580500D01*
X147464236Y-98580500D01*
X147615763Y-98580500D01*
X147615766Y-98580500D01*
X147762135Y-98541281D01*
X147893365Y-98465515D01*
X148000515Y-98358365D01*
X148024397Y-98316999D01*
X148074964Y-98268784D01*
X148131784Y-98255000D01*
X148670000Y-98255000D01*
X148670000Y-98755000D01*
X147970000Y-98755000D01*
X147970000Y-99153495D01*
X148008427Y-99346681D01*
X148008430Y-99346693D01*
X148083807Y-99528671D01*
X148083814Y-99528684D01*
X148193248Y-99692462D01*
X148193251Y-99692466D01*
X148332533Y-99831748D01*
X148332537Y-99831751D01*
X148496315Y-99941185D01*
X148496328Y-99941192D01*
X148678308Y-100016569D01*
X148720000Y-100024862D01*
X148720000Y-99221988D01*
X148729940Y-99239205D01*
X148785795Y-99295060D01*
X148854204Y-99334556D01*
X148930504Y-99355000D01*
X149009496Y-99355000D01*
X149085796Y-99334556D01*
X149154205Y-99295060D01*
X149210060Y-99239205D01*
X149220000Y-99221988D01*
X149220000Y-100024862D01*
X149261690Y-100016569D01*
X149261692Y-100016569D01*
X149443671Y-99941192D01*
X149443684Y-99941185D01*
X149607462Y-99831751D01*
X149607466Y-99831748D01*
X149746748Y-99692466D01*
X149746751Y-99692462D01*
X149856185Y-99528684D01*
X149856192Y-99528671D01*
X149931569Y-99346693D01*
X149931572Y-99346681D01*
X149969999Y-99153495D01*
X149970000Y-99153492D01*
X149970000Y-98755000D01*
X149270000Y-98755000D01*
X149270000Y-98255000D01*
X149970000Y-98255000D01*
X149970000Y-97856508D01*
X149969999Y-97856504D01*
X149931572Y-97663318D01*
X149931569Y-97663306D01*
X149856192Y-97481328D01*
X149856185Y-97481315D01*
X149791132Y-97383957D01*
X149749167Y-97321153D01*
X166499500Y-97321153D01*
X166499500Y-97478846D01*
X166530261Y-97633489D01*
X166530264Y-97633501D01*
X166590602Y-97779172D01*
X166590609Y-97779185D01*
X166678210Y-97910288D01*
X166678213Y-97910292D01*
X166789707Y-98021786D01*
X166789711Y-98021789D01*
X166920814Y-98109390D01*
X166920827Y-98109397D01*
X167066498Y-98169735D01*
X167066503Y-98169737D01*
X167221153Y-98200499D01*
X167221156Y-98200500D01*
X167221158Y-98200500D01*
X167378844Y-98200500D01*
X167378845Y-98200499D01*
X167533497Y-98169737D01*
X167679179Y-98109394D01*
X167810289Y-98021789D01*
X167921789Y-97910289D01*
X168009394Y-97779179D01*
X168069737Y-97633497D01*
X168100500Y-97478842D01*
X168100500Y-97321158D01*
X168100500Y-97321155D01*
X168100499Y-97321153D01*
X168078999Y-97213065D01*
X168069737Y-97166503D01*
X168059032Y-97140658D01*
X168009397Y-97020827D01*
X168009392Y-97020818D01*
X168004533Y-97013546D01*
X168004532Y-97013544D01*
X167961212Y-96948711D01*
X179749500Y-96948711D01*
X179749500Y-97191288D01*
X179780860Y-97429500D01*
X179781162Y-97431789D01*
X179793771Y-97478846D01*
X179843947Y-97666104D01*
X179900796Y-97803349D01*
X179936776Y-97890212D01*
X180058064Y-98100289D01*
X180058066Y-98100292D01*
X180058067Y-98100293D01*
X180205733Y-98292736D01*
X180205739Y-98292743D01*
X180377256Y-98464260D01*
X180377263Y-98464266D01*
X180378891Y-98465515D01*
X180569711Y-98611936D01*
X180779788Y-98733224D01*
X181003900Y-98826054D01*
X181238211Y-98888838D01*
X181418586Y-98912584D01*
X181478711Y-98920500D01*
X181478712Y-98920500D01*
X181721289Y-98920500D01*
X181776290Y-98913259D01*
X181961789Y-98888838D01*
X182196100Y-98826054D01*
X182420212Y-98733224D01*
X182630289Y-98611936D01*
X182822738Y-98464265D01*
X182994265Y-98292738D01*
X183141936Y-98100289D01*
X183263224Y-97890212D01*
X183356054Y-97666100D01*
X183418838Y-97431789D01*
X183450500Y-97191288D01*
X183450500Y-96948712D01*
X183448371Y-96932544D01*
X183437648Y-96851087D01*
X183418838Y-96708211D01*
X183356054Y-96473900D01*
X183263224Y-96249788D01*
X183141936Y-96039711D01*
X182994265Y-95847262D01*
X182994260Y-95847256D01*
X182822743Y-95675739D01*
X182822736Y-95675733D01*
X182630293Y-95528067D01*
X182630292Y-95528066D01*
X182630289Y-95528064D01*
X182458661Y-95428974D01*
X182420214Y-95406777D01*
X182420205Y-95406773D01*
X182196104Y-95313947D01*
X181961785Y-95251161D01*
X181721289Y-95219500D01*
X181721288Y-95219500D01*
X181478712Y-95219500D01*
X181478711Y-95219500D01*
X181238214Y-95251161D01*
X181003895Y-95313947D01*
X180779794Y-95406773D01*
X180779785Y-95406777D01*
X180569706Y-95528067D01*
X180377263Y-95675733D01*
X180377256Y-95675739D01*
X180205739Y-95847256D01*
X180205733Y-95847263D01*
X180058067Y-96039706D01*
X180058064Y-96039710D01*
X180058064Y-96039711D01*
X180041817Y-96067851D01*
X179936777Y-96249785D01*
X179936773Y-96249794D01*
X179843947Y-96473895D01*
X179781161Y-96708214D01*
X179749500Y-96948711D01*
X167961212Y-96948711D01*
X167921789Y-96889711D01*
X167921786Y-96889707D01*
X167810292Y-96778213D01*
X167810288Y-96778210D01*
X167679185Y-96690609D01*
X167679172Y-96690602D01*
X167533501Y-96630264D01*
X167533489Y-96630261D01*
X167378845Y-96599500D01*
X167378842Y-96599500D01*
X167221158Y-96599500D01*
X167221155Y-96599500D01*
X167066510Y-96630261D01*
X167066498Y-96630264D01*
X166920827Y-96690602D01*
X166920814Y-96690609D01*
X166789711Y-96778210D01*
X166789707Y-96778213D01*
X166678213Y-96889707D01*
X166678210Y-96889711D01*
X166590609Y-97020814D01*
X166590602Y-97020827D01*
X166530264Y-97166498D01*
X166530261Y-97166510D01*
X166499500Y-97321153D01*
X149749167Y-97321153D01*
X149746751Y-97317537D01*
X149746748Y-97317533D01*
X149607466Y-97178251D01*
X149607462Y-97178248D01*
X149443684Y-97068814D01*
X149443671Y-97068807D01*
X149261691Y-96993429D01*
X149261683Y-96993427D01*
X149220000Y-96985135D01*
X149220000Y-97788011D01*
X149210060Y-97770795D01*
X149154205Y-97714940D01*
X149085796Y-97675444D01*
X149009496Y-97655000D01*
X148930504Y-97655000D01*
X148854204Y-97675444D01*
X148785795Y-97714940D01*
X148729940Y-97770795D01*
X148720000Y-97788011D01*
X148720000Y-96985136D01*
X148719999Y-96985135D01*
X148678316Y-96993427D01*
X148678308Y-96993429D01*
X148496328Y-97068807D01*
X148496315Y-97068814D01*
X148332537Y-97178248D01*
X148332533Y-97178251D01*
X148193251Y-97317533D01*
X148193248Y-97317537D01*
X148083814Y-97481315D01*
X148083809Y-97481324D01*
X148079866Y-97490845D01*
X148036023Y-97545247D01*
X147969728Y-97567310D01*
X147902030Y-97550029D01*
X147896597Y-97546351D01*
X147762136Y-97468719D01*
X147688950Y-97449109D01*
X147615766Y-97429500D01*
X147464234Y-97429500D01*
X147317863Y-97468719D01*
X147186635Y-97544485D01*
X147186632Y-97544487D01*
X147079487Y-97651632D01*
X147079485Y-97651635D01*
X147003719Y-97782863D01*
X146964500Y-97929234D01*
X142335500Y-97929234D01*
X142296281Y-97782865D01*
X142220515Y-97651635D01*
X142113365Y-97544485D01*
X142043406Y-97504094D01*
X141982136Y-97468719D01*
X141908950Y-97449109D01*
X141835766Y-97429500D01*
X141684234Y-97429500D01*
X141537863Y-97468719D01*
X141446428Y-97521510D01*
X141406635Y-97544485D01*
X141406633Y-97544486D01*
X141399597Y-97548549D01*
X141398327Y-97546349D01*
X141344995Y-97566960D01*
X141276552Y-97552914D01*
X141226568Y-97504094D01*
X141220131Y-97490838D01*
X141216192Y-97481328D01*
X141216185Y-97481315D01*
X141106751Y-97317537D01*
X141106748Y-97317533D01*
X140967466Y-97178251D01*
X140967462Y-97178248D01*
X140803684Y-97068814D01*
X140803671Y-97068807D01*
X140621691Y-96993429D01*
X140621683Y-96993427D01*
X140580000Y-96985135D01*
X140580000Y-97788011D01*
X140570060Y-97770795D01*
X140514205Y-97714940D01*
X140445796Y-97675444D01*
X140369496Y-97655000D01*
X140290504Y-97655000D01*
X140214204Y-97675444D01*
X140145795Y-97714940D01*
X140089940Y-97770795D01*
X140080000Y-97788011D01*
X140080000Y-96985136D01*
X140079999Y-96985135D01*
X140038316Y-96993427D01*
X140038308Y-96993429D01*
X139856328Y-97068807D01*
X139856315Y-97068814D01*
X139692537Y-97178248D01*
X139692533Y-97178251D01*
X139553251Y-97317533D01*
X139553248Y-97317537D01*
X139443814Y-97481315D01*
X139443807Y-97481328D01*
X139368430Y-97663306D01*
X139368427Y-97663318D01*
X139330000Y-97856504D01*
X122827271Y-97856504D01*
X122791557Y-97746588D01*
X122695051Y-97557184D01*
X122695049Y-97557181D01*
X122695048Y-97557179D01*
X122570109Y-97385213D01*
X122456569Y-97271673D01*
X122423084Y-97210350D01*
X122428068Y-97140658D01*
X122469940Y-97084725D01*
X122500915Y-97067810D01*
X122632331Y-97018796D01*
X122747546Y-96932546D01*
X122833796Y-96817331D01*
X122884091Y-96682483D01*
X122890500Y-96622873D01*
X122890499Y-95631947D01*
X126250000Y-95631947D01*
X126250000Y-95868052D01*
X126286934Y-96101247D01*
X126359897Y-96325802D01*
X126467087Y-96536174D01*
X126527338Y-96619104D01*
X126527340Y-96619105D01*
X127226212Y-95920233D01*
X127237482Y-95962292D01*
X127309890Y-96087708D01*
X127412292Y-96190110D01*
X127537708Y-96262518D01*
X127579765Y-96273787D01*
X126880893Y-96972658D01*
X126963828Y-97032914D01*
X127174197Y-97140102D01*
X127398752Y-97213065D01*
X127398751Y-97213065D01*
X127631948Y-97250000D01*
X127868052Y-97250000D01*
X128101247Y-97213065D01*
X128325802Y-97140102D01*
X128536163Y-97032918D01*
X128536169Y-97032914D01*
X128619104Y-96972658D01*
X128619105Y-96972658D01*
X127920233Y-96273787D01*
X127962292Y-96262518D01*
X128087708Y-96190110D01*
X128190110Y-96087708D01*
X128262518Y-95962292D01*
X128273787Y-95920234D01*
X128972658Y-96619105D01*
X128972658Y-96619104D01*
X129032914Y-96536169D01*
X129032918Y-96536163D01*
X129140102Y-96325802D01*
X129213065Y-96101247D01*
X129250000Y-95868052D01*
X129250000Y-95631947D01*
X132750000Y-95631947D01*
X132750000Y-95868052D01*
X132786934Y-96101247D01*
X132859897Y-96325802D01*
X132967087Y-96536174D01*
X133027338Y-96619104D01*
X133027340Y-96619105D01*
X133726212Y-95920233D01*
X133737482Y-95962292D01*
X133809890Y-96087708D01*
X133912292Y-96190110D01*
X134037708Y-96262518D01*
X134079765Y-96273787D01*
X133380893Y-96972658D01*
X133463828Y-97032914D01*
X133674197Y-97140102D01*
X133898752Y-97213065D01*
X133898751Y-97213065D01*
X134131948Y-97250000D01*
X134368052Y-97250000D01*
X134601247Y-97213065D01*
X134825802Y-97140102D01*
X135036163Y-97032918D01*
X135036169Y-97032914D01*
X135119104Y-96972658D01*
X135119105Y-96972658D01*
X134420233Y-96273787D01*
X134462292Y-96262518D01*
X134587708Y-96190110D01*
X134690110Y-96087708D01*
X134762518Y-95962292D01*
X134773787Y-95920234D01*
X135472658Y-96619105D01*
X135472658Y-96619104D01*
X135532914Y-96536169D01*
X135532918Y-96536163D01*
X135640102Y-96325802D01*
X135713065Y-96101247D01*
X135750000Y-95868052D01*
X135750000Y-95631947D01*
X135713065Y-95398752D01*
X135640102Y-95174197D01*
X135532914Y-94963828D01*
X135472658Y-94880894D01*
X135472658Y-94880893D01*
X134773787Y-95579765D01*
X134762518Y-95537708D01*
X134690110Y-95412292D01*
X134587708Y-95309890D01*
X134462292Y-95237482D01*
X134420234Y-95226212D01*
X135119104Y-94527341D01*
X135119104Y-94527338D01*
X135036174Y-94467087D01*
X134825802Y-94359897D01*
X134601247Y-94286934D01*
X134601248Y-94286934D01*
X134368052Y-94250000D01*
X134131948Y-94250000D01*
X133898752Y-94286934D01*
X133674197Y-94359897D01*
X133463830Y-94467084D01*
X133380894Y-94527340D01*
X134079766Y-95226212D01*
X134037708Y-95237482D01*
X133912292Y-95309890D01*
X133809890Y-95412292D01*
X133737482Y-95537708D01*
X133726212Y-95579766D01*
X133027340Y-94880894D01*
X132967084Y-94963830D01*
X132859897Y-95174197D01*
X132786934Y-95398752D01*
X132750000Y-95631947D01*
X129250000Y-95631947D01*
X129213065Y-95398752D01*
X129140102Y-95174197D01*
X129032914Y-94963828D01*
X128972658Y-94880894D01*
X128972658Y-94880893D01*
X128273787Y-95579765D01*
X128262518Y-95537708D01*
X128190110Y-95412292D01*
X128087708Y-95309890D01*
X127962292Y-95237482D01*
X127920234Y-95226212D01*
X128619105Y-94527340D01*
X128619104Y-94527339D01*
X128536174Y-94467087D01*
X128325802Y-94359897D01*
X128101247Y-94286934D01*
X128101248Y-94286934D01*
X127868052Y-94250000D01*
X127631948Y-94250000D01*
X127398752Y-94286934D01*
X127174197Y-94359897D01*
X126963830Y-94467084D01*
X126880894Y-94527340D01*
X127579766Y-95226212D01*
X127537708Y-95237482D01*
X127412292Y-95309890D01*
X127309890Y-95412292D01*
X127237482Y-95537708D01*
X127226212Y-95579766D01*
X126527340Y-94880894D01*
X126467084Y-94963830D01*
X126359897Y-95174197D01*
X126286934Y-95398752D01*
X126250000Y-95631947D01*
X122890499Y-95631947D01*
X122890499Y-94827128D01*
X122884091Y-94767517D01*
X122882964Y-94764496D01*
X122857003Y-94694890D01*
X122833796Y-94632669D01*
X122833792Y-94632664D01*
X122833792Y-94632663D01*
X122747547Y-94517455D01*
X122747544Y-94517452D01*
X122632335Y-94431206D01*
X122632328Y-94431202D01*
X122497482Y-94380908D01*
X122497483Y-94380908D01*
X122437883Y-94374501D01*
X122437881Y-94374500D01*
X122437873Y-94374500D01*
X122437864Y-94374500D01*
X120642129Y-94374500D01*
X120642123Y-94374501D01*
X120582516Y-94380908D01*
X120447671Y-94431202D01*
X120447664Y-94431206D01*
X120332455Y-94517452D01*
X120332452Y-94517455D01*
X120246206Y-94632664D01*
X120246202Y-94632671D01*
X120195908Y-94767517D01*
X120189891Y-94823492D01*
X120189501Y-94827123D01*
X120189500Y-94827135D01*
X120189500Y-94837690D01*
X120169815Y-94904729D01*
X120153181Y-94925371D01*
X119482962Y-95595590D01*
X119465925Y-95532007D01*
X119400099Y-95417993D01*
X119307007Y-95324901D01*
X119192993Y-95259075D01*
X119129409Y-95242037D01*
X119761716Y-94609728D01*
X119707550Y-94570375D01*
X119518217Y-94473904D01*
X119316129Y-94408242D01*
X119106246Y-94375000D01*
X118893754Y-94375000D01*
X118683872Y-94408242D01*
X118683869Y-94408242D01*
X118481782Y-94473904D01*
X118292439Y-94570380D01*
X118238282Y-94609727D01*
X118238282Y-94609728D01*
X118870591Y-95242037D01*
X118807007Y-95259075D01*
X118692993Y-95324901D01*
X118599901Y-95417993D01*
X118534075Y-95532007D01*
X118517037Y-95595591D01*
X117884728Y-94963282D01*
X117884727Y-94963282D01*
X117845380Y-95017440D01*
X117845376Y-95017446D01*
X117840760Y-95026505D01*
X117792781Y-95077297D01*
X117724959Y-95094087D01*
X117658826Y-95071543D01*
X117619794Y-95026493D01*
X117615051Y-95017184D01*
X117615049Y-95017181D01*
X117615048Y-95017179D01*
X117490109Y-94845213D01*
X117339786Y-94694890D01*
X117167820Y-94569951D01*
X116978414Y-94473444D01*
X116978413Y-94473443D01*
X116978412Y-94473443D01*
X116776243Y-94407754D01*
X116776241Y-94407753D01*
X116776240Y-94407753D01*
X116614957Y-94382208D01*
X116566287Y-94374500D01*
X116353713Y-94374500D01*
X116305042Y-94382208D01*
X116143760Y-94407753D01*
X115941585Y-94473444D01*
X115752179Y-94569951D01*
X115580213Y-94694890D01*
X115429890Y-94845213D01*
X115304951Y-95017179D01*
X115208444Y-95206585D01*
X115142753Y-95408760D01*
X115109500Y-95618713D01*
X107148426Y-95618713D01*
X107030293Y-95528067D01*
X107030292Y-95528066D01*
X107030289Y-95528064D01*
X106858661Y-95428974D01*
X106820214Y-95406777D01*
X106820205Y-95406773D01*
X106596104Y-95313947D01*
X106361785Y-95251161D01*
X106121289Y-95219500D01*
X106121288Y-95219500D01*
X105878712Y-95219500D01*
X105878711Y-95219500D01*
X105638214Y-95251161D01*
X105403895Y-95313947D01*
X105179794Y-95406773D01*
X105179785Y-95406777D01*
X104969706Y-95528067D01*
X104777263Y-95675733D01*
X104777256Y-95675739D01*
X104605739Y-95847256D01*
X104605733Y-95847263D01*
X104458067Y-96039706D01*
X104458064Y-96039710D01*
X104458064Y-96039711D01*
X104441817Y-96067851D01*
X104336777Y-96249785D01*
X104336773Y-96249794D01*
X104243947Y-96473895D01*
X104181161Y-96708214D01*
X104149500Y-96948711D01*
X101500500Y-96948711D01*
X101500500Y-95253480D01*
X101500695Y-95246528D01*
X101503382Y-95198684D01*
X101516958Y-94956932D01*
X101518512Y-94943136D01*
X101566514Y-94660617D01*
X101569607Y-94647065D01*
X101573754Y-94632673D01*
X101648938Y-94371701D01*
X101653530Y-94358580D01*
X101683207Y-94286934D01*
X101763194Y-94093828D01*
X101769214Y-94081328D01*
X101907836Y-93830509D01*
X101910353Y-93826504D01*
X139330000Y-93826504D01*
X139330000Y-94075000D01*
X140030000Y-94075000D01*
X140030000Y-94575000D01*
X139330000Y-94575000D01*
X139330000Y-94823495D01*
X139368427Y-95016681D01*
X139368430Y-95016693D01*
X139443807Y-95198671D01*
X139443814Y-95198684D01*
X139553248Y-95362462D01*
X139553251Y-95362466D01*
X139692533Y-95501748D01*
X139692537Y-95501751D01*
X139856315Y-95611185D01*
X139856328Y-95611192D01*
X140038308Y-95686569D01*
X140080000Y-95694862D01*
X140080000Y-94891988D01*
X140089940Y-94909205D01*
X140145795Y-94965060D01*
X140214204Y-95004556D01*
X140290504Y-95025000D01*
X140369496Y-95025000D01*
X140445796Y-95004556D01*
X140514205Y-94965060D01*
X140570060Y-94909205D01*
X140580000Y-94891988D01*
X140580000Y-95694862D01*
X140621690Y-95686569D01*
X140621692Y-95686569D01*
X140803671Y-95611192D01*
X140803684Y-95611185D01*
X140967462Y-95501751D01*
X140967466Y-95501748D01*
X141106748Y-95362466D01*
X141106751Y-95362462D01*
X141216185Y-95198684D01*
X141216192Y-95198671D01*
X141291569Y-95016693D01*
X141291572Y-95016681D01*
X141329999Y-94823495D01*
X141330000Y-94823492D01*
X141330000Y-94575000D01*
X140630000Y-94575000D01*
X140630000Y-94075000D01*
X141330000Y-94075000D01*
X141330000Y-93826508D01*
X141329999Y-93826504D01*
X147970000Y-93826504D01*
X147970000Y-94075000D01*
X148670000Y-94075000D01*
X148670000Y-94575000D01*
X147970000Y-94575000D01*
X147970000Y-94823495D01*
X148008427Y-95016681D01*
X148008430Y-95016693D01*
X148083807Y-95198671D01*
X148083814Y-95198684D01*
X148193248Y-95362462D01*
X148193251Y-95362466D01*
X148332533Y-95501748D01*
X148332537Y-95501751D01*
X148496315Y-95611185D01*
X148496328Y-95611192D01*
X148678308Y-95686569D01*
X148720000Y-95694862D01*
X148720000Y-94891988D01*
X148729940Y-94909205D01*
X148785795Y-94965060D01*
X148854204Y-95004556D01*
X148930504Y-95025000D01*
X149009496Y-95025000D01*
X149085796Y-95004556D01*
X149154205Y-94965060D01*
X149210060Y-94909205D01*
X149220000Y-94891988D01*
X149220000Y-95694862D01*
X149261690Y-95686569D01*
X149261692Y-95686569D01*
X149443671Y-95611192D01*
X149443684Y-95611185D01*
X149607462Y-95501751D01*
X149607466Y-95501748D01*
X149746748Y-95362466D01*
X149746751Y-95362462D01*
X149856185Y-95198684D01*
X149856192Y-95198671D01*
X149931569Y-95016693D01*
X149931572Y-95016681D01*
X149969999Y-94823495D01*
X149970000Y-94823492D01*
X149970000Y-94575000D01*
X149270000Y-94575000D01*
X149270000Y-94075000D01*
X149970000Y-94075000D01*
X149970000Y-93826508D01*
X149969999Y-93826504D01*
X149931572Y-93633318D01*
X149931569Y-93633306D01*
X149856192Y-93451328D01*
X149856185Y-93451315D01*
X149746751Y-93287537D01*
X149746748Y-93287533D01*
X149607466Y-93148251D01*
X149607462Y-93148248D01*
X149443684Y-93038814D01*
X149443671Y-93038807D01*
X149261691Y-92963429D01*
X149261683Y-92963427D01*
X149220000Y-92955135D01*
X149220000Y-93758011D01*
X149210060Y-93740795D01*
X149154205Y-93684940D01*
X149085796Y-93645444D01*
X149009496Y-93625000D01*
X148930504Y-93625000D01*
X148854204Y-93645444D01*
X148785795Y-93684940D01*
X148729940Y-93740795D01*
X148720000Y-93758011D01*
X148720000Y-92955136D01*
X148719999Y-92955135D01*
X148678316Y-92963427D01*
X148678308Y-92963429D01*
X148496328Y-93038807D01*
X148496315Y-93038814D01*
X148332537Y-93148248D01*
X148332533Y-93148251D01*
X148193251Y-93287533D01*
X148193248Y-93287537D01*
X148083814Y-93451315D01*
X148083807Y-93451328D01*
X148008430Y-93633306D01*
X148008427Y-93633318D01*
X147970000Y-93826504D01*
X141329999Y-93826504D01*
X141291572Y-93633318D01*
X141291569Y-93633306D01*
X141216192Y-93451328D01*
X141216185Y-93451315D01*
X141106751Y-93287537D01*
X141106748Y-93287533D01*
X140967466Y-93148251D01*
X140967462Y-93148248D01*
X140803684Y-93038814D01*
X140803671Y-93038807D01*
X140621691Y-92963429D01*
X140621683Y-92963427D01*
X140580000Y-92955135D01*
X140580000Y-93758011D01*
X140570060Y-93740795D01*
X140514205Y-93684940D01*
X140445796Y-93645444D01*
X140369496Y-93625000D01*
X140290504Y-93625000D01*
X140214204Y-93645444D01*
X140145795Y-93684940D01*
X140089940Y-93740795D01*
X140080000Y-93758011D01*
X140080000Y-92955136D01*
X140079999Y-92955135D01*
X140038316Y-92963427D01*
X140038308Y-92963429D01*
X139856328Y-93038807D01*
X139856315Y-93038814D01*
X139692537Y-93148248D01*
X139692533Y-93148251D01*
X139553251Y-93287533D01*
X139553248Y-93287537D01*
X139443814Y-93451315D01*
X139443807Y-93451328D01*
X139368430Y-93633306D01*
X139368427Y-93633318D01*
X139330000Y-93826504D01*
X101910353Y-93826504D01*
X101915232Y-93818740D01*
X101964956Y-93748661D01*
X102010168Y-93684940D01*
X102081058Y-93585029D01*
X102089713Y-93574175D01*
X102280676Y-93360488D01*
X102290488Y-93350676D01*
X102504175Y-93159713D01*
X102515029Y-93151058D01*
X102748746Y-92985227D01*
X102760509Y-92977836D01*
X103011328Y-92839214D01*
X103023828Y-92833194D01*
X103288584Y-92723528D01*
X103301701Y-92718938D01*
X103577070Y-92639605D01*
X103590617Y-92636514D01*
X103873136Y-92588512D01*
X103886932Y-92586958D01*
X104143939Y-92572525D01*
X104176529Y-92570695D01*
X104183481Y-92570500D01*
X104245892Y-92570500D01*
X183354108Y-92570500D01*
X183416519Y-92570500D01*
X183423471Y-92570695D01*
G37*
%TD.AperFunction*%
%TD*%
M02*
