%TF.GenerationSoftware,KiCad,Pcbnew,9.0.6*%
%TF.CreationDate,2026-03-19T15:14:56+02:00*%
%TF.ProjectId,sound_spectrum_v1,736f756e-645f-4737-9065-637472756d5f,rev?*%
%TF.SameCoordinates,Original*%
%TF.FileFunction,Soldermask,Bot*%
%TF.FilePolarity,Negative*%
%FSLAX46Y46*%
G04 Gerber Fmt 4.6, Leading zero omitted, Abs format (unit mm)*
G04 Created by KiCad (PCBNEW 9.0.6) date 2026-03-19 15:14:56*
%MOMM*%
%LPD*%
G01*
G04 APERTURE LIST*
G04 Aperture macros list*
%AMRoundRect*
0 Rectangle with rounded corners*
0 $1 Rounding radius*
0 $2 $3 $4 $5 $6 $7 $8 $9 X,Y pos of 4 corners*
0 Add a 4 corners polygon primitive as box body*
4,1,4,$2,$3,$4,$5,$6,$7,$8,$9,$2,$3,0*
0 Add four circle primitives for the rounded corners*
1,1,$1+$1,$2,$3*
1,1,$1+$1,$4,$5*
1,1,$1+$1,$6,$7*
1,1,$1+$1,$8,$9*
0 Add four rect primitives between the rounded corners*
20,1,$1+$1,$2,$3,$4,$5,0*
20,1,$1+$1,$4,$5,$6,$7,0*
20,1,$1+$1,$6,$7,$8,$9,0*
20,1,$1+$1,$8,$9,$2,$3,0*%
G04 Aperture macros list end*
%ADD10O,0.900000X1.700000*%
%ADD11O,0.900000X2.400000*%
%ADD12C,0.700000*%
%ADD13R,1.700000X1.700000*%
%ADD14C,1.700000*%
%ADD15C,2.000000*%
%ADD16R,0.600000X0.400000*%
%ADD17C,1.650000*%
%ADD18RoundRect,0.250000X-0.475000X0.337500X-0.475000X-0.337500X0.475000X-0.337500X0.475000X0.337500X0*%
%ADD19RoundRect,0.250000X0.475000X-0.337500X0.475000X0.337500X-0.475000X0.337500X-0.475000X-0.337500X0*%
G04 APERTURE END LIST*
D10*
%TO.C,P1*%
X140350000Y-94490000D03*
D11*
X140350000Y-97870000D03*
D10*
X149000000Y-94490000D03*
D11*
X149000000Y-97870000D03*
D12*
X147650000Y-97500000D03*
X146800000Y-97500000D03*
X145950000Y-97500000D03*
X145100000Y-97500000D03*
X144250000Y-97500000D03*
X143400000Y-97500000D03*
X142550000Y-97500000D03*
X141700000Y-97500000D03*
X141700000Y-98850000D03*
X142550000Y-98850000D03*
X143400000Y-98850000D03*
X144250000Y-98850000D03*
X145100000Y-98850000D03*
X145950000Y-98850000D03*
X146800000Y-98850000D03*
X147650000Y-98850000D03*
%TD*%
D13*
%TO.C,J2*%
X107000000Y-106130000D03*
D14*
X109540000Y-106130000D03*
X107000000Y-108670000D03*
X109540000Y-108670000D03*
X107000000Y-111210000D03*
X109540000Y-111210000D03*
X107000000Y-113750000D03*
X109540000Y-113750000D03*
X107000000Y-116290000D03*
X109540000Y-116290000D03*
X107000000Y-118830000D03*
X109540000Y-118830000D03*
X107000000Y-121370000D03*
X109540000Y-121370000D03*
X107000000Y-123910000D03*
X109540000Y-123910000D03*
X107000000Y-126450000D03*
X109540000Y-126450000D03*
X107000000Y-128990000D03*
X109540000Y-128990000D03*
%TD*%
D15*
%TO.C,SW2*%
X127750000Y-95750000D03*
X134250000Y-95750000D03*
X127750000Y-100250000D03*
X134250000Y-100250000D03*
%TD*%
D13*
%TO.C,J1*%
X121540000Y-95725000D03*
D14*
X121540000Y-98265000D03*
X119000000Y-95725000D03*
X119000000Y-98265000D03*
X116460000Y-95725000D03*
X116460000Y-98265000D03*
%TD*%
D16*
%TO.C,IC1-L1*%
X178425000Y-142575000D03*
X178425000Y-141925000D03*
X178425000Y-141275000D03*
D17*
X179500000Y-140000000D03*
D16*
X180575000Y-141275000D03*
X180575000Y-141925000D03*
X180575000Y-142575000D03*
%TD*%
D18*
%TO.C,C12*%
X176000000Y-140462500D03*
X176000000Y-142537500D03*
%TD*%
D19*
%TO.C,C13*%
X108000000Y-142037500D03*
X108000000Y-139962500D03*
%TD*%
D16*
%TO.C,IC2-R1*%
X110425000Y-142175000D03*
X110425000Y-141525000D03*
X110425000Y-140875000D03*
D17*
X111500000Y-139600000D03*
D16*
X112575000Y-140875000D03*
X112575000Y-141525000D03*
X112575000Y-142175000D03*
%TD*%
M02*
