%TF.GenerationSoftware,KiCad,Pcbnew,9.0.6*%
%TF.CreationDate,2026-03-19T15:14:56+02:00*%
%TF.ProjectId,sound_spectrum_v1,736f756e-645f-4737-9065-637472756d5f,rev?*%
%TF.SameCoordinates,Original*%
%TF.FileFunction,Soldermask,Top*%
%TF.FilePolarity,Negative*%
%FSLAX46Y46*%
G04 Gerber Fmt 4.6, Leading zero omitted, Abs format (unit mm)*
G04 Created by KiCad (PCBNEW 9.0.6) date 2026-03-19 15:14:56*
%MOMM*%
%LPD*%
G01*
G04 APERTURE LIST*
G04 Aperture macros list*
%AMRoundRect*
0 Rectangle with rounded corners*
0 $1 Rounding radius*
0 $2 $3 $4 $5 $6 $7 $8 $9 X,Y pos of 4 corners*
0 Add a 4 corners polygon primitive as box body*
4,1,4,$2,$3,$4,$5,$6,$7,$8,$9,$2,$3,0*
0 Add four circle primitives for the rounded corners*
1,1,$1+$1,$2,$3*
1,1,$1+$1,$4,$5*
1,1,$1+$1,$6,$7*
1,1,$1+$1,$8,$9*
0 Add four rect primitives between the rounded corners*
20,1,$1+$1,$2,$3,$4,$5,0*
20,1,$1+$1,$4,$5,$6,$7,0*
20,1,$1+$1,$6,$7,$8,$9,0*
20,1,$1+$1,$8,$9,$2,$3,0*%
G04 Aperture macros list end*
%ADD10O,0.900000X1.700000*%
%ADD11O,0.900000X2.400000*%
%ADD12C,0.700000*%
%ADD13RoundRect,0.225000X-0.325000X-0.225000X0.325000X-0.225000X0.325000X0.225000X-0.325000X0.225000X0*%
%ADD14RoundRect,0.250000X-0.337500X-0.475000X0.337500X-0.475000X0.337500X0.475000X-0.337500X0.475000X0*%
%ADD15RoundRect,0.250000X0.475000X-0.337500X0.475000X0.337500X-0.475000X0.337500X-0.475000X-0.337500X0*%
%ADD16RoundRect,0.250000X0.450000X-0.350000X0.450000X0.350000X-0.450000X0.350000X-0.450000X-0.350000X0*%
%ADD17RoundRect,0.150000X-0.150000X0.512500X-0.150000X-0.512500X0.150000X-0.512500X0.150000X0.512500X0*%
%ADD18RoundRect,0.250000X-0.450000X0.325000X-0.450000X-0.325000X0.450000X-0.325000X0.450000X0.325000X0*%
%ADD19RoundRect,0.075000X0.075000X-0.662500X0.075000X0.662500X-0.075000X0.662500X-0.075000X-0.662500X0*%
%ADD20RoundRect,0.075000X0.662500X-0.075000X0.662500X0.075000X-0.662500X0.075000X-0.662500X-0.075000X0*%
%ADD21RoundRect,0.250000X-0.475000X0.337500X-0.475000X-0.337500X0.475000X-0.337500X0.475000X0.337500X0*%
%ADD22RoundRect,0.250000X-0.275000X-0.350000X0.275000X-0.350000X0.275000X0.350000X-0.275000X0.350000X0*%
%ADD23R,1.700000X1.700000*%
%ADD24C,1.700000*%
%ADD25C,2.000000*%
%ADD26R,1.500000X1.000000*%
%ADD27RoundRect,0.250000X-0.450000X0.350000X-0.450000X-0.350000X0.450000X-0.350000X0.450000X0.350000X0*%
%ADD28RoundRect,0.250000X0.337500X0.475000X-0.337500X0.475000X-0.337500X-0.475000X0.337500X-0.475000X0*%
%ADD29RoundRect,0.150000X0.150000X-0.512500X0.150000X0.512500X-0.150000X0.512500X-0.150000X-0.512500X0*%
%ADD30C,1.650000*%
G04 APERTURE END LIST*
%TO.C,JP1*%
G36*
X136250000Y-118800000D02*
G01*
X137750000Y-118800000D01*
X137750000Y-117200000D01*
X136250000Y-117200000D01*
X136250000Y-118800000D01*
G37*
%TD*%
D10*
%TO.C,P1*%
X140350000Y-94490000D03*
D11*
X140350000Y-97870000D03*
D10*
X149000000Y-94490000D03*
D11*
X149000000Y-97870000D03*
D12*
X147650000Y-97500000D03*
X146800000Y-97500000D03*
X145950000Y-97500000D03*
X145100000Y-97500000D03*
X144250000Y-97500000D03*
X143400000Y-97500000D03*
X142550000Y-97500000D03*
X141700000Y-97500000D03*
X141700000Y-98850000D03*
X142550000Y-98850000D03*
X143400000Y-98850000D03*
X144250000Y-98850000D03*
X145100000Y-98850000D03*
X145950000Y-98850000D03*
X146800000Y-98850000D03*
X147650000Y-98850000D03*
%TD*%
D13*
%TO.C,Y2*%
X143150000Y-124400000D03*
X144850000Y-124400000D03*
X144850000Y-123100000D03*
X143150000Y-123100000D03*
%TD*%
D14*
%TO.C,C15*%
X143212500Y-126250000D03*
X145287500Y-126250000D03*
%TD*%
D15*
%TO.C,C14*%
X112250000Y-98037500D03*
X112250000Y-95962500D03*
%TD*%
D16*
%TO.C,R5*%
X134250000Y-119000000D03*
X134250000Y-117000000D03*
%TD*%
D14*
%TO.C,C1*%
X151962500Y-119000000D03*
X154037500Y-119000000D03*
%TD*%
D16*
%TO.C,R1*%
X151000000Y-103500000D03*
X151000000Y-101500000D03*
%TD*%
D17*
%TO.C,U2*%
X154650000Y-104000000D03*
X153700000Y-104000000D03*
X152750000Y-104000000D03*
X152750000Y-106275000D03*
X154650000Y-106275000D03*
%TD*%
D18*
%TO.C,D2*%
X153500000Y-96475000D03*
X153500000Y-98525000D03*
%TD*%
D16*
%TO.C,R6*%
X132000000Y-119000000D03*
X132000000Y-117000000D03*
%TD*%
D15*
%TO.C,C8*%
X149500000Y-110787500D03*
X149500000Y-108712500D03*
%TD*%
D19*
%TO.C,U1*%
X142250000Y-121162500D03*
X142750000Y-121162500D03*
X143250000Y-121162500D03*
X143750000Y-121162500D03*
X144250000Y-121162500D03*
X144750000Y-121162500D03*
X145250000Y-121162500D03*
X145750000Y-121162500D03*
X146250000Y-121162500D03*
X146750000Y-121162500D03*
X147250000Y-121162500D03*
X147750000Y-121162500D03*
D20*
X149162500Y-119750000D03*
X149162500Y-119250000D03*
X149162500Y-118750000D03*
X149162500Y-118250000D03*
X149162500Y-117750000D03*
X149162500Y-117250000D03*
X149162500Y-116750000D03*
X149162500Y-116250000D03*
X149162500Y-115750000D03*
X149162500Y-115250000D03*
X149162500Y-114750000D03*
X149162500Y-114250000D03*
D19*
X147750000Y-112837500D03*
X147250000Y-112837500D03*
X146750000Y-112837500D03*
X146250000Y-112837500D03*
X145750000Y-112837500D03*
X145250000Y-112837500D03*
X144750000Y-112837500D03*
X144250000Y-112837500D03*
X143750000Y-112837500D03*
X143250000Y-112837500D03*
X142750000Y-112837500D03*
X142250000Y-112837500D03*
D20*
X140837500Y-114250000D03*
X140837500Y-114750000D03*
X140837500Y-115250000D03*
X140837500Y-115750000D03*
X140837500Y-116250000D03*
X140837500Y-116750000D03*
X140837500Y-117250000D03*
X140837500Y-117750000D03*
X140837500Y-118250000D03*
X140837500Y-118750000D03*
X140837500Y-119250000D03*
X140837500Y-119750000D03*
%TD*%
D14*
%TO.C,C10*%
X156712500Y-106500000D03*
X158787500Y-106500000D03*
%TD*%
D21*
%TO.C,C7*%
X141250000Y-123212500D03*
X141250000Y-125287500D03*
%TD*%
D22*
%TO.C,FB1*%
X151850000Y-111000000D03*
X154150000Y-111000000D03*
%TD*%
D14*
%TO.C,C4*%
X151962500Y-113000000D03*
X154037500Y-113000000D03*
%TD*%
%TO.C,C9*%
X156712500Y-108750000D03*
X158787500Y-108750000D03*
%TD*%
%TO.C,C11*%
X155162500Y-101637500D03*
X157237500Y-101637500D03*
%TD*%
%TO.C,C2*%
X151962500Y-117000000D03*
X154037500Y-117000000D03*
%TD*%
D23*
%TO.C,J2*%
X107000000Y-106130000D03*
D24*
X109540000Y-106130000D03*
X107000000Y-108670000D03*
X109540000Y-108670000D03*
X107000000Y-111210000D03*
X109540000Y-111210000D03*
X107000000Y-113750000D03*
X109540000Y-113750000D03*
X107000000Y-116290000D03*
X109540000Y-116290000D03*
X107000000Y-118830000D03*
X109540000Y-118830000D03*
X107000000Y-121370000D03*
X109540000Y-121370000D03*
X107000000Y-123910000D03*
X109540000Y-123910000D03*
X107000000Y-126450000D03*
X109540000Y-126450000D03*
X107000000Y-128990000D03*
X109540000Y-128990000D03*
%TD*%
D25*
%TO.C,SW2*%
X127750000Y-95750000D03*
X134250000Y-95750000D03*
X127750000Y-100250000D03*
X134250000Y-100250000D03*
%TD*%
D26*
%TO.C,JP1*%
X137000000Y-119300000D03*
X137000000Y-118000000D03*
X137000000Y-116700000D03*
%TD*%
D27*
%TO.C,R3*%
X148500000Y-101500000D03*
X148500000Y-103500000D03*
%TD*%
D28*
%TO.C,C5*%
X139000000Y-122000000D03*
X136925000Y-122000000D03*
%TD*%
D14*
%TO.C,C3*%
X151962500Y-115000000D03*
X154037500Y-115000000D03*
%TD*%
D23*
%TO.C,J1*%
X121540000Y-95725000D03*
D24*
X121540000Y-98265000D03*
X119000000Y-95725000D03*
X119000000Y-98265000D03*
X116460000Y-95725000D03*
X116460000Y-98265000D03*
%TD*%
D29*
%TO.C,U3*%
X144150000Y-103737500D03*
X145100000Y-103737500D03*
X146050000Y-103737500D03*
X146050000Y-101462500D03*
X145100000Y-101462500D03*
X144150000Y-101462500D03*
%TD*%
D15*
%TO.C,C6*%
X140500000Y-111037500D03*
X140500000Y-108962500D03*
%TD*%
D16*
%TO.C,R4*%
X156250000Y-98500000D03*
X156250000Y-96500000D03*
%TD*%
D30*
%TO.C,IC1-L1*%
X179500000Y-140000000D03*
%TD*%
%TO.C,IC2-R1*%
X111500000Y-139600000D03*
%TD*%
M02*
