%TF.GenerationSoftware,KiCad,Pcbnew,9.0.6*%
%TF.CreationDate,2026-03-19T15:14:55+02:00*%
%TF.ProjectId,sound_spectrum_v1,736f756e-645f-4737-9065-637472756d5f,rev?*%
%TF.SameCoordinates,Original*%
%TF.FileFunction,Copper,L3,Inr*%
%TF.FilePolarity,Positive*%
%FSLAX46Y46*%
G04 Gerber Fmt 4.6, Leading zero omitted, Abs format (unit mm)*
G04 Created by KiCad (PCBNEW 9.0.6) date 2026-03-19 15:14:55*
%MOMM*%
%LPD*%
G01*
G04 APERTURE LIST*
%TA.AperFunction,ComponentPad*%
%ADD10O,0.900000X1.700000*%
%TD*%
%TA.AperFunction,ComponentPad*%
%ADD11O,0.900000X2.400000*%
%TD*%
%TA.AperFunction,ComponentPad*%
%ADD12C,0.700000*%
%TD*%
%TA.AperFunction,ComponentPad*%
%ADD13R,1.700000X1.700000*%
%TD*%
%TA.AperFunction,ComponentPad*%
%ADD14C,1.700000*%
%TD*%
%TA.AperFunction,ComponentPad*%
%ADD15C,2.000000*%
%TD*%
%TA.AperFunction,ComponentPad*%
%ADD16C,1.650000*%
%TD*%
%TA.AperFunction,ViaPad*%
%ADD17C,0.600000*%
%TD*%
G04 APERTURE END LIST*
D10*
%TO.N,GND*%
%TO.C,P1*%
X140350000Y-94490000D03*
D11*
X140350000Y-97870000D03*
D10*
X149000000Y-94490000D03*
D11*
X149000000Y-97870000D03*
D12*
X147650000Y-97500000D03*
%TO.N,VBUS*%
X146800000Y-97500000D03*
%TO.N,N/C*%
X145950000Y-97500000D03*
X145100000Y-97500000D03*
X144250000Y-97500000D03*
%TO.N,unconnected-(P1-VCONN-PadB5)*%
X143400000Y-97500000D03*
%TO.N,VBUS*%
X142550000Y-97500000D03*
%TO.N,GND*%
X141700000Y-97500000D03*
X141700000Y-98850000D03*
%TO.N,VBUS*%
X142550000Y-98850000D03*
%TO.N,N/C*%
X143400000Y-98850000D03*
%TO.N,USB_DM_EXT*%
X144250000Y-98850000D03*
%TO.N,USB_DP_EXT*%
X145100000Y-98850000D03*
%TO.N,Net-(P1-CC)*%
X145950000Y-98850000D03*
%TO.N,VBUS*%
X146800000Y-98850000D03*
%TO.N,GND*%
X147650000Y-98850000D03*
%TD*%
D13*
%TO.N,+3.3V*%
%TO.C,J2*%
X107000000Y-106130000D03*
D14*
X109540000Y-106130000D03*
X107000000Y-108670000D03*
%TO.N,GND*%
X109540000Y-108670000D03*
X107000000Y-111210000D03*
X109540000Y-111210000D03*
X107000000Y-113750000D03*
%TO.N,+5V*%
X109540000Y-113750000D03*
X107000000Y-116290000D03*
X109540000Y-116290000D03*
%TO.N,GND*%
X107000000Y-118830000D03*
%TO.N,UART_RX*%
X109540000Y-118830000D03*
%TO.N,UART_TX*%
X107000000Y-121370000D03*
%TO.N,UART_CK*%
X109540000Y-121370000D03*
%TO.N,SPI_NSS*%
X107000000Y-123910000D03*
%TO.N,SPI_SCK*%
X109540000Y-123910000D03*
%TO.N,SPI_MISO*%
X107000000Y-126450000D03*
%TO.N,SPI_MOSI*%
X109540000Y-126450000D03*
%TO.N,I2C_SCL*%
X107000000Y-128990000D03*
%TO.N,I2C_SDA*%
X109540000Y-128990000D03*
%TD*%
D15*
%TO.N,GND*%
%TO.C,SW2*%
X127750000Y-95750000D03*
X134250000Y-95750000D03*
%TO.N,NRST*%
X127750000Y-100250000D03*
X134250000Y-100250000D03*
%TD*%
D13*
%TO.N,+3.3V*%
%TO.C,J1*%
X121540000Y-95725000D03*
D14*
%TO.N,SWCLK*%
X121540000Y-98265000D03*
%TO.N,GND*%
X119000000Y-95725000D03*
%TO.N,SWDIO*%
X119000000Y-98265000D03*
%TO.N,NRST*%
X116460000Y-95725000D03*
%TO.N,SWO*%
X116460000Y-98265000D03*
%TD*%
D16*
%TO.N,GND*%
%TO.C,IC1-L1*%
X179500000Y-140000000D03*
%TD*%
%TO.N,GND*%
%TO.C,IC2-R1*%
X111500000Y-139600000D03*
%TD*%
D17*
%TO.N,GND*%
X135000000Y-105000000D03*
X140000000Y-140000000D03*
X160000000Y-125000000D03*
X110000000Y-135000000D03*
X120000000Y-135000000D03*
X150000000Y-135000000D03*
X160000000Y-135000000D03*
X170000000Y-135000000D03*
X180000000Y-125000000D03*
X170000000Y-115000000D03*
X180000000Y-115000000D03*
X180000000Y-100000000D03*
X170000000Y-100000000D03*
X120000000Y-110000000D03*
X105000000Y-100000000D03*
X153500000Y-95500000D03*
X146000000Y-124750000D03*
%TO.N,NRST*%
X143500000Y-116000000D03*
X142500000Y-107000000D03*
%TO.N,+3.3V*%
X139000000Y-112000000D03*
X139750000Y-126500000D03*
X138500000Y-116500000D03*
%TO.N,UART_CK*%
X145691942Y-109308058D03*
%TO.N,I2C_SDA*%
X139000000Y-117650000D03*
X134250000Y-120250000D03*
%TO.N,I2C_SCL*%
X132000000Y-120250000D03*
X137500000Y-115000000D03*
%TO.N,UART_RX*%
X144375000Y-108862325D03*
%TO.N,UART_TX*%
X144874999Y-110241117D03*
%TO.N,I2S_WS*%
X123500000Y-140500000D03*
X147500000Y-111500000D03*
X119000000Y-140500000D03*
%TO.N,I2S_SD*%
X120000000Y-140500000D03*
X119000000Y-142125000D03*
X145881082Y-111501507D03*
%TO.N,USB_DM_EXT*%
X143500000Y-101500000D03*
%TO.N,GND*%
X109500000Y-141425000D03*
X107000000Y-140000000D03*
X153500000Y-102500000D03*
X145000000Y-105000000D03*
X155000000Y-115000000D03*
X159500000Y-108500000D03*
X140500000Y-108000000D03*
X142625000Y-111125000D03*
X150500000Y-115000000D03*
X177500000Y-142000000D03*
X155000000Y-119000000D03*
X138500000Y-120000000D03*
X158000000Y-101500000D03*
X136000000Y-122000000D03*
X139000000Y-119500000D03*
X150500000Y-117000000D03*
X112500000Y-99000000D03*
X155000000Y-117000000D03*
X155000000Y-113000000D03*
X159500000Y-106500000D03*
X148500000Y-104000000D03*
X141250000Y-126750000D03*
X175000000Y-142500000D03*
X149500000Y-108000000D03*
%TO.N,I2S_CK*%
X146681020Y-111491374D03*
%TO.N,GND*%
X146750000Y-126250000D03*
%TD*%
%TA.AperFunction,Conductor*%
%TO.N,GND*%
G36*
X108115270Y-119591717D02*
G01*
X108115270Y-119591716D01*
X108154622Y-119537555D01*
X108159232Y-119528507D01*
X108207205Y-119477709D01*
X108275025Y-119460912D01*
X108341161Y-119483447D01*
X108380204Y-119528504D01*
X108384949Y-119537817D01*
X108509890Y-119709786D01*
X108660213Y-119860109D01*
X108832182Y-119985050D01*
X108840946Y-119989516D01*
X108891742Y-120037491D01*
X108908536Y-120105312D01*
X108885998Y-120171447D01*
X108840946Y-120210484D01*
X108832182Y-120214949D01*
X108660213Y-120339890D01*
X108509890Y-120490213D01*
X108384949Y-120662182D01*
X108380484Y-120670946D01*
X108332509Y-120721742D01*
X108264688Y-120738536D01*
X108198553Y-120715998D01*
X108159516Y-120670946D01*
X108155050Y-120662182D01*
X108030109Y-120490213D01*
X107879786Y-120339890D01*
X107707817Y-120214949D01*
X107698504Y-120210204D01*
X107647707Y-120162230D01*
X107630912Y-120094409D01*
X107653449Y-120028274D01*
X107698507Y-119989232D01*
X107707555Y-119984622D01*
X107761716Y-119945270D01*
X107761717Y-119945270D01*
X107129408Y-119312962D01*
X107192993Y-119295925D01*
X107307007Y-119230099D01*
X107400099Y-119137007D01*
X107465925Y-119022993D01*
X107482962Y-118959409D01*
X108115270Y-119591717D01*
G37*
%TD.AperFunction*%
%TA.AperFunction,Conductor*%
G36*
X108341444Y-116943999D02*
G01*
X108380486Y-116989056D01*
X108384951Y-116997820D01*
X108509890Y-117169786D01*
X108660213Y-117320109D01*
X108832182Y-117445050D01*
X108840946Y-117449516D01*
X108891742Y-117497491D01*
X108908536Y-117565312D01*
X108885998Y-117631447D01*
X108840946Y-117670484D01*
X108832182Y-117674949D01*
X108660213Y-117799890D01*
X108509890Y-117950213D01*
X108384949Y-118122182D01*
X108380202Y-118131499D01*
X108332227Y-118182293D01*
X108264405Y-118199087D01*
X108198271Y-118176548D01*
X108159234Y-118131495D01*
X108154626Y-118122452D01*
X108115270Y-118068282D01*
X108115269Y-118068282D01*
X107482962Y-118700590D01*
X107465925Y-118637007D01*
X107400099Y-118522993D01*
X107307007Y-118429901D01*
X107192993Y-118364075D01*
X107129409Y-118347037D01*
X107761716Y-117714728D01*
X107707547Y-117675373D01*
X107707547Y-117675372D01*
X107698500Y-117670763D01*
X107647706Y-117622788D01*
X107630912Y-117554966D01*
X107653451Y-117488832D01*
X107698508Y-117449793D01*
X107707816Y-117445051D01*
X107850895Y-117341099D01*
X107879786Y-117320109D01*
X107879788Y-117320106D01*
X107879792Y-117320104D01*
X108030104Y-117169792D01*
X108030106Y-117169788D01*
X108030109Y-117169786D01*
X108155048Y-116997820D01*
X108155047Y-116997820D01*
X108155051Y-116997816D01*
X108159514Y-116989054D01*
X108207488Y-116938259D01*
X108275308Y-116921463D01*
X108341444Y-116943999D01*
G37*
%TD.AperFunction*%
%TA.AperFunction,Conductor*%
G36*
X108115270Y-114511717D02*
G01*
X108115270Y-114511716D01*
X108154622Y-114457555D01*
X108159232Y-114448507D01*
X108207205Y-114397709D01*
X108275025Y-114380912D01*
X108341161Y-114403447D01*
X108380204Y-114448504D01*
X108384949Y-114457817D01*
X108509890Y-114629786D01*
X108660213Y-114780109D01*
X108832182Y-114905050D01*
X108840946Y-114909516D01*
X108891742Y-114957491D01*
X108908536Y-115025312D01*
X108885998Y-115091447D01*
X108840946Y-115130484D01*
X108832182Y-115134949D01*
X108660213Y-115259890D01*
X108509890Y-115410213D01*
X108384949Y-115582182D01*
X108380484Y-115590946D01*
X108332509Y-115641742D01*
X108264688Y-115658536D01*
X108198553Y-115635998D01*
X108159516Y-115590946D01*
X108155050Y-115582182D01*
X108030109Y-115410213D01*
X107879786Y-115259890D01*
X107707817Y-115134949D01*
X107698504Y-115130204D01*
X107647707Y-115082230D01*
X107630912Y-115014409D01*
X107653449Y-114948274D01*
X107698507Y-114909232D01*
X107707555Y-114904622D01*
X107761716Y-114865270D01*
X107761717Y-114865270D01*
X107129408Y-114232962D01*
X107192993Y-114215925D01*
X107307007Y-114150099D01*
X107400099Y-114057007D01*
X107465925Y-113942993D01*
X107482962Y-113879409D01*
X108115270Y-114511717D01*
G37*
%TD.AperFunction*%
%TA.AperFunction,Conductor*%
G36*
X109074075Y-111402993D02*
G01*
X109139901Y-111517007D01*
X109232993Y-111610099D01*
X109347007Y-111675925D01*
X109410590Y-111692962D01*
X108778282Y-112325269D01*
X108778282Y-112325270D01*
X108832452Y-112364626D01*
X108832451Y-112364626D01*
X108841495Y-112369234D01*
X108892292Y-112417208D01*
X108909087Y-112485029D01*
X108886550Y-112551164D01*
X108841499Y-112590202D01*
X108832182Y-112594949D01*
X108660213Y-112719890D01*
X108509890Y-112870213D01*
X108384949Y-113042182D01*
X108380202Y-113051499D01*
X108332227Y-113102293D01*
X108264405Y-113119087D01*
X108198271Y-113096548D01*
X108159234Y-113051495D01*
X108154626Y-113042452D01*
X108115270Y-112988282D01*
X108115269Y-112988282D01*
X107482962Y-113620590D01*
X107465925Y-113557007D01*
X107400099Y-113442993D01*
X107307007Y-113349901D01*
X107192993Y-113284075D01*
X107129409Y-113267037D01*
X107761716Y-112634728D01*
X107707550Y-112595375D01*
X107697954Y-112590486D01*
X107647157Y-112542512D01*
X107630361Y-112474692D01*
X107652897Y-112408556D01*
X107697954Y-112369514D01*
X107707554Y-112364622D01*
X107761716Y-112325270D01*
X107761717Y-112325270D01*
X107129408Y-111692962D01*
X107192993Y-111675925D01*
X107307007Y-111610099D01*
X107400099Y-111517007D01*
X107465925Y-111402993D01*
X107482962Y-111339409D01*
X108115270Y-111971717D01*
X108115270Y-111971716D01*
X108154622Y-111917554D01*
X108159514Y-111907954D01*
X108207488Y-111857157D01*
X108275308Y-111840361D01*
X108341444Y-111862897D01*
X108380486Y-111907954D01*
X108385375Y-111917550D01*
X108424728Y-111971716D01*
X109057037Y-111339408D01*
X109074075Y-111402993D01*
G37*
%TD.AperFunction*%
%TA.AperFunction,Conductor*%
G36*
X109074075Y-108862993D02*
G01*
X109139901Y-108977007D01*
X109232993Y-109070099D01*
X109347007Y-109135925D01*
X109410591Y-109152962D01*
X108809971Y-109753581D01*
X108888711Y-109870895D01*
X108889920Y-109874729D01*
X108892844Y-109877491D01*
X108900343Y-109907778D01*
X108909727Y-109937529D01*
X108908671Y-109941408D01*
X108909638Y-109945312D01*
X108899573Y-109974844D01*
X108891383Y-110004947D01*
X108888397Y-110007640D01*
X108887100Y-110011447D01*
X108842051Y-110050483D01*
X108832440Y-110055380D01*
X108778282Y-110094727D01*
X108778282Y-110094728D01*
X109410591Y-110727037D01*
X109347007Y-110744075D01*
X109232993Y-110809901D01*
X109139901Y-110902993D01*
X109074075Y-111017007D01*
X109057037Y-111080591D01*
X108424728Y-110448282D01*
X108424727Y-110448282D01*
X108385380Y-110502440D01*
X108380483Y-110512051D01*
X108332506Y-110562845D01*
X108264684Y-110579638D01*
X108198550Y-110557098D01*
X108159516Y-110512048D01*
X108154626Y-110502452D01*
X108115270Y-110448282D01*
X108115269Y-110448282D01*
X107482962Y-111080590D01*
X107465925Y-111017007D01*
X107400099Y-110902993D01*
X107307007Y-110809901D01*
X107192993Y-110744075D01*
X107129409Y-110727037D01*
X107761716Y-110094728D01*
X107707547Y-110055373D01*
X107707547Y-110055372D01*
X107698500Y-110050763D01*
X107647706Y-110002788D01*
X107630912Y-109934966D01*
X107653451Y-109868832D01*
X107698508Y-109829793D01*
X107707816Y-109825051D01*
X107837504Y-109730828D01*
X107879786Y-109700109D01*
X107879788Y-109700106D01*
X107879792Y-109700104D01*
X108030104Y-109549792D01*
X108030106Y-109549788D01*
X108030109Y-109549786D01*
X108115890Y-109431717D01*
X108155051Y-109377816D01*
X108159793Y-109368508D01*
X108207763Y-109317711D01*
X108275583Y-109300911D01*
X108341719Y-109323445D01*
X108380763Y-109368500D01*
X108385373Y-109377547D01*
X108424728Y-109431716D01*
X109057037Y-108799408D01*
X109074075Y-108862993D01*
G37*
%TD.AperFunction*%
%TA.AperFunction,Conductor*%
G36*
X108518418Y-107025417D02*
G01*
X108546673Y-107046569D01*
X108660213Y-107160109D01*
X108832179Y-107285048D01*
X108832181Y-107285049D01*
X108832184Y-107285051D01*
X108841493Y-107289794D01*
X108892290Y-107337766D01*
X108909087Y-107405587D01*
X108886552Y-107471722D01*
X108841505Y-107510760D01*
X108832446Y-107515376D01*
X108832440Y-107515380D01*
X108778282Y-107554727D01*
X108778282Y-107554728D01*
X109410591Y-108187037D01*
X109347007Y-108204075D01*
X109232993Y-108269901D01*
X109139901Y-108362993D01*
X109074075Y-108477007D01*
X109057037Y-108540591D01*
X108424728Y-107908282D01*
X108424727Y-107908282D01*
X108385380Y-107962440D01*
X108385376Y-107962446D01*
X108380760Y-107971505D01*
X108332781Y-108022297D01*
X108264959Y-108039087D01*
X108198826Y-108016543D01*
X108159794Y-107971493D01*
X108155051Y-107962184D01*
X108155049Y-107962181D01*
X108155048Y-107962179D01*
X108030109Y-107790213D01*
X107916569Y-107676673D01*
X107883084Y-107615350D01*
X107888068Y-107545658D01*
X107929940Y-107489725D01*
X107960915Y-107472810D01*
X108092331Y-107423796D01*
X108207546Y-107337546D01*
X108293796Y-107222331D01*
X108342810Y-107090916D01*
X108384681Y-107034984D01*
X108450145Y-107010566D01*
X108518418Y-107025417D01*
G37*
%TD.AperFunction*%
%TA.AperFunction,Conductor*%
G36*
X118534075Y-95917993D02*
G01*
X118599901Y-96032007D01*
X118692993Y-96125099D01*
X118807007Y-96190925D01*
X118870590Y-96207962D01*
X118238282Y-96840269D01*
X118238282Y-96840270D01*
X118292452Y-96879626D01*
X118292451Y-96879626D01*
X118301495Y-96884234D01*
X118352292Y-96932208D01*
X118369087Y-97000029D01*
X118346550Y-97066164D01*
X118301499Y-97105202D01*
X118292182Y-97109949D01*
X118120213Y-97234890D01*
X117969890Y-97385213D01*
X117844949Y-97557182D01*
X117840484Y-97565946D01*
X117792509Y-97616742D01*
X117724688Y-97633536D01*
X117658553Y-97610998D01*
X117619516Y-97565946D01*
X117615050Y-97557182D01*
X117490109Y-97385213D01*
X117339786Y-97234890D01*
X117167820Y-97109951D01*
X117167115Y-97109591D01*
X117159054Y-97105485D01*
X117108259Y-97057512D01*
X117091463Y-96989692D01*
X117113999Y-96923556D01*
X117159054Y-96884515D01*
X117167816Y-96880051D01*
X117189789Y-96864086D01*
X117339786Y-96755109D01*
X117339788Y-96755106D01*
X117339792Y-96755104D01*
X117490104Y-96604792D01*
X117490106Y-96604788D01*
X117490109Y-96604786D01*
X117557515Y-96512007D01*
X117615051Y-96432816D01*
X117619793Y-96423508D01*
X117667763Y-96372711D01*
X117735583Y-96355911D01*
X117801719Y-96378445D01*
X117840763Y-96423500D01*
X117845373Y-96432547D01*
X117884728Y-96486716D01*
X118517037Y-95854408D01*
X118534075Y-95917993D01*
G37*
%TD.AperFunction*%
%TA.AperFunction,Conductor*%
G36*
X120153181Y-96524628D02*
G01*
X120186666Y-96585951D01*
X120189500Y-96612300D01*
X120189500Y-96622865D01*
X120189501Y-96622876D01*
X120195908Y-96682483D01*
X120246202Y-96817328D01*
X120246206Y-96817335D01*
X120332452Y-96932544D01*
X120332455Y-96932547D01*
X120447664Y-97018793D01*
X120447671Y-97018797D01*
X120579082Y-97067810D01*
X120635016Y-97109681D01*
X120659433Y-97175145D01*
X120644582Y-97243418D01*
X120623431Y-97271673D01*
X120509889Y-97385215D01*
X120384949Y-97557182D01*
X120380484Y-97565946D01*
X120332509Y-97616742D01*
X120264688Y-97633536D01*
X120198553Y-97610998D01*
X120159516Y-97565946D01*
X120155050Y-97557182D01*
X120030109Y-97385213D01*
X119879786Y-97234890D01*
X119707817Y-97109949D01*
X119698504Y-97105204D01*
X119647707Y-97057230D01*
X119630912Y-96989409D01*
X119653449Y-96923274D01*
X119698507Y-96884232D01*
X119707555Y-96879622D01*
X119761716Y-96840270D01*
X119761717Y-96840270D01*
X119129408Y-96207962D01*
X119192993Y-96190925D01*
X119307007Y-96125099D01*
X119400099Y-96032007D01*
X119465925Y-95917993D01*
X119482962Y-95854409D01*
X120153181Y-96524628D01*
G37*
%TD.AperFunction*%
%TA.AperFunction,Conductor*%
G36*
X183423471Y-92570695D02*
G01*
X183462721Y-92572899D01*
X183713063Y-92586957D01*
X183726866Y-92588513D01*
X184009377Y-92636514D01*
X184022934Y-92639608D01*
X184298294Y-92718938D01*
X184311420Y-92723531D01*
X184576163Y-92833191D01*
X184588677Y-92839217D01*
X184782407Y-92946289D01*
X184839484Y-92977834D01*
X184851258Y-92985232D01*
X185084960Y-93151052D01*
X185095832Y-93159722D01*
X185309500Y-93350666D01*
X185319333Y-93360499D01*
X185510277Y-93574167D01*
X185518947Y-93585039D01*
X185684767Y-93818741D01*
X185692165Y-93830515D01*
X185830778Y-94081315D01*
X185836811Y-94093843D01*
X185946468Y-94358580D01*
X185951061Y-94371705D01*
X186030391Y-94647065D01*
X186033485Y-94660622D01*
X186081485Y-94943125D01*
X186083042Y-94956943D01*
X186099305Y-95246527D01*
X186099500Y-95253480D01*
X186099500Y-142866519D01*
X186099305Y-142873472D01*
X186083042Y-143163056D01*
X186081485Y-143176874D01*
X186033485Y-143459377D01*
X186030391Y-143472934D01*
X185951061Y-143748294D01*
X185946468Y-143761419D01*
X185836811Y-144026156D01*
X185830778Y-144038684D01*
X185692165Y-144289484D01*
X185684767Y-144301258D01*
X185518947Y-144534960D01*
X185510277Y-144545832D01*
X185319333Y-144759500D01*
X185309500Y-144769333D01*
X185095832Y-144960277D01*
X185084960Y-144968947D01*
X184851258Y-145134767D01*
X184839484Y-145142165D01*
X184588684Y-145280778D01*
X184576156Y-145286811D01*
X184311419Y-145396468D01*
X184298294Y-145401061D01*
X184022934Y-145480391D01*
X184009377Y-145483485D01*
X183726874Y-145531485D01*
X183713056Y-145533042D01*
X183423472Y-145549305D01*
X183416519Y-145549500D01*
X104183481Y-145549500D01*
X104176528Y-145549305D01*
X103886943Y-145533042D01*
X103873125Y-145531485D01*
X103590622Y-145483485D01*
X103577065Y-145480391D01*
X103301705Y-145401061D01*
X103288580Y-145396468D01*
X103023843Y-145286811D01*
X103011315Y-145280778D01*
X102760515Y-145142165D01*
X102748741Y-145134767D01*
X102515039Y-144968947D01*
X102504167Y-144960277D01*
X102290499Y-144769333D01*
X102280666Y-144759500D01*
X102089722Y-144545832D01*
X102081052Y-144534960D01*
X101915232Y-144301258D01*
X101907834Y-144289484D01*
X101876289Y-144232407D01*
X101769217Y-144038677D01*
X101763191Y-144026163D01*
X101653531Y-143761419D01*
X101648938Y-143748294D01*
X101569608Y-143472934D01*
X101566514Y-143459377D01*
X101518514Y-143176874D01*
X101516957Y-143163063D01*
X101500695Y-142873471D01*
X101500500Y-142866519D01*
X101500500Y-139495718D01*
X110175000Y-139495718D01*
X110175000Y-139704279D01*
X110207626Y-139910272D01*
X110272075Y-140108627D01*
X110366759Y-140294451D01*
X110402627Y-140343818D01*
X110402627Y-140343819D01*
X110996624Y-139749822D01*
X111010778Y-139802642D01*
X111079896Y-139922357D01*
X111177643Y-140020104D01*
X111297358Y-140089222D01*
X111350177Y-140103375D01*
X110756179Y-140697371D01*
X110756180Y-140697372D01*
X110805543Y-140733236D01*
X110805556Y-140733244D01*
X110991372Y-140827924D01*
X111189727Y-140892373D01*
X111395721Y-140925000D01*
X111604279Y-140925000D01*
X111810272Y-140892373D01*
X112008627Y-140827924D01*
X112194451Y-140733240D01*
X112243818Y-140697372D01*
X112243818Y-140697371D01*
X111967600Y-140421153D01*
X118199500Y-140421153D01*
X118199500Y-140578846D01*
X118230261Y-140733489D01*
X118230264Y-140733501D01*
X118290602Y-140879172D01*
X118290609Y-140879185D01*
X118378210Y-141010288D01*
X118378213Y-141010292D01*
X118489707Y-141121786D01*
X118489711Y-141121789D01*
X118620826Y-141209398D01*
X118665631Y-141263010D01*
X118674338Y-141332335D01*
X118644183Y-141395363D01*
X118620826Y-141415602D01*
X118489711Y-141503210D01*
X118489707Y-141503213D01*
X118378213Y-141614707D01*
X118378210Y-141614711D01*
X118290609Y-141745814D01*
X118290602Y-141745827D01*
X118230264Y-141891498D01*
X118230261Y-141891510D01*
X118199500Y-142046153D01*
X118199500Y-142203846D01*
X118230261Y-142358489D01*
X118230264Y-142358501D01*
X118290602Y-142504172D01*
X118290609Y-142504185D01*
X118378210Y-142635288D01*
X118378213Y-142635292D01*
X118489707Y-142746786D01*
X118489711Y-142746789D01*
X118620814Y-142834390D01*
X118620827Y-142834397D01*
X118715164Y-142873472D01*
X118766503Y-142894737D01*
X118921153Y-142925499D01*
X118921156Y-142925500D01*
X118921158Y-142925500D01*
X119078844Y-142925500D01*
X119078845Y-142925499D01*
X119233497Y-142894737D01*
X119379179Y-142834394D01*
X119510289Y-142746789D01*
X119621789Y-142635289D01*
X119709394Y-142504179D01*
X119769737Y-142358497D01*
X119800500Y-142203842D01*
X119800500Y-142046158D01*
X119800500Y-142046155D01*
X119800499Y-142046153D01*
X119769738Y-141891510D01*
X119769737Y-141891503D01*
X119769735Y-141891498D01*
X119709397Y-141745827D01*
X119709390Y-141745814D01*
X119621789Y-141614711D01*
X119621786Y-141614707D01*
X119510292Y-141503213D01*
X119510288Y-141503210D01*
X119379173Y-141415601D01*
X119358132Y-141390424D01*
X119336207Y-141366016D01*
X119335839Y-141363750D01*
X119334368Y-141361989D01*
X119330279Y-141329433D01*
X119325031Y-141297046D01*
X119325947Y-141294941D01*
X119325661Y-141292664D01*
X119339817Y-141263075D01*
X119352916Y-141232982D01*
X119355194Y-141230935D01*
X119355816Y-141229636D01*
X119379173Y-141209397D01*
X119379175Y-141209395D01*
X119379179Y-141209394D01*
X119431111Y-141174693D01*
X119497786Y-141153816D01*
X119565166Y-141172300D01*
X119568863Y-141174676D01*
X119620821Y-141209394D01*
X119620823Y-141209395D01*
X119620825Y-141209396D01*
X119750262Y-141263010D01*
X119766503Y-141269737D01*
X119903794Y-141297046D01*
X119921153Y-141300499D01*
X119921156Y-141300500D01*
X119921158Y-141300500D01*
X120078844Y-141300500D01*
X120078845Y-141300499D01*
X120233497Y-141269737D01*
X120346166Y-141223067D01*
X120379172Y-141209397D01*
X120379172Y-141209396D01*
X120379179Y-141209394D01*
X120510289Y-141121789D01*
X120621789Y-141010289D01*
X120709394Y-140879179D01*
X120769737Y-140733497D01*
X120800500Y-140578842D01*
X120800500Y-140421158D01*
X120800500Y-140421155D01*
X120800499Y-140421153D01*
X122699500Y-140421153D01*
X122699500Y-140578846D01*
X122730261Y-140733489D01*
X122730264Y-140733501D01*
X122790602Y-140879172D01*
X122790609Y-140879185D01*
X122878210Y-141010288D01*
X122878213Y-141010292D01*
X122989707Y-141121786D01*
X122989711Y-141121789D01*
X123120814Y-141209390D01*
X123120827Y-141209397D01*
X123250262Y-141263010D01*
X123266503Y-141269737D01*
X123403794Y-141297046D01*
X123421153Y-141300499D01*
X123421156Y-141300500D01*
X123421158Y-141300500D01*
X123578844Y-141300500D01*
X123578845Y-141300499D01*
X123733497Y-141269737D01*
X123846166Y-141223067D01*
X123879172Y-141209397D01*
X123879172Y-141209396D01*
X123879179Y-141209394D01*
X124010289Y-141121789D01*
X124121789Y-141010289D01*
X124178778Y-140925000D01*
X124209390Y-140879185D01*
X124209390Y-140879184D01*
X124209394Y-140879179D01*
X124269737Y-140733497D01*
X124300500Y-140578842D01*
X124300500Y-140421158D01*
X124300500Y-140421155D01*
X124300499Y-140421153D01*
X124269738Y-140266510D01*
X124269737Y-140266503D01*
X124211125Y-140125000D01*
X124209397Y-140120827D01*
X124209390Y-140120814D01*
X124121789Y-139989711D01*
X124121786Y-139989707D01*
X124027799Y-139895720D01*
X178175000Y-139895720D01*
X178175000Y-140104279D01*
X178207626Y-140310272D01*
X178272075Y-140508627D01*
X178366759Y-140694451D01*
X178402627Y-140743818D01*
X178402627Y-140743819D01*
X178996624Y-140149822D01*
X179010778Y-140202642D01*
X179079896Y-140322357D01*
X179177643Y-140420104D01*
X179297358Y-140489222D01*
X179350177Y-140503375D01*
X178756179Y-141097371D01*
X178756180Y-141097372D01*
X178805543Y-141133236D01*
X178805556Y-141133244D01*
X178991372Y-141227924D01*
X179189727Y-141292373D01*
X179395721Y-141325000D01*
X179604279Y-141325000D01*
X179810272Y-141292373D01*
X180008627Y-141227924D01*
X180194451Y-141133240D01*
X180243818Y-141097372D01*
X180243818Y-141097371D01*
X179649822Y-140503375D01*
X179702642Y-140489222D01*
X179822357Y-140420104D01*
X179920104Y-140322357D01*
X179989222Y-140202642D01*
X180003375Y-140149822D01*
X180597371Y-140743818D01*
X180597372Y-140743818D01*
X180633240Y-140694451D01*
X180727924Y-140508627D01*
X180792373Y-140310272D01*
X180825000Y-140104279D01*
X180825000Y-139895720D01*
X180792373Y-139689727D01*
X180727924Y-139491372D01*
X180633244Y-139305556D01*
X180633236Y-139305543D01*
X180597372Y-139256180D01*
X180597371Y-139256179D01*
X180003374Y-139850176D01*
X179989222Y-139797358D01*
X179920104Y-139677643D01*
X179822357Y-139579896D01*
X179702642Y-139510778D01*
X179649821Y-139496624D01*
X180243819Y-138902627D01*
X180194451Y-138866759D01*
X180008627Y-138772075D01*
X179810272Y-138707626D01*
X179604279Y-138675000D01*
X179395721Y-138675000D01*
X179189727Y-138707626D01*
X178991372Y-138772075D01*
X178805552Y-138866757D01*
X178756180Y-138902627D01*
X179350178Y-139496624D01*
X179297358Y-139510778D01*
X179177643Y-139579896D01*
X179079896Y-139677643D01*
X179010778Y-139797358D01*
X178996624Y-139850177D01*
X178402627Y-139256180D01*
X178366757Y-139305552D01*
X178272075Y-139491372D01*
X178207626Y-139689727D01*
X178175000Y-139895720D01*
X124027799Y-139895720D01*
X124010292Y-139878213D01*
X124010288Y-139878210D01*
X123879185Y-139790609D01*
X123879172Y-139790602D01*
X123733501Y-139730264D01*
X123733489Y-139730261D01*
X123578845Y-139699500D01*
X123578842Y-139699500D01*
X123421158Y-139699500D01*
X123421155Y-139699500D01*
X123266510Y-139730261D01*
X123266498Y-139730264D01*
X123120827Y-139790602D01*
X123120814Y-139790609D01*
X122989711Y-139878210D01*
X122989707Y-139878213D01*
X122878213Y-139989707D01*
X122878210Y-139989711D01*
X122790609Y-140120814D01*
X122790602Y-140120827D01*
X122730264Y-140266498D01*
X122730261Y-140266510D01*
X122699500Y-140421153D01*
X120800499Y-140421153D01*
X120769738Y-140266510D01*
X120769737Y-140266503D01*
X120711125Y-140125000D01*
X120709397Y-140120827D01*
X120709390Y-140120814D01*
X120621789Y-139989711D01*
X120621786Y-139989707D01*
X120510292Y-139878213D01*
X120510288Y-139878210D01*
X120379185Y-139790609D01*
X120379172Y-139790602D01*
X120233501Y-139730264D01*
X120233489Y-139730261D01*
X120078845Y-139699500D01*
X120078842Y-139699500D01*
X119921158Y-139699500D01*
X119921155Y-139699500D01*
X119766510Y-139730261D01*
X119766498Y-139730264D01*
X119620827Y-139790602D01*
X119620814Y-139790609D01*
X119568891Y-139825304D01*
X119502214Y-139846182D01*
X119434833Y-139827698D01*
X119431109Y-139825304D01*
X119379185Y-139790609D01*
X119379172Y-139790602D01*
X119233501Y-139730264D01*
X119233489Y-139730261D01*
X119078845Y-139699500D01*
X119078842Y-139699500D01*
X118921158Y-139699500D01*
X118921155Y-139699500D01*
X118766510Y-139730261D01*
X118766498Y-139730264D01*
X118620827Y-139790602D01*
X118620814Y-139790609D01*
X118489711Y-139878210D01*
X118489707Y-139878213D01*
X118378213Y-139989707D01*
X118378210Y-139989711D01*
X118290609Y-140120814D01*
X118290602Y-140120827D01*
X118230264Y-140266498D01*
X118230261Y-140266510D01*
X118199500Y-140421153D01*
X111967600Y-140421153D01*
X111649822Y-140103375D01*
X111702642Y-140089222D01*
X111822357Y-140020104D01*
X111920104Y-139922357D01*
X111989222Y-139802642D01*
X112003375Y-139749822D01*
X112597371Y-140343818D01*
X112597372Y-140343818D01*
X112598563Y-140342180D01*
X112598563Y-140342179D01*
X112633240Y-140294450D01*
X112727924Y-140108627D01*
X112792373Y-139910272D01*
X112825000Y-139704279D01*
X112825000Y-139495718D01*
X112792373Y-139289727D01*
X112727922Y-139091367D01*
X112684518Y-139006183D01*
X112684516Y-139006181D01*
X112633244Y-138905556D01*
X112633236Y-138905543D01*
X112597372Y-138856180D01*
X112597371Y-138856179D01*
X112003374Y-139450176D01*
X111989222Y-139397358D01*
X111920104Y-139277643D01*
X111822357Y-139179896D01*
X111702642Y-139110778D01*
X111649821Y-139096624D01*
X112243819Y-138502627D01*
X112194451Y-138466759D01*
X112008627Y-138372075D01*
X111810272Y-138307626D01*
X111604279Y-138275000D01*
X111395721Y-138275000D01*
X111189727Y-138307626D01*
X110991372Y-138372075D01*
X110805552Y-138466757D01*
X110756180Y-138502627D01*
X111350178Y-139096624D01*
X111297358Y-139110778D01*
X111177643Y-139179896D01*
X111079896Y-139277643D01*
X111010778Y-139397358D01*
X110996624Y-139450177D01*
X110402627Y-138856180D01*
X110366757Y-138905552D01*
X110272075Y-139091372D01*
X110207626Y-139289727D01*
X110175000Y-139495718D01*
X101500500Y-139495718D01*
X101500500Y-105232135D01*
X105649500Y-105232135D01*
X105649500Y-107027870D01*
X105649501Y-107027876D01*
X105655908Y-107087483D01*
X105706202Y-107222328D01*
X105706206Y-107222335D01*
X105792452Y-107337544D01*
X105792455Y-107337547D01*
X105907664Y-107423793D01*
X105907671Y-107423797D01*
X106039082Y-107472810D01*
X106095016Y-107514681D01*
X106119433Y-107580145D01*
X106104582Y-107648418D01*
X106083431Y-107676673D01*
X105969889Y-107790215D01*
X105844951Y-107962179D01*
X105748444Y-108151585D01*
X105682753Y-108353760D01*
X105658394Y-108507558D01*
X105649500Y-108563713D01*
X105649500Y-108776287D01*
X105659534Y-108839644D01*
X105682735Y-108986127D01*
X105682754Y-108986243D01*
X105711450Y-109074561D01*
X105748444Y-109188414D01*
X105844951Y-109377820D01*
X105969890Y-109549786D01*
X106120213Y-109700109D01*
X106292179Y-109825048D01*
X106292181Y-109825049D01*
X106292184Y-109825051D01*
X106301493Y-109829794D01*
X106352290Y-109877766D01*
X106369087Y-109945587D01*
X106346552Y-110011722D01*
X106301505Y-110050760D01*
X106292446Y-110055376D01*
X106292440Y-110055380D01*
X106238282Y-110094727D01*
X106238282Y-110094728D01*
X106870591Y-110727037D01*
X106807007Y-110744075D01*
X106692993Y-110809901D01*
X106599901Y-110902993D01*
X106534075Y-111017007D01*
X106517037Y-111080591D01*
X105884728Y-110448282D01*
X105884727Y-110448282D01*
X105845380Y-110502439D01*
X105748904Y-110691782D01*
X105683242Y-110893869D01*
X105683242Y-110893872D01*
X105650000Y-111103753D01*
X105650000Y-111316246D01*
X105683242Y-111526127D01*
X105683242Y-111526130D01*
X105748904Y-111728217D01*
X105845375Y-111917550D01*
X105884728Y-111971716D01*
X106517037Y-111339408D01*
X106534075Y-111402993D01*
X106599901Y-111517007D01*
X106692993Y-111610099D01*
X106807007Y-111675925D01*
X106870591Y-111692962D01*
X106269971Y-112293581D01*
X106348711Y-112410895D01*
X106349920Y-112414729D01*
X106352844Y-112417491D01*
X106360343Y-112447778D01*
X106369727Y-112477529D01*
X106368671Y-112481408D01*
X106369638Y-112485312D01*
X106359573Y-112514844D01*
X106351383Y-112544947D01*
X106348397Y-112547640D01*
X106347100Y-112551447D01*
X106302051Y-112590483D01*
X106292440Y-112595380D01*
X106238282Y-112634727D01*
X106238282Y-112634728D01*
X106870591Y-113267037D01*
X106807007Y-113284075D01*
X106692993Y-113349901D01*
X106599901Y-113442993D01*
X106534075Y-113557007D01*
X106517037Y-113620591D01*
X105884728Y-112988282D01*
X105884727Y-112988282D01*
X105845380Y-113042439D01*
X105748904Y-113231782D01*
X105683242Y-113433869D01*
X105683242Y-113433872D01*
X105650000Y-113643753D01*
X105650000Y-113856246D01*
X105683242Y-114066127D01*
X105683242Y-114066130D01*
X105748904Y-114268217D01*
X105845375Y-114457550D01*
X105884728Y-114511716D01*
X106517037Y-113879408D01*
X106534075Y-113942993D01*
X106599901Y-114057007D01*
X106692993Y-114150099D01*
X106807007Y-114215925D01*
X106870590Y-114232962D01*
X106238282Y-114865269D01*
X106238282Y-114865270D01*
X106292452Y-114904626D01*
X106292451Y-114904626D01*
X106301495Y-114909234D01*
X106352292Y-114957208D01*
X106369087Y-115025029D01*
X106346550Y-115091164D01*
X106301499Y-115130202D01*
X106292182Y-115134949D01*
X106120213Y-115259890D01*
X105969890Y-115410213D01*
X105844951Y-115582179D01*
X105748444Y-115771585D01*
X105682753Y-115973760D01*
X105666109Y-116078846D01*
X105649500Y-116183713D01*
X105649500Y-116396287D01*
X105653439Y-116421155D01*
X105678414Y-116578846D01*
X105682754Y-116606243D01*
X105745872Y-116800500D01*
X105748444Y-116808414D01*
X105844951Y-116997820D01*
X105969890Y-117169786D01*
X106120213Y-117320109D01*
X106292179Y-117445048D01*
X106292181Y-117445049D01*
X106292184Y-117445051D01*
X106301493Y-117449794D01*
X106352290Y-117497766D01*
X106369087Y-117565587D01*
X106346552Y-117631722D01*
X106301505Y-117670760D01*
X106292446Y-117675376D01*
X106292440Y-117675380D01*
X106238282Y-117714727D01*
X106238282Y-117714728D01*
X106870591Y-118347037D01*
X106807007Y-118364075D01*
X106692993Y-118429901D01*
X106599901Y-118522993D01*
X106534075Y-118637007D01*
X106517037Y-118700591D01*
X105884728Y-118068282D01*
X105884727Y-118068282D01*
X105845380Y-118122439D01*
X105748904Y-118311782D01*
X105683242Y-118513869D01*
X105683242Y-118513872D01*
X105650000Y-118723753D01*
X105650000Y-118936246D01*
X105683242Y-119146127D01*
X105683242Y-119146130D01*
X105748904Y-119348217D01*
X105845375Y-119537550D01*
X105884728Y-119591716D01*
X106517037Y-118959408D01*
X106534075Y-119022993D01*
X106599901Y-119137007D01*
X106692993Y-119230099D01*
X106807007Y-119295925D01*
X106870590Y-119312962D01*
X106238282Y-119945269D01*
X106238282Y-119945270D01*
X106292452Y-119984626D01*
X106292451Y-119984626D01*
X106301495Y-119989234D01*
X106352292Y-120037208D01*
X106369087Y-120105029D01*
X106346550Y-120171164D01*
X106301499Y-120210202D01*
X106292182Y-120214949D01*
X106120213Y-120339890D01*
X105969890Y-120490213D01*
X105844951Y-120662179D01*
X105748444Y-120851585D01*
X105682753Y-121053760D01*
X105649500Y-121263713D01*
X105649500Y-121476286D01*
X105682753Y-121686239D01*
X105748444Y-121888414D01*
X105844951Y-122077820D01*
X105969890Y-122249786D01*
X106120213Y-122400109D01*
X106292182Y-122525050D01*
X106300946Y-122529516D01*
X106351742Y-122577491D01*
X106368536Y-122645312D01*
X106345998Y-122711447D01*
X106300946Y-122750484D01*
X106292182Y-122754949D01*
X106120213Y-122879890D01*
X105969890Y-123030213D01*
X105844951Y-123202179D01*
X105748444Y-123391585D01*
X105682753Y-123593760D01*
X105649500Y-123803713D01*
X105649500Y-124016286D01*
X105682753Y-124226239D01*
X105748444Y-124428414D01*
X105844951Y-124617820D01*
X105969890Y-124789786D01*
X106120213Y-124940109D01*
X106292182Y-125065050D01*
X106300946Y-125069516D01*
X106351742Y-125117491D01*
X106368536Y-125185312D01*
X106345998Y-125251447D01*
X106300946Y-125290484D01*
X106292182Y-125294949D01*
X106120213Y-125419890D01*
X105969890Y-125570213D01*
X105844951Y-125742179D01*
X105748444Y-125931585D01*
X105682753Y-126133760D01*
X105649500Y-126343713D01*
X105649500Y-126556286D01*
X105677567Y-126733497D01*
X105682754Y-126766243D01*
X105719451Y-126879185D01*
X105748444Y-126968414D01*
X105844951Y-127157820D01*
X105969890Y-127329786D01*
X106120213Y-127480109D01*
X106292182Y-127605050D01*
X106300946Y-127609516D01*
X106351742Y-127657491D01*
X106368536Y-127725312D01*
X106345998Y-127791447D01*
X106300946Y-127830484D01*
X106292182Y-127834949D01*
X106120213Y-127959890D01*
X105969890Y-128110213D01*
X105844951Y-128282179D01*
X105748444Y-128471585D01*
X105682753Y-128673760D01*
X105649500Y-128883713D01*
X105649500Y-129096286D01*
X105682753Y-129306239D01*
X105748444Y-129508414D01*
X105844951Y-129697820D01*
X105969890Y-129869786D01*
X106120213Y-130020109D01*
X106292179Y-130145048D01*
X106292181Y-130145049D01*
X106292184Y-130145051D01*
X106481588Y-130241557D01*
X106683757Y-130307246D01*
X106893713Y-130340500D01*
X106893714Y-130340500D01*
X107106286Y-130340500D01*
X107106287Y-130340500D01*
X107316243Y-130307246D01*
X107518412Y-130241557D01*
X107707816Y-130145051D01*
X107729789Y-130129086D01*
X107879786Y-130020109D01*
X107879788Y-130020106D01*
X107879792Y-130020104D01*
X108030104Y-129869792D01*
X108030106Y-129869788D01*
X108030109Y-129869786D01*
X108155048Y-129697820D01*
X108155047Y-129697820D01*
X108155051Y-129697816D01*
X108159514Y-129689054D01*
X108207488Y-129638259D01*
X108275308Y-129621463D01*
X108341444Y-129643999D01*
X108380486Y-129689056D01*
X108384951Y-129697820D01*
X108509890Y-129869786D01*
X108660213Y-130020109D01*
X108832179Y-130145048D01*
X108832181Y-130145049D01*
X108832184Y-130145051D01*
X109021588Y-130241557D01*
X109223757Y-130307246D01*
X109433713Y-130340500D01*
X109433714Y-130340500D01*
X109646286Y-130340500D01*
X109646287Y-130340500D01*
X109856243Y-130307246D01*
X110058412Y-130241557D01*
X110247816Y-130145051D01*
X110269789Y-130129086D01*
X110419786Y-130020109D01*
X110419788Y-130020106D01*
X110419792Y-130020104D01*
X110570104Y-129869792D01*
X110570106Y-129869788D01*
X110570109Y-129869786D01*
X110695048Y-129697820D01*
X110695047Y-129697820D01*
X110695051Y-129697816D01*
X110791557Y-129508412D01*
X110857246Y-129306243D01*
X110890500Y-129096287D01*
X110890500Y-128883713D01*
X110857246Y-128673757D01*
X110791557Y-128471588D01*
X110695051Y-128282184D01*
X110695049Y-128282181D01*
X110695048Y-128282179D01*
X110570109Y-128110213D01*
X110419786Y-127959890D01*
X110247820Y-127834951D01*
X110247115Y-127834591D01*
X110239054Y-127830485D01*
X110188259Y-127782512D01*
X110171463Y-127714692D01*
X110193999Y-127648556D01*
X110239054Y-127609515D01*
X110247816Y-127605051D01*
X110269789Y-127589086D01*
X110419786Y-127480109D01*
X110419788Y-127480106D01*
X110419792Y-127480104D01*
X110570104Y-127329792D01*
X110570106Y-127329788D01*
X110570109Y-127329786D01*
X110695048Y-127157820D01*
X110695047Y-127157820D01*
X110695051Y-127157816D01*
X110791557Y-126968412D01*
X110857246Y-126766243D01*
X110890500Y-126556287D01*
X110890500Y-126421153D01*
X138949500Y-126421153D01*
X138949500Y-126578846D01*
X138980261Y-126733489D01*
X138980264Y-126733501D01*
X139040602Y-126879172D01*
X139040609Y-126879185D01*
X139128210Y-127010288D01*
X139128213Y-127010292D01*
X139239707Y-127121786D01*
X139239711Y-127121789D01*
X139370814Y-127209390D01*
X139370827Y-127209397D01*
X139516498Y-127269735D01*
X139516503Y-127269737D01*
X139671153Y-127300499D01*
X139671156Y-127300500D01*
X139671158Y-127300500D01*
X139828844Y-127300500D01*
X139828845Y-127300499D01*
X139983497Y-127269737D01*
X140129179Y-127209394D01*
X140260289Y-127121789D01*
X140371789Y-127010289D01*
X140459394Y-126879179D01*
X140519737Y-126733497D01*
X140550500Y-126578842D01*
X140550500Y-126421158D01*
X140550500Y-126421155D01*
X140550499Y-126421153D01*
X140519738Y-126266510D01*
X140519737Y-126266503D01*
X140519735Y-126266498D01*
X140459397Y-126120827D01*
X140459390Y-126120814D01*
X140371789Y-125989711D01*
X140371786Y-125989707D01*
X140260292Y-125878213D01*
X140260288Y-125878210D01*
X140129185Y-125790609D01*
X140129172Y-125790602D01*
X139983501Y-125730264D01*
X139983489Y-125730261D01*
X139828845Y-125699500D01*
X139828842Y-125699500D01*
X139671158Y-125699500D01*
X139671155Y-125699500D01*
X139516510Y-125730261D01*
X139516498Y-125730264D01*
X139370827Y-125790602D01*
X139370814Y-125790609D01*
X139239711Y-125878210D01*
X139239707Y-125878213D01*
X139128213Y-125989707D01*
X139128210Y-125989711D01*
X139040609Y-126120814D01*
X139040602Y-126120827D01*
X138980264Y-126266498D01*
X138980261Y-126266510D01*
X138949500Y-126421153D01*
X110890500Y-126421153D01*
X110890500Y-126343713D01*
X110857246Y-126133757D01*
X110791557Y-125931588D01*
X110695051Y-125742184D01*
X110695049Y-125742181D01*
X110695048Y-125742179D01*
X110570109Y-125570213D01*
X110419786Y-125419890D01*
X110247820Y-125294951D01*
X110247115Y-125294591D01*
X110239054Y-125290485D01*
X110188259Y-125242512D01*
X110171463Y-125174692D01*
X110193999Y-125108556D01*
X110239054Y-125069515D01*
X110247816Y-125065051D01*
X110269789Y-125049086D01*
X110419786Y-124940109D01*
X110419788Y-124940106D01*
X110419792Y-124940104D01*
X110570104Y-124789792D01*
X110570106Y-124789788D01*
X110570109Y-124789786D01*
X110695048Y-124617820D01*
X110695047Y-124617820D01*
X110695051Y-124617816D01*
X110791557Y-124428412D01*
X110857246Y-124226243D01*
X110890500Y-124016287D01*
X110890500Y-123803713D01*
X110857246Y-123593757D01*
X110791557Y-123391588D01*
X110695051Y-123202184D01*
X110695049Y-123202181D01*
X110695048Y-123202179D01*
X110570109Y-123030213D01*
X110419786Y-122879890D01*
X110247820Y-122754951D01*
X110247115Y-122754591D01*
X110239054Y-122750485D01*
X110188259Y-122702512D01*
X110171463Y-122634692D01*
X110193999Y-122568556D01*
X110239054Y-122529515D01*
X110247816Y-122525051D01*
X110269789Y-122509086D01*
X110419786Y-122400109D01*
X110419788Y-122400106D01*
X110419792Y-122400104D01*
X110570104Y-122249792D01*
X110570106Y-122249788D01*
X110570109Y-122249786D01*
X110695048Y-122077820D01*
X110695047Y-122077820D01*
X110695051Y-122077816D01*
X110791557Y-121888412D01*
X110857246Y-121686243D01*
X110890500Y-121476287D01*
X110890500Y-121263713D01*
X110857246Y-121053757D01*
X110791557Y-120851588D01*
X110695051Y-120662184D01*
X110695049Y-120662181D01*
X110695048Y-120662179D01*
X110570109Y-120490213D01*
X110419792Y-120339896D01*
X110404577Y-120328842D01*
X110247816Y-120214949D01*
X110231840Y-120206808D01*
X110225165Y-120202226D01*
X110208011Y-120181166D01*
X110197409Y-120171153D01*
X131199500Y-120171153D01*
X131199500Y-120328846D01*
X131230261Y-120483489D01*
X131230264Y-120483501D01*
X131290602Y-120629172D01*
X131290609Y-120629185D01*
X131378210Y-120760288D01*
X131378213Y-120760292D01*
X131489707Y-120871786D01*
X131489711Y-120871789D01*
X131620814Y-120959390D01*
X131620827Y-120959397D01*
X131766498Y-121019735D01*
X131766503Y-121019737D01*
X131921153Y-121050499D01*
X131921156Y-121050500D01*
X131921158Y-121050500D01*
X132078844Y-121050500D01*
X132078845Y-121050499D01*
X132233497Y-121019737D01*
X132379179Y-120959394D01*
X132510289Y-120871789D01*
X132621789Y-120760289D01*
X132709394Y-120629179D01*
X132769737Y-120483497D01*
X132800500Y-120328842D01*
X132800500Y-120171158D01*
X132800500Y-120171155D01*
X132800499Y-120171153D01*
X133449500Y-120171153D01*
X133449500Y-120328846D01*
X133480261Y-120483489D01*
X133480264Y-120483501D01*
X133540602Y-120629172D01*
X133540609Y-120629185D01*
X133628210Y-120760288D01*
X133628213Y-120760292D01*
X133739707Y-120871786D01*
X133739711Y-120871789D01*
X133870814Y-120959390D01*
X133870827Y-120959397D01*
X134016498Y-121019735D01*
X134016503Y-121019737D01*
X134171153Y-121050499D01*
X134171156Y-121050500D01*
X134171158Y-121050500D01*
X134328844Y-121050500D01*
X134328845Y-121050499D01*
X134483497Y-121019737D01*
X134629179Y-120959394D01*
X134760289Y-120871789D01*
X134871789Y-120760289D01*
X134959394Y-120629179D01*
X135019737Y-120483497D01*
X135050500Y-120328842D01*
X135050500Y-120171158D01*
X135050500Y-120171155D01*
X135050499Y-120171153D01*
X135035290Y-120094692D01*
X135019737Y-120016503D01*
X135019521Y-120015982D01*
X134959397Y-119870827D01*
X134959390Y-119870814D01*
X134871789Y-119739711D01*
X134871786Y-119739707D01*
X134760292Y-119628213D01*
X134760288Y-119628210D01*
X134629185Y-119540609D01*
X134629172Y-119540602D01*
X134483501Y-119480264D01*
X134483489Y-119480261D01*
X134328845Y-119449500D01*
X134328842Y-119449500D01*
X134171158Y-119449500D01*
X134171155Y-119449500D01*
X134016510Y-119480261D01*
X134016498Y-119480264D01*
X133870827Y-119540602D01*
X133870814Y-119540609D01*
X133739711Y-119628210D01*
X133739707Y-119628213D01*
X133628213Y-119739707D01*
X133628210Y-119739711D01*
X133540609Y-119870814D01*
X133540602Y-119870827D01*
X133480264Y-120016498D01*
X133480261Y-120016510D01*
X133449500Y-120171153D01*
X132800499Y-120171153D01*
X132785290Y-120094692D01*
X132769737Y-120016503D01*
X132769521Y-120015982D01*
X132709397Y-119870827D01*
X132709390Y-119870814D01*
X132621789Y-119739711D01*
X132621786Y-119739707D01*
X132510292Y-119628213D01*
X132510288Y-119628210D01*
X132379185Y-119540609D01*
X132379172Y-119540602D01*
X132233501Y-119480264D01*
X132233489Y-119480261D01*
X132078845Y-119449500D01*
X132078842Y-119449500D01*
X131921158Y-119449500D01*
X131921155Y-119449500D01*
X131766510Y-119480261D01*
X131766498Y-119480264D01*
X131620827Y-119540602D01*
X131620814Y-119540609D01*
X131489711Y-119628210D01*
X131489707Y-119628213D01*
X131378213Y-119739707D01*
X131378210Y-119739711D01*
X131290609Y-119870814D01*
X131290602Y-119870827D01*
X131230264Y-120016498D01*
X131230261Y-120016510D01*
X131199500Y-120171153D01*
X110197409Y-120171153D01*
X110188259Y-120162512D01*
X110186267Y-120154472D01*
X110181039Y-120148053D01*
X110177993Y-120121060D01*
X110171463Y-120094692D01*
X110174133Y-120086854D01*
X110173205Y-120078624D01*
X110185237Y-120054268D01*
X110193999Y-120028556D01*
X110200889Y-120022584D01*
X110204152Y-120015982D01*
X110218346Y-120007458D01*
X110239054Y-119989515D01*
X110247816Y-119985051D01*
X110302572Y-119945269D01*
X110419786Y-119860109D01*
X110419788Y-119860106D01*
X110419792Y-119860104D01*
X110570104Y-119709792D01*
X110570106Y-119709788D01*
X110570109Y-119709786D01*
X110695048Y-119537820D01*
X110695050Y-119537817D01*
X110695051Y-119537816D01*
X110791557Y-119348412D01*
X110857246Y-119146243D01*
X110890500Y-118936287D01*
X110890500Y-118723713D01*
X110857246Y-118513757D01*
X110791557Y-118311588D01*
X110695051Y-118122184D01*
X110695049Y-118122181D01*
X110695048Y-118122179D01*
X110570109Y-117950213D01*
X110419786Y-117799890D01*
X110247820Y-117674951D01*
X110239600Y-117670763D01*
X110239054Y-117670485D01*
X110188259Y-117622512D01*
X110171463Y-117554692D01*
X110193999Y-117488556D01*
X110239054Y-117449515D01*
X110247816Y-117445051D01*
X110287116Y-117416498D01*
X110419786Y-117320109D01*
X110419788Y-117320106D01*
X110419792Y-117320104D01*
X110570104Y-117169792D01*
X110570106Y-117169788D01*
X110570109Y-117169786D01*
X110695048Y-116997820D01*
X110695047Y-116997820D01*
X110695051Y-116997816D01*
X110791557Y-116808412D01*
X110857246Y-116606243D01*
X110890500Y-116396287D01*
X110890500Y-116183713D01*
X110857246Y-115973757D01*
X110791557Y-115771588D01*
X110695051Y-115582184D01*
X110695049Y-115582181D01*
X110695048Y-115582179D01*
X110570109Y-115410213D01*
X110419786Y-115259890D01*
X110247820Y-115134951D01*
X110247115Y-115134591D01*
X110239054Y-115130485D01*
X110236277Y-115127861D01*
X110232571Y-115126934D01*
X110211078Y-115104062D01*
X110188259Y-115082512D01*
X110187340Y-115078803D01*
X110184724Y-115076019D01*
X110179007Y-115045155D01*
X110171463Y-115014692D01*
X110172695Y-115011075D01*
X110171999Y-115007317D01*
X110183877Y-114978258D01*
X110193999Y-114948556D01*
X110197411Y-114945152D01*
X110198437Y-114942643D01*
X110206606Y-114935980D01*
X110221470Y-114921153D01*
X136699500Y-114921153D01*
X136699500Y-115078846D01*
X136730261Y-115233489D01*
X136730264Y-115233501D01*
X136790602Y-115379172D01*
X136790609Y-115379185D01*
X136878210Y-115510288D01*
X136878213Y-115510292D01*
X136989707Y-115621786D01*
X136989711Y-115621789D01*
X137120814Y-115709390D01*
X137120827Y-115709397D01*
X137201847Y-115742956D01*
X137266503Y-115769737D01*
X137421153Y-115800499D01*
X137421156Y-115800500D01*
X137421158Y-115800500D01*
X137578844Y-115800500D01*
X137578845Y-115800499D01*
X137733497Y-115769737D01*
X137780121Y-115750424D01*
X137849588Y-115742956D01*
X137912067Y-115774231D01*
X137947720Y-115834319D01*
X137945227Y-115904144D01*
X137915254Y-115952666D01*
X137878214Y-115989706D01*
X137878210Y-115989711D01*
X137790609Y-116120814D01*
X137790602Y-116120827D01*
X137730264Y-116266498D01*
X137730261Y-116266510D01*
X137699500Y-116421153D01*
X137699500Y-116578846D01*
X137730261Y-116733489D01*
X137730264Y-116733501D01*
X137790602Y-116879172D01*
X137790609Y-116879185D01*
X137878210Y-117010288D01*
X137878213Y-117010292D01*
X137989707Y-117121786D01*
X137989711Y-117121789D01*
X138120814Y-117209390D01*
X138120826Y-117209397D01*
X138172898Y-117230965D01*
X138227302Y-117274805D01*
X138249367Y-117341099D01*
X138240008Y-117392977D01*
X138230262Y-117416506D01*
X138230260Y-117416511D01*
X138199500Y-117571153D01*
X138199500Y-117728846D01*
X138230261Y-117883489D01*
X138230264Y-117883501D01*
X138290602Y-118029172D01*
X138290609Y-118029185D01*
X138378210Y-118160288D01*
X138378213Y-118160292D01*
X138489707Y-118271786D01*
X138489711Y-118271789D01*
X138620814Y-118359390D01*
X138620827Y-118359397D01*
X138766498Y-118419735D01*
X138766503Y-118419737D01*
X138921153Y-118450499D01*
X138921156Y-118450500D01*
X138921158Y-118450500D01*
X139078844Y-118450500D01*
X139078845Y-118450499D01*
X139233497Y-118419737D01*
X139379179Y-118359394D01*
X139510289Y-118271789D01*
X139621789Y-118160289D01*
X139709394Y-118029179D01*
X139769737Y-117883497D01*
X139800500Y-117728842D01*
X139800500Y-117571158D01*
X139800500Y-117571155D01*
X139800499Y-117571153D01*
X139799337Y-117565312D01*
X139769737Y-117416503D01*
X139729808Y-117320104D01*
X139709397Y-117270827D01*
X139709390Y-117270814D01*
X139621789Y-117139711D01*
X139621786Y-117139707D01*
X139510292Y-117028213D01*
X139510288Y-117028210D01*
X139379185Y-116940609D01*
X139379176Y-116940604D01*
X139327100Y-116919034D01*
X139272697Y-116875193D01*
X139250632Y-116808899D01*
X139259993Y-116757020D01*
X139269737Y-116733497D01*
X139300500Y-116578842D01*
X139300500Y-116421158D01*
X139300500Y-116421155D01*
X139300499Y-116421153D01*
X139269738Y-116266510D01*
X139269737Y-116266503D01*
X139235445Y-116183713D01*
X139209397Y-116120827D01*
X139209390Y-116120814D01*
X139121790Y-115989712D01*
X139121784Y-115989705D01*
X139053232Y-115921153D01*
X142699500Y-115921153D01*
X142699500Y-116078846D01*
X142730261Y-116233489D01*
X142730264Y-116233501D01*
X142790602Y-116379172D01*
X142790609Y-116379185D01*
X142878210Y-116510288D01*
X142878213Y-116510292D01*
X142989707Y-116621786D01*
X142989711Y-116621789D01*
X143120814Y-116709390D01*
X143120827Y-116709397D01*
X143266498Y-116769735D01*
X143266503Y-116769737D01*
X143421153Y-116800499D01*
X143421156Y-116800500D01*
X143421158Y-116800500D01*
X143578844Y-116800500D01*
X143578845Y-116800499D01*
X143733497Y-116769737D01*
X143879179Y-116709394D01*
X144010289Y-116621789D01*
X144121789Y-116510289D01*
X144209394Y-116379179D01*
X144269737Y-116233497D01*
X144300500Y-116078842D01*
X144300500Y-115921158D01*
X144300500Y-115921155D01*
X144300499Y-115921153D01*
X144291957Y-115878210D01*
X144269737Y-115766503D01*
X144259984Y-115742956D01*
X144209397Y-115620827D01*
X144209390Y-115620814D01*
X144121789Y-115489711D01*
X144121786Y-115489707D01*
X144010292Y-115378213D01*
X144010288Y-115378210D01*
X143879185Y-115290609D01*
X143879172Y-115290602D01*
X143733501Y-115230264D01*
X143733489Y-115230261D01*
X143578845Y-115199500D01*
X143578842Y-115199500D01*
X143421158Y-115199500D01*
X143421155Y-115199500D01*
X143266510Y-115230261D01*
X143266498Y-115230264D01*
X143120827Y-115290602D01*
X143120814Y-115290609D01*
X142989711Y-115378210D01*
X142989707Y-115378213D01*
X142878213Y-115489707D01*
X142878210Y-115489711D01*
X142790609Y-115620814D01*
X142790602Y-115620827D01*
X142730264Y-115766498D01*
X142730261Y-115766510D01*
X142699500Y-115921153D01*
X139053232Y-115921153D01*
X139010292Y-115878213D01*
X139010288Y-115878210D01*
X138879185Y-115790609D01*
X138879172Y-115790602D01*
X138733501Y-115730264D01*
X138733489Y-115730261D01*
X138578845Y-115699500D01*
X138578842Y-115699500D01*
X138421158Y-115699500D01*
X138421155Y-115699500D01*
X138266510Y-115730261D01*
X138266502Y-115730263D01*
X138219878Y-115749575D01*
X138150408Y-115757042D01*
X138087930Y-115725766D01*
X138052278Y-115665677D01*
X138054773Y-115595852D01*
X138084747Y-115547331D01*
X138121786Y-115510292D01*
X138121789Y-115510289D01*
X138209394Y-115379179D01*
X138269737Y-115233497D01*
X138300500Y-115078842D01*
X138300500Y-114921158D01*
X138300500Y-114921155D01*
X138300499Y-114921153D01*
X138272443Y-114780109D01*
X138269737Y-114766503D01*
X138213110Y-114629792D01*
X138209397Y-114620827D01*
X138209390Y-114620814D01*
X138121789Y-114489711D01*
X138121786Y-114489707D01*
X138010292Y-114378213D01*
X138010288Y-114378210D01*
X137879185Y-114290609D01*
X137879172Y-114290602D01*
X137733501Y-114230264D01*
X137733489Y-114230261D01*
X137578845Y-114199500D01*
X137578842Y-114199500D01*
X137421158Y-114199500D01*
X137421155Y-114199500D01*
X137266510Y-114230261D01*
X137266498Y-114230264D01*
X137120827Y-114290602D01*
X137120814Y-114290609D01*
X136989711Y-114378210D01*
X136989707Y-114378213D01*
X136878213Y-114489707D01*
X136878210Y-114489711D01*
X136790609Y-114620814D01*
X136790602Y-114620827D01*
X136730264Y-114766498D01*
X136730261Y-114766510D01*
X136699500Y-114921153D01*
X110221470Y-114921153D01*
X110224157Y-114918473D01*
X110231288Y-114913471D01*
X110247816Y-114905051D01*
X110372951Y-114814135D01*
X110372972Y-114814121D01*
X110419785Y-114780109D01*
X110419783Y-114780109D01*
X110419792Y-114780104D01*
X110570104Y-114629792D01*
X110570106Y-114629788D01*
X110570109Y-114629786D01*
X110695048Y-114457820D01*
X110695050Y-114457817D01*
X110695051Y-114457816D01*
X110791557Y-114268412D01*
X110857246Y-114066243D01*
X110890500Y-113856287D01*
X110890500Y-113643713D01*
X110857246Y-113433757D01*
X110791557Y-113231588D01*
X110695051Y-113042184D01*
X110695049Y-113042181D01*
X110695048Y-113042179D01*
X110570109Y-112870213D01*
X110419786Y-112719890D01*
X110247817Y-112594949D01*
X110238504Y-112590204D01*
X110187707Y-112542230D01*
X110170912Y-112474409D01*
X110193449Y-112408274D01*
X110238507Y-112369232D01*
X110247555Y-112364622D01*
X110301716Y-112325270D01*
X110301717Y-112325270D01*
X109669408Y-111692962D01*
X109732993Y-111675925D01*
X109847007Y-111610099D01*
X109940099Y-111517007D01*
X110005925Y-111402993D01*
X110022962Y-111339409D01*
X110655270Y-111971717D01*
X110655270Y-111971716D01*
X110692007Y-111921153D01*
X138199500Y-111921153D01*
X138199500Y-112078846D01*
X138230261Y-112233489D01*
X138230264Y-112233501D01*
X138290602Y-112379172D01*
X138290609Y-112379185D01*
X138378210Y-112510288D01*
X138378213Y-112510292D01*
X138489707Y-112621786D01*
X138489711Y-112621789D01*
X138620814Y-112709390D01*
X138620827Y-112709397D01*
X138766498Y-112769735D01*
X138766503Y-112769737D01*
X138921153Y-112800499D01*
X138921156Y-112800500D01*
X138921158Y-112800500D01*
X139078844Y-112800500D01*
X139078845Y-112800499D01*
X139233497Y-112769737D01*
X139379179Y-112709394D01*
X139510289Y-112621789D01*
X139621789Y-112510289D01*
X139709394Y-112379179D01*
X139769737Y-112233497D01*
X139800500Y-112078842D01*
X139800500Y-111921158D01*
X139800500Y-111921155D01*
X139800499Y-111921153D01*
X139792451Y-111880692D01*
X139769737Y-111766503D01*
X139769735Y-111766498D01*
X139709397Y-111620827D01*
X139709390Y-111620814D01*
X139621789Y-111489711D01*
X139621786Y-111489707D01*
X139510292Y-111378213D01*
X139510288Y-111378210D01*
X139379185Y-111290609D01*
X139379172Y-111290602D01*
X139233501Y-111230264D01*
X139233489Y-111230261D01*
X139078845Y-111199500D01*
X139078842Y-111199500D01*
X138921158Y-111199500D01*
X138921155Y-111199500D01*
X138766510Y-111230261D01*
X138766498Y-111230264D01*
X138620827Y-111290602D01*
X138620814Y-111290609D01*
X138489711Y-111378210D01*
X138489707Y-111378213D01*
X138378213Y-111489707D01*
X138378210Y-111489711D01*
X138290609Y-111620814D01*
X138290602Y-111620827D01*
X138230264Y-111766498D01*
X138230261Y-111766510D01*
X138199500Y-111921153D01*
X110692007Y-111921153D01*
X110694624Y-111917551D01*
X110724576Y-111858770D01*
X110791095Y-111728217D01*
X110856757Y-111526130D01*
X110856757Y-111526127D01*
X110890000Y-111316246D01*
X110890000Y-111103753D01*
X110856757Y-110893872D01*
X110856757Y-110893869D01*
X110791095Y-110691782D01*
X110694624Y-110502449D01*
X110655270Y-110448282D01*
X110655269Y-110448282D01*
X110022962Y-111080590D01*
X110005925Y-111017007D01*
X109940099Y-110902993D01*
X109847007Y-110809901D01*
X109732993Y-110744075D01*
X109669409Y-110727037D01*
X110301716Y-110094728D01*
X110247550Y-110055375D01*
X110237954Y-110050486D01*
X110187157Y-110002512D01*
X110170361Y-109934692D01*
X110192897Y-109868556D01*
X110237954Y-109829514D01*
X110247554Y-109824622D01*
X110301716Y-109785270D01*
X110301717Y-109785270D01*
X109669408Y-109152962D01*
X109732993Y-109135925D01*
X109847007Y-109070099D01*
X109940099Y-108977007D01*
X110005925Y-108862993D01*
X110022962Y-108799409D01*
X110655270Y-109431717D01*
X110655270Y-109431716D01*
X110694622Y-109377554D01*
X110791095Y-109188217D01*
X110856757Y-108986130D01*
X110856757Y-108986127D01*
X110888855Y-108783478D01*
X143574500Y-108783478D01*
X143574500Y-108941171D01*
X143605261Y-109095814D01*
X143605264Y-109095826D01*
X143665602Y-109241497D01*
X143665609Y-109241510D01*
X143753210Y-109372613D01*
X143753213Y-109372617D01*
X143864707Y-109484111D01*
X143864711Y-109484114D01*
X143995814Y-109571715D01*
X143995827Y-109571722D01*
X144141088Y-109631890D01*
X144195492Y-109675730D01*
X144217557Y-109742024D01*
X144200278Y-109809724D01*
X144196739Y-109815341D01*
X144165607Y-109861933D01*
X144165601Y-109861944D01*
X144105263Y-110007615D01*
X144105260Y-110007627D01*
X144074499Y-110162270D01*
X144074499Y-110319963D01*
X144105260Y-110474606D01*
X144105263Y-110474618D01*
X144165601Y-110620289D01*
X144165608Y-110620302D01*
X144253209Y-110751405D01*
X144253212Y-110751409D01*
X144364706Y-110862903D01*
X144364710Y-110862906D01*
X144495813Y-110950507D01*
X144495826Y-110950514D01*
X144594096Y-110991218D01*
X144641502Y-111010854D01*
X144796152Y-111041616D01*
X144796155Y-111041617D01*
X144796157Y-111041617D01*
X144953842Y-111041617D01*
X144966928Y-111039013D01*
X145000151Y-111032405D01*
X145069742Y-111038631D01*
X145124920Y-111081494D01*
X145148165Y-111147383D01*
X145138905Y-111201473D01*
X145111345Y-111268010D01*
X145111344Y-111268013D01*
X145111344Y-111268014D01*
X145111343Y-111268017D01*
X145080582Y-111422660D01*
X145080582Y-111580353D01*
X145111343Y-111734996D01*
X145111346Y-111735008D01*
X145171684Y-111880679D01*
X145171691Y-111880692D01*
X145259292Y-112011795D01*
X145259295Y-112011799D01*
X145370789Y-112123293D01*
X145370793Y-112123296D01*
X145501896Y-112210897D01*
X145501909Y-112210904D01*
X145623124Y-112261112D01*
X145647585Y-112271244D01*
X145759880Y-112293581D01*
X145802235Y-112302006D01*
X145802238Y-112302007D01*
X145802240Y-112302007D01*
X145959926Y-112302007D01*
X145959927Y-112302006D01*
X146114579Y-112271244D01*
X146245831Y-112216877D01*
X146315300Y-112209409D01*
X146340730Y-112216876D01*
X146447523Y-112261111D01*
X146602173Y-112291873D01*
X146602176Y-112291874D01*
X146602178Y-112291874D01*
X146759864Y-112291874D01*
X146759865Y-112291873D01*
X146914517Y-112261111D01*
X147032645Y-112212180D01*
X147102114Y-112204712D01*
X147127550Y-112212181D01*
X147266503Y-112269737D01*
X147421153Y-112300499D01*
X147421156Y-112300500D01*
X147421158Y-112300500D01*
X147578844Y-112300500D01*
X147578845Y-112300499D01*
X147733497Y-112269737D01*
X147875541Y-112210901D01*
X147879172Y-112209397D01*
X147879172Y-112209396D01*
X147879179Y-112209394D01*
X148010289Y-112121789D01*
X148121789Y-112010289D01*
X148209394Y-111879179D01*
X148269737Y-111733497D01*
X148300500Y-111578842D01*
X148300500Y-111421158D01*
X148300500Y-111421155D01*
X148300499Y-111421153D01*
X148291957Y-111378210D01*
X148269737Y-111266503D01*
X148269735Y-111266498D01*
X148209397Y-111120827D01*
X148209390Y-111120814D01*
X148121789Y-110989711D01*
X148121786Y-110989707D01*
X148010292Y-110878213D01*
X148010288Y-110878210D01*
X147879185Y-110790609D01*
X147879172Y-110790602D01*
X147733501Y-110730264D01*
X147733489Y-110730261D01*
X147578845Y-110699500D01*
X147578842Y-110699500D01*
X147421158Y-110699500D01*
X147421155Y-110699500D01*
X147266510Y-110730261D01*
X147266498Y-110730264D01*
X147148375Y-110779192D01*
X147078906Y-110786661D01*
X147053471Y-110779192D01*
X146914521Y-110721638D01*
X146914509Y-110721635D01*
X146759865Y-110690874D01*
X146759862Y-110690874D01*
X146602178Y-110690874D01*
X146602175Y-110690874D01*
X146447530Y-110721635D01*
X146447518Y-110721638D01*
X146316271Y-110776002D01*
X146246802Y-110783471D01*
X146221367Y-110776002D01*
X146114583Y-110731771D01*
X146114571Y-110731768D01*
X145959927Y-110701007D01*
X145959924Y-110701007D01*
X145802240Y-110701007D01*
X145755927Y-110710219D01*
X145686336Y-110703991D01*
X145631159Y-110661127D01*
X145607915Y-110595237D01*
X145617175Y-110541151D01*
X145644736Y-110474614D01*
X145675499Y-110319959D01*
X145675499Y-110229275D01*
X145695184Y-110162236D01*
X145747988Y-110116481D01*
X145775307Y-110107658D01*
X145925439Y-110077795D01*
X146038108Y-110031125D01*
X146071114Y-110017455D01*
X146071114Y-110017454D01*
X146071121Y-110017452D01*
X146202231Y-109929847D01*
X146313731Y-109818347D01*
X146401336Y-109687237D01*
X146461679Y-109541555D01*
X146492442Y-109386900D01*
X146492442Y-109229216D01*
X146492442Y-109229213D01*
X146492441Y-109229211D01*
X146484326Y-109188414D01*
X146461679Y-109074561D01*
X146459831Y-109070099D01*
X146401339Y-108928885D01*
X146401332Y-108928872D01*
X146313731Y-108797769D01*
X146313728Y-108797765D01*
X146202234Y-108686271D01*
X146202230Y-108686268D01*
X146071127Y-108598667D01*
X146071114Y-108598660D01*
X145925443Y-108538322D01*
X145925431Y-108538319D01*
X145770787Y-108507558D01*
X145770784Y-108507558D01*
X145613100Y-108507558D01*
X145613097Y-108507558D01*
X145458452Y-108538319D01*
X145458440Y-108538322D01*
X145312769Y-108598660D01*
X145312753Y-108598669D01*
X145297003Y-108609193D01*
X145230325Y-108630070D01*
X145162945Y-108611584D01*
X145116256Y-108559605D01*
X145113553Y-108553542D01*
X145084397Y-108483152D01*
X145084390Y-108483139D01*
X144996789Y-108352036D01*
X144996786Y-108352032D01*
X144885292Y-108240538D01*
X144885288Y-108240535D01*
X144754185Y-108152934D01*
X144754172Y-108152927D01*
X144608501Y-108092589D01*
X144608489Y-108092586D01*
X144453845Y-108061825D01*
X144453842Y-108061825D01*
X144296158Y-108061825D01*
X144296155Y-108061825D01*
X144141510Y-108092586D01*
X144141498Y-108092589D01*
X143995827Y-108152927D01*
X143995814Y-108152934D01*
X143864711Y-108240535D01*
X143864707Y-108240538D01*
X143753213Y-108352032D01*
X143753210Y-108352036D01*
X143665609Y-108483139D01*
X143665602Y-108483152D01*
X143605264Y-108628823D01*
X143605261Y-108628835D01*
X143574500Y-108783478D01*
X110888855Y-108783478D01*
X110890000Y-108776246D01*
X110890000Y-108563753D01*
X110856757Y-108353872D01*
X110856757Y-108353869D01*
X110791095Y-108151782D01*
X110694624Y-107962449D01*
X110655270Y-107908282D01*
X110655269Y-107908282D01*
X110022962Y-108540590D01*
X110005925Y-108477007D01*
X109940099Y-108362993D01*
X109847007Y-108269901D01*
X109732993Y-108204075D01*
X109669409Y-108187037D01*
X110301716Y-107554728D01*
X110247547Y-107515373D01*
X110247547Y-107515372D01*
X110238500Y-107510763D01*
X110187706Y-107462788D01*
X110170912Y-107394966D01*
X110193451Y-107328832D01*
X110238508Y-107289793D01*
X110247816Y-107285051D01*
X110334147Y-107222328D01*
X110419786Y-107160109D01*
X110419788Y-107160106D01*
X110419792Y-107160104D01*
X110570104Y-107009792D01*
X110634504Y-106921153D01*
X141699500Y-106921153D01*
X141699500Y-107078846D01*
X141730261Y-107233489D01*
X141730264Y-107233501D01*
X141790602Y-107379172D01*
X141790609Y-107379185D01*
X141878210Y-107510288D01*
X141878213Y-107510292D01*
X141989707Y-107621786D01*
X141989711Y-107621789D01*
X142120814Y-107709390D01*
X142120827Y-107709397D01*
X142266498Y-107769735D01*
X142266503Y-107769737D01*
X142421153Y-107800499D01*
X142421156Y-107800500D01*
X142421158Y-107800500D01*
X142578844Y-107800500D01*
X142578845Y-107800499D01*
X142733497Y-107769737D01*
X142879179Y-107709394D01*
X143010289Y-107621789D01*
X143121789Y-107510289D01*
X143209394Y-107379179D01*
X143269737Y-107233497D01*
X143300500Y-107078842D01*
X143300500Y-106921158D01*
X143300500Y-106921155D01*
X143300499Y-106921153D01*
X143284790Y-106842178D01*
X143269737Y-106766503D01*
X143269735Y-106766498D01*
X143209397Y-106620827D01*
X143209390Y-106620814D01*
X143121789Y-106489711D01*
X143121786Y-106489707D01*
X143010292Y-106378213D01*
X143010288Y-106378210D01*
X142879185Y-106290609D01*
X142879172Y-106290602D01*
X142733501Y-106230264D01*
X142733489Y-106230261D01*
X142578845Y-106199500D01*
X142578842Y-106199500D01*
X142421158Y-106199500D01*
X142421155Y-106199500D01*
X142266510Y-106230261D01*
X142266498Y-106230264D01*
X142120827Y-106290602D01*
X142120814Y-106290609D01*
X141989711Y-106378210D01*
X141989707Y-106378213D01*
X141878213Y-106489707D01*
X141878210Y-106489711D01*
X141790609Y-106620814D01*
X141790602Y-106620827D01*
X141730264Y-106766498D01*
X141730261Y-106766510D01*
X141699500Y-106921153D01*
X110634504Y-106921153D01*
X110695051Y-106837816D01*
X110791557Y-106648412D01*
X110857246Y-106446243D01*
X110890500Y-106236287D01*
X110890500Y-106023713D01*
X110857246Y-105813757D01*
X110791557Y-105611588D01*
X110695051Y-105422184D01*
X110695049Y-105422181D01*
X110695048Y-105422179D01*
X110570109Y-105250213D01*
X110419786Y-105099890D01*
X110247820Y-104974951D01*
X110058414Y-104878444D01*
X110058413Y-104878443D01*
X110058412Y-104878443D01*
X109856243Y-104812754D01*
X109856241Y-104812753D01*
X109856240Y-104812753D01*
X109694957Y-104787208D01*
X109646287Y-104779500D01*
X109433713Y-104779500D01*
X109385042Y-104787208D01*
X109223760Y-104812753D01*
X109021585Y-104878444D01*
X108832179Y-104974951D01*
X108660215Y-105099889D01*
X108546673Y-105213431D01*
X108485350Y-105246915D01*
X108415658Y-105241931D01*
X108359725Y-105200059D01*
X108342810Y-105169082D01*
X108293797Y-105037671D01*
X108293793Y-105037664D01*
X108207547Y-104922455D01*
X108207544Y-104922452D01*
X108092335Y-104836206D01*
X108092328Y-104836202D01*
X107957482Y-104785908D01*
X107957483Y-104785908D01*
X107897883Y-104779501D01*
X107897881Y-104779500D01*
X107897873Y-104779500D01*
X107897864Y-104779500D01*
X106102129Y-104779500D01*
X106102123Y-104779501D01*
X106042516Y-104785908D01*
X105907671Y-104836202D01*
X105907664Y-104836206D01*
X105792455Y-104922452D01*
X105792452Y-104922455D01*
X105706206Y-105037664D01*
X105706202Y-105037671D01*
X105655908Y-105172517D01*
X105649501Y-105232116D01*
X105649500Y-105232135D01*
X101500500Y-105232135D01*
X101500500Y-100131902D01*
X126249500Y-100131902D01*
X126249500Y-100368097D01*
X126286446Y-100601368D01*
X126359433Y-100825996D01*
X126442849Y-100989707D01*
X126466657Y-101036433D01*
X126605483Y-101227510D01*
X126772490Y-101394517D01*
X126963567Y-101533343D01*
X127052864Y-101578842D01*
X127174003Y-101640566D01*
X127174005Y-101640566D01*
X127174008Y-101640568D01*
X127294412Y-101679689D01*
X127398631Y-101713553D01*
X127631903Y-101750500D01*
X127631908Y-101750500D01*
X127868097Y-101750500D01*
X128101368Y-101713553D01*
X128325992Y-101640568D01*
X128536433Y-101533343D01*
X128727510Y-101394517D01*
X128894517Y-101227510D01*
X129033343Y-101036433D01*
X129140568Y-100825992D01*
X129213553Y-100601368D01*
X129250500Y-100368097D01*
X129250500Y-100131902D01*
X132749500Y-100131902D01*
X132749500Y-100368097D01*
X132786446Y-100601368D01*
X132859433Y-100825996D01*
X132942849Y-100989707D01*
X132966657Y-101036433D01*
X133105483Y-101227510D01*
X133272490Y-101394517D01*
X133463567Y-101533343D01*
X133552864Y-101578842D01*
X133674003Y-101640566D01*
X133674005Y-101640566D01*
X133674008Y-101640568D01*
X133794412Y-101679689D01*
X133898631Y-101713553D01*
X134131903Y-101750500D01*
X134131908Y-101750500D01*
X134368097Y-101750500D01*
X134601368Y-101713553D01*
X134825992Y-101640568D01*
X135036433Y-101533343D01*
X135190849Y-101421153D01*
X142699500Y-101421153D01*
X142699500Y-101578846D01*
X142730261Y-101733489D01*
X142730264Y-101733501D01*
X142790602Y-101879172D01*
X142790609Y-101879185D01*
X142878210Y-102010288D01*
X142878213Y-102010292D01*
X142989707Y-102121786D01*
X142989711Y-102121789D01*
X143120814Y-102209390D01*
X143120827Y-102209397D01*
X143266498Y-102269735D01*
X143266503Y-102269737D01*
X143421153Y-102300499D01*
X143421156Y-102300500D01*
X143421158Y-102300500D01*
X143578844Y-102300500D01*
X143578845Y-102300499D01*
X143733497Y-102269737D01*
X143879179Y-102209394D01*
X144010289Y-102121789D01*
X144121789Y-102010289D01*
X144209394Y-101879179D01*
X144269737Y-101733497D01*
X144300500Y-101578842D01*
X144300500Y-101421158D01*
X144300500Y-101421155D01*
X144300499Y-101421153D01*
X144269738Y-101266510D01*
X144269737Y-101266503D01*
X144253586Y-101227510D01*
X144209397Y-101120827D01*
X144209390Y-101120814D01*
X144121789Y-100989711D01*
X144121786Y-100989707D01*
X144010292Y-100878213D01*
X144010288Y-100878210D01*
X143879185Y-100790609D01*
X143879172Y-100790602D01*
X143733501Y-100730264D01*
X143733489Y-100730261D01*
X143578845Y-100699500D01*
X143578842Y-100699500D01*
X143421158Y-100699500D01*
X143421155Y-100699500D01*
X143266510Y-100730261D01*
X143266498Y-100730264D01*
X143120827Y-100790602D01*
X143120814Y-100790609D01*
X142989711Y-100878210D01*
X142989707Y-100878213D01*
X142878213Y-100989707D01*
X142878210Y-100989711D01*
X142790609Y-101120814D01*
X142790602Y-101120827D01*
X142730264Y-101266498D01*
X142730261Y-101266510D01*
X142699500Y-101421153D01*
X135190849Y-101421153D01*
X135227510Y-101394517D01*
X135394517Y-101227510D01*
X135533343Y-101036433D01*
X135640568Y-100825992D01*
X135713553Y-100601368D01*
X135750500Y-100368097D01*
X135750500Y-100131902D01*
X135713553Y-99898631D01*
X135640566Y-99674003D01*
X135560343Y-99516557D01*
X135533343Y-99463567D01*
X135394517Y-99272490D01*
X135227510Y-99105483D01*
X135036433Y-98966657D01*
X134971883Y-98933767D01*
X134825996Y-98859433D01*
X134601368Y-98786446D01*
X134368097Y-98749500D01*
X134368092Y-98749500D01*
X134131908Y-98749500D01*
X134131903Y-98749500D01*
X133898631Y-98786446D01*
X133674003Y-98859433D01*
X133463566Y-98966657D01*
X133354550Y-99045862D01*
X133272490Y-99105483D01*
X133272488Y-99105485D01*
X133272487Y-99105485D01*
X133105485Y-99272487D01*
X133105485Y-99272488D01*
X133105483Y-99272490D01*
X133055698Y-99341013D01*
X132966657Y-99463566D01*
X132859433Y-99674003D01*
X132786446Y-99898631D01*
X132749500Y-100131902D01*
X129250500Y-100131902D01*
X129213553Y-99898631D01*
X129140566Y-99674003D01*
X129060343Y-99516557D01*
X129033343Y-99463567D01*
X128894517Y-99272490D01*
X128727510Y-99105483D01*
X128536433Y-98966657D01*
X128471883Y-98933767D01*
X128325996Y-98859433D01*
X128101368Y-98786446D01*
X127868097Y-98749500D01*
X127868092Y-98749500D01*
X127631908Y-98749500D01*
X127631903Y-98749500D01*
X127398631Y-98786446D01*
X127174003Y-98859433D01*
X126963566Y-98966657D01*
X126854550Y-99045862D01*
X126772490Y-99105483D01*
X126772488Y-99105485D01*
X126772487Y-99105485D01*
X126605485Y-99272487D01*
X126605485Y-99272488D01*
X126605483Y-99272490D01*
X126555698Y-99341013D01*
X126466657Y-99463566D01*
X126359433Y-99674003D01*
X126286446Y-99898631D01*
X126249500Y-100131902D01*
X101500500Y-100131902D01*
X101500500Y-95618713D01*
X115109500Y-95618713D01*
X115109500Y-95831287D01*
X115142754Y-96041243D01*
X115196451Y-96206506D01*
X115208444Y-96243414D01*
X115304951Y-96432820D01*
X115429890Y-96604786D01*
X115580213Y-96755109D01*
X115752182Y-96880050D01*
X115760946Y-96884516D01*
X115811742Y-96932491D01*
X115828536Y-97000312D01*
X115805998Y-97066447D01*
X115760946Y-97105484D01*
X115752182Y-97109949D01*
X115580213Y-97234890D01*
X115429890Y-97385213D01*
X115304951Y-97557179D01*
X115208444Y-97746585D01*
X115142753Y-97948760D01*
X115109500Y-98158713D01*
X115109500Y-98371286D01*
X115128923Y-98493922D01*
X115142754Y-98581243D01*
X115202861Y-98766233D01*
X115208444Y-98783414D01*
X115304951Y-98972820D01*
X115429890Y-99144786D01*
X115580213Y-99295109D01*
X115752179Y-99420048D01*
X115752181Y-99420049D01*
X115752184Y-99420051D01*
X115941588Y-99516557D01*
X116143757Y-99582246D01*
X116353713Y-99615500D01*
X116353714Y-99615500D01*
X116566286Y-99615500D01*
X116566287Y-99615500D01*
X116776243Y-99582246D01*
X116978412Y-99516557D01*
X117167816Y-99420051D01*
X117206202Y-99392162D01*
X117339786Y-99295109D01*
X117339788Y-99295106D01*
X117339792Y-99295104D01*
X117490104Y-99144792D01*
X117490106Y-99144788D01*
X117490109Y-99144786D01*
X117615048Y-98972820D01*
X117615047Y-98972820D01*
X117615051Y-98972816D01*
X117619514Y-98964054D01*
X117667488Y-98913259D01*
X117735308Y-98896463D01*
X117801444Y-98918999D01*
X117840486Y-98964056D01*
X117844951Y-98972820D01*
X117969890Y-99144786D01*
X118120213Y-99295109D01*
X118292179Y-99420048D01*
X118292181Y-99420049D01*
X118292184Y-99420051D01*
X118481588Y-99516557D01*
X118683757Y-99582246D01*
X118893713Y-99615500D01*
X118893714Y-99615500D01*
X119106286Y-99615500D01*
X119106287Y-99615500D01*
X119316243Y-99582246D01*
X119518412Y-99516557D01*
X119707816Y-99420051D01*
X119746202Y-99392162D01*
X119879786Y-99295109D01*
X119879788Y-99295106D01*
X119879792Y-99295104D01*
X120030104Y-99144792D01*
X120030106Y-99144788D01*
X120030109Y-99144786D01*
X120155048Y-98972820D01*
X120155047Y-98972820D01*
X120155051Y-98972816D01*
X120159514Y-98964054D01*
X120207488Y-98913259D01*
X120275308Y-98896463D01*
X120341444Y-98918999D01*
X120380486Y-98964056D01*
X120384951Y-98972820D01*
X120509890Y-99144786D01*
X120660213Y-99295109D01*
X120832179Y-99420048D01*
X120832181Y-99420049D01*
X120832184Y-99420051D01*
X121021588Y-99516557D01*
X121223757Y-99582246D01*
X121433713Y-99615500D01*
X121433714Y-99615500D01*
X121646286Y-99615500D01*
X121646287Y-99615500D01*
X121856243Y-99582246D01*
X122058412Y-99516557D01*
X122247816Y-99420051D01*
X122286202Y-99392162D01*
X122419786Y-99295109D01*
X122419788Y-99295106D01*
X122419792Y-99295104D01*
X122570104Y-99144792D01*
X122570106Y-99144788D01*
X122570109Y-99144786D01*
X122695048Y-98972820D01*
X122695047Y-98972820D01*
X122695051Y-98972816D01*
X122791557Y-98783412D01*
X122857246Y-98581243D01*
X122890500Y-98371287D01*
X122890500Y-98158713D01*
X122890500Y-98158712D01*
X122879306Y-98088035D01*
X122857246Y-97948760D01*
X122857246Y-97948757D01*
X122791557Y-97746588D01*
X122695051Y-97557184D01*
X122695049Y-97557181D01*
X122695048Y-97557179D01*
X122570109Y-97385213D01*
X122456569Y-97271673D01*
X122423084Y-97210350D01*
X122428068Y-97140658D01*
X122469940Y-97084725D01*
X122500915Y-97067810D01*
X122632331Y-97018796D01*
X122747546Y-96932546D01*
X122833796Y-96817331D01*
X122884091Y-96682483D01*
X122890500Y-96622873D01*
X122890499Y-95631947D01*
X126250000Y-95631947D01*
X126250000Y-95868052D01*
X126286934Y-96101247D01*
X126359897Y-96325802D01*
X126467087Y-96536174D01*
X126527338Y-96619104D01*
X126527340Y-96619105D01*
X127226212Y-95920233D01*
X127237482Y-95962292D01*
X127309890Y-96087708D01*
X127412292Y-96190110D01*
X127537708Y-96262518D01*
X127579765Y-96273787D01*
X126880893Y-96972658D01*
X126963828Y-97032914D01*
X127174197Y-97140102D01*
X127398752Y-97213065D01*
X127398751Y-97213065D01*
X127631948Y-97250000D01*
X127868052Y-97250000D01*
X128101247Y-97213065D01*
X128325802Y-97140102D01*
X128536163Y-97032918D01*
X128536169Y-97032914D01*
X128619104Y-96972658D01*
X128619105Y-96972658D01*
X127920233Y-96273787D01*
X127962292Y-96262518D01*
X128087708Y-96190110D01*
X128190110Y-96087708D01*
X128262518Y-95962292D01*
X128273787Y-95920234D01*
X128972658Y-96619105D01*
X128972658Y-96619104D01*
X129032914Y-96536169D01*
X129032918Y-96536163D01*
X129140102Y-96325802D01*
X129213065Y-96101247D01*
X129250000Y-95868052D01*
X129250000Y-95631947D01*
X132750000Y-95631947D01*
X132750000Y-95868052D01*
X132786934Y-96101247D01*
X132859897Y-96325802D01*
X132967087Y-96536174D01*
X133027338Y-96619104D01*
X133027340Y-96619105D01*
X133726212Y-95920233D01*
X133737482Y-95962292D01*
X133809890Y-96087708D01*
X133912292Y-96190110D01*
X134037708Y-96262518D01*
X134079765Y-96273787D01*
X133380893Y-96972658D01*
X133463828Y-97032914D01*
X133674197Y-97140102D01*
X133898752Y-97213065D01*
X133898751Y-97213065D01*
X134131948Y-97250000D01*
X134368052Y-97250000D01*
X134601247Y-97213065D01*
X134825802Y-97140102D01*
X135036163Y-97032918D01*
X135036169Y-97032914D01*
X135045096Y-97026428D01*
X139400000Y-97026428D01*
X139400000Y-97620000D01*
X140050000Y-97620000D01*
X140050000Y-98120000D01*
X139400000Y-98120000D01*
X139400000Y-98713571D01*
X139436506Y-98897097D01*
X139436508Y-98897105D01*
X139508119Y-99069991D01*
X139508124Y-99070000D01*
X139612086Y-99225589D01*
X139612089Y-99225593D01*
X139744406Y-99357910D01*
X139744410Y-99357913D01*
X139899999Y-99461875D01*
X139900012Y-99461882D01*
X140072889Y-99533489D01*
X140072896Y-99533491D01*
X140100000Y-99538882D01*
X140100000Y-98786988D01*
X140109940Y-98804205D01*
X140165795Y-98860060D01*
X140234204Y-98899556D01*
X140310504Y-98920000D01*
X140389496Y-98920000D01*
X140465796Y-98899556D01*
X140534205Y-98860060D01*
X140590060Y-98804205D01*
X140600000Y-98786988D01*
X140600000Y-99538881D01*
X140627103Y-99533491D01*
X140627110Y-99533489D01*
X140799989Y-99461881D01*
X140799990Y-99461880D01*
X140875497Y-99411428D01*
X140881033Y-99355218D01*
X140907193Y-99290430D01*
X140916755Y-99279690D01*
X141346445Y-98849999D01*
X140917939Y-98421493D01*
X140884454Y-98360170D01*
X140889438Y-98290478D01*
X140917939Y-98246131D01*
X140989070Y-98175000D01*
X140917938Y-98103868D01*
X140884454Y-98042545D01*
X140889438Y-97972853D01*
X140917939Y-97928506D01*
X141435542Y-97410904D01*
X141443487Y-97406565D01*
X141448913Y-97399318D01*
X141473672Y-97390083D01*
X141496865Y-97377419D01*
X141505894Y-97378064D01*
X141514377Y-97374901D01*
X141537275Y-97379881D01*
X141530448Y-97386709D01*
X141500000Y-97460218D01*
X141500000Y-97539782D01*
X141530448Y-97613291D01*
X141586709Y-97669552D01*
X141660218Y-97700000D01*
X141722619Y-97700000D01*
X141731412Y-97744204D01*
X141725185Y-97813796D01*
X141697476Y-97856076D01*
X141378553Y-98174999D01*
X141378553Y-98175000D01*
X141697476Y-98493922D01*
X141730961Y-98555245D01*
X141731412Y-98605794D01*
X141722619Y-98650000D01*
X141660218Y-98650000D01*
X141586709Y-98680448D01*
X141530448Y-98736709D01*
X141500000Y-98810218D01*
X141500000Y-98889782D01*
X141530448Y-98963291D01*
X141586709Y-99019552D01*
X141660218Y-99050000D01*
X141722619Y-99050000D01*
X141731412Y-99094204D01*
X141725185Y-99163796D01*
X141697476Y-99206076D01*
X141299437Y-99604114D01*
X141452063Y-99667334D01*
X141452071Y-99667336D01*
X141616277Y-99699999D01*
X141616280Y-99700000D01*
X141783720Y-99700000D01*
X141783722Y-99699999D01*
X141947928Y-99667336D01*
X141947932Y-99667335D01*
X142076892Y-99613918D01*
X142146362Y-99606449D01*
X142171795Y-99613916D01*
X142301918Y-99667816D01*
X142463714Y-99699999D01*
X142466228Y-99700499D01*
X142466232Y-99700500D01*
X142466233Y-99700500D01*
X142633768Y-99700500D01*
X142633769Y-99700499D01*
X142798082Y-99667816D01*
X142927548Y-99614188D01*
X142997016Y-99606720D01*
X143022450Y-99614188D01*
X143151918Y-99667816D01*
X143313714Y-99699999D01*
X143316228Y-99700499D01*
X143316232Y-99700500D01*
X143316233Y-99700500D01*
X143483768Y-99700500D01*
X143483769Y-99700499D01*
X143648082Y-99667816D01*
X143777548Y-99614188D01*
X143847016Y-99606720D01*
X143872450Y-99614188D01*
X144001918Y-99667816D01*
X144163714Y-99699999D01*
X144166228Y-99700499D01*
X144166232Y-99700500D01*
X144166233Y-99700500D01*
X144333768Y-99700500D01*
X144333769Y-99700499D01*
X144498082Y-99667816D01*
X144627548Y-99614188D01*
X144697016Y-99606720D01*
X144722450Y-99614188D01*
X144851918Y-99667816D01*
X145013714Y-99699999D01*
X145016228Y-99700499D01*
X145016232Y-99700500D01*
X145016233Y-99700500D01*
X145183768Y-99700500D01*
X145183769Y-99700499D01*
X145348082Y-99667816D01*
X145477548Y-99614188D01*
X145547016Y-99606720D01*
X145572450Y-99614188D01*
X145701918Y-99667816D01*
X145863714Y-99699999D01*
X145866228Y-99700499D01*
X145866232Y-99700500D01*
X145866233Y-99700500D01*
X146033768Y-99700500D01*
X146033769Y-99700499D01*
X146198082Y-99667816D01*
X146327548Y-99614188D01*
X146397016Y-99606720D01*
X146422450Y-99614188D01*
X146551918Y-99667816D01*
X146713714Y-99699999D01*
X146716228Y-99700499D01*
X146716232Y-99700500D01*
X146716233Y-99700500D01*
X146883768Y-99700500D01*
X146883769Y-99700499D01*
X147048082Y-99667816D01*
X147178203Y-99613917D01*
X147247667Y-99606449D01*
X147273105Y-99613918D01*
X147402063Y-99667334D01*
X147402071Y-99667336D01*
X147566277Y-99699999D01*
X147566280Y-99700000D01*
X147733720Y-99700000D01*
X147733722Y-99699999D01*
X147897928Y-99667336D01*
X147897936Y-99667334D01*
X148050561Y-99604114D01*
X147652523Y-99206077D01*
X147619038Y-99144754D01*
X147618587Y-99094205D01*
X147623402Y-99070000D01*
X147627380Y-99050000D01*
X147689782Y-99050000D01*
X147763291Y-99019552D01*
X147819552Y-98963291D01*
X147850000Y-98889782D01*
X147850000Y-98810218D01*
X147819552Y-98736709D01*
X147763291Y-98680448D01*
X147689782Y-98650000D01*
X147627380Y-98650000D01*
X147618587Y-98605794D01*
X147624814Y-98536204D01*
X147652523Y-98493923D01*
X147971446Y-98175000D01*
X147971446Y-98174999D01*
X147652523Y-97856076D01*
X147649922Y-97851313D01*
X147645398Y-97848318D01*
X147633356Y-97820975D01*
X147619038Y-97794753D01*
X147618843Y-97788020D01*
X147617238Y-97784375D01*
X147618043Y-97760380D01*
X147617717Y-97749084D01*
X147618100Y-97746652D01*
X147627380Y-97700000D01*
X147689782Y-97700000D01*
X147763291Y-97669552D01*
X147819552Y-97613291D01*
X147850000Y-97539782D01*
X147850000Y-97460218D01*
X147819552Y-97386709D01*
X147811020Y-97378177D01*
X147870108Y-97382403D01*
X147914457Y-97410904D01*
X148432060Y-97928506D01*
X148465545Y-97989829D01*
X148460561Y-98059520D01*
X148432061Y-98103868D01*
X148360929Y-98175000D01*
X148432060Y-98246131D01*
X148465545Y-98307454D01*
X148460561Y-98377146D01*
X148432060Y-98421493D01*
X148003553Y-98850000D01*
X148433243Y-99279690D01*
X148466728Y-99341013D01*
X148468965Y-99355217D01*
X148474501Y-99411427D01*
X148550005Y-99461878D01*
X148550012Y-99461882D01*
X148722889Y-99533489D01*
X148722896Y-99533491D01*
X148750000Y-99538882D01*
X148750000Y-98786988D01*
X148759940Y-98804205D01*
X148815795Y-98860060D01*
X148884204Y-98899556D01*
X148960504Y-98920000D01*
X149039496Y-98920000D01*
X149115796Y-98899556D01*
X149184205Y-98860060D01*
X149240060Y-98804205D01*
X149250000Y-98786988D01*
X149250000Y-99538881D01*
X149277103Y-99533491D01*
X149277110Y-99533489D01*
X149449987Y-99461882D01*
X149450000Y-99461875D01*
X149605589Y-99357913D01*
X149605593Y-99357910D01*
X149737910Y-99225593D01*
X149737913Y-99225589D01*
X149841875Y-99070000D01*
X149841880Y-99069991D01*
X149913491Y-98897105D01*
X149913493Y-98897097D01*
X149949999Y-98713571D01*
X149950000Y-98713569D01*
X149950000Y-98120000D01*
X149300000Y-98120000D01*
X149300000Y-97620000D01*
X149950000Y-97620000D01*
X149950000Y-97026430D01*
X149949999Y-97026428D01*
X149913493Y-96842902D01*
X149913491Y-96842894D01*
X149841880Y-96670008D01*
X149841875Y-96669999D01*
X149737913Y-96514410D01*
X149737910Y-96514406D01*
X149605593Y-96382089D01*
X149605589Y-96382086D01*
X149450000Y-96278124D01*
X149449991Y-96278119D01*
X149277103Y-96206507D01*
X149277100Y-96206506D01*
X149250000Y-96201115D01*
X149250000Y-96953011D01*
X149240060Y-96935795D01*
X149184205Y-96879940D01*
X149115796Y-96840444D01*
X149039496Y-96820000D01*
X148960504Y-96820000D01*
X148884204Y-96840444D01*
X148815795Y-96879940D01*
X148759940Y-96935795D01*
X148750000Y-96953011D01*
X148750000Y-96201116D01*
X148749999Y-96201115D01*
X148722899Y-96206506D01*
X148722896Y-96206507D01*
X148550008Y-96278119D01*
X148549999Y-96278124D01*
X148394410Y-96382086D01*
X148394406Y-96382089D01*
X148262089Y-96514406D01*
X148262086Y-96514410D01*
X148154736Y-96675071D01*
X148153636Y-96674336D01*
X148109427Y-96719337D01*
X148041288Y-96734794D01*
X148001586Y-96725597D01*
X147897940Y-96682666D01*
X147897928Y-96682663D01*
X147733721Y-96650000D01*
X147566279Y-96650000D01*
X147402071Y-96682663D01*
X147402063Y-96682665D01*
X147273107Y-96736081D01*
X147203637Y-96743550D01*
X147178201Y-96736081D01*
X147048082Y-96682184D01*
X147048074Y-96682182D01*
X146883771Y-96649500D01*
X146883767Y-96649500D01*
X146716233Y-96649500D01*
X146716228Y-96649500D01*
X146551925Y-96682182D01*
X146551913Y-96682185D01*
X146422452Y-96735810D01*
X146352983Y-96743279D01*
X146327548Y-96735810D01*
X146198086Y-96682185D01*
X146198074Y-96682182D01*
X146033771Y-96649500D01*
X146033767Y-96649500D01*
X145866233Y-96649500D01*
X145866228Y-96649500D01*
X145701925Y-96682182D01*
X145701913Y-96682185D01*
X145572452Y-96735810D01*
X145502983Y-96743279D01*
X145477548Y-96735810D01*
X145348086Y-96682185D01*
X145348074Y-96682182D01*
X145183771Y-96649500D01*
X145183767Y-96649500D01*
X145016233Y-96649500D01*
X145016228Y-96649500D01*
X144851925Y-96682182D01*
X144851913Y-96682185D01*
X144722452Y-96735810D01*
X144652983Y-96743279D01*
X144627548Y-96735810D01*
X144498086Y-96682185D01*
X144498074Y-96682182D01*
X144333771Y-96649500D01*
X144333767Y-96649500D01*
X144166233Y-96649500D01*
X144166228Y-96649500D01*
X144001925Y-96682182D01*
X144001913Y-96682185D01*
X143872452Y-96735810D01*
X143802983Y-96743279D01*
X143777548Y-96735810D01*
X143648086Y-96682185D01*
X143648074Y-96682182D01*
X143483771Y-96649500D01*
X143483767Y-96649500D01*
X143316233Y-96649500D01*
X143316228Y-96649500D01*
X143151925Y-96682182D01*
X143151913Y-96682185D01*
X143022452Y-96735810D01*
X142952983Y-96743279D01*
X142927548Y-96735810D01*
X142798086Y-96682185D01*
X142798074Y-96682182D01*
X142633771Y-96649500D01*
X142633767Y-96649500D01*
X142466233Y-96649500D01*
X142466228Y-96649500D01*
X142301925Y-96682182D01*
X142301917Y-96682184D01*
X142171799Y-96736081D01*
X142102329Y-96743550D01*
X142076893Y-96736081D01*
X141947936Y-96682665D01*
X141947928Y-96682663D01*
X141783721Y-96650000D01*
X141616279Y-96650000D01*
X141452071Y-96682663D01*
X141452059Y-96682666D01*
X141348413Y-96725598D01*
X141278944Y-96733067D01*
X141216465Y-96701792D01*
X141195685Y-96674789D01*
X141195264Y-96675071D01*
X141087913Y-96514410D01*
X141087910Y-96514406D01*
X140955593Y-96382089D01*
X140955589Y-96382086D01*
X140800000Y-96278124D01*
X140799991Y-96278119D01*
X140627103Y-96206507D01*
X140627100Y-96206506D01*
X140600000Y-96201115D01*
X140600000Y-96953011D01*
X140590060Y-96935795D01*
X140534205Y-96879940D01*
X140465796Y-96840444D01*
X140389496Y-96820000D01*
X140310504Y-96820000D01*
X140234204Y-96840444D01*
X140165795Y-96879940D01*
X140109940Y-96935795D01*
X140100000Y-96953011D01*
X140100000Y-96201116D01*
X140099999Y-96201115D01*
X140072899Y-96206506D01*
X140072896Y-96206507D01*
X139900008Y-96278119D01*
X139899999Y-96278124D01*
X139744410Y-96382086D01*
X139744406Y-96382089D01*
X139612089Y-96514406D01*
X139612086Y-96514410D01*
X139508124Y-96669999D01*
X139508119Y-96670008D01*
X139436508Y-96842894D01*
X139436506Y-96842902D01*
X139400000Y-97026428D01*
X135045096Y-97026428D01*
X135119104Y-96972658D01*
X135119105Y-96972658D01*
X134420233Y-96273787D01*
X134462292Y-96262518D01*
X134587708Y-96190110D01*
X134690110Y-96087708D01*
X134762518Y-95962292D01*
X134773787Y-95920234D01*
X135472658Y-96619105D01*
X135472658Y-96619104D01*
X135532914Y-96536169D01*
X135532918Y-96536163D01*
X135640102Y-96325802D01*
X135713065Y-96101247D01*
X135750000Y-95868052D01*
X135750000Y-95631947D01*
X135713065Y-95398752D01*
X135640102Y-95174197D01*
X135532914Y-94963828D01*
X135472658Y-94880894D01*
X135472658Y-94880893D01*
X134773787Y-95579765D01*
X134762518Y-95537708D01*
X134690110Y-95412292D01*
X134587708Y-95309890D01*
X134462292Y-95237482D01*
X134420234Y-95226212D01*
X135045489Y-94600957D01*
X135119105Y-94527340D01*
X135119104Y-94527338D01*
X135036174Y-94467087D01*
X134825802Y-94359897D01*
X134601247Y-94286934D01*
X134601248Y-94286934D01*
X134368052Y-94250000D01*
X134131948Y-94250000D01*
X133898752Y-94286934D01*
X133674197Y-94359897D01*
X133463830Y-94467084D01*
X133380894Y-94527340D01*
X134079766Y-95226212D01*
X134037708Y-95237482D01*
X133912292Y-95309890D01*
X133809890Y-95412292D01*
X133737482Y-95537708D01*
X133726212Y-95579766D01*
X133027340Y-94880894D01*
X132967084Y-94963830D01*
X132859897Y-95174197D01*
X132786934Y-95398752D01*
X132750000Y-95631947D01*
X129250000Y-95631947D01*
X129213065Y-95398752D01*
X129140102Y-95174197D01*
X129032914Y-94963828D01*
X128972658Y-94880894D01*
X128972658Y-94880893D01*
X128273787Y-95579765D01*
X128262518Y-95537708D01*
X128190110Y-95412292D01*
X128087708Y-95309890D01*
X127962292Y-95237482D01*
X127920234Y-95226212D01*
X128619105Y-94527340D01*
X128619104Y-94527339D01*
X128536174Y-94467087D01*
X128325802Y-94359897D01*
X128101247Y-94286934D01*
X128101248Y-94286934D01*
X127868052Y-94250000D01*
X127631948Y-94250000D01*
X127398752Y-94286934D01*
X127174197Y-94359897D01*
X126963830Y-94467084D01*
X126880894Y-94527340D01*
X127579766Y-95226212D01*
X127537708Y-95237482D01*
X127412292Y-95309890D01*
X127309890Y-95412292D01*
X127237482Y-95537708D01*
X127226212Y-95579766D01*
X126527340Y-94880894D01*
X126467084Y-94963830D01*
X126359897Y-95174197D01*
X126286934Y-95398752D01*
X126250000Y-95631947D01*
X122890499Y-95631947D01*
X122890499Y-94827128D01*
X122884091Y-94767517D01*
X122833796Y-94632669D01*
X122833792Y-94632664D01*
X122833792Y-94632663D01*
X122747547Y-94517455D01*
X122747544Y-94517452D01*
X122632335Y-94431206D01*
X122632328Y-94431202D01*
X122497482Y-94380908D01*
X122497483Y-94380908D01*
X122437883Y-94374501D01*
X122437881Y-94374500D01*
X122437873Y-94374500D01*
X122437864Y-94374500D01*
X120642129Y-94374500D01*
X120642123Y-94374501D01*
X120582516Y-94380908D01*
X120447671Y-94431202D01*
X120447664Y-94431206D01*
X120332455Y-94517452D01*
X120332452Y-94517455D01*
X120246206Y-94632664D01*
X120246202Y-94632671D01*
X120195908Y-94767517D01*
X120189501Y-94827116D01*
X120189501Y-94827123D01*
X120189500Y-94827135D01*
X120189500Y-94837690D01*
X120169815Y-94904729D01*
X120153181Y-94925371D01*
X119482962Y-95595590D01*
X119465925Y-95532007D01*
X119400099Y-95417993D01*
X119307007Y-95324901D01*
X119192993Y-95259075D01*
X119129409Y-95242037D01*
X119761716Y-94609728D01*
X119707550Y-94570375D01*
X119518217Y-94473904D01*
X119316129Y-94408242D01*
X119106246Y-94375000D01*
X118893754Y-94375000D01*
X118683872Y-94408242D01*
X118683869Y-94408242D01*
X118481782Y-94473904D01*
X118292439Y-94570380D01*
X118238282Y-94609727D01*
X118238282Y-94609728D01*
X118870591Y-95242037D01*
X118807007Y-95259075D01*
X118692993Y-95324901D01*
X118599901Y-95417993D01*
X118534075Y-95532007D01*
X118517037Y-95595591D01*
X117884728Y-94963282D01*
X117884727Y-94963282D01*
X117845380Y-95017440D01*
X117845376Y-95017446D01*
X117840760Y-95026505D01*
X117792781Y-95077297D01*
X117724959Y-95094087D01*
X117658826Y-95071543D01*
X117619794Y-95026493D01*
X117615051Y-95017184D01*
X117615049Y-95017181D01*
X117615048Y-95017179D01*
X117490109Y-94845213D01*
X117339786Y-94694890D01*
X117167820Y-94569951D01*
X116978414Y-94473444D01*
X116978413Y-94473443D01*
X116978412Y-94473443D01*
X116776243Y-94407754D01*
X116776241Y-94407753D01*
X116776240Y-94407753D01*
X116614957Y-94382208D01*
X116566287Y-94374500D01*
X116353713Y-94374500D01*
X116305042Y-94382208D01*
X116143760Y-94407753D01*
X115941585Y-94473444D01*
X115752179Y-94569951D01*
X115580213Y-94694890D01*
X115429890Y-94845213D01*
X115304951Y-95017179D01*
X115208444Y-95206585D01*
X115142753Y-95408760D01*
X115142194Y-95412292D01*
X115109500Y-95618713D01*
X101500500Y-95618713D01*
X101500500Y-95253480D01*
X101500695Y-95246528D01*
X101504757Y-95174197D01*
X101516958Y-94956934D01*
X101518512Y-94943135D01*
X101566514Y-94660617D01*
X101569608Y-94647065D01*
X101573755Y-94632673D01*
X101648939Y-94371701D01*
X101653531Y-94358580D01*
X101683208Y-94286934D01*
X101763194Y-94093828D01*
X101769213Y-94081329D01*
X101816137Y-93996428D01*
X139400000Y-93996428D01*
X139400000Y-94240000D01*
X140050000Y-94240000D01*
X140050000Y-94740000D01*
X139400000Y-94740000D01*
X139400000Y-94983571D01*
X139436506Y-95167097D01*
X139436508Y-95167105D01*
X139508119Y-95339991D01*
X139508124Y-95340000D01*
X139612086Y-95495589D01*
X139612089Y-95495593D01*
X139744406Y-95627910D01*
X139744410Y-95627913D01*
X139899999Y-95731875D01*
X139900012Y-95731882D01*
X140072889Y-95803489D01*
X140072896Y-95803491D01*
X140100000Y-95808882D01*
X140100000Y-95056988D01*
X140109940Y-95074205D01*
X140165795Y-95130060D01*
X140234204Y-95169556D01*
X140310504Y-95190000D01*
X140389496Y-95190000D01*
X140465796Y-95169556D01*
X140534205Y-95130060D01*
X140590060Y-95074205D01*
X140600000Y-95056988D01*
X140600000Y-95808881D01*
X140627103Y-95803491D01*
X140627110Y-95803489D01*
X140799987Y-95731882D01*
X140800000Y-95731875D01*
X140955589Y-95627913D01*
X140955593Y-95627910D01*
X141087910Y-95495593D01*
X141087913Y-95495589D01*
X141191875Y-95340000D01*
X141191880Y-95339991D01*
X141263491Y-95167105D01*
X141263493Y-95167097D01*
X141299999Y-94983571D01*
X141300000Y-94983569D01*
X141300000Y-94740000D01*
X140650000Y-94740000D01*
X140650000Y-94240000D01*
X141300000Y-94240000D01*
X141300000Y-93996430D01*
X141299999Y-93996428D01*
X148050000Y-93996428D01*
X148050000Y-94240000D01*
X148700000Y-94240000D01*
X148700000Y-94740000D01*
X148050000Y-94740000D01*
X148050000Y-94983571D01*
X148086506Y-95167097D01*
X148086508Y-95167105D01*
X148158119Y-95339991D01*
X148158124Y-95340000D01*
X148262086Y-95495589D01*
X148262089Y-95495593D01*
X148394406Y-95627910D01*
X148394410Y-95627913D01*
X148549999Y-95731875D01*
X148550012Y-95731882D01*
X148722889Y-95803489D01*
X148722896Y-95803491D01*
X148750000Y-95808882D01*
X148750000Y-95056988D01*
X148759940Y-95074205D01*
X148815795Y-95130060D01*
X148884204Y-95169556D01*
X148960504Y-95190000D01*
X149039496Y-95190000D01*
X149115796Y-95169556D01*
X149184205Y-95130060D01*
X149240060Y-95074205D01*
X149250000Y-95056988D01*
X149250000Y-95808881D01*
X149277103Y-95803491D01*
X149277110Y-95803489D01*
X149449987Y-95731882D01*
X149450000Y-95731875D01*
X149605589Y-95627913D01*
X149605593Y-95627910D01*
X149737910Y-95495593D01*
X149737913Y-95495589D01*
X149841875Y-95340000D01*
X149841880Y-95339991D01*
X149913491Y-95167105D01*
X149913493Y-95167097D01*
X149949999Y-94983571D01*
X149950000Y-94983569D01*
X149950000Y-94740000D01*
X149300000Y-94740000D01*
X149300000Y-94240000D01*
X149950000Y-94240000D01*
X149950000Y-93996430D01*
X149949999Y-93996428D01*
X149913493Y-93812902D01*
X149913491Y-93812894D01*
X149841880Y-93640008D01*
X149841875Y-93639999D01*
X149737913Y-93484410D01*
X149737910Y-93484406D01*
X149605593Y-93352089D01*
X149605589Y-93352086D01*
X149450000Y-93248124D01*
X149449991Y-93248119D01*
X149277103Y-93176507D01*
X149277100Y-93176506D01*
X149250000Y-93171115D01*
X149250000Y-93923011D01*
X149240060Y-93905795D01*
X149184205Y-93849940D01*
X149115796Y-93810444D01*
X149039496Y-93790000D01*
X148960504Y-93790000D01*
X148884204Y-93810444D01*
X148815795Y-93849940D01*
X148759940Y-93905795D01*
X148750000Y-93923011D01*
X148750000Y-93171116D01*
X148749999Y-93171115D01*
X148722899Y-93176506D01*
X148722896Y-93176507D01*
X148550008Y-93248119D01*
X148549999Y-93248124D01*
X148394410Y-93352086D01*
X148394406Y-93352089D01*
X148262089Y-93484406D01*
X148262086Y-93484410D01*
X148158124Y-93639999D01*
X148158119Y-93640008D01*
X148086508Y-93812894D01*
X148086506Y-93812902D01*
X148050000Y-93996428D01*
X141299999Y-93996428D01*
X141263493Y-93812902D01*
X141263491Y-93812894D01*
X141191880Y-93640008D01*
X141191875Y-93639999D01*
X141087913Y-93484410D01*
X141087910Y-93484406D01*
X140955593Y-93352089D01*
X140955589Y-93352086D01*
X140800000Y-93248124D01*
X140799991Y-93248119D01*
X140627103Y-93176507D01*
X140627100Y-93176506D01*
X140600000Y-93171115D01*
X140600000Y-93923011D01*
X140590060Y-93905795D01*
X140534205Y-93849940D01*
X140465796Y-93810444D01*
X140389496Y-93790000D01*
X140310504Y-93790000D01*
X140234204Y-93810444D01*
X140165795Y-93849940D01*
X140109940Y-93905795D01*
X140100000Y-93923011D01*
X140100000Y-93171116D01*
X140099999Y-93171115D01*
X140072899Y-93176506D01*
X140072896Y-93176507D01*
X139900008Y-93248119D01*
X139899999Y-93248124D01*
X139744410Y-93352086D01*
X139744406Y-93352089D01*
X139612089Y-93484406D01*
X139612086Y-93484410D01*
X139508124Y-93639999D01*
X139508119Y-93640008D01*
X139436508Y-93812894D01*
X139436506Y-93812902D01*
X139400000Y-93996428D01*
X101816137Y-93996428D01*
X101907835Y-93830514D01*
X101915232Y-93818741D01*
X101935625Y-93790000D01*
X102081059Y-93585029D01*
X102089715Y-93574175D01*
X102280677Y-93360487D01*
X102290487Y-93350677D01*
X102504175Y-93159715D01*
X102515029Y-93151059D01*
X102748746Y-92985228D01*
X102760509Y-92977837D01*
X103011329Y-92839213D01*
X103023828Y-92833194D01*
X103288584Y-92723529D01*
X103301701Y-92718939D01*
X103577070Y-92639606D01*
X103590617Y-92636514D01*
X103873135Y-92588512D01*
X103886934Y-92586958D01*
X104140917Y-92572694D01*
X104176529Y-92570695D01*
X104183481Y-92570500D01*
X104245892Y-92570500D01*
X183354108Y-92570500D01*
X183416519Y-92570500D01*
X183423471Y-92570695D01*
G37*
%TD.AperFunction*%
%TD*%
M02*
