%TF.GenerationSoftware,KiCad,Pcbnew,9.0.8*%
%TF.CreationDate,2026-03-21T14:42:46+02:00*%
%TF.ProjectId,sound_spectrum_v1,736f756e-645f-4737-9065-637472756d5f,rev?*%
%TF.SameCoordinates,Original*%
%TF.FileFunction,Soldermask,Top*%
%TF.FilePolarity,Negative*%
%FSLAX46Y46*%
G04 Gerber Fmt 4.6, Leading zero omitted, Abs format (unit mm)*
G04 Created by KiCad (PCBNEW 9.0.8) date 2026-03-21 14:42:46*
%MOMM*%
%LPD*%
G01*
G04 APERTURE LIST*
G04 Aperture macros list*
%AMRoundRect*
0 Rectangle with rounded corners*
0 $1 Rounding radius*
0 $2 $3 $4 $5 $6 $7 $8 $9 X,Y pos of 4 corners*
0 Add a 4 corners polygon primitive as box body*
4,1,4,$2,$3,$4,$5,$6,$7,$8,$9,$2,$3,0*
0 Add four circle primitives for the rounded corners*
1,1,$1+$1,$2,$3*
1,1,$1+$1,$4,$5*
1,1,$1+$1,$6,$7*
1,1,$1+$1,$8,$9*
0 Add four rect primitives between the rounded corners*
20,1,$1+$1,$2,$3,$4,$5,0*
20,1,$1+$1,$4,$5,$6,$7,0*
20,1,$1+$1,$6,$7,$8,$9,0*
20,1,$1+$1,$8,$9,$2,$3,0*%
G04 Aperture macros list end*
%ADD10RoundRect,0.250000X0.450000X-0.350000X0.450000X0.350000X-0.450000X0.350000X-0.450000X-0.350000X0*%
%ADD11RoundRect,0.250000X0.450000X-0.325000X0.450000X0.325000X-0.450000X0.325000X-0.450000X-0.325000X0*%
%ADD12RoundRect,0.250000X0.337500X0.475000X-0.337500X0.475000X-0.337500X-0.475000X0.337500X-0.475000X0*%
%ADD13RoundRect,0.250000X-0.337500X-0.475000X0.337500X-0.475000X0.337500X0.475000X-0.337500X0.475000X0*%
%ADD14C,3.200000*%
%ADD15RoundRect,0.250000X0.475000X-0.337500X0.475000X0.337500X-0.475000X0.337500X-0.475000X-0.337500X0*%
%ADD16RoundRect,0.150000X-0.150000X0.512500X-0.150000X-0.512500X0.150000X-0.512500X0.150000X0.512500X0*%
%ADD17RoundRect,0.250000X-0.450000X0.325000X-0.450000X-0.325000X0.450000X-0.325000X0.450000X0.325000X0*%
%ADD18R,0.600000X0.400000*%
%ADD19C,1.650000*%
%ADD20RoundRect,0.075000X0.075000X-0.662500X0.075000X0.662500X-0.075000X0.662500X-0.075000X-0.662500X0*%
%ADD21RoundRect,0.075000X0.662500X-0.075000X0.662500X0.075000X-0.662500X0.075000X-0.662500X-0.075000X0*%
%ADD22RoundRect,0.250000X-0.475000X0.337500X-0.475000X-0.337500X0.475000X-0.337500X0.475000X0.337500X0*%
%ADD23RoundRect,0.250000X-0.275000X-0.350000X0.275000X-0.350000X0.275000X0.350000X-0.275000X0.350000X0*%
%ADD24R,1.700000X1.700000*%
%ADD25C,1.700000*%
%ADD26C,2.000000*%
%ADD27R,1.500000X1.000000*%
%ADD28RoundRect,0.250000X-0.450000X0.350000X-0.450000X-0.350000X0.450000X-0.350000X0.450000X0.350000X0*%
%ADD29C,0.650000*%
%ADD30RoundRect,0.150000X0.150000X0.425000X-0.150000X0.425000X-0.150000X-0.425000X0.150000X-0.425000X0*%
%ADD31RoundRect,0.075000X0.075000X0.500000X-0.075000X0.500000X-0.075000X-0.500000X0.075000X-0.500000X0*%
%ADD32O,1.000000X2.100000*%
%ADD33O,1.000000X1.800000*%
%ADD34RoundRect,0.150000X0.150000X-0.512500X0.150000X0.512500X-0.150000X0.512500X-0.150000X-0.512500X0*%
%ADD35R,1.800000X1.400000*%
G04 APERTURE END LIST*
%TO.C,JP1*%
G36*
X136250000Y-118800000D02*
G01*
X137750000Y-118800000D01*
X137750000Y-117200000D01*
X136250000Y-117200000D01*
X136250000Y-118800000D01*
G37*
%TD*%
D10*
%TO.C,R2*%
X165495000Y-98545000D03*
X165495000Y-96545000D03*
%TD*%
D11*
%TO.C,D1*%
X162500000Y-98525000D03*
X162500000Y-96475000D03*
%TD*%
D12*
%TO.C,C16*%
X145787500Y-123500000D03*
X143712500Y-123500000D03*
%TD*%
D13*
%TO.C,C15*%
X147962500Y-123500000D03*
X150037500Y-123500000D03*
%TD*%
D14*
%TO.C,H4*%
X106000000Y-141050000D03*
%TD*%
D15*
%TO.C,C14*%
X112250000Y-98037500D03*
X112250000Y-95962500D03*
%TD*%
D10*
%TO.C,R5*%
X134250000Y-119000000D03*
X134250000Y-117000000D03*
%TD*%
D14*
%TO.C,H2*%
X106000000Y-97070000D03*
%TD*%
D13*
%TO.C,C1*%
X151962500Y-119000000D03*
X154037500Y-119000000D03*
%TD*%
D10*
%TO.C,R1*%
X151000000Y-103500000D03*
X151000000Y-101500000D03*
%TD*%
D16*
%TO.C,U2*%
X154650000Y-104000000D03*
X153700000Y-104000000D03*
X152750000Y-104000000D03*
X152750000Y-106275000D03*
X154650000Y-106275000D03*
%TD*%
D17*
%TO.C,D2*%
X153500000Y-96475000D03*
X153500000Y-98525000D03*
%TD*%
D18*
%TO.C,IC1-L1*%
X166675000Y-141625000D03*
X166675000Y-140975000D03*
X166675000Y-140325000D03*
D19*
X165600000Y-139050000D03*
D18*
X164525000Y-140325000D03*
X164525000Y-140975000D03*
X164525000Y-141625000D03*
%TD*%
D13*
%TO.C,C12*%
X169062500Y-141050000D03*
X171137500Y-141050000D03*
%TD*%
D10*
%TO.C,R6*%
X132000000Y-119000000D03*
X132000000Y-117000000D03*
%TD*%
D15*
%TO.C,C8*%
X149500000Y-110787500D03*
X149500000Y-108712500D03*
%TD*%
D20*
%TO.C,U1*%
X142250000Y-121162500D03*
X142750000Y-121162500D03*
X143250000Y-121162500D03*
X143750000Y-121162500D03*
X144250000Y-121162500D03*
X144750000Y-121162500D03*
X145250000Y-121162500D03*
X145750000Y-121162500D03*
X146250000Y-121162500D03*
X146750000Y-121162500D03*
X147250000Y-121162500D03*
X147750000Y-121162500D03*
D21*
X149162500Y-119750000D03*
X149162500Y-119250000D03*
X149162500Y-118750000D03*
X149162500Y-118250000D03*
X149162500Y-117750000D03*
X149162500Y-117250000D03*
X149162500Y-116750000D03*
X149162500Y-116250000D03*
X149162500Y-115750000D03*
X149162500Y-115250000D03*
X149162500Y-114750000D03*
X149162500Y-114250000D03*
D20*
X147750000Y-112837500D03*
X147250000Y-112837500D03*
X146750000Y-112837500D03*
X146250000Y-112837500D03*
X145750000Y-112837500D03*
X145250000Y-112837500D03*
X144750000Y-112837500D03*
X144250000Y-112837500D03*
X143750000Y-112837500D03*
X143250000Y-112837500D03*
X142750000Y-112837500D03*
X142250000Y-112837500D03*
D21*
X140837500Y-114250000D03*
X140837500Y-114750000D03*
X140837500Y-115250000D03*
X140837500Y-115750000D03*
X140837500Y-116250000D03*
X140837500Y-116750000D03*
X140837500Y-117250000D03*
X140837500Y-117750000D03*
X140837500Y-118250000D03*
X140837500Y-118750000D03*
X140837500Y-119250000D03*
X140837500Y-119750000D03*
%TD*%
D13*
%TO.C,C10*%
X156712500Y-106500000D03*
X158787500Y-106500000D03*
%TD*%
D22*
%TO.C,C7*%
X141250000Y-123212500D03*
X141250000Y-125287500D03*
%TD*%
D13*
%TO.C,C13*%
X124462500Y-140800000D03*
X126537500Y-140800000D03*
%TD*%
D18*
%TO.C,IC2-R1*%
X122075000Y-141625000D03*
X122075000Y-140975000D03*
X122075000Y-140325000D03*
D19*
X121000000Y-139050000D03*
D18*
X119925000Y-140325000D03*
X119925000Y-140975000D03*
X119925000Y-141625000D03*
%TD*%
D23*
%TO.C,FB1*%
X151850000Y-111000000D03*
X154150000Y-111000000D03*
%TD*%
D13*
%TO.C,C4*%
X151962500Y-113000000D03*
X154037500Y-113000000D03*
%TD*%
D14*
%TO.C,H1*%
X181600000Y-97070000D03*
%TD*%
D13*
%TO.C,C9*%
X156712500Y-108750000D03*
X158787500Y-108750000D03*
%TD*%
%TO.C,C11*%
X155162500Y-101637500D03*
X157237500Y-101637500D03*
%TD*%
%TO.C,C2*%
X151962500Y-117000000D03*
X154037500Y-117000000D03*
%TD*%
D24*
%TO.C,J2*%
X107000000Y-106130000D03*
D25*
X109540000Y-106130000D03*
X107000000Y-108670000D03*
X109540000Y-108670000D03*
X107000000Y-111210000D03*
X109540000Y-111210000D03*
X107000000Y-113750000D03*
X109540000Y-113750000D03*
X107000000Y-116290000D03*
X109540000Y-116290000D03*
X107000000Y-118830000D03*
X109540000Y-118830000D03*
X107000000Y-121370000D03*
X109540000Y-121370000D03*
X107000000Y-123910000D03*
X109540000Y-123910000D03*
X107000000Y-126450000D03*
X109540000Y-126450000D03*
X107000000Y-128990000D03*
X109540000Y-128990000D03*
%TD*%
D26*
%TO.C,SW2*%
X127750000Y-95750000D03*
X134250000Y-95750000D03*
X127750000Y-100250000D03*
X134250000Y-100250000D03*
%TD*%
D27*
%TO.C,JP1*%
X137000000Y-119300000D03*
X137000000Y-118000000D03*
X137000000Y-116700000D03*
%TD*%
D28*
%TO.C,R3*%
X148500000Y-101500000D03*
X148500000Y-103500000D03*
%TD*%
D14*
%TO.C,H3*%
X181600000Y-141050000D03*
%TD*%
D12*
%TO.C,C5*%
X139000000Y-122000000D03*
X136925000Y-122000000D03*
%TD*%
D13*
%TO.C,C3*%
X151962500Y-115000000D03*
X154037500Y-115000000D03*
%TD*%
D29*
%TO.C,P1*%
X147540000Y-98005000D03*
X141760000Y-98005000D03*
D30*
X147850000Y-99080000D03*
X147050000Y-99080000D03*
D31*
X145900000Y-99080000D03*
X144900000Y-99080000D03*
X144400000Y-99080000D03*
X143400000Y-99080000D03*
D30*
X142250000Y-99080000D03*
X141450000Y-99080000D03*
X141450000Y-99080000D03*
X142250000Y-99080000D03*
D31*
X142900000Y-99080000D03*
X143900000Y-99080000D03*
X145400000Y-99080000D03*
X146400000Y-99080000D03*
D30*
X147050000Y-99080000D03*
X147850000Y-99080000D03*
D32*
X148970000Y-98505000D03*
D33*
X148970000Y-94325000D03*
D32*
X140330000Y-98505000D03*
D33*
X140330000Y-94325000D03*
%TD*%
D24*
%TO.C,J1*%
X121540000Y-95725000D03*
D25*
X121540000Y-98265000D03*
X119000000Y-95725000D03*
X119000000Y-98265000D03*
X116460000Y-95725000D03*
X116460000Y-98265000D03*
%TD*%
D34*
%TO.C,U3*%
X143037500Y-104237500D03*
X143987500Y-104237500D03*
X144937500Y-104237500D03*
X144937500Y-101962500D03*
X143987500Y-101962500D03*
X143037500Y-101962500D03*
%TD*%
D15*
%TO.C,C6*%
X140500000Y-111037500D03*
X140500000Y-108962500D03*
%TD*%
D10*
%TO.C,R4*%
X156250000Y-98500000D03*
X156250000Y-96500000D03*
%TD*%
D35*
%TO.C,Y1*%
X148950000Y-125550000D03*
X144550000Y-125550000D03*
X144550000Y-127950000D03*
X148950000Y-127950000D03*
%TD*%
M02*
